<?xml version="1.0" standalone="no"?>
<!DOCTYPE svg PUBLIC "-//W3C//DTD SVG 1.1//EN" "http://www.w3.org/Graphics/SVG/1.1/DTD/svg11.dtd" >
<svg xmlns="http://www.w3.org/2000/svg">
<metadata>
Created by FontPrep 20130207 at Tue Mar 13 16:42:00 2018
 By Sergei Fink
Copyright (c) 2011 by Ian Party, distributed by B&#38;P Foundry Srl, Switzerland, d/b/a b+p swiss typefaces: http://www.swisstypefaces.com. All rights reserved.
</metadata>
<defs>
<font id="8d6663764c6a20f14fd36f8dbb52632f" horiz-adv-x='1024' >
  <font-face 
    font-family="SuisseBPIntl-Medium"
    font-weight="500"
    font-stretch="normal"
    units-per-em="2048"
    panose-1="0 0 0 0 0 0 0 0 0 0"
    ascent="1536"
    descent="-512"
    x-height="1004"
    cap-height="1360"
    bbox="-455 -457 2427 1890"
    underline-thickness="102"
    underline-position="-102"
    unicode-range="U+0020-FB06"
  />
<missing-glyph horiz-adv-x="0" 
 />
    <glyph glyph-name="f_f" unicode="ff" horiz-adv-x="1228" 
d="M772 1004v63q0 174 73 233t265 60h90v-184h-65q-84 0 -110 -24t-26 -103v-45h201v-175h-201v-829h-227v829h-143v175h143zM158 1004v63q0 174 72 233q73 59 266 60h90v-184h-66q-84 0 -110 -24t-25 -103v-45h201v-175h-201v-829h-227v829h-144v175h144z" />
    <glyph glyph-name="fi" unicode="fi" horiz-adv-x="1093" 
d="M158 1004v63q0 174 72 233q73 59 266 60h90v-184h-66q-84 0 -110 -24t-25 -103v-45h201v-175h-201v-829h-227v829h-144v175h144zM741 1360h228v-230h-228v230zM741 1004h228v-1004h-228v1004z" />
    <glyph glyph-name="fl" unicode="fl" horiz-adv-x="1093" 
d="M158 1004v63q0 174 72 233q73 59 266 60h90v-184h-66q-84 0 -110 -24t-25 -103v-45h201v-175h-201v-829h-227v829h-144v175h144zM969 1360v-1360h-228v1360h228z" />
    <glyph glyph-name="f_f_i" unicode="ffi" horiz-adv-x="1708" 
d="M772 1004v63q0 174 73 233t265 60h90v-184h-65q-84 0 -110 -24t-26 -103v-45h201v-175h-201v-829h-227v829h-143v175h143zM158 1004v63q0 174 72 233q73 59 266 60h90v-184h-66q-84 0 -110 -24t-25 -103v-45h201v-175h-201v-829h-227v829h-144v175h144zM1356 1360h227
v-230h-227v230zM1356 1004h227v-1004h-227v1004z" />
    <glyph glyph-name="f_f_l" unicode="ffl" horiz-adv-x="1708" 
d="M772 1004v63q0 174 73 233t265 60h90v-184h-65q-84 0 -110 -24t-26 -103v-45h201v-175h-201v-829h-227v829h-143v175h143zM158 1004v63q0 174 72 233q73 59 266 60h90v-184h-66q-84 0 -110 -24t-25 -103v-45h201v-175h-201v-829h-227v829h-144v175h144zM1583 1360v-1360
h-227v1360h227z" />
    <glyph glyph-name="s_t" unicode="st" horiz-adv-x="1648" 
d="M1161 1004v290h228v-290h204v-175h-204v-520q1 -77 25 -103t95 -26h82v-180h-166q-162 0 -213 54t-51 214v561h-151v175h151zM490 852q-87 0 -141 -28t-54 -76q0 -84 156 -119l118 -25q187 -41 283 -103t96 -206t-126 -232t-316 -88q-190 -1 -312 95t-139 237l221 33
q14 -86 76 -139t162 -53t156 32q55 33 55 91t-49 87t-144 50l-133 28q-151 31 -235 99q-84 69 -84 199t121 210t292 80t293 -79t150 -222l-213 -29q-16 74 -81 116t-152 42z" />
    <glyph glyph-name="f_b" unicode="fb" horiz-adv-x="1751" 
d="M158 1004v63q0 174 72 233q73 59 266 60h90v-184h-66q-84 0 -110 -24t-25 -103v-45h201v-175h-201v-829h-227v829h-144v175h144zM1215 842q-117 0 -187 -90t-70 -253t70 -252t186 -89t181 92q63 92 63 250t-63 250q-64 92 -180 92zM741 0v1360h228v-475q99 139 291 139
t312 -141t120 -382t-126 -383t-314 -142t-287 126l-4 -102h-220z" />
    <glyph glyph-name="f_h" unicode="fh" horiz-adv-x="1734" 
d="M158 1004v63q0 174 72 233q73 59 266 60h90v-184h-66q-84 0 -110 -24t-25 -103v-45h201v-175h-201v-829h-227v829h-144v175h144zM1399 0v563q1 170 -51 221t-142 52q-238 0 -237 -316v-520h-228v1360h228v-481q92 145 298 145t294 -125q66 -96 65 -278v-621h-227z" />
    <glyph glyph-name="f_k" unicode="fk" horiz-adv-x="1632" 
d="M158 1004v63q0 174 72 233q73 59 266 60h90v-184h-66q-84 0 -110 -24t-25 -103v-45h201v-175h-201v-829h-227v829h-144v175h144zM741 1360h228v-752l379 396h270l-361 -375l388 -629h-263l-282 465l-131 -137v-328h-228v1360z" />
    <glyph glyph-name="f_j" unicode="fj" horiz-adv-x="1095" 
d="M158 1004v63q0 174 72 233q73 59 266 60h90v-184h-66q-84 0 -110 -24t-25 -103v-45h201v-175h-201v-829h-227v829h-144v175h144zM741 1360h228v-230h-228v230zM741 -35v1039h228v-1039q-1 -193 -61 -256t-236 -63h-76v186h41q70 0 87 24t17 109z" />
    <glyph glyph-name="f_t" unicode="ft" horiz-adv-x="1261" 
d="M158 1004v63q0 174 72 233q73 59 266 60h90v-184h-66q-84 0 -110 -24t-25 -103v-45h201v-175h-201v-829h-227v829h-144v175h144zM774 1004v290h227v-290h205v-175h-205v-520q0 -77 25 -103t96 -26h82v-180h-166q-162 0 -213 54t-51 214v561h-151v175h151z" />
    <glyph glyph-name="f_f_j" unicode="ffj" horiz-adv-x="1710" 
d="M772 1004v63q0 174 73 233t265 60h90v-184h-65q-84 0 -110 -24t-26 -103v-45h201v-175h-201v-829h-227v829h-143v175h143zM158 1004v63q0 174 72 233q73 59 266 60h90v-184h-66q-84 0 -110 -24t-25 -103v-45h201v-175h-201v-829h-227v829h-144v175h144zM1356 1360h227
v-230h-227v230zM1356 -35v1039h227v-1039q0 -193 -60 -256t-237 -63h-76v186h41q69 0 87 24t18 109z" />
    <glyph glyph-name="f_f_k" unicode="ffk" horiz-adv-x="2248" 
d="M772 1004v63q0 174 73 233t265 60h90v-184h-65q-84 0 -110 -24t-26 -103v-45h201v-175h-201v-829h-227v829h-143v175h143zM158 1004v63q0 174 72 233q73 59 266 60h90v-184h-66q-84 0 -110 -24t-25 -103v-45h201v-175h-201v-829h-227v829h-144v175h144zM1356 1360h227
v-752l379 396h270l-360 -375l387 -629h-262l-283 465l-131 -137v-328h-227v1360z" />
    <glyph glyph-name="f_f_t" unicode="fft" horiz-adv-x="1875" 
d="M772 1004v63q0 174 73 233t265 60h90v-184h-65q-84 0 -110 -24t-26 -103v-45h201v-175h-201v-829h-227v829h-143v175h143zM158 1004v63q0 174 72 233q73 59 266 60h90v-184h-66q-84 0 -110 -24t-25 -103v-45h201v-175h-201v-829h-227v829h-144v175h144zM1389 1004v290
h227v-290h205v-175h-205v-520q0 -77 24 -103t97 -26h82v-180h-166q-162 0 -213 54t-51 214v561h-152v175h152z" />
    <glyph glyph-name="f_f_b" unicode="ffb" horiz-adv-x="2365" 
d="M772 1004v63q0 174 73 233t265 60h90v-184h-65q-84 0 -110 -24t-26 -103v-45h201v-175h-201v-829h-227v829h-143v175h143zM158 1004v63q0 174 72 233q73 59 266 60h90v-184h-66q-84 0 -110 -24t-25 -103v-45h201v-175h-201v-829h-227v829h-144v175h144zM1830 842
q-116 0 -186 -90t-71 -253t69 -252t187 -89t180 92t64 250t-63 250t-180 92zM1356 0v1360h227v-475q99 139 291 139t312 -141t120 -382t-126 -383t-314 -142t-287 126l-4 -102h-219z" />
    <glyph glyph-name="f_f_h" unicode="ffh" horiz-adv-x="2349" 
d="M772 1004v63q0 174 73 233t265 60h90v-184h-65q-84 0 -110 -24t-26 -103v-45h201v-175h-201v-829h-227v829h-143v175h143zM158 1004v63q0 174 72 233q73 59 266 60h90v-184h-66q-84 0 -110 -24t-25 -103v-45h201v-175h-201v-829h-227v829h-144v175h144zM2013 0v563
q0 170 -51 221t-141 52q-238 0 -238 -316v-520h-227v1360h227v-481q92 145 298 145t294 -125q66 -96 66 -278v-621h-228z" />
    <glyph glyph-name="s_p" unicode="sp" horiz-adv-x="2138" 
d="M490 852q-87 0 -141 -28t-54 -76q0 -84 156 -119l118 -25q187 -41 283 -103t96 -206t-126 -232t-316 -88q-190 -1 -312 95t-139 237l221 33q14 -86 76 -139t162 -53t156 32q55 33 55 91t-49 87t-144 50l-133 28q-151 31 -235 99q-84 69 -84 199t121 210t292 80t293 -79
t150 -222l-213 -29q-16 74 -81 116t-152 42zM1603 842q-116 0 -187 -90q-70 -90 -70 -253t70 -252t186 -89q117 0 180 92t63 250t-63 250t-179 92zM1356 -354h-228v1358h220l2 -123q100 143 294 143t315 -141q120 -141 120 -382t-126 -383q-127 -142 -313 -142t-284 126
v-456z" />
    <glyph glyph-name="c_t" unicode="ct" horiz-adv-x="1708" 
d="M1219 1004v290h227v-290h205v-175h-205v-520q0 -77 24 -103t97 -26h82v-180h-166q-162 0 -213 54t-51 214v561h-152v175h152zM557 1024q172 0 295 -93t156 -251l-220 -31q-16 86 -77 139q-61 54 -168 54t-179 -88t-71 -253q0 -165 72 -254t175 -89q215 0 255 194l221 -28
q-37 -164 -166 -256t-303 -93q-227 -1 -357 145t-131 380t133 378q134 146 365 146z" />
    <glyph glyph-name="t_t" unicode="tt" horiz-adv-x="1296" 
d="M807 1004v290h227v-290h205v-175h-205v-520q0 -77 25 -103t96 -26h82v-180h-166q-162 0 -213 54t-51 214v561h-152v175h152zM160 1004v290h227v-290h205v-175h-205v-520q0 -77 25 -103t96 -26h82v-180h-166q-162 0 -213 54t-51 214v561h-152v175h152z" />
    <glyph glyph-name="t_f" unicode="tf" horiz-adv-x="1261" 
d="M805 1004v63q0 174 73 233t265 60h90v-184h-66q-83 0 -109 -24t-26 -103v-45h201v-175h-201v-829h-227v829h-143v175h143zM160 1004v290h227v-290h205v-175h-205v-520q0 -77 25 -103t96 -26h82v-180h-166q-162 0 -213 54t-51 214v561h-152v175h152z" />
    <glyph glyph-name=".notdef" horiz-adv-x="0" 
 />
    <glyph glyph-name=".null" horiz-adv-x="0" 
 />
    <glyph glyph-name="nonmarkingreturn" horiz-adv-x="681" 
 />
    <glyph glyph-name="space" unicode=" " horiz-adv-x="438" 
 />
    <glyph glyph-name="exclam" unicode="!" horiz-adv-x="503" 
d="M381 0h-258v248h258v-248zM135 1360h230v-359l-39 -595h-148l-43 595v359z" />
    <glyph glyph-name="quotedbl" unicode="&#x22;" horiz-adv-x="626" 
d="M344 1360h244l-39 -490h-166zM35 1360h246l-39 -490h-168z" />
    <glyph glyph-name="numbersign" unicode="#" horiz-adv-x="1335" 
d="M555 848l-41 -295h270l41 295h-270zM115 1026h266l47 330h199l-47 -330h270l47 330h199l-47 -330h260l-23 -178h-262l-41 -295h258l-20 -176h-263l-53 -377h-198l53 377h-271l-53 -377h-198l53 377h-264l22 176h266l41 295h-262z" />
    <glyph glyph-name="dollar" unicode="$" horiz-adv-x="1161" 
d="M311 1020q0 -145 199 -199l12 -4v385q-88 -2 -150 -48t-61 -134zM874 359q0 95 -59 141t-186 82v-426q106 4 176 56q69 52 69 147zM522 1542h107v-160q201 -16 321 -137t119 -305l-225 -2q-2 120 -62 184t-153 78v-407l20 -5q176 -47 296 -120q149 -92 149 -279
t-133 -293t-332 -119v-159h-107v159q-207 17 -333 145t-123 322h225q-1 -130 65 -202t166 -84v448l-61 17q-369 92 -369 389q0 166 127 261t303 109v160z" />
    <glyph glyph-name="percent" unicode="%" horiz-adv-x="1740" 
d="M1376 113q152 0 152 275t-152 276q-152 0 -152 -276t152 -275zM1698 389q0 -187 -83 -295t-240 -108t-239 108t-81 295q0 189 82 295q83 106 239 106t239 -107q83 -108 83 -294zM514 0h-240l953 1360h239zM365 696q151 0 151 276t-152 275q-152 1 -151 -275
q0 -276 152 -276zM686 973q0 -186 -82 -295t-240 -109q-157 0 -239 108t-82 296q0 189 82 295t239 106q158 0 240 -108t82 -293z" />
    <glyph glyph-name="ampersand" unicode="&#x26;" horiz-adv-x="1325" 
d="M457 1090q0 -90 133 -228l2 -4q170 74 170 213q0 68 -43 104q-43 35 -109 35t-109 -32q-44 -32 -44 -88zM516 158q168 0 295 141l-324 348q-219 -84 -219 -258q0 -103 71 -167t177 -64zM494 -25q-207 0 -334 114q-127 113 -127 273t93 262t241 154q-145 170 -145 307
t108 219t268 80q160 0 270 -72t109 -229q0 -115 -73 -205t-195 -145l221 -235q45 119 55 254h227q-23 -223 -133 -414l318 -338h-310l-147 158q-188 -183 -446 -183z" />
    <glyph glyph-name="quotesingle" unicode="'" horiz-adv-x="315" 
d="M35 1360h244l-39 -490h-166z" />
    <glyph glyph-name="parenleft" unicode="(" horiz-adv-x="491" 
d="M45 505q0 257 79 478t183 377h203q-231 -377 -231 -857t231 -857h-203q-106 158 -184 380t-78 479z" />
    <glyph glyph-name="parenright" unicode=")" horiz-adv-x="491" 
d="M442 504q0 -258 -78 -480t-184 -378h-200q229 379 229 857t-229 857h200q106 -154 184 -376t78 -480z" />
    <glyph glyph-name="asterisk" unicode="*" horiz-adv-x="688" 
d="M410 1364v-211l198 76l56 -142l-203 -69l121 -170l-117 -90l-131 176l-119 -176l-129 88l123 170l-201 71l53 142l197 -76v211h152z" />
    <glyph glyph-name="plus" unicode="+" horiz-adv-x="1171" 
d="M692 0h-211v408h-420v202h420v410h211v-410h418v-202h-418v-408z" />
    <glyph glyph-name="comma" unicode="," horiz-adv-x="462" 
d="M98 0v258h267v-276l-142 -283h-135l125 301h-115z" />
    <glyph glyph-name="hyphen" unicode="-" horiz-adv-x="804" 
d="M713 412h-621v202h621v-202z" />
    <glyph glyph-name="period" unicode="." horiz-adv-x="454" 
d="M356 0h-258v258h258v-258z" />
    <glyph glyph-name="slash" unicode="/" horiz-adv-x="739" 
d="M211 0h-217l536 1360h218z" />
    <glyph glyph-name="zero" unicode="0" horiz-adv-x="1249" 
d="M625 158q153 0 233 134t80 392t-81 388t-233 130t-232 -130q-81 -130 -81 -388t81 -392t233 -134zM625 -25q-269 1 -409 191t-140 517t139 514t409 187t409 -187q141 -187 141 -514t-140 -517t-409 -191z" />
    <glyph glyph-name="one" unicode="1" horiz-adv-x="677" 
d="M535 0h-228v1030h-307v156q166 4 242 36t125 138h168v-1360z" />
    <glyph glyph-name="two" unicode="2" horiz-adv-x="1093" 
d="M554 1384q210 0 336 -97t126 -269q0 -232 -280 -490q-135 -126 -398 -329h711v-199h-1006v186q508 396 622 543q115 147 115 257q0 108 -60 164t-167 56t-181 -70t-73 -218l-225 2q-2 208 134 336t346 128z" />
    <glyph glyph-name="three" unicode="3" horiz-adv-x="1144" 
d="M552 158q126 0 205 59t79 166q0 233 -367 233h-45v187h37q340 0 340 209q0 92 -69 141q-70 49 -182 49t-184 -68t-87 -180l-222 23q27 186 160 297q133 110 341 110t341 -89t133 -269q0 -100 -54 -181t-147 -124q119 -45 179 -134t59 -200q0 -199 -148 -305
q-149 -106 -373 -106t-355 121q-131 122 -152 302l221 23q18 -120 91 -192t199 -72z" />
    <glyph glyph-name="four" unicode="4" horiz-adv-x="1179" 
d="M1165 520v-196h-241v-324h-228v324h-682v188l684 848h226v-840h241zM696 520v545l-434 -545h434z" />
    <glyph glyph-name="five" unicode="5" horiz-adv-x="1148" 
d="M567 158q119 0 196 76t77 214t-82 214t-184 76t-171 -41q-68 -40 -90 -95l-213 10l90 748h828v-201h-641l-43 -325q106 86 290 86t316 -125t133 -347q0 -222 -146 -348q-145 -125 -367 -125t-351 124t-148 298l220 25q42 -264 286 -264z" />
    <glyph glyph-name="six" unicode="6" horiz-adv-x="1173" 
d="M608 1202q-139 0 -219 -121t-84 -331q111 154 321 154t341 -128q131 -127 131 -333t-140 -337t-362 -131q-262 -1 -391 177t-129 490t122 516q62 106 172 166t257 60q201 0 315 -108t129 -254l-229 -2q-12 86 -76 134t-158 48zM594 719q-118 0 -194 -78t-76 -204t76 -203
q76 -76 194 -76t194 76t76 203q0 126 -76 204t-194 78z" />
    <glyph glyph-name="seven" unicode="7" horiz-adv-x="948" 
d="M-6 1159v201h991v-201q-277 -260 -413 -526t-158 -633h-256q33 653 587 1159h-751z" />
    <glyph glyph-name="eight" unicode="8" horiz-adv-x="1206" 
d="M602 1202q-114 0 -182 -53t-68 -142t70 -147t182 -59q112 1 180 59t68 147t-68 142t-182 53zM603 629q-128 0 -204 -65q-75 -64 -75 -172t76 -171t203 -63q128 0 204 63t76 171t-76 172q-76 65 -204 65zM602 1384q213 0 343 -98t130 -252q0 -207 -176 -307
q219 -113 219 -342q0 -193 -144 -301t-370 -109q-226 0 -372 109q-144 109 -144 301q0 233 219 342q-88 47 -133 130t-45 177q0 154 130 252t343 98z" />
    <glyph glyph-name="nine" unicode="9" horiz-adv-x="1159" 
d="M551 158q141 0 221 121t84 331q-111 -154 -320 -154q-208 0 -340 128q-132 127 -132 333q0 207 138 337t361 130q520 0 520 -663q0 -395 -180 -595q-61 -69 -155 -110t-211 -41q-201 0 -317 108t-132 255l229 2q14 -86 77 -134t157 -48zM838 925q0 125 -76 201t-196 76
t-194 -76t-75 -202q0 -126 75 -204q76 -79 194 -79t195 79t77 205z" />
    <glyph glyph-name="colon" unicode=":" horiz-adv-x="454" 
d="M98 745v259h258v-259h-258zM98 0v258h258v-258h-258z" />
    <glyph glyph-name="semicolon" unicode=";" horiz-adv-x="462" 
d="M98 0v258h267v-276l-142 -283h-135l125 301h-115zM98 745v259h258v-259h-258z" />
    <glyph glyph-name="less" unicode="&#x3c;" horiz-adv-x="1144" 
d="M61 604l981 424v-229l-720 -291l720 -289v-227l-981 422v190z" />
    <glyph glyph-name="equal" unicode="=" horiz-adv-x="1167" 
d="M1065 211h-963v205h963v-205zM1065 606h-963v205h963v-205z" />
    <glyph glyph-name="greater" unicode="&#x3e;" horiz-adv-x="1144" 
d="M1083 604v-190l-981 -422v227l721 289l-721 291v229z" />
    <glyph glyph-name="question" unicode="?" horiz-adv-x="978" 
d="M305 0v248h258v-248h-258zM496 1384q200 0 332 -88t133 -252q0 -120 -66 -202t-170 -146t-141 -107q-37 -44 -37 -130v-60h-225v66q0 125 50 198t142 129t126 80q90 68 89 174q0 64 -63 110t-173 46t-179 -70t-72 -188l-226 4q0 196 140 316t340 120z" />
    <glyph glyph-name="at" unicode="@" horiz-adv-x="1570" 
d="M942 750q0 186 -178 186q-90 0 -152 -88t-63 -213q0 -199 160 -199q109 0 171 91t62 223zM1081 555q0 -127 86 -127q76 0 129 92t54 246q0 231 -144 356t-397 125q-252 0 -417 -167t-165 -413q1 -245 141 -397t362 -152t384 83l53 -133q-197 -92 -422 -93
q-297 0 -483 195t-186 497t215 508q215 205 521 205t495 -154q188 -155 188 -454q-1 -219 -105 -350t-243 -131q-78 0 -129 46t-64 130q-90 -170 -288 -170q-121 0 -201 86t-80 258t108 305t281 133q78 0 135 -39t84 -106q11 97 15 113h135l-56 -414q-6 -43 -6 -78z" />
    <glyph glyph-name="A" unicode="A" horiz-adv-x="1286" 
d="M633 1079l-211 -592h424zM0 0l514 1360h254l518 -1360h-264l-104 287h-568l-102 -287h-248z" />
    <glyph glyph-name="B" unicode="B" horiz-adv-x="1269" 
d="M381 1157v-360h301q227 0 227 188q0 172 -227 172h-301zM381 600v-397h321q258 0 259 200q0 105 -66 151t-205 46h-309zM139 0v1360h520q496 0 496 -348q0 -92 -44 -172t-110 -119q207 -91 207 -309t-142 -315t-374 -97h-553z" />
    <glyph glyph-name="C" unicode="C" horiz-adv-x="1370" 
d="M721 -25q-299 1 -468 191t-169 517t174 514t475 187q229 0 384 -120t196 -324l-232 -35q-31 137 -125 209t-231 72q-172 0 -282 -130q-109 -130 -109 -373t108 -376t266 -133q314 0 377 281l232 -35q-43 -205 -201 -325t-395 -120z" />
    <glyph glyph-name="D" unicode="D" horiz-adv-x="1347" 
d="M139 1360h336q345 0 557 -137q232 -152 233 -542t-233 -544q-113 -73 -247 -105t-310 -32h-336v1360zM1016 680q0 125 -34 216t-83 140t-128 78t-147 36t-161 7h-82v-954h82q94 0 162 7q69 7 147 36t127 78t83 140t34 216z" />
    <glyph glyph-name="E" unicode="E" horiz-adv-x="1171" 
d="M139 0v1360h977v-203h-735v-358h694v-201h-694v-395h735v-203h-977z" />
    <glyph glyph-name="F" unicode="F" horiz-adv-x="1103" 
d="M139 0v1360h963v-203h-721v-358h680v-201h-680v-598h-242z" />
    <glyph glyph-name="G" unicode="G" horiz-adv-x="1454" 
d="M745 1384q227 0 384 -118t200 -312l-231 -32q-33 128 -127 196t-230 68q-184 0 -296 -128q-111 -128 -111 -374t110 -378t295 -132q140 0 245 66q56 36 90 100t34 152v26h-352v203h577v-721h-190l-8 166q-127 -190 -421 -190t-462 190q-168 192 -168 516t178 513t483 189
z" />
    <glyph glyph-name="H" unicode="H" horiz-adv-x="1421" 
d="M1040 1360h242v-1360h-242v598h-659v-598h-242v1360h242v-561h659v561z" />
    <glyph glyph-name="I" unicode="I" horiz-adv-x="520" 
d="M381 1360v-1360h-242v1360h242z" />
    <glyph glyph-name="J" unicode="J" horiz-adv-x="620" 
d="M45 0v207h31q110 1 138 25t28 122v1006h239v-1018q-1 -206 -71 -274t-265 -68h-100z" />
    <glyph glyph-name="K" unicode="K" horiz-adv-x="1284" 
d="M381 1360v-639l586 639h288l-510 -547l558 -813h-287l-432 639l-203 -217v-422h-242v1360h242z" />
    <glyph glyph-name="L" unicode="L" horiz-adv-x="1075" 
d="M381 1360v-1157h694v-203h-936v1360h242z" />
    <glyph glyph-name="M" unicode="M" horiz-adv-x="1693" 
d="M381 0h-242v1360h383l330 -1061l326 1061h378v-1360h-241v1073l-344 -1073h-246l-344 1073v-1073z" />
    <glyph glyph-name="N" unicode="N" horiz-adv-x="1421" 
d="M1282 0h-332l-569 1081v-1081h-242v1360h332l569 -1081v1081h242v-1360z" />
    <glyph glyph-name="O" unicode="O" horiz-adv-x="1486" 
d="M84 683q0 321 180 511t481 190t479 -188t179 -513q0 -325 -179 -516q-180 -191 -482 -191t-480 193q-178 194 -178 514zM1153 683q0 245 -114 374t-295 129q-182 0 -296 -129t-114 -373t115 -377t295 -133t294 132q115 132 115 377z" />
    <glyph glyph-name="P" unicode="P" horiz-adv-x="1177" 
d="M573 1157h-188v-477h201q158 0 240 48t83 198q0 150 -106 194q-85 37 -230 37zM139 1360h434q334 0 460 -114t126 -331q0 -251 -171 -348q-148 -84 -410 -86h-193v-481h-246v1360z" />
    <glyph glyph-name="Q" unicode="Q" horiz-adv-x="1497" 
d="M1153 690q0 238 -114 367t-295 129q-182 0 -296 -129t-114 -373t115 -377t294 -133q84 0 150 27l-113 137l148 125l121 -144q104 133 104 371zM84 683q0 321 180 511t481 190t479 -188t179 -524q0 -336 -205 -531l160 -190l-150 -125l-174 207q-133 -57 -291 -58
q-303 0 -481 194t-178 514z" />
    <glyph glyph-name="R" unicode="R" horiz-adv-x="1271" 
d="M592 1157h-207v-412h215q166 -1 246 45t80 166t-84 161q-84 40 -250 40zM594 547h-209v-547h-246v1360h420q317 0 465 -91t150 -313q0 -268 -259 -362l316 -594h-273l-288 549q-25 -2 -76 -2z" />
    <glyph glyph-name="S" unicode="S" horiz-adv-x="1232" 
d="M94 1001q0 187 157 285t363 98t354 -101t187 -294l-233 -35q-27 119 -118 175q-90 57 -198 57t-188 -43t-80 -133q0 -135 201 -179l170 -36q265 -56 365 -155t100 -251q0 -195 -159 -305t-393 -109q-234 0 -391 123q-156 123 -186 328l238 37q29 -143 121 -216t226 -73
q136 0 218 49t82 143t-71 140q-71 45 -208 76l-168 36q-389 84 -389 383z" />
    <glyph glyph-name="T" unicode="T" horiz-adv-x="1122" 
d="M440 0v1157h-434v203h1110v-203h-434v-1157h-242z" />
    <glyph glyph-name="U" unicode="U" horiz-adv-x="1366" 
d="M119 1360h241v-795q0 -203 70 -297t253 -94t253 98t70 301v787h241v-778q0 -326 -131 -466t-432 -140t-433 134q-132 136 -132 465v785z" />
    <glyph glyph-name="V" unicode="V" horiz-adv-x="1212" 
d="M2 1360h262l350 -1075l342 1075h254l-471 -1360h-260z" />
    <glyph glyph-name="W" unicode="W" horiz-adv-x="1705" 
d="M995 1360l236 -1049l209 1049h254l-322 -1360h-287l-231 1038l-229 -1038h-289l-324 1360h262l222 -1047l219 1047h280z" />
    <glyph glyph-name="X" unicode="X" horiz-adv-x="1261" 
d="M-18 0l507 696l-475 664h289l332 -463l338 463h274l-477 -651l510 -709h-289l-366 508l-371 -508h-272z" />
    <glyph glyph-name="Y" unicode="Y" horiz-adv-x="1218" 
d="M723 0h-242v516l-493 844h276l342 -617l352 617h273l-508 -848v-512z" />
    <glyph glyph-name="Z" unicode="Z" horiz-adv-x="1191" 
d="M1118 1360v-197l-770 -954h795v-209h-1090v197l772 954h-710v209h1003z" />
    <glyph glyph-name="bracketleft" unicode="[" horiz-adv-x="585" 
d="M133 1360h465v-174h-258v-1366h258v-174h-465v1714z" />
    <glyph glyph-name="backslash" unicode="\" horiz-adv-x="739" 
d="M211 1360l537 -1360h-218l-536 1360h217z" />
    <glyph glyph-name="bracketright" unicode="]" horiz-adv-x="585" 
d="M-12 1360h465v-1714h-465v174h258v1366h-258v174z" />
    <glyph glyph-name="asciicircum" unicode="^" horiz-adv-x="970" 
d="M580 1360l383 -737h-230l-250 493l-247 -493h-228l381 737h191z" />
    <glyph glyph-name="underscore" unicode="_" horiz-adv-x="909" 
d="M860 -205h-811v205h811v-205z" />
    <glyph glyph-name="grave" unicode="`" horiz-adv-x="686" 
d="M399 1118l-270 242h268l178 -242h-176z" />
    <glyph glyph-name="a" unicode="a" horiz-adv-x="1064" 
d="M741 418v61l-190 -20q-129 -14 -189 -51t-59 -105q0 -69 48 -109q47 -40 143 -40t172 65q75 66 75 199zM68 306q0 138 110 213t367 106l188 20v35q0 178 -202 178t-218 -166l-211 6q10 152 127 241t326 89t306 -88t97 -297l-4 -289q0 -182 21 -354h-213l-6 121
q-98 -145 -326 -146q-166 1 -264 97t-98 234z" />
    <glyph glyph-name="b" unicode="b" horiz-adv-x="1136" 
d="M601 842q-117 0 -187 -90t-70 -253t70 -252t186 -89t180 92q63 92 64 250q0 158 -64 250t-179 92zM127 0v1360h227v-475q98 139 290 139t313 -141q120 -141 120 -382t-126 -383t-314 -142t-287 126l-4 -102h-219z" />
    <glyph glyph-name="c" unicode="c" horiz-adv-x="1060" 
d="M557 1024q172 0 295 -93t156 -251l-220 -31q-16 86 -77 139q-61 54 -168 54t-179 -88t-71 -253q0 -165 72 -254t175 -89q215 0 255 194l221 -28q-37 -164 -166 -256t-303 -93q-227 -1 -357 145t-131 380t133 378q134 146 365 146z" />
    <glyph glyph-name="d" unicode="d" horiz-adv-x="1136" 
d="M293 500q-1 -158 63 -250t180 -92t186 90t71 253q0 163 -70 252q-71 89 -187 89t-180 -92t-63 -250zM1010 1360v-1360h-217l-5 119q-100 -143 -294 -143t-315 140q-120 142 -120 383t126 383q125 142 313 142t284 -129v465h228z" />
    <glyph glyph-name="e" unicode="e" horiz-adv-x="1097" 
d="M554 850q-106 0 -182 -64t-83 -186h522q-4 114 -77 182q-74 68 -180 68zM561 -25q-242 -1 -372 147t-130 380q-1 232 137 376q138 146 368 146t361 -164q132 -164 117 -428h-753q2 -123 77 -199t191 -75q188 0 250 157l219 -28q-41 -129 -159 -221t-306 -91z" />
    <glyph glyph-name="f" unicode="f" horiz-adv-x="614" 
d="M158 1004v63q0 174 72 233q73 59 266 60h90v-184h-66q-84 0 -110 -24t-25 -103v-45h201v-175h-201v-829h-227v829h-144v175h144z" />
    <glyph glyph-name="g" unicode="g" horiz-adv-x="1132" 
d="M536 842q-116 0 -180 -88t-63 -238t63 -234t180 -83q118 0 186 82q68 81 69 237q0 156 -69 240q-70 84 -186 84zM780 66v90q-100 -140 -290 -140t-311 138q-120 138 -120 365q0 229 126 367q125 138 313 138t284 -129l4 109h222v-893q0 -252 -113 -359
q-117 -115 -356 -114q-180 0 -297 76t-142 239l226 8q31 -143 219 -143q117 0 176 54t59 194z" />
    <glyph glyph-name="h" unicode="h" horiz-adv-x="1120" 
d="M784 0v563q0 170 -51 221t-141 52q-238 0 -238 -316v-520h-227v1360h227v-481q92 145 298 145t294 -125q66 -96 66 -278v-621h-228z" />
    <glyph glyph-name="i" unicode="i" horiz-adv-x="479" 
d="M127 1360h227v-230h-227v230zM127 1004h227v-1004h-227v1004z" />
    <glyph glyph-name="j" unicode="j" horiz-adv-x="481" 
d="M127 1360h227v-230h-227v230zM127 -35v1039h227v-1039q0 -193 -60 -256t-237 -63h-75v186h41q70 0 87 24t17 109z" />
    <glyph glyph-name="k" unicode="k" horiz-adv-x="1017" 
d="M127 1360h227v-752l379 396h271l-361 -375l387 -629h-262l-283 465l-131 -137v-328h-227v1360z" />
    <glyph glyph-name="l" unicode="l" horiz-adv-x="479" 
d="M354 1360v-1360h-227v1360h227z" />
    <glyph glyph-name="m" unicode="m" horiz-adv-x="1728" 
d="M127 0v1004h227v-125q88 145 295 145t291 -164q117 164 342 164q172 0 255 -98t83 -305v-621h-227v571q0 152 -43 205q-43 59 -146 60q-217 0 -217 -312v-524h-227v571q0 154 -45 209t-142 56q-219 0 -219 -312v-524h-227z" />
    <glyph glyph-name="n" unicode="n" horiz-adv-x="1120" 
d="M354 1004v-125q92 145 298 145t294 -125q66 -96 66 -278v-621h-228v563q0 170 -51 221t-141 52q-238 0 -238 -316v-520h-227v1004h227z" />
    <glyph glyph-name="o" unicode="o" horiz-adv-x="1101" 
d="M59 500q-1 256 141 390t351 134t350 -134t141 -390t-141 -390t-350 -134t-351 134t-141 390zM293 500q0 -166 71 -254q70 -88 188 -88t188 88t69 254q0 166 -70 254q-69 88 -187 88t-188 -88t-71 -254z" />
    <glyph glyph-name="p" unicode="p" horiz-adv-x="1136" 
d="M601 842q-117 0 -187 -90t-70 -253t70 -252t186 -89t180 92q63 92 64 250q0 158 -64 250t-179 92zM354 -354h-227v1358h219l2 -123q100 143 294 143t315 -141q120 -141 120 -382t-126 -383q-127 -142 -313 -142t-284 126v-456z" />
    <glyph glyph-name="q" unicode="q" horiz-adv-x="1136" 
d="M293 500q-1 -158 63 -250t180 -92t186 90t71 253q0 163 -70 252q-71 89 -187 89t-180 -92t-63 -250zM1010 1004v-1358h-228v469q-98 -139 -290 -139t-313 140q-120 142 -120 383t126 383q125 142 315 142t286 -129l2 109h222z" />
    <glyph glyph-name="r" unicode="r" horiz-adv-x="702" 
d="M578 784q-113 0 -168 -60t-56 -208v-516h-227v1004h223v-166q84 164 277 168q22 -1 55 -5v-223q-55 6 -104 6z" />
    <glyph glyph-name="s" unicode="s" horiz-adv-x="1001" 
d="M490 852q-87 0 -141 -28t-54 -76q0 -84 156 -119l118 -25q187 -41 283 -103t96 -206t-126 -232t-316 -88q-190 -1 -312 95t-139 237l221 33q14 -86 76 -139t162 -53t156 32q55 33 55 91t-49 87t-144 50l-133 28q-151 31 -235 99q-84 69 -84 199t121 210t292 80t293 -79
t150 -222l-213 -29q-16 74 -81 116t-152 42z" />
    <glyph glyph-name="t" unicode="t" horiz-adv-x="647" 
d="M160 1004v290h227v-290h205v-175h-205v-520q0 -77 25 -103t96 -26h82v-180h-166q-162 0 -213 54t-51 214v561h-152v175h152z" />
    <glyph glyph-name="u" unicode="u" horiz-adv-x="1112" 
d="M760 0v125q-98 -150 -288 -150t-284 115q-74 94 -73 289v625h227v-574q0 -139 33 -192q47 -74 157 -74q227 0 228 319v521h227v-1004h-227z" />
    <glyph glyph-name="v" unicode="v" horiz-adv-x="956" 
d="M250 1004l235 -711l234 711h237l-370 -1004h-213l-373 1004h250z" />
    <glyph glyph-name="w" unicode="w" horiz-adv-x="1378" 
d="M395 297l176 707h234l178 -707l150 707h245l-272 -1004h-215l-203 737l-201 -737h-215l-272 1004h246z" />
    <glyph glyph-name="x" unicode="x" horiz-adv-x="1017" 
d="M989 1004l-350 -482l373 -522h-267l-241 338l-246 -338h-250l373 510l-352 494h266l221 -310l225 310h248z" />
    <glyph glyph-name="y" unicode="y" horiz-adv-x="935" 
d="M182 -354h-102v190h86q80 0 117 26t69 120l10 24l-370 998h248l231 -715l234 715h231l-361 -1002q-76 -209 -151 -283q-76 -73 -242 -73z" />
    <glyph glyph-name="z" unicode="z" horiz-adv-x="940" 
d="M49 0v168l541 645h-502v191h791v-173l-541 -641h555v-190h-844z" />
    <glyph glyph-name="braceleft" unicode="{" horiz-adv-x="561" 
d="M492 -354q-190 0 -265 65q-74 66 -73 246v260q0 101 -29 149t-117 48v180q88 0 117 48t29 149v258q0 179 74 245t264 66h77v-184h-53q-84 0 -110 -29t-25 -107v-274q0 -123 -44 -180t-128 -80v-4q84 -23 128 -80t44 -180v-277q0 -79 26 -107t109 -28h53v-184h-77z" />
    <glyph glyph-name="bar" unicode="|" horiz-adv-x="468" 
d="M137 1360h195v-1530h-195v1530z" />
    <glyph glyph-name="braceright" unicode="}" horiz-adv-x="561" 
d="M-8 -354v184h53q82 0 109 29t26 106v277q0 123 44 180t128 80v4q-84 23 -128 80t-44 180v274q0 78 -26 107q-27 29 -109 29h-53v184h76q190 0 265 -66t75 -245v-258q0 -100 28 -149q29 -48 117 -48v-180q-88 0 -117 -48t-28 -149v-260q0 -180 -75 -246t-265 -65h-76z" />
    <glyph glyph-name="asciitilde" unicode="~" horiz-adv-x="1048" 
d="M715 551q111 0 116 131h177q-6 -154 -79 -241t-208 -87q-76 0 -201 66t-184 65q-113 0 -119 -131h-176q6 154 79 241t210 87q92 0 215 -66t170 -65z" />
    <glyph glyph-name="exclamdown" unicode="&#xa1;" horiz-adv-x="503" 
d="M123 1004h258v-248h-258v248zM371 -354h-232v358l41 594h148l43 -594v-358z" />
    <glyph glyph-name="cent" unicode="&#xa2;" horiz-adv-x="1060" 
d="M293 502q0 -146 56 -234t149 -106v676q-94 -18 -150 -104t-55 -232zM590 -176h-92v153q-205 17 -322 159t-117 362t117 362q117 141 322 160v166h92v-164q160 -10 272 -101t146 -241l-220 -31q-14 76 -66 129t-132 62v-680q166 16 205 192l221 -28q-37 -154 -152 -244
t-274 -103v-153z" />
    <glyph glyph-name="sterling" unicode="&#xa3;" horiz-adv-x="1103" 
d="M580 1202q-98 0 -169 -48t-71 -137t94 -261h342v-135h-276q23 -72 22 -117q0 -166 -180 -291l2 -4q66 27 119 27t145 -30t170 -30t226 55l65 -186q-131 -74 -293 -74q-68 0 -196 41t-197 41q-119 0 -264 -82l-80 168q256 123 256 348q0 61 -31 134h-235v135h166
q-90 160 -91 282q0 172 142 259t355 87q214 0 343 -126t125 -338l-225 -2q0 284 -264 284z" />
    <glyph glyph-name="currency" unicode="&#xa4;" horiz-adv-x="1210" 
d="M601 940q-117 0 -189 -81t-72 -199t73 -196t189 -79q116 0 191 79q75 78 75 196t-75 199q-76 81 -192 81zM150 659q0 147 83 265l-131 133l95 92l129 -129q120 94 274 94t281 -96l133 131l94 -92l-135 -135q82 -118 82 -262t-84 -261l137 -137l-94 -92l-135 133
q-123 -94 -278 -94t-273 90l-131 -129l-95 92l131 133q-83 117 -83 264z" />
    <glyph glyph-name="yen" unicode="&#xa5;" horiz-adv-x="1226" 
d="M1065 184h-344v-184h-229v184h-332v152h332v147h-332v150h262l-426 727h266l350 -637l355 637h264l-438 -727h272v-150h-344v-147h344v-152z" />
    <glyph glyph-name="brokenbar" unicode="&#xa6;" horiz-adv-x="446" 
d="M127 412h195v-582h-195v582zM127 1360h195v-582h-195v582z" />
    <glyph glyph-name="section" unicode="&#xa7;" horiz-adv-x="1140" 
d="M854 446q0 54 -44 98t-140 93l-256 131q-58 -20 -96 -58t-38 -89t36 -91q36 -39 112 -77l299 -156q127 61 127 149zM567 -195q82 0 133 37q52 36 52 98t-39 105t-140 96l-241 125q-266 137 -266 336q0 168 200 262q-106 100 -106 234t119 210t287 76t283 -89
q114 -89 134 -242l-217 -6q-14 81 -70 123t-140 42q-83 0 -130 -28t-47 -77q0 -48 35 -84t114 -77l260 -135q146 -78 218 -151t72 -171q-1 -195 -210 -292q104 -98 104 -240q0 -143 -118 -233q-119 -90 -299 -90t-300 102q-120 104 -130 280l215 7q32 -218 227 -218z" />
    <glyph glyph-name="dieresis" unicode="&#xa8;" horiz-adv-x="722" 
d="M485 1343h201v-210h-201v210zM37 1133v210h201v-210h-201z" />
    <glyph glyph-name="copyright" unicode="&#xa9;" horiz-adv-x="1570" 
d="M786 444q150 0 185 142l172 -41q-33 -109 -128 -179t-250 -69q-155 0 -252 106q-97 105 -97 281t101 280t253 105q152 0 246 -72t121 -186l-172 -45q-13 72 -61 115t-124 43t-127 -62t-51 -176t51 -178t133 -64zM231 679q0 -251 159 -410q160 -159 398 -159t395 158
t156 410q0 252 -156 411q-157 159 -396 159t-397 -160q-158 -158 -159 -409zM784 -25q-298 0 -500 197t-202 505t204 508q204 199 500 199t499 -200q204 -200 204 -506q0 -307 -204 -505t-501 -198z" />
    <glyph glyph-name="ordfeminine" unicode="&#xaa;" horiz-adv-x="657" 
d="M426 1024v35l-92 -8q-117 -14 -117 -76q0 -31 23 -51q22 -20 68 -20t82 30q36 31 36 90zM340 1384q127 0 187 -53q59 -53 57 -151t-2 -186t12 -197h-152l-2 63q-56 -78 -166 -78t-168 56t-57 134q1 79 61 125t220 60l92 10v19q0 82 -98 82t-103 -78l-153 2q10 90 77 141
q68 51 195 51z" />
    <glyph glyph-name="guillemotleft" unicode="&#xab;" horiz-adv-x="993" 
d="M737 61l-303 439l303 436h215l-256 -436l256 -439h-215zM313 61l-301 439l301 436h219l-258 -436l258 -439h-219z" />
    <glyph glyph-name="logicalnot" unicode="&#xac;" horiz-adv-x="1193" 
d="M879 612h-822v205h1033v-637h-211v432z" />
    <glyph glyph-name="registered" unicode="&#xae;" horiz-adv-x="1570" 
d="M922 836q0 98 -125 98h-131v-191h133q123 1 123 93zM666 604v-276h-183v749h273q172 0 260 -51t88 -192t-135 -197l178 -309h-203l-156 276h-122zM231 679q0 -251 159 -410q160 -159 398 -159t395 158t156 410q0 252 -156 411q-157 159 -396 159t-397 -160
q-158 -158 -159 -409zM784 -25q-298 0 -500 197t-202 505t204 508q204 199 500 199t499 -200q204 -200 204 -506q0 -307 -204 -505t-501 -198z" />
    <glyph glyph-name="macron" unicode="&#xaf;" horiz-adv-x="667" 
d="M627 1155h-586v166h586v-166z" />
    <glyph glyph-name="degree" unicode="&#xb0;" horiz-adv-x="641" 
d="M180 1087q0 -63 39 -106t100 -43t103 44q41 44 41 106t-41 106q-40 44 -102 45q-62 -1 -101 -45t-39 -107zM616 1088q0 -122 -87 -208t-209 -87q-122 1 -208 87t-87 208q0 122 87 209q86 87 208 87t209 -87t87 -209z" />
    <glyph glyph-name="plusminus" unicode="&#xb1;" horiz-adv-x="1236" 
d="M1135 0h-1033v203h1033v-203zM512 748v260h215v-260h408v-205h-408v-264h-215v264h-410v205h410z" />
    <glyph glyph-name="two.superior" unicode="&#xb2;" horiz-adv-x="671" 
d="M47 1346q0 126 82 202t211 76t205 -56t76 -160t-87 -196q-87 -94 -278 -237h362v-141h-579v133q29 23 150 116t155 132q82 91 94 123t12 70t-31 65q-32 27 -84 27t-89 -39q-37 -38 -37 -115h-162z" />
    <glyph glyph-name="three.superior" unicode="&#xb3;" horiz-adv-x="712" 
d="M352 946q61 0 100 30q38 30 37 79q0 113 -184 112h-31v133h27q168 0 168 105q0 43 -34 68t-83 24q-123 0 -143 -129l-158 18q16 110 96 174q81 64 207 64t204 -54t79 -164q0 -110 -107 -163q62 -23 96 -73t33 -113q0 -113 -89 -175t-221 -62t-213 71q-81 72 -93 178
l158 16q24 -139 151 -139z" />
    <glyph glyph-name="acute" unicode="&#xb4;" horiz-adv-x="542" 
d="M494 1360l-271 -242h-174l176 242h269z" />
    <glyph glyph-name="mu" unicode="&#xb5;" horiz-adv-x="1107" 
d="M125 -37v1041h209v-539q0 -307 213 -307q113 0 169 88t56 231v527h211v-1004h-211v123q-82 -139 -224 -139t-214 118v-127q0 -207 -23 -329h-209q23 125 23 317z" />
    <glyph glyph-name="mu" unicode="&#x3bc;" horiz-adv-x="1107" 
d="M125 -37v1041h209v-539q0 -307 213 -307q113 0 169 88t56 231v527h211v-1004h-211v123q-82 -139 -224 -139t-214 118v-127q0 -207 -23 -329h-209q23 125 23 317z" />
    <glyph glyph-name="paragraph" unicode="&#xb6;" horiz-adv-x="970" 
d="M0 1023q0 157 118 247t326 90h402v-1530h-152v1389h-219v-1389h-151v862q-133 14 -229 94q-95 80 -95 237z" />
    <glyph glyph-name="periodcentered" unicode="&#xb7;" horiz-adv-x="456" 
d="M98 391v248h258v-248h-258z" />
    <glyph glyph-name="cedilla" unicode="&#xb8;" horiz-adv-x="477" 
d="M184 -281q109 1 109 57t-78 56q-47 0 -74 -16l-57 32l98 158h101l-62 -98q116 20 174 -31q41 -35 41 -99t-64 -107q-64 -42 -159 -42q-94 0 -172 35l33 82q53 -27 110 -27z" />
    <glyph glyph-name="one.superior" unicode="&#xb9;" horiz-adv-x="454" 
d="M356 834h-163v557h-173v116q96 3 140 23t71 82h125v-778z" />
    <glyph glyph-name="ordmasculine" unicode="&#xba;" horiz-adv-x="684" 
d="M49 1084q0 146 84 224t210 76q126 0 210 -76t84 -224q0 -146 -84 -223t-210 -77t-210 77t-84 223zM219 1084q0 -83 33 -128t90 -45t92 45t35 128t-35 128t-92 45t-90 -45t-33 -128z" />
    <glyph glyph-name="guillemotright" unicode="&#xbb;" horiz-adv-x="993" 
d="M559 500l-303 -439h-215l256 439l-256 436h215zM981 500l-303 -439h-217l256 439l-256 436h217z" />
    <glyph glyph-name="onequarter" unicode="&#xbc;" horiz-adv-x="1740" 
d="M532 584h-165v557h-172v116q96 3 140 23t71 82h126v-778zM514 0h-240l953 1360h239zM1714 313v-143h-131v-170h-166v170h-381v133l394 473h153v-463h131zM1417 313v254l-207 -254h207z" />
    <glyph glyph-name="onehalf" unicode="&#xbd;" horiz-adv-x="1740" 
d="M532 584h-165v557h-172v116q96 3 140 23t71 82h126v-778zM514 0h-240l953 1360h239zM1384 791q130 -1 204 -57t75 -160q0 -104 -87 -196q-87 -93 -278 -237h365v-141h-582v133q30 22 201 158t203 219q10 26 10 64t-32 65t-84 27t-90 -38t-38 -116h-161q0 127 81 203
q83 76 213 76z" />
    <glyph glyph-name="threequarters" unicode="&#xbe;" horiz-adv-x="1740" 
d="M1714 313v-143h-131v-170h-166v170h-381v133l394 473h153v-463h131zM1417 313v254l-207 -254h207zM514 0h-240l953 1360h239zM367 696q61 0 98 30t37 79q0 113 -185 113h-30v133h26q168 0 168 104q0 43 -34 68q-33 25 -87 25t-92 -36q-38 -35 -45 -94l-160 19
q17 111 97 174t206 63t204 -54t79 -164q0 -110 -106 -163q61 -23 95 -73t34 -113q0 -113 -88 -175t-222 -62t-214 71q-81 72 -93 178l160 17q21 -140 152 -140z" />
    <glyph glyph-name="questiondown" unicode="&#xbf;" horiz-adv-x="978" 
d="M674 1004v-248h-258v248h258zM484 -381q-200 0 -331 87q-132 87 -133 253q0 119 65 199t153 137t116 79t54 66q25 44 24 105v59h225v-65q0 -127 -52 -197t-163 -141q-50 -33 -76 -50q-80 -54 -97 -98q-17 -45 -17 -84q0 -78 64 -123t174 -45q108 0 176 71t71 187l226 -6
q1 -195 -139 -315t-340 -119z" />
    <glyph glyph-name="Agrave" unicode="&#xc0;" horiz-adv-x="1286" 
d="M604 1430l-295 215h291l203 -215h-199zM633 1079l-211 -592h424zM0 0l514 1360h254l518 -1360h-264l-104 287h-568l-102 -287h-248z" />
    <glyph glyph-name="Aacute" unicode="&#xc1;" horiz-adv-x="1286" 
d="M940 1645l-295 -215h-199l201 215h293zM633 1079l-211 -592h424zM0 0l514 1360h254l518 -1360h-264l-104 287h-568l-102 -287h-248z" />
    <glyph glyph-name="Acircumflex" unicode="&#xc2;" horiz-adv-x="1286" 
d="M735 1645l256 -215h-231l-127 98l-131 -98h-230l263 215h200zM633 1079l-211 -592h424zM0 0l514 1360h254l518 -1360h-264l-104 287h-568l-102 -287h-248z" />
    <glyph glyph-name="Atilde" unicode="&#xc3;" horiz-adv-x="1286" 
d="M750 1573q78 0 94 80h160q-20 -127 -92 -178t-143 -51q-72 0 -146 40q-74 41 -107 41q-78 0 -90 -80h-162q20 125 90 177t144 53q74 0 144 -41q71 -41 108 -41zM633 1079l-211 -592h424zM0 0l514 1360h254l518 -1360h-264l-104 287h-568l-102 -287h-248z" />
    <glyph glyph-name="Adieresis" unicode="&#xc4;" horiz-adv-x="1286" 
d="M760 1640h201v-204h-201v204zM311 1640h201v-204h-201v204zM633 1079l-211 -592h424zM0 0l514 1360h254l518 -1360h-264l-104 287h-568l-102 -287h-248z" />
    <glyph glyph-name="Aring" unicode="&#xc5;" horiz-adv-x="1286" 
d="M635 1655q-33 0 -57 -24q-24 -25 -25 -59q0 -34 25 -56q26 -22 58 -23q32 0 56 23q24 24 25 58q-1 34 -25 58t-57 23zM635 1735q72 0 122 -46t50 -116t-49 -116t-123 -46t-123 46t-49 116t50 116t122 46zM633 1079l-211 -592h424zM0 0l514 1360h254l518 -1360h-264
l-104 287h-568l-102 -287h-248z" />
    <glyph glyph-name="AE" unicode="&#xc6;" horiz-adv-x="1929" 
d="M901 487v523l-358 -523h358zM1876 1360v-203h-733v-354h690v-201h-690v-399h733v-203h-975v287h-495l-197 -287h-258l950 1360h975z" />
    <glyph glyph-name="Ccedilla" unicode="&#xc7;" horiz-adv-x="1370" 
d="M639 -281q109 1 109 57t-78 56q-47 0 -74 -16l-57 32l82 134q-254 31 -396 217q-141 187 -141 499t174 499t475 187q229 0 384 -120t196 -324l-232 -35q-31 137 -125 209t-231 72q-172 0 -282 -130q-109 -130 -109 -373t108 -376t266 -133q316 0 377 281l232 -35
q-43 -205 -201 -325t-395 -120h-4l-41 -67q114 21 174 -31q41 -35 41 -99t-65 -107q-64 -42 -158 -42t-172 35l32 82q53 -27 111 -27z" />
    <glyph glyph-name="Egrave" unicode="&#xc8;" horiz-adv-x="1171" 
d="M139 0v1360h977v-203h-735v-358h694v-201h-694v-395h735v-203h-977zM602 1430l-295 215h291l203 -215h-199z" />
    <glyph glyph-name="Eacute" unicode="&#xc9;" horiz-adv-x="1171" 
d="M950 1645l-295 -215h-198l200 215h293zM139 0v1360h977v-203h-735v-358h694v-201h-694v-395h735v-203h-977z" />
    <glyph glyph-name="Ecircumflex" unicode="&#xca;" horiz-adv-x="1171" 
d="M750 1645l256 -215h-232l-127 98l-131 -98h-229l262 215h201zM139 0v1360h977v-203h-735v-358h694v-201h-694v-395h735v-203h-977z" />
    <glyph glyph-name="Edieresis" unicode="&#xcb;" horiz-adv-x="1171" 
d="M754 1640h200v-204h-200v204zM305 1640h201v-204h-201v204zM139 0v1360h977v-203h-735v-358h694v-201h-694v-395h735v-203h-977z" />
    <glyph glyph-name="Igrave" unicode="&#xcc;" horiz-adv-x="520" 
d="M184 1430l-295 215h291l203 -215h-199zM381 1360v-1360h-242v1360h242z" />
    <glyph glyph-name="Iacute" unicode="&#xcd;" horiz-adv-x="520" 
d="M637 1645l-295 -215h-199l201 215h293zM381 1360v-1360h-242v1360h242z" />
    <glyph glyph-name="Icircumflex" unicode="&#xce;" horiz-adv-x="520" 
d="M381 1360v-1360h-242v1360h242zM365 1645l215 -215h-224l-94 98l-98 -98h-221l221 215h201z" />
    <glyph glyph-name="Idieresis" unicode="&#xcf;" horiz-adv-x="520" 
d="M381 1640h201v-204h-201v204zM-68 1640h201v-204h-201v204zM381 1360v-1360h-242v1360h242z" />
    <glyph glyph-name="Eth" unicode="&#xd0;" horiz-adv-x="1380" 
d="M672 598h-254v-395h84q92 0 160 7t146 36t128 78q49 49 82 140t33 216t-33 216t-82 140t-128 78q-78 29 -146 36t-160 7h-84v-358h254v-201zM176 1360h336q345 0 557 -137q231 -151 231 -543t-231 -543q-113 -73 -247 -105t-310 -32h-336v598h-160v201h160v561z" />
    <glyph glyph-name="Ntilde" unicode="&#xd1;" horiz-adv-x="1421" 
d="M1282 0h-332l-569 1081v-1081h-242v1360h332l569 -1081v1081h242v-1360zM842 1573q78 0 94 80h160q-20 -127 -91 -178t-143 -51t-147 40q-74 41 -107 41q-78 0 -90 -80h-162q20 125 90 177t144 53q74 0 144 -41q71 -41 108 -41z" />
    <glyph glyph-name="Ograve" unicode="&#xd2;" horiz-adv-x="1486" 
d="M84 683q0 321 180 511t481 190t479 -188t179 -513q0 -325 -179 -516q-180 -191 -482 -191t-480 193q-178 194 -178 514zM1153 683q0 245 -114 374t-295 129q-182 0 -296 -129t-114 -373t115 -377t295 -133t294 132q115 132 115 377zM727 1430l-295 215h291l203 -215h-199
z" />
    <glyph glyph-name="Oacute" unicode="&#xd3;" horiz-adv-x="1486" 
d="M1061 1645l-295 -215h-199l201 215h293zM84 683q0 321 180 511t481 190t479 -188t179 -513q0 -325 -179 -516q-180 -191 -482 -191t-480 193q-178 194 -178 514zM1153 683q0 245 -114 374t-295 129q-182 0 -296 -129t-114 -373t115 -377t295 -133t294 132
q115 132 115 377z" />
    <glyph glyph-name="Ocircumflex" unicode="&#xd4;" horiz-adv-x="1486" 
d="M84 683q0 321 180 511t481 190t479 -188t179 -513q0 -325 -179 -516q-180 -191 -482 -191t-480 193q-178 194 -178 514zM1153 683q0 245 -114 374t-295 129q-182 0 -296 -129t-114 -373t115 -377t295 -133t294 132q115 132 115 377zM840 1645l256 -215h-232l-127 98
l-131 -98h-229l262 215h201z" />
    <glyph glyph-name="Otilde" unicode="&#xd5;" horiz-adv-x="1486" 
d="M84 683q0 321 180 511t481 190t479 -188t179 -513q0 -325 -179 -516q-180 -191 -482 -191t-480 193q-178 194 -178 514zM1153 683q0 245 -114 374t-295 129q-182 0 -296 -129t-114 -373t115 -377t295 -133t294 132q115 132 115 377zM844 1573q78 0 94 80h160
q-20 -127 -91 -178t-143 -51t-147 40q-74 41 -107 41q-78 0 -90 -80h-162q20 125 90 177t144 53q73 0 144 -41t108 -41z" />
    <glyph glyph-name="Odieresis" unicode="&#xd6;" horiz-adv-x="1486" 
d="M84 683q0 321 180 511t481 190t479 -188t179 -513q0 -325 -179 -516q-180 -191 -482 -191t-480 193q-178 194 -178 514zM1153 683q0 245 -114 374t-295 129q-182 0 -296 -129t-114 -373t115 -377t295 -133t294 132q115 132 115 377zM858 1640h201v-204h-201v204z
M410 1640h200v-204h-200v204z" />
    <glyph glyph-name="multiply" unicode="&#xd7;" horiz-adv-x="980" 
d="M940 199l-141 -142l-316 316l-309 -310l-133 132l309 311l-307 307l141 141l308 -307l311 309l131 -133l-309 -309z" />
    <glyph glyph-name="Oslash" unicode="&#xd8;" horiz-adv-x="1478" 
d="M332 684q0 -186 65 -305l607 711q-109 96 -277 96q-167 0 -281 -129t-114 -373zM1147 684q0 182 -68 305l-606 -713q106 -102 276 -102t284 132t114 378zM1395 671q0 -313 -177 -504t-479 -192q-250 0 -411 131l-121 -141l-92 82l125 146q-156 190 -156 500
q0 311 179 501t478 190q240 0 406 -127l117 138l94 -80l-121 -141q158 -190 158 -503z" />
    <glyph glyph-name="Ugrave" unicode="&#xd9;" horiz-adv-x="1366" 
d="M119 1360h241v-795q0 -203 70 -297t253 -94t253 98t70 301v787h241v-778q0 -326 -131 -466t-432 -140t-433 134q-132 136 -132 465v785zM670 1430l-295 215h291l202 -215h-198z" />
    <glyph glyph-name="Uacute" unicode="&#xda;" horiz-adv-x="1366" 
d="M1004 1645l-295 -215h-199l201 215h293zM119 1360h241v-795q0 -203 70 -297t253 -94t253 98t70 301v787h241v-778q0 -326 -131 -466t-432 -140t-433 134q-132 136 -132 465v785z" />
    <glyph glyph-name="Ucircumflex" unicode="&#xdb;" horiz-adv-x="1366" 
d="M782 1645l256 -215h-231l-127 98l-131 -98h-230l263 215h200zM119 1360h241v-795q0 -203 70 -297t253 -94t253 98t70 301v787h241v-778q0 -326 -131 -466t-432 -140t-433 134q-132 136 -132 465v785z" />
    <glyph glyph-name="Udieresis" unicode="&#xdc;" horiz-adv-x="1366" 
d="M797 1640h200v-204h-200v204zM348 1640h201v-204h-201v204zM119 1360h241v-795q0 -203 70 -297t253 -94t253 98t70 301v787h241v-778q0 -326 -131 -466t-432 -140t-433 134q-132 136 -132 465v785z" />
    <glyph glyph-name="Yacute" unicode="&#xdd;" horiz-adv-x="1218" 
d="M913 1645l-295 -215h-198l201 215h292zM723 0h-242v516l-493 844h276l342 -617l352 617h273l-508 -848v-512z" />
    <glyph glyph-name="Thorn" unicode="&#xde;" horiz-adv-x="1177" 
d="M385 930v-477h201q158 0 240 47q82 48 83 196q0 148 -106 196q-84 38 -230 38h-188zM385 1130h188q332 0 468 -120q118 -107 118 -324q0 -251 -171 -348q-152 -86 -410 -86h-193v-252h-246v1360h246v-230z" />
    <glyph glyph-name="germandbls" unicode="&#xdf;" horiz-adv-x="1226" 
d="M354 0h-227v897q0 246 111 360q127 127 391 127q201 0 325 -87t125 -250q0 -201 -172 -279q113 -33 184 -125t70 -240q0 -211 -140 -319t-364 -109q-117 0 -217 23l37 195q85 -27 191 -27t183 59t77 176q0 254 -357 254h-24v187h18q287 0 287 186q0 84 -60 129t-167 45
q-154 0 -212 -75t-59 -236v-891z" />
    <glyph glyph-name="agrave" unicode="&#xe0;" horiz-adv-x="1064" 
d="M522 1118l-270 242h268l178 -242h-176zM741 418v61l-190 -20q-129 -14 -189 -51t-59 -105q0 -69 48 -109q47 -40 143 -40t172 65q75 66 75 199zM68 306q0 138 110 213t367 106l188 20v35q0 178 -202 178t-218 -166l-211 6q10 152 127 241t326 89t306 -88t97 -297l-4 -289
q0 -182 21 -354h-213l-6 121q-98 -145 -326 -146q-166 1 -264 97t-98 234z" />
    <glyph glyph-name="aacute" unicode="&#xe1;" horiz-adv-x="1064" 
d="M836 1360l-271 -242h-174l176 242h269zM741 418v61l-190 -20q-129 -14 -189 -51t-59 -105q0 -69 48 -109q47 -40 143 -40t172 65q75 66 75 199zM68 306q0 138 110 213t367 106l188 20v35q0 178 -202 178t-218 -166l-211 6q10 152 127 241t326 89t306 -88t97 -297l-4 -289
q0 -182 21 -354h-213l-6 121q-98 -145 -326 -146q-166 1 -264 97t-98 234z" />
    <glyph glyph-name="acircumflex" unicode="&#xe2;" horiz-adv-x="1064" 
d="M623 1360l266 -242h-209l-150 113l-153 -113h-207l272 242h181zM741 418v61l-190 -20q-129 -14 -189 -51t-59 -105q0 -69 48 -109q47 -40 143 -40t172 65q75 66 75 199zM68 306q0 138 110 213t367 106l188 20v35q0 178 -202 178t-218 -166l-211 6q10 152 127 241t326 89
t306 -88t97 -297l-4 -289q0 -182 21 -354h-213l-6 121q-98 -145 -326 -146q-166 1 -264 97t-98 234z" />
    <glyph glyph-name="atilde" unicode="&#xe3;" horiz-adv-x="1064" 
d="M649 1274q78 0 94 84h162q-20 -134 -91 -188t-146 -54q-74 0 -148 43t-106 43q-76 0 -92 -84h-162q20 130 91 186t146 56t145 -43t107 -43zM741 418v61l-190 -20q-129 -14 -189 -51t-59 -105q0 -69 48 -109q47 -40 143 -40t172 65q75 66 75 199zM68 306q0 138 110 213
t367 106l188 20v35q0 178 -202 178t-218 -166l-211 6q10 152 127 241t326 89t306 -88t97 -297l-4 -289q0 -182 21 -354h-213l-6 121q-98 -145 -326 -146q-166 1 -264 97t-98 234z" />
    <glyph glyph-name="adieresis" unicode="&#xe4;" horiz-adv-x="1064" 
d="M659 1343h201v-210h-201v210zM211 1133v210h201v-210h-201zM741 418v61l-190 -20q-129 -14 -189 -51t-59 -105q0 -69 48 -109q47 -40 143 -40t172 65q75 66 75 199zM68 306q0 138 110 213t367 106l188 20v35q0 178 -202 178t-218 -166l-211 6q10 152 127 241t326 89
t306 -88t97 -297l-4 -289q0 -182 21 -354h-213l-6 121q-98 -145 -326 -146q-166 1 -264 97t-98 234z" />
    <glyph glyph-name="aring" unicode="&#xe5;" horiz-adv-x="1064" 
d="M524 1356q-34 0 -56 -24t-22 -56t23 -56q23 -22 55 -22t57 23q23 23 23 55t-24 56t-56 24zM524 1442q74 0 126 -47t52 -119t-51 -119t-126 -47t-126 47t-51 119t51 119t125 47zM741 418v61l-190 -20q-129 -14 -189 -51t-59 -105q0 -69 48 -109q47 -40 143 -40t172 65
q75 66 75 199zM68 306q0 138 110 213t367 106l188 20v35q0 178 -202 178t-218 -166l-211 6q10 152 127 241t326 89t306 -88t97 -297l-4 -289q0 -182 21 -354h-213l-6 121q-98 -145 -326 -146q-166 1 -264 97t-98 234z" />
    <glyph glyph-name="ae" unicode="&#xe6;" horiz-adv-x="1757" 
d="M1212 850q-110 0 -184 -66t-80 -184h522q-4 114 -76 182t-182 68zM303 303q0 -69 48 -109q47 -40 143 -40t172 66t75 198v61l-190 -20q-129 -14 -189 -51t-59 -105zM543 1028q250 0 342 -137q129 133 349 133t352 -166t116 -426h-752q2 -125 77 -200t198 -74
q184 0 241 157l220 -28q-45 -143 -170 -227t-291 -85q-272 0 -398 195q-123 -195 -395 -195q-168 1 -266 97t-98 232t110 213t367 108l188 20v35q0 178 -203 178q-96 0 -150 -45t-63 -125l-215 8q10 152 127 242t314 90z" />
    <glyph glyph-name="ccedilla" unicode="&#xe7;" horiz-adv-x="1060" 
d="M475 -281q109 1 109 57t-78 56q-47 0 -74 -16l-57 32l82 134q-188 27 -293 168q-104 141 -104 362q0 220 132 366q134 146 365 146q172 0 295 -93t156 -251l-220 -31q-16 86 -77 139q-61 54 -168 54t-179 -88t-71 -253q0 -165 72 -254t175 -89q215 0 255 194l221 -28
q-37 -162 -164 -253t-299 -96l-41 -67q115 21 174 -31q41 -35 41 -99q-1 -64 -65 -107q-64 -42 -158 -42t-172 35l33 82q53 -27 110 -27z" />
    <glyph glyph-name="egrave" unicode="&#xe8;" horiz-adv-x="1097" 
d="M545 1118l-271 242h269l178 -242h-176zM554 850q-106 0 -182 -64t-83 -186h522q-4 114 -77 182q-74 68 -180 68zM561 -25q-242 -1 -372 147t-130 380q-1 232 137 376q138 146 368 146t361 -164q132 -164 117 -428h-753q2 -123 77 -199t191 -75q188 0 250 157l219 -28
q-41 -129 -159 -221t-306 -91z" />
    <glyph glyph-name="eacute" unicode="&#xe9;" horiz-adv-x="1097" 
d="M856 1360l-270 -242h-174l176 242h268zM554 850q-106 0 -182 -64t-83 -186h522q-4 114 -77 182q-74 68 -180 68zM561 -25q-242 -1 -372 147t-130 380q-1 232 137 376q138 146 368 146t361 -164q132 -164 117 -428h-753q2 -123 77 -199t191 -75q188 0 250 157l219 -28
q-41 -129 -159 -221t-306 -91z" />
    <glyph glyph-name="ecircumflex" unicode="&#xea;" horiz-adv-x="1097" 
d="M639 1360l266 -242h-209l-149 113l-154 -113h-207l273 242h180zM554 850q-106 0 -182 -64t-83 -186h522q-4 114 -77 182q-74 68 -180 68zM561 -25q-242 -1 -372 147t-130 380q-1 232 137 376q138 146 368 146t361 -164q132 -164 117 -428h-753q2 -123 77 -199t191 -75
q188 0 250 157l219 -28q-41 -129 -159 -221t-306 -91z" />
    <glyph glyph-name="edieresis" unicode="&#xeb;" horiz-adv-x="1097" 
d="M227 1133v210h201v-210h-201zM676 1343h201v-210h-201v210zM554 850q-106 0 -182 -64t-83 -186h522q-4 114 -77 182q-74 68 -180 68zM561 -25q-242 -1 -372 147t-130 380q-1 232 137 376q138 146 368 146t361 -164q132 -164 117 -428h-753q2 -123 77 -199t191 -75
q188 0 250 157l219 -28q-41 -129 -159 -221t-306 -91z" />
    <glyph glyph-name="igrave" unicode="&#xec;" horiz-adv-x="479" 
d="M170 1118l-270 242h268l178 -242h-176zM127 1004h227v-1004h-227v1004z" />
    <glyph glyph-name="iacute" unicode="&#xed;" horiz-adv-x="479" 
d="M127 1004h227v-1004h-227v1004zM578 1360l-271 -242h-174l176 242h269z" />
    <glyph glyph-name="icircumflex" unicode="&#xee;" horiz-adv-x="479" 
d="M127 1004h227v-1004h-227v1004zM311 1360l248 -262h-215l-102 125l-107 -125h-213l252 262h137z" />
    <glyph glyph-name="idieresis" unicode="&#xef;" horiz-adv-x="479" 
d="M127 1004h227v-1004h-227v1004zM311 1124v211h201v-211h-201zM-31 1124v211h201v-211h-201z" />
    <glyph glyph-name="eth" unicode="&#xf0;" horiz-adv-x="1101" 
d="M293 500q-1 -158 63 -250t182 -92t186 86t69 255q0 169 -70 257q-71 88 -187 88t-180 -93t-63 -251zM542 -25q-220 -1 -352 141t-131 383q0 241 125 383q126 142 308 142t286 -129l2 2q-74 145 -235 260l-137 -84l-101 49l146 90q-61 33 -154 74l162 113q81 -37 155 -84
l119 74l103 -52l-133 -82q328 -246 327 -663q0 -303 -135 -460t-355 -157z" />
    <glyph glyph-name="ntilde" unicode="&#xf1;" horiz-adv-x="1120" 
d="M707 1274q78 0 94 84h162q-19 -134 -91 -188t-146 -54t-148 43q-72 43 -107 43q-76 0 -92 -84h-162q20 130 91 186t146 56q76 0 146 -43t107 -43zM354 1004v-125q92 145 298 145t294 -125q66 -96 66 -278v-621h-228v563q0 170 -51 221t-141 52q-238 0 -238 -316v-520
h-227v1004h227z" />
    <glyph glyph-name="ograve" unicode="&#xf2;" horiz-adv-x="1101" 
d="M563 1118l-270 242h268l178 -242h-176zM59 500q-1 256 141 390t351 134t350 -134t141 -390t-141 -390t-350 -134t-351 134t-141 390zM293 500q0 -166 71 -254q70 -88 188 -88t188 88t69 254q0 166 -70 254q-69 88 -187 88t-188 -88t-71 -254z" />
    <glyph glyph-name="oacute" unicode="&#xf3;" horiz-adv-x="1101" 
d="M59 500q-1 256 141 390t351 134t350 -134t141 -390t-141 -390t-350 -134t-351 134t-141 390zM293 500q0 -166 71 -254q70 -88 188 -88t188 88t69 254q0 166 -70 254q-69 88 -187 88t-188 -88t-71 -254zM860 1360l-270 -242h-174l176 242h268z" />
    <glyph glyph-name="ocircumflex" unicode="&#xf4;" horiz-adv-x="1101" 
d="M59 500q-1 256 141 390t351 134t350 -134t141 -390t-141 -390t-350 -134t-351 134t-141 390zM293 500q0 -166 71 -254q70 -88 188 -88t188 88t69 254q0 166 -70 254q-69 88 -187 88t-188 -88t-71 -254zM643 1360l266 -242h-209l-149 113l-154 -113h-207l273 242h180z" />
    <glyph glyph-name="otilde" unicode="&#xf5;" horiz-adv-x="1101" 
d="M670 1274q78 0 94 84h162q-20 -134 -91 -188t-146 -54t-147 43t-108 43q-76 0 -92 -84h-162q20 130 91 186t146 56t145 -43t108 -43zM59 500q-1 256 141 390t351 134t350 -134t141 -390t-141 -390t-350 -134t-351 134t-141 390zM293 500q0 -166 71 -254q70 -88 188 -88
t188 88t69 254q0 166 -70 254q-69 88 -187 88t-188 -88t-71 -254z" />
    <glyph glyph-name="odieresis" unicode="&#xf6;" horiz-adv-x="1101" 
d="M59 500q-1 256 141 390t351 134t350 -134t141 -390t-141 -390t-350 -134t-351 134t-141 390zM293 500q0 -166 71 -254q70 -88 188 -88t188 88t69 254q0 166 -70 254q-69 88 -187 88t-188 -88t-71 -254zM674 1343h200v-210h-200v210zM225 1133v210h201v-210h-201z" />
    <glyph glyph-name="divide" unicode="&#xf7;" horiz-adv-x="1130" 
d="M1069 399h-1008v205h1008v-205zM436 707v247h258v-247h-258zM436 49v248h258v-248h-258z" />
    <glyph glyph-name="oslash" unicode="&#xf8;" horiz-adv-x="1103" 
d="M293 500q0 -106 26 -178l398 458q-65 62 -175 62t-180 -88t-69 -254zM811 500q0 104 -29 180l-397 -459q63 -63 175 -63t182 88t69 254zM59 520q1 234 145 369t349 135q168 0 295 -92l102 117l86 -76l-104 -121q113 -135 112 -352q0 -254 -143 -389t-331 -135t-318 92
l-102 -119l-87 78l107 120q-111 139 -111 373z" />
    <glyph glyph-name="ugrave" unicode="&#xf9;" horiz-adv-x="1112" 
d="M545 1118l-271 242h269l178 -242h-176zM760 0v125q-98 -150 -288 -150t-284 115q-74 94 -73 289v625h227v-574q0 -139 33 -192q47 -74 157 -74q227 0 228 319v521h227v-1004h-227z" />
    <glyph glyph-name="uacute" unicode="&#xfa;" horiz-adv-x="1112" 
d="M760 0v125q-98 -150 -288 -150t-284 115q-74 94 -73 289v625h227v-574q0 -139 33 -192q47 -74 157 -74q227 0 228 319v521h227v-1004h-227zM854 1360l-270 -242h-174l176 242h268z" />
    <glyph glyph-name="ucircumflex" unicode="&#xfb;" horiz-adv-x="1112" 
d="M760 0v125q-98 -150 -288 -150t-284 115q-74 94 -73 289v625h227v-574q0 -139 33 -192q47 -74 157 -74q227 0 228 319v521h227v-1004h-227zM653 1360l267 -242h-209l-150 113l-153 -113h-207l272 242h180z" />
    <glyph glyph-name="udieresis" unicode="&#xfc;" horiz-adv-x="1112" 
d="M760 0v125q-98 -150 -288 -150t-284 115q-74 94 -73 289v625h227v-574q0 -139 33 -192q47 -74 157 -74q227 0 228 319v521h227v-1004h-227zM682 1343h201v-210h-201v210zM233 1133v210h201v-210h-201z" />
    <glyph glyph-name="yacute" unicode="&#xfd;" horiz-adv-x="935" 
d="M791 1360l-271 -242h-174l176 242h269zM182 -354h-102v190h86q80 0 117 26t69 120l10 24l-370 998h248l231 -715l234 715h231l-361 -1002q-76 -209 -151 -283q-76 -73 -242 -73z" />
    <glyph glyph-name="thorn" unicode="&#xfe;" horiz-adv-x="1136" 
d="M601 842q-117 0 -187 -90t-70 -253t70 -252t186 -89t180 92q63 92 64 250q0 158 -64 250t-179 92zM127 -354v1714h227v-479q100 143 292 143t311 -141q120 -141 120 -382t-126 -383t-312 -142t-285 126v-456h-227z" />
    <glyph glyph-name="ydieresis" unicode="&#xff;" horiz-adv-x="935" 
d="M606 1343h201v-210h-201v210zM158 1133v210h200v-210h-200zM182 -354h-102v190h86q80 0 117 26t69 120l10 24l-370 998h248l231 -715l234 715h231l-361 -1002q-76 -209 -151 -283q-76 -73 -242 -73z" />
    <glyph glyph-name="Amacron" unicode="&#x100;" horiz-adv-x="1286" 
d="M924 1454h-586v166h586v-166zM633 1079l-211 -592h424zM0 0l514 1360h254l518 -1360h-264l-104 287h-568l-102 -287h-248z" />
    <glyph glyph-name="amacron" unicode="&#x101;" horiz-adv-x="1064" 
d="M831 1155h-585v166h585v-166zM741 418v61l-190 -20q-129 -14 -189 -51t-59 -105q0 -69 48 -109q47 -40 143 -40t172 65q75 66 75 199zM68 306q0 138 110 213t367 106l188 20v35q0 178 -202 178t-218 -166l-211 6q10 152 127 241t326 89t306 -88t97 -297l-4 -289
q0 -182 21 -354h-213l-6 121q-98 -145 -326 -146q-166 1 -264 97t-98 234z" />
    <glyph glyph-name="Abreve" unicode="&#x102;" horiz-adv-x="1286" 
d="M637 1549q131 0 143 96h170q-24 -223 -314 -223t-312 223h170q12 -96 143 -96zM633 1079l-211 -592h424zM0 0l514 1360h254l518 -1360h-264l-104 287h-568l-102 -287h-248z" />
    <glyph glyph-name="abreve" unicode="&#x103;" horiz-adv-x="1064" 
d="M540 1108q-150 0 -227 71q-76 71 -86 181h166q13 -125 149 -125t150 125h164q-12 -112 -89 -182t-227 -70zM741 418v61l-190 -20q-129 -14 -189 -51t-59 -105q0 -69 48 -109q47 -40 143 -40t172 65q75 66 75 199zM68 306q0 138 110 213t367 106l188 20v35q0 178 -202 178
t-218 -166l-211 6q10 152 127 241t326 89t306 -88t97 -297l-4 -289q0 -182 21 -354h-213l-6 121q-98 -145 -326 -146q-166 1 -264 97t-98 234z" />
    <glyph glyph-name="Aogonek" unicode="&#x104;" horiz-adv-x="1286" 
d="M633 1079l-211 -592h424zM1114 -150q0 -72 98 -71q43 0 103 18v-139q-72 -20 -162 -20t-165 44t-75 132q1 114 140 186h-31l-104 287h-568l-102 -287h-248l514 1360h254l518 -1360q-172 -84 -172 -150z" />
    <glyph glyph-name="aogonek" unicode="&#x105;" horiz-adv-x="1064" 
d="M741 418v61l-190 -20q-129 -14 -189 -51t-59 -105q0 -69 48 -109q47 -40 143 -40t172 65q75 66 75 199zM811 -151q0 -71 98 -70q43 0 103 18v-139q-72 -20 -162 -20t-165 44t-75 132q0 108 152 186l-6 121q-98 -145 -326 -146q-166 1 -264 97t-98 234t110 213t367 106
l188 20v35q0 178 -202 178t-218 -166l-211 6q10 152 127 241t326 89t306 -88t97 -297l-4 -289q0 -182 21 -354q-164 -80 -164 -151z" />
    <glyph glyph-name="Cacute" unicode="&#x106;" horiz-adv-x="1370" 
d="M1061 1645l-295 -215h-199l201 215h293zM721 -25q-299 1 -468 191t-169 517t174 514t475 187q229 0 384 -120t196 -324l-232 -35q-31 137 -125 209t-231 72q-172 0 -282 -130q-109 -130 -109 -373t108 -376t266 -133q314 0 377 281l232 -35q-43 -205 -201 -325t-395 -120
z" />
    <glyph glyph-name="cacute" unicode="&#x107;" horiz-adv-x="1060" 
d="M557 1024q172 0 295 -93t156 -251l-220 -31q-16 86 -77 139q-61 54 -168 54t-179 -88t-71 -253q0 -165 72 -254t175 -89q215 0 255 194l221 -28q-37 -164 -166 -256t-303 -93q-227 -1 -357 145t-131 380t133 378q134 146 365 146zM862 1360l-270 -242h-174l176 242h268z
" />
    <glyph glyph-name="Ccircumflex" unicode="&#x108;" horiz-adv-x="1370" 
d="M821 1645l256 -215h-231l-127 98l-131 -98h-230l263 215h200zM721 -25q-299 1 -468 191t-169 517t174 514t475 187q229 0 384 -120t196 -324l-232 -35q-31 137 -125 209t-231 72q-172 0 -282 -130q-109 -130 -109 -373t108 -376t266 -133q314 0 377 281l232 -35
q-43 -205 -201 -325t-395 -120z" />
    <glyph glyph-name="ccircumflex" unicode="&#x109;" horiz-adv-x="1060" 
d="M557 1024q172 0 295 -93t156 -251l-220 -31q-16 86 -77 139q-61 54 -168 54t-179 -88t-71 -253q0 -165 72 -254t175 -89q215 0 255 194l221 -28q-37 -164 -166 -256t-303 -93q-227 -1 -357 145t-131 380t133 378q134 146 365 146zM643 1360l266 -242h-209l-149 113
l-154 -113h-207l273 242h180z" />
    <glyph glyph-name="Cdotaccent" unicode="&#x10a;" horiz-adv-x="1370" 
d="M606 1640h234v-204h-234v204zM721 -25q-299 1 -468 191t-169 517t174 514t475 187q229 0 384 -120t196 -324l-232 -35q-31 137 -125 209t-231 72q-172 0 -282 -130q-109 -130 -109 -373t108 -376t266 -133q314 0 377 281l232 -35q-43 -205 -201 -325t-395 -120z" />
    <glyph glyph-name="cdotaccent" unicode="&#x10b;" horiz-adv-x="1060" 
d="M444 1343h201v-210h-201v210zM557 1024q172 0 295 -93t156 -251l-220 -31q-16 86 -77 139q-61 54 -168 54t-179 -88t-71 -253q0 -165 72 -254t175 -89q215 0 255 194l221 -28q-37 -164 -166 -256t-303 -93q-227 -1 -357 145t-131 380t133 378q134 146 365 146z" />
    <glyph glyph-name="Ccaron" unicode="&#x10c;" horiz-adv-x="1370" 
d="M721 -25q-299 1 -468 191t-169 517t174 514t475 187q229 0 384 -120t196 -324l-232 -35q-31 137 -125 209t-231 72q-172 0 -282 -130q-109 -130 -109 -373t108 -376t266 -133q314 0 377 281l232 -35q-43 -205 -201 -325t-395 -120zM618 1430l-256 215h232l127 -99l131 99
h229l-262 -215h-201z" />
    <glyph glyph-name="ccaron" unicode="&#x10d;" horiz-adv-x="1060" 
d="M557 1024q172 0 295 -93t156 -251l-220 -31q-16 86 -77 139q-61 54 -168 54t-179 -88t-71 -253q0 -165 72 -254t175 -89q215 0 255 194l221 -28q-37 -164 -166 -256t-303 -93q-227 -1 -357 145t-131 380t133 378q134 146 365 146zM461 1118l-266 242h208l150 -113
l154 113h206l-272 -242h-180z" />
    <glyph glyph-name="Dcaron" unicode="&#x10e;" horiz-adv-x="1347" 
d="M139 1360h336q345 0 557 -137q232 -152 233 -542t-233 -544q-113 -73 -247 -105t-310 -32h-336v1360zM1016 680q0 125 -34 216t-83 140t-128 78t-147 36t-161 7h-82v-954h82q94 0 162 7q69 7 147 36t127 78t83 140t34 216zM481 1430l-256 215h232l127 -99l131 99h229
l-262 -215h-201z" />
    <glyph glyph-name="dcaron" unicode="&#x10f;" horiz-adv-x="1275" 
d="M293 500q-1 -158 63 -250t180 -92t186 90t71 253q0 163 -70 252q-71 89 -187 89t-180 -92t-63 -250zM1010 1360v-1360h-217l-5 119q-100 -143 -294 -143t-315 140q-120 142 -120 383t126 383q125 142 313 142t284 -129v465h228zM1350 1360l-133 -324h-148l57 324h224z
" />
    <glyph glyph-name="Dcroat" unicode="&#x110;" horiz-adv-x="1355" 
d="M1026 680q0 127 -33 217t-83 139t-128 78t-146 36t-161 7h-82v-358h279v-201h-279v-395h82q94 0 162 7q67 7 145 36t128 78t83 139t33 217zM16 799h136v561h335q347 0 557 -137q232 -152 232 -544t-232 -542q-112 -73 -246 -105t-311 -32h-335v598h-136v201z" />
    <glyph glyph-name="dcroat" unicode="&#x111;" horiz-adv-x="1136" 
d="M293 500q-1 -158 63 -250t180 -92t186 90t71 253q0 163 -70 252q-71 89 -187 89t-180 -92t-63 -250zM1010 1077v-1077h-217l-5 119q-100 -143 -294 -143t-315 140q-120 142 -120 383t126 383q125 142 313 142t284 -129v182h-229v150h229v133h228v-133h159v-150h-159z" />
    <glyph glyph-name="Emacron" unicode="&#x112;" horiz-adv-x="1171" 
d="M139 0v1360h977v-203h-735v-358h694v-201h-694v-395h735v-203h-977zM922 1454h-586v166h586v-166z" />
    <glyph glyph-name="emacron" unicode="&#x113;" horiz-adv-x="1097" 
d="M848 1155h-586v166h586v-166zM554 850q-106 0 -182 -64t-83 -186h522q-4 114 -77 182q-74 68 -180 68zM561 -25q-242 -1 -372 147t-130 380q-1 232 137 376q138 146 368 146t361 -164q132 -164 117 -428h-753q2 -123 77 -199t191 -75q188 0 250 157l219 -28
q-41 -129 -159 -221t-306 -91z" />
    <glyph glyph-name="Ebreve" unicode="&#x114;" horiz-adv-x="1171" 
d="M139 0v1360h977v-203h-735v-358h694v-201h-694v-395h735v-203h-977zM626 1549q132 0 144 96h170q-24 -223 -314 -223t-313 223h170q11 -96 143 -96z" />
    <glyph glyph-name="ebreve" unicode="&#x115;" horiz-adv-x="1097" 
d="M546 1108q-150 0 -227 71q-76 71 -86 181h166q13 -125 149 -125t150 125h164q-12 -112 -89 -182t-227 -70zM554 850q-106 0 -182 -64t-83 -186h522q-4 114 -77 182q-74 68 -180 68zM561 -25q-242 -1 -372 147t-130 380q-1 232 137 376q138 146 368 146t361 -164
q132 -164 117 -428h-753q2 -123 77 -199t191 -75q188 0 250 157l219 -28q-41 -129 -159 -221t-306 -91z" />
    <glyph glyph-name="Edotaccent" unicode="&#x116;" horiz-adv-x="1171" 
d="M139 0v1360h977v-203h-735v-358h694v-201h-694v-395h735v-203h-977zM504 1640h233v-204h-233v204z" />
    <glyph glyph-name="edotaccent" unicode="&#x117;" horiz-adv-x="1097" 
d="M451 1343h200v-210h-200v210zM554 850q-106 0 -182 -64t-83 -186h522q-4 114 -77 182q-74 68 -180 68zM561 -25q-242 -1 -372 147t-130 380q-1 232 137 376q138 146 368 146t361 -164q132 -164 117 -428h-753q2 -123 77 -199t191 -75q188 0 250 157l219 -28
q-41 -129 -159 -221t-306 -91z" />
    <glyph glyph-name="Eogonek" unicode="&#x118;" horiz-adv-x="1171" 
d="M139 0v1360h977v-203h-735v-358h694v-201h-694v-395h735v-203q-170 -86 -170 -150q0 -72 98 -71q43 0 103 18v-139q-72 -20 -162 -20t-165 44t-75 132q0 115 140 186h-746z" />
    <glyph glyph-name="eogonek" unicode="&#x119;" horiz-adv-x="1097" 
d="M554 850q-106 0 -182 -64t-83 -186h522q-4 114 -77 182q-74 68 -180 68zM367 -180q0 94 106 162q-201 27 -307 169t-106 362q0 219 136 365q138 146 368 146t361 -164q132 -164 117 -428h-753q2 -123 77 -199t191 -75q188 0 250 157l219 -28q-66 -201 -303 -295
q-156 -59 -156 -142q0 -72 99 -71q43 0 102 18v-139q-72 -20 -162 -20t-165 44q-74 44 -74 138z" />
    <glyph glyph-name="Ecaron" unicode="&#x11a;" horiz-adv-x="1171" 
d="M139 0v1360h977v-203h-735v-358h694v-201h-694v-395h735v-203h-977zM526 1430l-256 215h232l127 -99l131 99h229l-262 -215h-201z" />
    <glyph glyph-name="ecaron" unicode="&#x11b;" horiz-adv-x="1097" 
d="M459 1118l-266 242h208l150 -113l154 113h206l-272 -242h-180zM554 850q-106 0 -182 -64t-83 -186h522q-4 114 -77 182q-74 68 -180 68zM561 -25q-242 -1 -372 147t-130 380q-1 232 137 376q138 146 368 146t361 -164q132 -164 117 -428h-753q2 -123 77 -199t191 -75
q188 0 250 157l219 -28q-41 -129 -159 -221t-306 -91z" />
    <glyph glyph-name="Gcircumflex" unicode="&#x11c;" horiz-adv-x="1454" 
d="M745 1384q227 0 384 -118t200 -312l-231 -32q-33 128 -127 196t-230 68q-184 0 -296 -128q-111 -128 -111 -374t110 -378t295 -132q140 0 245 66q56 36 90 100t34 152v26h-352v203h577v-721h-190l-8 166q-127 -190 -421 -190t-462 190q-168 192 -168 516t178 513t483 189
zM838 1645l256 -215h-232l-127 98l-131 -98h-229l262 215h201z" />
    <glyph glyph-name="gcircumflex" unicode="&#x11d;" horiz-adv-x="1132" 
d="M536 842q-116 0 -180 -88t-63 -238t63 -234t180 -83q118 0 186 82q68 81 69 237q0 156 -69 240q-70 84 -186 84zM780 66v90q-100 -140 -290 -140t-311 138q-120 138 -120 365q0 229 126 367q125 138 313 138t284 -129l4 109h222v-893q0 -252 -113 -359
q-117 -115 -356 -114q-180 0 -297 76t-142 239l226 8q31 -143 219 -143q117 0 176 54t59 194zM657 1360l267 -242h-209l-150 113l-153 -113h-207l272 242h180z" />
    <glyph glyph-name="Gbreve" unicode="&#x11e;" horiz-adv-x="1454" 
d="M745 1384q227 0 384 -118t200 -312l-231 -32q-33 128 -127 196t-230 68q-184 0 -296 -128q-111 -128 -111 -374t110 -378t295 -132q140 0 245 66q56 36 90 100t34 152v26h-352v203h577v-721h-190l-8 166q-127 -190 -421 -190t-462 190q-168 192 -168 516t178 513t483 189
zM738 1549q132 0 143 96h170q-23 -223 -314 -223t-313 223h170q12 -96 144 -96z" />
    <glyph glyph-name="gbreve" unicode="&#x11f;" horiz-adv-x="1132" 
d="M558 1108q-150 0 -226 71t-86 181h166q14 -125 149 -125t150 125h163q-12 -112 -89 -182t-227 -70zM536 842q-116 0 -180 -88t-63 -238t63 -234t180 -83q118 0 186 82q68 81 69 237q0 156 -69 240q-70 84 -186 84zM780 66v90q-100 -140 -290 -140t-311 138
q-120 138 -120 365q0 229 126 367q125 138 313 138t284 -129l4 109h222v-893q0 -252 -113 -359q-117 -115 -356 -114q-180 0 -297 76t-142 239l226 8q31 -143 219 -143q117 0 176 54t59 194z" />
    <glyph glyph-name="Gdotaccent" unicode="&#x120;" horiz-adv-x="1454" 
d="M745 1384q227 0 384 -118t200 -312l-231 -32q-33 128 -127 196t-230 68q-184 0 -296 -128q-111 -128 -111 -374t110 -378t295 -132q140 0 245 66q56 36 90 100t34 152v26h-352v203h577v-721h-190l-8 166q-127 -190 -421 -190t-462 190q-168 192 -168 516t178 513t483 189
zM602 1640h234v-204h-234v204z" />
    <glyph glyph-name="gdotaccent" unicode="&#x121;" horiz-adv-x="1132" 
d="M442 1343h201v-210h-201v210zM536 842q-116 0 -180 -88t-63 -238t63 -234t180 -83q118 0 186 82q68 81 69 237q0 156 -69 240q-70 84 -186 84zM780 66v90q-100 -140 -290 -140t-311 138q-120 138 -120 365q0 229 126 367q125 138 313 138t284 -129l4 109h222v-893
q0 -252 -113 -359q-117 -115 -356 -114q-180 0 -297 76t-142 239l226 8q31 -143 219 -143q117 0 176 54t59 194z" />
    <glyph glyph-name="Gcommaaccent" unicode="&#x122;" horiz-adv-x="1454" 
d="M745 1384q227 0 384 -118t200 -312l-231 -32q-33 128 -127 196t-230 68q-184 0 -296 -128q-111 -128 -111 -374t110 -378t295 -132q140 0 245 66q56 36 90 100t34 152v26h-352v203h577v-721h-190l-8 166q-127 -190 -421 -190t-462 190q-168 192 -168 516t178 513t483 189
zM633 -250v182h192v-194l-84 -170h-114l73 182h-67z" />
    <glyph glyph-name="gcommaaccent" unicode="&#x123;" horiz-adv-x="1132" 
d="M536 842q-116 0 -180 -88t-63 -238t63 -234t180 -83q118 0 186 82q68 81 69 237q0 156 -69 240q-70 84 -186 84zM780 66v90q-100 -140 -290 -140t-311 138q-120 138 -120 365q0 229 126 367q125 138 313 138t284 -129l4 109h222v-893q0 -252 -113 -359
q-117 -115 -356 -114q-180 0 -297 76t-142 239l226 8q31 -143 219 -143q117 0 176 54t59 194zM635 1276v-182h-193v194l84 170h115l-74 -182h68z" />
    <glyph glyph-name="Hcircumflex" unicode="&#x124;" horiz-adv-x="1421" 
d="M805 1645l256 -215h-232l-127 98l-131 -98h-229l262 215h201zM1040 1360h242v-1360h-242v598h-659v-598h-242v1360h242v-561h659v561z" />
    <glyph glyph-name="hcircumflex" unicode="&#x125;" horiz-adv-x="1120" 
d="M784 0v563q0 170 -51 221t-141 52q-238 0 -238 -316v-520h-227v1360h227v-481q92 145 298 145t294 -125q66 -96 66 -278v-621h-228zM741 1360l222 -262h-183l-110 137l-115 -137h-180l227 262h139z" />
    <glyph glyph-name="Hbar" unicode="&#x126;" horiz-adv-x="1421" 
d="M381 799h659v170h-659v-170zM1040 1360h242v-1360h-242v598h-659v-598h-242v1360h242v-189h659v189z" />
    <glyph glyph-name="hbar" unicode="&#x127;" horiz-adv-x="1120" 
d="M784 0v563q0 170 -51 221t-141 52q-238 0 -238 -316v-520h-227v1077h-160v150h160v133h227v-133h238v-150h-238v-198q92 145 298 145t294 -125q66 -96 66 -278v-621h-228z" />
    <glyph glyph-name="Itilde" unicode="&#x128;" horiz-adv-x="520" 
d="M377 1573q78 0 94 80h160q-20 -127 -91 -178q-72 -51 -144 -51t-146 40q-74 41 -107 41q-78 0 -90 -80h-162q21 125 91 177t143 53q73 0 144 -41t108 -41zM381 1360v-1360h-242v1360h242z" />
    <glyph glyph-name="itilde" unicode="&#x129;" horiz-adv-x="479" 
d="M127 1004h227v-1004h-227v1004zM346 1272q74 0 86 80h141q-20 -149 -97 -204q-57 -40 -116 -40t-120 41t-90 41q-68 0 -84 -82h-140q12 100 56 158t83 72t85 14t104 -40t92 -40z" />
    <glyph glyph-name="Imacron" unicode="&#x12a;" horiz-adv-x="520" 
d="M381 1360v-1360h-242v1360h242zM494 1454h-469v166h469v-166z" />
    <glyph glyph-name="imacron" unicode="&#x12b;" horiz-adv-x="479" 
d="M127 1004h227v-1004h-227v1004zM477 1147h-473v166h473v-166z" />
    <glyph glyph-name="Ibreve" unicode="&#x12c;" horiz-adv-x="520" 
d="M381 1360v-1360h-242v1360h242zM260 1421q-250 0 -272 224h170q12 -97 101 -97t103 97h170q-22 -224 -272 -224z" />
    <glyph glyph-name="ibreve" unicode="&#x12d;" horiz-adv-x="479" 
d="M127 1004h227v-1004h-227v1004zM240 1083q-128 0 -200 77q-71 77 -81 200h166q4 -150 116 -150t117 150h164q-12 -125 -83 -201t-199 -76z" />
    <glyph glyph-name="Iogonek" unicode="&#x12e;" horiz-adv-x="520" 
d="M139 1360h242v-1360q-172 -84 -172 -150q0 -72 98 -71q43 0 103 18v-139q-72 -20 -162 -20t-165 44t-75 132q0 118 131 186v1360z" />
    <glyph glyph-name="iogonek" unicode="&#x12f;" horiz-adv-x="479" 
d="M127 1004h227v-1004q-82 -39 -124 -75t-42 -75q0 -72 99 -71q43 0 102 18v-139q-71 -20 -161 -20t-166 44q-75 44 -74 132q0 114 139 186v1004zM127 1360h227v-230h-227v230z" />
    <glyph glyph-name="Idotaccent" unicode="&#x130;" horiz-adv-x="520" 
d="M381 1360v-1360h-242v1360h242zM139 1640h242v-204h-242v204z" />
    <glyph glyph-name="dotlessi" unicode="&#x131;" horiz-adv-x="479" 
d="M127 1004h227v-1004h-227v1004z" />
    <glyph glyph-name="IJ" unicode="&#x132;" horiz-adv-x="1140" 
d="M563 0v207h31q110 1 138 25t28 122v1006h239v-1018q-1 -206 -71 -274t-264 -68h-101zM381 1360v-1360h-242v1360h242z" />
    <glyph glyph-name="ij" unicode="&#x133;" horiz-adv-x="960" 
d="M606 1360h228v-230h-228v230zM606 -35v1039h228v-1039q0 -193 -60 -256t-237 -63h-76v186h41q70 0 87 24t17 109zM127 1360h227v-230h-227v230zM127 1004h227v-1004h-227v1004z" />
    <glyph glyph-name="Jcircumflex" unicode="&#x134;" horiz-adv-x="620" 
d="M45 0v207h31q110 1 138 25t28 122v1006h239v-1018q-1 -206 -71 -274t-265 -68h-100zM463 1645l215 -215h-223l-95 98l-98 -98h-221l221 215h201z" />
    <glyph glyph-name="jcircumflex" unicode="&#x135;" horiz-adv-x="509" 
d="M338 1360l246 -262h-207l-109 125l-114 -125h-207l254 262h137zM156 -35v1039h227v-1039q0 -188 -69 -254t-240 -65h-92v186h47q79 0 103 26t24 107z" />
    <glyph glyph-name="Kcommaaccent" unicode="&#x136;" horiz-adv-x="1284" 
d="M563 -250v182h193v-194l-84 -170h-115l74 182h-68zM381 1360v-639l586 639h288l-510 -547l558 -813h-287l-432 639l-203 -217v-422h-242v1360h242z" />
    <glyph glyph-name="kcommaaccent" unicode="&#x137;" horiz-adv-x="1017" 
d="M426 -250v182h192v-194l-83 -170h-115l74 182h-68zM127 1360h227v-752l379 396h271l-361 -375l387 -629h-262l-283 465l-131 -137v-328h-227v1360z" />
    <glyph glyph-name="kgreenlandic" unicode="&#x138;" horiz-adv-x="995" 
d="M127 1004h227v-394l361 394h264l-387 -414l420 -590h-271l-303 428l-84 -92v-336h-227v1004z" />
    <glyph glyph-name="Lacute" unicode="&#x139;" horiz-adv-x="1075" 
d="M639 1645l-295 -215h-199l201 215h293zM381 1360v-1157h694v-203h-936v1360h242z" />
    <glyph glyph-name="lacute" unicode="&#x13a;" horiz-adv-x="479" 
d="M627 1645l-295 -215h-199l201 215h293zM354 1360v-1360h-227v1360h227z" />
    <glyph glyph-name="Lcommaaccent" unicode="&#x13b;" horiz-adv-x="1075" 
d="M381 1360v-1157h694v-203h-936v1360h242zM504 -250v182h192v-194l-84 -170h-114l73 182h-67z" />
    <glyph glyph-name="lcommaaccent" unicode="&#x13c;" horiz-adv-x="479" 
d="M354 1360v-1360h-227v1360h227zM143 -250v182h193v-194l-84 -170h-115l74 182h-68z" />
    <glyph glyph-name="Lcaron" unicode="&#x13d;" horiz-adv-x="1075" 
d="M381 1360v-1157h694v-203h-936v1360h242zM825 1360l-133 -324h-147l57 324h223z" />
    <glyph glyph-name="lcaron" unicode="&#x13e;" horiz-adv-x="618" 
d="M354 1360v-1360h-227v1360h227zM692 1360l-133 -324h-147l57 324h223z" />
    <glyph glyph-name="Ldot" unicode="&#x13f;" horiz-adv-x="1112" 
d="M381 1360v-1157h694v-203h-936v1360h242zM139 1640h242v-204h-242v204z" />
    <glyph glyph-name="ldot" unicode="&#x140;" horiz-adv-x="479" 
d="M354 1360v-1360h-227v1360h227zM127 1430v210h227v-210h-227z" />
    <glyph glyph-name="Lslash" unicode="&#x141;" horiz-adv-x="1116" 
d="M180 1360h242v-506l332 217v-213l-332 -217v-438h694v-203h-936v483l-180 -116v213l180 116v664z" />
    <glyph glyph-name="lslash" unicode="&#x142;" horiz-adv-x="479" 
d="M127 1360h227v-463l138 84v-186l-138 -84v-711h-227v571l-139 -84v187l139 84v602z" />
    <glyph glyph-name="Nacute" unicode="&#x143;" horiz-adv-x="1421" 
d="M1063 1645l-295 -215h-199l201 215h293zM1282 0h-332l-569 1081v-1081h-242v1360h332l569 -1081v1081h242v-1360z" />
    <glyph glyph-name="nacute" unicode="&#x144;" horiz-adv-x="1120" 
d="M354 1004v-125q92 145 298 145t294 -125q66 -96 66 -278v-621h-228v563q0 170 -51 221t-141 52q-238 0 -238 -316v-520h-227v1004h227zM907 1360l-270 -242h-174l176 242h268z" />
    <glyph glyph-name="Ncommaaccent" unicode="&#x145;" horiz-adv-x="1421" 
d="M1282 0h-332l-569 1081v-1081h-242v1360h332l569 -1081v1081h242v-1360zM635 -250v182h192v-194l-84 -170h-114l73 182h-67z" />
    <glyph glyph-name="ncommaaccent" unicode="&#x146;" horiz-adv-x="1120" 
d="M354 1004v-125q92 145 298 145t294 -125q66 -96 66 -278v-621h-228v563q0 170 -51 221t-141 52q-238 0 -238 -316v-520h-227v1004h227zM473 -250v182h193v-194l-84 -170h-115l74 182h-68z" />
    <glyph glyph-name="Ncaron" unicode="&#x147;" horiz-adv-x="1421" 
d="M1282 0h-332l-569 1081v-1081h-242v1360h332l569 -1081v1081h242v-1360zM635 1430l-256 215h231l127 -99l131 99h230l-262 -215h-201z" />
    <glyph glyph-name="ncaron" unicode="&#x148;" horiz-adv-x="1120" 
d="M354 1004v-125q92 145 298 145t294 -125q66 -96 66 -278v-621h-228v563q0 170 -51 221t-141 52q-238 0 -238 -316v-520h-227v1004h227zM494 1118l-267 242h209l150 -113l153 113h207l-272 -242h-180z" />
    <glyph glyph-name="napostrophe" unicode="&#x149;" horiz-adv-x="1120" 
d="M354 1004v-125q92 145 298 145t294 -125q66 -96 66 -278v-621h-228v563q0 170 -51 221t-141 52q-238 0 -238 -316v-520h-227v1004h227zM158 1247v183h192v-195l-84 -170h-114l73 182h-67z" />
    <glyph glyph-name="Eng" unicode="&#x14a;" horiz-adv-x="1421" 
d="M381 0h-242v1360h334l567 -952v952h242v-1376q0 -199 -72 -269t-264 -69h-102v207h49q90 -1 119 23t28 104v22l-659 1085v-1087z" />
    <glyph glyph-name="eng" unicode="&#x14b;" horiz-adv-x="1120" 
d="M784 -35v613q0 126 -45 192t-151 66q-233 0 -234 -316v-520h-227v1004h227v-130q92 150 308 150q172 0 261 -102t89 -295v-662q0 -188 -69 -254t-241 -65h-92v186h45q81 0 105 26t24 107z" />
    <glyph glyph-name="Omacron" unicode="&#x14c;" horiz-adv-x="1486" 
d="M84 683q0 321 180 511t481 190t479 -188t179 -513q0 -325 -179 -516q-180 -191 -482 -191t-480 193q-178 194 -178 514zM1153 683q0 245 -114 374t-295 129q-182 0 -296 -129t-114 -373t115 -377t295 -133t294 132q115 132 115 377zM1038 1454h-585v166h585v-166z" />
    <glyph glyph-name="omacron" unicode="&#x14d;" horiz-adv-x="1101" 
d="M59 500q-1 256 141 390t351 134t350 -134t141 -390t-141 -390t-350 -134t-351 134t-141 390zM293 500q0 -166 71 -254q70 -88 188 -88t188 88t69 254q0 166 -70 254q-69 88 -187 88t-188 -88t-71 -254zM840 1155h-586v166h586v-166z" />
    <glyph glyph-name="Obreve" unicode="&#x14e;" horiz-adv-x="1486" 
d="M84 683q0 321 180 511t481 190t479 -188t179 -513q0 -325 -179 -516q-180 -191 -482 -191t-480 193q-178 194 -178 514zM1153 683q0 245 -114 374t-295 129q-182 0 -296 -129t-114 -373t115 -377t295 -133t294 132q115 132 115 377zM736 1549q132 0 143 96h170
q-23 -223 -314 -223t-313 223h170q12 -96 144 -96z" />
    <glyph glyph-name="obreve" unicode="&#x14f;" horiz-adv-x="1101" 
d="M550 1108q-150 0 -226 71t-86 181h165q13 -125 149 -125t150 125h164q-12 -112 -89 -182t-227 -70zM59 500q-1 256 141 390t351 134t350 -134t141 -390t-141 -390t-350 -134t-351 134t-141 390zM293 500q0 -166 71 -254q70 -88 188 -88t188 88t69 254q0 166 -70 254
q-69 88 -187 88t-188 -88t-71 -254z" />
    <glyph glyph-name="Ohungarumlaut" unicode="&#x150;" horiz-adv-x="1486" 
d="M1253 1645l-295 -215h-196l201 215h290zM911 1645l-295 -215h-198l200 215h293zM84 683q0 321 180 511t481 190t479 -188t179 -513q0 -325 -179 -516q-180 -191 -482 -191t-480 193q-178 194 -178 514zM1153 683q0 245 -114 374t-295 129q-182 0 -296 -129t-114 -373
t115 -377t295 -133t294 132q115 132 115 377z" />
    <glyph glyph-name="ohungarumlaut" unicode="&#x151;" horiz-adv-x="1101" 
d="M59 500q-1 256 141 390t351 134t350 -134t141 -390t-141 -390t-350 -134t-351 134t-141 390zM293 500q0 -166 71 -254q70 -88 188 -88t188 88t69 254q0 166 -70 254q-69 88 -187 88t-188 -88t-71 -254zM1020 1360l-270 -242h-175l177 242h268zM678 1360l-268 -242h-177
l177 242h268z" />
    <glyph glyph-name="OE" unicode="&#x152;" horiz-adv-x="2156" 
d="M1149 683q0 245 -113 374t-294 129t-295 -129q-113 -129 -113 -373t114 -377t293 -133q180 0 294 132t114 377zM741 1384q231 0 387 -133v109h975v-203h-733v-354h692v-201h-692v-399h733v-203h-975v111q-158 -135 -389 -136q-301 0 -478 194t-177 514q0 321 179 511
t478 190z" />
    <glyph glyph-name="oe" unicode="&#x153;" horiz-adv-x="1830" 
d="M1290 850q-106 0 -184 -62q-76 -62 -84 -188h522q-6 114 -77 182t-177 68zM293 500q-1 -166 69 -254t189 -88t189 88t69 254q0 166 -70 254q-71 88 -189 88t-188 -88t-69 -254zM59 500q-1 254 143 389t349 135q240 0 369 -180q131 180 369 180q239 0 371 -166t116 -426
h-752q2 -127 78 -201t194 -73q186 0 244 157l219 -28q-45 -141 -168 -227t-293 -85q-254 0 -380 175q-127 -174 -367 -175q-205 -1 -349 135t-143 390z" />
    <glyph glyph-name="Racute" unicode="&#x154;" horiz-adv-x="1271" 
d="M924 1645l-295 -215h-199l201 215h293zM592 1157h-207v-412h215q166 -1 246 45t80 166t-84 161q-84 40 -250 40zM594 547h-209v-547h-246v1360h420q317 0 465 -91t150 -313q0 -268 -259 -362l316 -594h-273l-288 549q-25 -2 -76 -2z" />
    <glyph glyph-name="racute" unicode="&#x155;" horiz-adv-x="702" 
d="M578 784q-113 0 -168 -60t-56 -208v-516h-227v1004h223v-166q84 164 277 168q22 -1 55 -5v-223q-55 6 -104 6zM696 1360l-270 -242h-174l176 242h268z" />
    <glyph glyph-name="Rcommaaccent" unicode="&#x156;" horiz-adv-x="1271" 
d="M545 -250v182h192v-194l-84 -170h-114l73 182h-67zM592 1157h-207v-412h215q166 -1 246 45t80 166t-84 161q-84 40 -250 40zM594 547h-209v-547h-246v1360h420q317 0 465 -91t150 -313q0 -268 -259 -362l316 -594h-273l-288 549q-25 -2 -76 -2z" />
    <glyph glyph-name="rcommaaccent" unicode="&#x157;" horiz-adv-x="702" 
d="M578 784q-113 0 -168 -60t-56 -208v-516h-227v1004h223v-166q84 164 277 168q22 -1 55 -5v-223q-55 6 -104 6zM141 -250v182h193v-194l-84 -170h-115l74 182h-68z" />
    <glyph glyph-name="Rcaron" unicode="&#x158;" horiz-adv-x="1271" 
d="M502 1430l-256 215h231l127 -99l131 99h230l-263 -215h-200zM592 1157h-207v-412h215q166 -1 246 45t80 166t-84 161q-84 40 -250 40zM594 547h-209v-547h-246v1360h420q317 0 465 -91t150 -313q0 -268 -259 -362l316 -594h-273l-288 549q-25 -2 -76 -2z" />
    <glyph glyph-name="rcaron" unicode="&#x159;" horiz-adv-x="702" 
d="M578 784q-113 0 -168 -60t-56 -208v-516h-227v1004h223v-166q84 164 277 168q22 -1 55 -5v-223q-55 6 -104 6zM303 1118l-266 242h209l149 -113l154 113h207l-273 -242h-180z" />
    <glyph glyph-name="Sacute" unicode="&#x15a;" horiz-adv-x="1232" 
d="M971 1645l-295 -215h-199l201 215h293zM94 1001q0 187 157 285t363 98t354 -101t187 -294l-233 -35q-27 119 -118 175q-90 57 -198 57t-188 -43t-80 -133q0 -135 201 -179l170 -36q265 -56 365 -155t100 -251q0 -195 -159 -305t-393 -109q-234 0 -391 123
q-156 123 -186 328l238 37q29 -143 121 -216t226 -73q136 0 218 49t82 143t-71 140q-71 45 -208 76l-168 36q-389 84 -389 383z" />
    <glyph glyph-name="sacute" unicode="&#x15b;" horiz-adv-x="1001" 
d="M490 852q-87 0 -141 -28t-54 -76q0 -84 156 -119l118 -25q187 -41 283 -103t96 -206t-126 -232t-316 -88q-190 -1 -312 95t-139 237l221 33q14 -86 76 -139t162 -53t156 32q55 33 55 91t-49 87t-144 50l-133 28q-151 31 -235 99q-84 69 -84 199t121 210t292 80t293 -79
t150 -222l-213 -29q-16 74 -81 116t-152 42zM809 1360l-270 -242h-174l176 242h268z" />
    <glyph glyph-name="Scircumflex" unicode="&#x15c;" horiz-adv-x="1232" 
d="M735 1645l256 -215h-231l-127 98l-131 -98h-230l263 215h200zM94 1001q0 187 157 285t363 98t354 -101t187 -294l-233 -35q-27 119 -118 175q-90 57 -198 57t-188 -43t-80 -133q0 -135 201 -179l170 -36q265 -56 365 -155t100 -251q0 -195 -159 -305t-393 -109
q-234 0 -391 123q-156 123 -186 328l238 37q29 -143 121 -216t226 -73q136 0 218 49t82 143t-71 140q-71 45 -208 76l-168 36q-389 84 -389 383z" />
    <glyph glyph-name="scircumflex" unicode="&#x15d;" horiz-adv-x="1001" 
d="M490 852q-87 0 -141 -28t-54 -76q0 -84 156 -119l118 -25q187 -41 283 -103t96 -206t-126 -232t-316 -88q-190 -1 -312 95t-139 237l221 33q14 -86 76 -139t162 -53t156 32q55 33 55 91t-49 87t-144 50l-133 28q-151 31 -235 99q-84 69 -84 199t121 210t292 80t293 -79
t150 -222l-213 -29q-16 74 -81 116t-152 42zM600 1360l266 -242h-209l-149 113l-154 -113h-207l273 242h180z" />
    <glyph glyph-name="Scedilla" unicode="&#x15e;" horiz-adv-x="1232" 
d="M549 -281q109 0 108 58q0 55 -77 55q-47 0 -74 -16l-57 32l81 134q-204 26 -330 144t-155 300l238 37q29 -143 121 -216t226 -73q136 0 218 49t82 143t-71 140q-71 45 -208 76l-168 36q-389 84 -389 383q0 187 157 285t363 98t354 -101t187 -294l-233 -35
q-27 119 -118 175q-90 57 -198 57t-188 -43t-80 -133q0 -135 201 -179l170 -36q265 -56 365 -155t100 -251q0 -195 -159 -305t-382 -109h-6l-41 -67q114 21 174 -31q41 -35 41 -99t-65 -107q-64 -42 -158 -42t-172 35l32 82q53 -27 111 -27z" />
    <glyph glyph-name="scedilla" unicode="&#x15f;" horiz-adv-x="1001" 
d="M426 -281q109 1 109 57t-78 56q-47 0 -74 -16l-57 32l84 136q-152 22 -247 112t-108 211l221 33q14 -86 76 -139t162 -53t156 32q55 33 55 91t-49 87t-144 50l-133 28q-151 31 -235 99q-84 69 -84 199t121 210t292 80t293 -79t150 -222l-213 -29q-16 74 -81 116t-152 42
t-141 -28t-54 -76q0 -84 156 -119l118 -25q187 -41 283 -103t96 -206t-126 -232t-312 -88h-6l-41 -67q114 21 174 -31q41 -35 41 -99t-65 -107q-65 -42 -159 -42t-171 35l32 82q53 -27 111 -27z" />
    <glyph glyph-name="Scaron" unicode="&#x160;" horiz-adv-x="1232" 
d="M94 1001q0 187 157 285t363 98t354 -101t187 -294l-233 -35q-27 119 -118 175q-90 57 -198 57t-188 -43t-80 -133q0 -135 201 -179l170 -36q265 -56 365 -155t100 -251q0 -195 -159 -305t-393 -109q-234 0 -391 123q-156 123 -186 328l238 37q29 -143 121 -216t226 -73
q136 0 218 49t82 143t-71 140q-71 45 -208 76l-168 36q-389 84 -389 383zM512 1430l-256 215h231l127 -99l131 99h230l-262 -215h-201z" />
    <glyph glyph-name="scaron" unicode="&#x161;" horiz-adv-x="1001" 
d="M490 852q-87 0 -141 -28t-54 -76q0 -84 156 -119l118 -25q187 -41 283 -103t96 -206t-126 -232t-316 -88q-190 -1 -312 95t-139 237l221 33q14 -86 76 -139t162 -53t156 32q55 33 55 91t-49 87t-144 50l-133 28q-151 31 -235 99q-84 69 -84 199t121 210t292 80t293 -79
t150 -222l-213 -29q-16 74 -81 116t-152 42zM408 1118l-267 242h209l150 -113l153 113h207l-272 -242h-180z" />
    <glyph glyph-name="Tcommaaccent" unicode="&#x162;" horiz-adv-x="1122" 
d="M440 0v1157h-434v203h1110v-203h-434v-1157h-53l-58 -92q115 21 174 -31q41 -35 41 -99t-64 -107q-64 -42 -159 -42q-94 0 -172 35l33 82q53 -27 111 -27q109 0 108 58q0 55 -78 55q-47 0 -73 -16l-58 32l94 152h-88z" />
    <glyph glyph-name="tcommaaccent" unicode="&#x163;" horiz-adv-x="647" 
d="M160 1004v290h227v-290h205v-175h-205v-520q0 -77 25 -103t96 -26h82v-180h-156l-57 -92q114 21 174 -31q41 -35 41 -99t-65 -107q-65 -42 -159 -42t-171 35l32 82q53 -27 111 -27q109 1 109 57t-78 56q-47 0 -74 -16l-57 32l96 156q-104 12 -140 70t-36 194v561h-152
v175h152z" />
    <glyph glyph-name="Tcaron" unicode="&#x164;" horiz-adv-x="1122" 
d="M440 0v1157h-434v203h1110v-203h-434v-1157h-242zM453 1430l-256 215h231l127 -99l131 99h229l-262 -215h-200z" />
    <glyph glyph-name="tcaron" unicode="&#x165;" horiz-adv-x="747" 
d="M160 1004v290h227v-290h205v-175h-205v-520q0 -77 25 -103t96 -26h82v-180h-166q-162 0 -213 54t-51 214v561h-152v175h152zM801 1360l-133 -324h-148l58 324h223z" />
    <glyph glyph-name="Tbar" unicode="&#x166;" horiz-adv-x="1122" 
d="M440 0v598h-311v201h311v358h-434v203h1110v-203h-434v-358h309v-201h-309v-598h-242z" />
    <glyph glyph-name="tbar" unicode="&#x167;" horiz-adv-x="647" 
d="M160 1004v290h227v-290h205v-175h-205v-120h205v-174h-205v-226q0 -77 25 -103t96 -26h82v-180h-166q-162 0 -213 54t-51 214v267h-152v174h152v120h-152v175h152z" />
    <glyph glyph-name="Utilde" unicode="&#x168;" horiz-adv-x="1366" 
d="M119 1360h241v-795q0 -203 70 -297t253 -94t253 98t70 301v787h241v-778q0 -326 -131 -466t-432 -140t-433 134q-132 136 -132 465v785zM807 1573q78 0 94 80h160q-20 -127 -91 -178q-72 -51 -144 -51t-146 40q-74 41 -107 41q-78 0 -90 -80h-161q20 125 90 177t143 53
q73 0 144 -41t108 -41z" />
    <glyph glyph-name="utilde" unicode="&#x169;" horiz-adv-x="1112" 
d="M670 1274q78 0 94 84h162q-20 -134 -91 -188t-146 -54t-147 43t-108 43q-76 0 -92 -84h-162q20 130 91 186t146 56t145 -43t108 -43zM760 0v125q-98 -150 -288 -150t-284 115q-74 94 -73 289v625h227v-574q0 -139 33 -192q47 -74 157 -74q227 0 228 319v521h227v-1004
h-227z" />
    <glyph glyph-name="Umacron" unicode="&#x16a;" horiz-adv-x="1366" 
d="M119 1360h241v-795q0 -203 70 -297t253 -94t253 98t70 301v787h241v-778q0 -326 -131 -466t-432 -140t-433 134q-132 136 -132 465v785zM969 1454h-586v166h586v-166z" />
    <glyph glyph-name="umacron" unicode="&#x16b;" horiz-adv-x="1112" 
d="M844 1155h-586v166h586v-166zM760 0v125q-98 -150 -288 -150t-284 115q-74 94 -73 289v625h227v-574q0 -139 33 -192q47 -74 157 -74q227 0 228 319v521h227v-1004h-227z" />
    <glyph glyph-name="Ubreve" unicode="&#x16c;" horiz-adv-x="1366" 
d="M119 1360h241v-795q0 -203 70 -297t253 -94t253 98t70 301v787h241v-778q0 -326 -131 -466t-432 -140t-433 134q-132 136 -132 465v785zM672 1549q132 0 143 96h170q-23 -223 -313 -223t-314 223h170q12 -96 144 -96z" />
    <glyph glyph-name="ubreve" unicode="&#x16d;" horiz-adv-x="1112" 
d="M554 1108q-150 0 -226 71t-86 181h166q14 -125 149 -125t150 125h163q-12 -112 -89 -182t-227 -70zM760 0v125q-98 -150 -288 -150t-284 115q-74 94 -73 289v625h227v-574q0 -139 33 -192q47 -74 157 -74q227 0 228 319v521h227v-1004h-227z" />
    <glyph glyph-name="Uring" unicode="&#x16e;" horiz-adv-x="1366" 
d="M678 1655q-34 0 -58 -24q-24 -25 -24 -59t25 -56t57 -23q32 0 58 23q24 24 24 58t-24 58t-58 23zM678 1735q72 0 122 -46t50 -116t-49 -116t-123 -46t-123 46t-49 116t50 116t122 46zM119 1360h241v-795q0 -203 70 -297t253 -94t253 98t70 301v787h241v-778
q0 -326 -131 -466t-432 -140t-433 134q-132 136 -132 465v785z" />
    <glyph glyph-name="uring" unicode="&#x16f;" horiz-adv-x="1112" 
d="M760 0v125q-98 -150 -288 -150t-284 115q-74 94 -73 289v625h227v-574q0 -139 33 -192q47 -74 157 -74q227 0 228 319v521h227v-1004h-227zM528 1356q-34 0 -56 -24t-22 -56t24 -56q22 -22 54 -22t57 23q23 23 23 55t-24 56t-56 24zM528 1442q74 0 126 -47t52 -119
t-50 -119q-52 -47 -127 -47t-126 47t-51 119t51 119t125 47z" />
    <glyph glyph-name="Uhungarumlaut" unicode="&#x170;" horiz-adv-x="1366" 
d="M1184 1645l-295 -215h-197l201 215h291zM842 1645l-295 -215h-199l201 215h293zM119 1360h241v-795q0 -203 70 -297t253 -94t253 98t70 301v787h241v-778q0 -326 -131 -466t-432 -140t-433 134q-132 136 -132 465v785z" />
    <glyph glyph-name="uhungarumlaut" unicode="&#x171;" horiz-adv-x="1112" 
d="M1001 1360l-270 -242h-174l176 242h268zM659 1360l-268 -242h-176l176 242h268zM760 0v125q-98 -150 -288 -150t-284 115q-74 94 -73 289v625h227v-574q0 -139 33 -192q47 -74 157 -74q227 0 228 319v521h227v-1004h-227z" />
    <glyph glyph-name="Uogonek" unicode="&#x172;" horiz-adv-x="1366" 
d="M119 1360h241v-795q0 -203 70 -297t253 -94t253 98t70 301v787h241v-778q0 -292 -105 -434t-341 -166q-133 -70 -133 -132q0 -72 98 -71q43 0 102 18v-139q-72 -20 -162 -20t-164 44q-75 44 -75 137t104 163q-240 20 -346 157t-106 436v785z" />
    <glyph glyph-name="uogonek" unicode="&#x173;" horiz-adv-x="1112" 
d="M472 -25q-190 0 -284 115q-74 94 -73 289v625h227v-574q0 -139 33 -192q47 -74 157 -74q227 0 228 319v521h227v-1004q-82 -39 -124 -75t-42 -75q0 -72 99 -71q43 0 102 18v-139q-72 -20 -162 -20t-165 44t-74 132q0 114 139 186v125q-98 -150 -288 -150z" />
    <glyph glyph-name="Wcircumflex" unicode="&#x174;" horiz-adv-x="1705" 
d="M995 1360l236 -1049l209 1049h254l-322 -1360h-287l-231 1038l-229 -1038h-289l-324 1360h262l222 -1047l219 1047h280zM956 1645l256 -215h-231l-127 98l-131 -98h-229l262 215h200z" />
    <glyph glyph-name="wcircumflex" unicode="&#x175;" horiz-adv-x="1378" 
d="M395 297l176 707h234l178 -707l150 707h245l-272 -1004h-215l-203 737l-201 -737h-215l-272 1004h246zM782 1360l267 -242h-209l-150 113l-153 -113h-207l272 242h180z" />
    <glyph glyph-name="Ycircumflex" unicode="&#x176;" horiz-adv-x="1218" 
d="M707 1645l256 -215h-232l-127 98l-131 -98h-229l262 215h201zM723 0h-242v516l-493 844h276l342 -617l352 617h273l-508 -848v-512z" />
    <glyph glyph-name="ycircumflex" unicode="&#x177;" horiz-adv-x="935" 
d="M565 1360l266 -242h-208l-150 113l-154 -113h-206l272 242h180zM182 -354h-102v190h86q80 0 117 26t69 120l10 24l-370 998h248l231 -715l234 715h231l-361 -1002q-76 -209 -151 -283q-76 -73 -242 -73z" />
    <glyph glyph-name="Ydieresis" unicode="&#x178;" horiz-adv-x="1218" 
d="M729 1640h201v-204h-201v204zM281 1640h200v-204h-200v204zM723 0h-242v516l-493 844h276l342 -617l352 617h273l-508 -848v-512z" />
    <glyph glyph-name="Zacute" unicode="&#x179;" horiz-adv-x="1191" 
d="M940 1645l-295 -215h-199l201 215h293zM1118 1360v-197l-770 -954h795v-209h-1090v197l772 954h-710v209h1003z" />
    <glyph glyph-name="zacute" unicode="&#x17a;" horiz-adv-x="940" 
d="M49 0v168l541 645h-502v191h791v-173l-541 -641h555v-190h-844zM805 1360l-270 -242h-175l177 242h268z" />
    <glyph glyph-name="Zdotaccent" unicode="&#x17b;" horiz-adv-x="1191" 
d="M1118 1360v-197l-770 -954h795v-209h-1090v197l772 954h-710v209h1003zM506 1640h233v-204h-233v204z" />
    <glyph glyph-name="zdotaccent" unicode="&#x17c;" horiz-adv-x="940" 
d="M387 1343h201v-210h-201v210zM49 0v168l541 645h-502v191h791v-173l-541 -641h555v-190h-844z" />
    <glyph glyph-name="Zcaron" unicode="&#x17d;" horiz-adv-x="1191" 
d="M1118 1360v-197l-770 -954h795v-209h-1090v197l772 954h-710v209h1003zM526 1430l-256 215h232l127 -99l131 99h229l-262 -215h-201z" />
    <glyph glyph-name="zcaron" unicode="&#x17e;" horiz-adv-x="940" 
d="M49 0v168l541 645h-502v191h791v-173l-541 -641h555v-190h-844zM403 1118l-266 242h209l150 -113l153 113h207l-272 -242h-181z" />
    <glyph glyph-name="uni0186" unicode="&#x186;" horiz-adv-x="1392" 
d="M1309 676q0 -326 -175 -513t-475 -188q-225 0 -379 119t-202 316l231 43q35 -137 133 -208t226 -71q176 0 284 127t109 372q-1 245 -107 379t-276 134q-293 0 -369 -258l-231 39q49 184 208 301t394 116q297 0 463 -191t166 -517z" />
    <glyph glyph-name="uni018F" unicode="&#x18f;" horiz-adv-x="1474" 
d="M736 172q169 0 279 109t124 313h-799q4 -202 116 -312t280 -110zM735 1384q301 0 478 -188t177 -513t-178 -516t-477 -192q-338 0 -508 234t-137 584h1047q-12 188 -125 291q-114 104 -260 104t-242 -58t-135 -163l-238 57q61 168 222 264t376 96z" />
    <glyph glyph-name="uni0190" unicode="&#x190;" horiz-adv-x="1153" 
d="M1096 203v-203h-525q-239 0 -377 98t-138 309t208 310q-66 39 -110 118q-45 79 -45 171q0 354 495 354h479v-203h-501q-104 0 -166 -44t-62 -132q0 -184 228 -184h452v-197h-461q-270 0 -270 -199t262 -198h531z" />
    <glyph glyph-name="uni019D" unicode="&#x19d;" horiz-adv-x="1421" 
d="M-6 -354v207h41q70 -1 87 23t17 99v1385h334l567 -1075v1075h242v-1360h-336l-565 1075v-1110q0 -190 -67 -255t-244 -64h-76z" />
    <glyph glyph-name="uni019F" unicode="&#x19f;" horiz-adv-x="1486" 
d="M743 1186q-159 0 -267 -100t-134 -289h801q-25 189 -133 289t-267 100zM743 174q162 0 273 109t131 311h-807q20 -204 130 -312t273 -108zM88 682q0 322 178 512t478 190t478 -188t177 -513q0 -325 -178 -516q-177 -191 -479 -191t-478 192q-176 193 -176 514z" />
    <glyph glyph-name="Ohorn" unicode="&#x1a0;" horiz-adv-x="1486" 
d="M1153 683q0 245 -114 374t-295 129q-182 0 -296 -129t-114 -373t115 -377t295 -133t294 132q115 132 115 377zM1503 1300q0 -86 -56 -138t-159 -48q115 -176 115 -430q0 -326 -179 -517q-180 -191 -482 -191t-480 193q-178 194 -178 514q0 321 180 511t479 190
q205 0 379 -98q99 -55 150 -29q26 14 26 65t-41 95l199 41q47 -72 47 -158z" />
    <glyph glyph-name="ohorn" unicode="&#x1a1;" horiz-adv-x="1101" 
d="M293 500q0 -166 71 -254q70 -88 188 -88t188 88t69 254q0 166 -70 254q-69 88 -187 88t-188 -88t-71 -254zM993 1012q0 57 -30 102l157 35q35 -74 35 -137q0 -186 -194 -195h-3q84 -131 84 -317q0 -256 -141 -390t-350 -134t-351 134t-141 390q-1 256 141 390t351 134
q111 0 218 -44t138 -44q86 0 86 76z" />
    <glyph glyph-name="Uhorn" unicode="&#x1af;" horiz-adv-x="1366" 
d="M119 1360h241v-795q0 -203 70 -297t253 -94t253 98t70 301v787h159q55 0 81 26t26 67q0 42 -35 99l160 45q47 -75 47 -159t-58 -136t-139 -57v-663q0 -326 -131 -466t-432 -140t-433 134q-132 136 -132 465v785z" />
    <glyph glyph-name="uhorn" unicode="&#x1b0;" horiz-adv-x="1112" 
d="M760 0v125q-98 -150 -288 -150t-284 115q-74 94 -73 289v625h227v-574q0 -139 33 -192q47 -74 157 -74q227 0 228 319v521h125q111 0 110 88q0 47 -34 104l155 51q51 -75 51 -159t-52 -138t-128 -61v-889h-227z" />
    <glyph glyph-name="uni01C4" unicode="&#x1c4;" horiz-adv-x="2461" 
d="M139 1360h336q345 0 557 -137q232 -152 233 -542t-233 -544q-113 -73 -247 -105t-310 -32h-336v1360zM1016 680q0 125 -34 216t-83 140t-128 78t-147 36t-161 7h-82v-954h82q94 0 162 7q69 7 147 36t127 78t83 140t34 216zM2386 1360v-197l-770 -954h794v-209h-1089v197
l772 954h-711v209h1004zM1800 1430l-256 215h232l127 -99l131 99h229l-262 -215h-201z" />
    <glyph glyph-name="uni01C5" unicode="&#x1c5;" horiz-adv-x="2250" 
d="M139 1360h336q345 0 557 -137q232 -152 233 -542t-233 -544q-113 -73 -247 -105t-310 -32h-336v1360zM1016 680q0 125 -34 216t-83 140t-128 78t-147 36t-161 7h-82v-954h82q94 0 162 7q69 7 147 36t127 78t83 140t34 216zM1358 0v168l540 645h-501v191h790v-173
l-540 -641h555v-190h-844zM1716 1118l-266 242h209l149 -113l154 113h207l-273 -242h-180z" />
    <glyph glyph-name="uni01C6" unicode="&#x1c6;" horiz-adv-x="2064" 
d="M293 500q-1 -158 63 -250t180 -92t186 90t71 253q0 163 -70 252q-71 89 -187 89t-180 -92t-63 -250zM1010 1360v-1360h-217l-5 119q-100 -143 -294 -143t-315 140q-120 142 -120 383t126 383q125 142 313 142t284 -129v465h228zM1171 0v168l541 645h-502v191h791v-173
l-541 -641h555v-190h-844zM1534 1118l-266 242h209l149 -113l154 113h207l-273 -242h-180z" />
    <glyph glyph-name="uni01C7" unicode="&#x1c7;" horiz-adv-x="1695" 
d="M381 1360v-1157h694v-203h-936v1360h242zM1118 0v207h31q109 1 137 25t29 122v1006h239v-1018q0 -206 -70 -274t-265 -68h-101z" />
    <glyph glyph-name="uni01C8" unicode="&#x1c8;" horiz-adv-x="1556" 
d="M381 1360v-1157h694v-203h-936v1360h242zM1200 1360h227v-230h-227v230zM1200 -35v1039h227v-1039q0 -193 -60 -256t-237 -63h-75v186h41q70 0 87 24t17 109z" />
    <glyph glyph-name="uni01C9" unicode="&#x1c9;" horiz-adv-x="960" 
d="M354 1360v-1360h-227v1360h227zM606 1360h228v-230h-228v230zM606 -35v1039h228v-1039q0 -193 -60 -256t-237 -63h-76v186h41q70 0 87 24t17 109z" />
    <glyph glyph-name="uni01CA" unicode="&#x1ca;" horiz-adv-x="2041" 
d="M1282 0h-332l-569 1081v-1081h-242v1360h332l569 -1081v1081h242v-1360zM1464 0v207h31q109 1 137 25t29 122v1006h240v-1018q0 -206 -71 -274t-265 -68h-101z" />
    <glyph glyph-name="uni01CB" unicode="&#x1cb;" horiz-adv-x="1900" 
d="M1282 0h-332l-569 1081v-1081h-242v1360h332l569 -1081v1081h242v-1360zM1546 1360h228v-230h-228v230zM1546 -35v1039h228v-1039q0 -193 -60 -256t-237 -63h-76v186h41q70 0 87 24t17 109z" />
    <glyph glyph-name="uni01CC" unicode="&#x1cc;" horiz-adv-x="1601" 
d="M354 1004v-125q92 145 298 145t294 -125q66 -96 66 -278v-621h-228v563q0 170 -51 221t-141 52q-238 0 -238 -316v-520h-227v1004h227zM1247 1360h228v-230h-228v230zM1247 -35v1039h228v-1039q-1 -193 -61 -256t-236 -63h-76v186h41q70 0 87 24t17 109z" />
    <glyph glyph-name="uni01F1" unicode="&#x1f1;" horiz-adv-x="2461" 
d="M139 1360h336q345 0 557 -137q232 -152 233 -542t-233 -544q-113 -73 -247 -105t-310 -32h-336v1360zM1016 680q0 125 -34 216t-83 140t-128 78t-147 36t-161 7h-82v-954h82q94 0 162 7q69 7 147 36t127 78t83 140t34 216zM2386 1360v-197l-770 -954h794v-209h-1089v197
l772 954h-711v209h1004z" />
    <glyph glyph-name="uni01F2" unicode="&#x1f2;" horiz-adv-x="2258" 
d="M139 1360h336q345 0 557 -137q232 -152 233 -542t-233 -544q-113 -73 -247 -105t-310 -32h-336v1360zM1016 680q0 125 -34 216t-83 140t-128 78t-147 36t-161 7h-82v-954h82q94 0 162 7q69 7 147 36t127 78t83 140t34 216zM1366 0v168l541 645h-502v191h790v-173
l-540 -641h555v-190h-844z" />
    <glyph glyph-name="uni01F3" unicode="&#x1f3;" horiz-adv-x="2064" 
d="M293 500q-1 -158 63 -250t180 -92t186 90t71 253q0 163 -70 252q-71 89 -187 89t-180 -92t-63 -250zM1010 1360v-1360h-217l-5 119q-100 -143 -294 -143t-315 140q-120 142 -120 383t126 383q125 142 313 142t284 -129v465h228zM1171 0v168l541 645h-502v191h791v-173
l-541 -641h555v-190h-844z" />
    <glyph glyph-name="Aringacute" unicode="&#x1fa;" horiz-adv-x="1286" 
d="M633 1079l-211 -592h424zM0 0l514 1360h254l518 -1360h-264l-104 287h-568l-102 -287h-248zM637 1655q-33 0 -57 -24q-24 -25 -25 -59q0 -34 25 -56q26 -22 58 -23q32 0 56 23q24 24 25 58q-1 34 -25 58t-57 23zM809 1578q0 -75 -49 -121t-123 -46t-123 46t-49 115
t74 144l166 174h292l-258 -188q70 -49 70 -124z" />
    <glyph glyph-name="aringacute" unicode="&#x1fb;" horiz-adv-x="1064" 
d="M741 418v61l-190 -20q-129 -14 -189 -51t-59 -105q0 -69 48 -109q47 -40 143 -40t172 65q75 66 75 199zM68 306q0 138 110 213t367 106l188 20v35q0 178 -202 178t-218 -166l-211 6q10 152 127 241t326 89t306 -88t97 -297l-4 -289q0 -182 21 -354h-213l-6 121
q-98 -145 -326 -146q-166 1 -264 97t-98 234zM537 1315q-33 0 -56 -24q-23 -25 -23 -57t24 -54q22 -22 55 -23q33 0 57 23q24 24 22 56q0 32 -23 56t-56 23zM715 1235q0 -72 -51 -119t-126 -47t-126 47q-52 46 -52 108t39 122l162 235h268l-206 -201q92 -45 92 -145z" />
    <glyph glyph-name="AEacute" unicode="&#x1fc;" horiz-adv-x="1929" 
d="M1743 1645l-295 -215h-199l201 215h293zM901 487v523l-358 -523h358zM1876 1360v-203h-733v-354h690v-201h-690v-399h733v-203h-975v287h-495l-197 -287h-258l950 1360h975z" />
    <glyph glyph-name="aeacute" unicode="&#x1fd;" horiz-adv-x="1759" 
d="M1212 850q-110 0 -184 -66t-80 -184h522q-4 114 -76 182t-182 68zM303 303q0 -69 48 -109q47 -40 143 -40t172 66t75 198v61l-190 -20q-129 -14 -189 -51t-59 -105zM543 1028q250 0 342 -137q129 133 349 133t352 -166t116 -426h-752q2 -125 77 -200t198 -74
q184 0 241 157l220 -28q-45 -143 -170 -227t-291 -85q-272 0 -398 195q-123 -195 -395 -195q-168 1 -266 97t-98 232t110 213t367 108l188 20v35q0 178 -203 178q-96 0 -150 -45t-63 -125l-215 8q10 152 127 242t314 90zM1171 1360l-270 -242h-174l176 242h268z" />
    <glyph glyph-name="Oslashacute" unicode="&#x1fe;" horiz-adv-x="1478" 
d="M1149 1645l-295 -215h-199l201 215h293zM332 684q0 -186 65 -305l607 711q-109 96 -277 96q-167 0 -281 -129t-114 -373zM1147 684q0 182 -68 305l-606 -713q106 -102 276 -102t284 132t114 378zM1395 671q0 -313 -177 -504t-479 -192q-250 0 -411 131l-121 -141l-92 82
l125 146q-156 190 -156 500q0 311 179 501t478 190q240 0 406 -127l117 138l94 -80l-121 -141q158 -190 158 -503z" />
    <glyph glyph-name="oslashacute" unicode="&#x1ff;" horiz-adv-x="1103" 
d="M895 1360l-270 -242h-174l176 242h268zM293 500q0 -106 26 -178l398 458q-65 62 -175 62t-180 -88t-69 -254zM811 500q0 104 -29 180l-397 -459q63 -63 175 -63t182 88t69 254zM59 520q1 234 145 369t349 135q168 0 295 -92l102 117l86 -76l-104 -121q113 -135 112 -352
q0 -254 -143 -389t-331 -135t-318 92l-102 -119l-87 78l107 120q-111 139 -111 373z" />
    <glyph glyph-name="Scommaaccent" unicode="&#x218;" horiz-adv-x="1232" 
d="M94 1001q0 187 157 285t363 98t354 -101t187 -294l-233 -35q-27 119 -118 175q-90 57 -198 57t-188 -43t-80 -133q0 -135 201 -179l170 -36q265 -56 365 -155t100 -251q0 -195 -159 -305t-393 -109q-234 0 -391 123q-156 123 -186 328l238 37q29 -143 121 -216t226 -73
q136 0 218 49t82 143t-71 140q-71 45 -208 76l-168 36q-389 84 -389 383zM526 -250v182h193v-194l-84 -170h-115l74 182h-68z" />
    <glyph glyph-name="scommaaccent" unicode="&#x219;" horiz-adv-x="1001" 
d="M490 852q-87 0 -141 -28t-54 -76q0 -84 156 -119l118 -25q187 -41 283 -103t96 -206t-126 -232t-316 -88q-190 -1 -312 95t-139 237l221 33q14 -86 76 -139t162 -53t156 32q55 33 55 91t-49 87t-144 50l-133 28q-151 31 -235 99q-84 69 -84 199t121 210t292 80t293 -79
t150 -222l-213 -29q-16 74 -81 116t-152 42zM408 -250v182h192v-194l-84 -170h-115l74 182h-67z" />
    <glyph glyph-name="uni021A" unicode="&#x21a;" horiz-adv-x="1122" 
d="M440 0v1157h-434v203h1110v-203h-434v-1157h-242zM465 -250v182h192v-194l-84 -170h-114l73 182h-67z" />
    <glyph glyph-name="uni021B" unicode="&#x21b;" horiz-adv-x="647" 
d="M160 1004v290h227v-290h205v-175h-205v-520q0 -77 25 -103t96 -26h82v-180h-166q-162 0 -213 54t-51 214v561h-152v175h152zM203 -250v182h192v-194l-84 -170h-114l73 182h-67z" />
    <glyph glyph-name="uni021C" unicode="&#x21c;" horiz-adv-x="1165" 
d="M543 1186q-252 0 -314 -252l-223 47q48 199 194 299t356 100t356 -97q73 -48 117 -130t44 -188q0 -242 -264 -377q147 -44 227 -146t80 -241q1 -537 -1050 -568l-13 207q390 20 562 85t224 161q30 55 29 125q0 123 -86 185t-239 63q-59 0 -146 -15l-28 195
q233 35 346 105t112 202q1 108 -79 174t-205 66z" />
    <glyph glyph-name="uni021D" unicode="&#x21d;" horiz-adv-x="999" 
d="M471 1024q251 0 374 -150q67 -82 66 -198q0 -188 -200 -283q115 -35 176 -115t61 -194q0 -225 -240 -343t-663 -128l-10 182q680 35 680 293q-1 102 -103 158t-295 18l-26 178q195 25 292 76q97 52 97 140t-65 136t-160 48q-209 0 -258 -170l-203 55q43 137 166 217
t311 80z" />
    <glyph glyph-name="uni0226" unicode="&#x226;" horiz-adv-x="1286" 
d="M520 1640h234v-204h-234v204zM633 1079l-211 -592h424zM0 0l514 1360h254l518 -1360h-264l-104 287h-568l-102 -287h-248z" />
    <glyph glyph-name="uni0227" unicode="&#x227;" horiz-adv-x="1064" 
d="M436 1343h201v-210h-201v210zM741 418v61l-190 -20q-129 -14 -189 -51t-59 -105q0 -69 48 -109q47 -40 143 -40t172 65q75 66 75 199zM68 306q0 138 110 213t367 106l188 20v35q0 178 -202 178t-218 -166l-211 6q10 152 127 241t326 89t306 -88t97 -297l-4 -289
q0 -182 21 -354h-213l-6 121q-98 -145 -326 -146q-166 1 -264 97t-98 234z" />
    <glyph glyph-name="uni0232" unicode="&#x232;" horiz-adv-x="1218" 
d="M897 1454h-586v166h586v-166zM723 0h-242v516l-493 844h276l342 -617l352 617h273l-508 -848v-512z" />
    <glyph glyph-name="uni0233" unicode="&#x233;" horiz-adv-x="935" 
d="M754 1155h-586v166h586v-166zM182 -354h-102v190h86q80 0 117 26t69 120l10 24l-370 998h248l231 -715l234 715h231l-361 -1002q-76 -209 -151 -283q-76 -73 -242 -73z" />
    <glyph glyph-name="dotlessj" unicode="&#x237;" horiz-adv-x="509" 
d="M156 -35v1039h227v-1039q0 -188 -69 -254t-240 -65h-92v186h47q79 0 103 26t24 107z" />
    <glyph glyph-name="uni0254" unicode="&#x254;" horiz-adv-x="1064" 
d="M506 -25q-172 1 -295 93t-156 247l219 35q18 -86 78 -139t168 -53t180 88t72 253t-71 254t-174 89q-218 0 -253 -197l-221 35q37 162 165 253t302 91q226 0 356 -145t130 -380t-134 -379t-366 -145z" />
    <glyph glyph-name="uni0259" unicode="&#x259;" horiz-adv-x="1103" 
d="M552 150q106 0 180 62t83 185h-520q4 -113 77 -180q74 -67 180 -67zM543 1024q239 0 371 -147t132 -377t-138 -378q-138 -146 -366 -146t-361 164q-132 165 -118 425h752q-2 123 -78 200t-190 77q-188 0 -250 -160l-217 31q47 143 171 227t292 84z" />
    <glyph glyph-name="uni025B" unicode="&#x25b;" horiz-adv-x="983" 
d="M924 176v-176h-478q-395 0 -395 297q0 158 156 233q-53 32 -87 90t-34 125q0 258 399 259h430v-177h-426q-174 0 -174 -106q0 -115 177 -115h368v-176h-375q-201 0 -200 -127q0 -127 192 -127h447z" />
    <glyph glyph-name="uni0272" unicode="&#x272;" horiz-adv-x="1120" 
d="M127 -35v1039h227v-130q92 150 308 150q172 0 261 -102t89 -295v-627h-228v578q0 126 -45 192t-151 66q-233 0 -234 -316v-555q0 -193 -60 -256t-237 -63h-75v186h41q70 0 87 24t17 109z" />
    <glyph glyph-name="uni0275" unicode="&#x275;" horiz-adv-x="1103" 
d="M552 842q-101 0 -168 -65t-85 -187h506q-18 124 -85 188t-168 64zM552 158q103 0 169 66t84 192h-506q16 -126 83 -192t170 -66zM59 500q1 254 145 389t348 135t348 -135t144 -389t-143 -389t-348 -135t-349 134q-144 136 -145 390z" />
    <glyph glyph-name="circumflex" unicode="&#x2c6;" horiz-adv-x="800" 
d="M494 1360l266 -242h-209l-150 113l-153 -113h-207l272 242h181z" />
    <glyph glyph-name="caron" unicode="&#x2c7;" horiz-adv-x="800" 
d="M307 1118l-266 242h209l149 -113l154 113h207l-273 -242h-180z" />
    <glyph glyph-name="breve" unicode="&#x2d8;" horiz-adv-x="710" 
d="M353 1108q-151 0 -227 71t-85 181h166q14 -125 149 -125t150 125h164q-12 -112 -89 -182t-228 -70z" />
    <glyph glyph-name="dotaccent" unicode="&#x2d9;" horiz-adv-x="282" 
d="M41 1343h201v-210h-201v210z" />
    <glyph glyph-name="ring" unicode="&#x2da;" horiz-adv-x="436" 
d="M217 1356q-33 0 -55 -24t-23 -56q0 -32 23 -56q24 -22 56 -22t56 23t23 55q1 32 -23 56t-57 24zM217 1442q74 0 126 -47t52 -119t-51 -119t-126 -47t-126 47t-51 119t51 119t125 47z" />
    <glyph glyph-name="ogonek" unicode="&#x2db;" horiz-adv-x="483" 
d="M242 -150q0 -72 98 -71q43 0 102 18v-139q-72 -20 -162 -20t-164 44q-75 44 -75 132q0 114 139 186h228q-82 -39 -124 -75t-42 -75z" />
    <glyph glyph-name="tilde" unicode="&#x2dc;" horiz-adv-x="827" 
d="M530 1274q78 0 95 84h161q-20 -134 -91 -188t-145 -54t-149 43q-74 43 -106 43q-76 0 -92 -84h-162q20 130 91 186t146 56t145 -43t107 -43z" />
    <glyph glyph-name="hungarumlaut" unicode="&#x2dd;" horiz-adv-x="868" 
d="M827 1360l-270 -242h-174l176 242h268zM485 1360l-268 -242h-176l176 242h268z" />
    <glyph glyph-name="uni032C" unicode="&#x32c;" horiz-adv-x="800" 
d="M328 -262l-287 262h215l143 -113l148 113h213l-293 -262h-139z" />
    <glyph glyph-name="pi" unicode="&#x3c0;" horiz-adv-x="1263" 
d="M428 0h-213v801h-154v203h1135v-203h-154v-492q0 -81 16 -103t83 -22h61v-184h-94q-166 0 -222 55t-57 232v514h-401v-801z" />
    <glyph glyph-name="Wgrave" unicode="&#x1e80;" horiz-adv-x="1705" 
d="M995 1360l236 -1049l209 1049h254l-322 -1360h-287l-231 1038l-229 -1038h-289l-324 1360h262l222 -1047l219 1047h280zM793 1430l-295 215h290l203 -215h-198z" />
    <glyph glyph-name="wgrave" unicode="&#x1e81;" horiz-adv-x="1378" 
d="M604 1118l-270 242h268l178 -242h-176zM395 297l176 707h234l178 -707l150 707h245l-272 -1004h-215l-203 737l-201 -737h-215l-272 1004h246z" />
    <glyph glyph-name="Wacute" unicode="&#x1e82;" horiz-adv-x="1705" 
d="M1196 1645l-295 -215h-199l201 215h293zM995 1360l236 -1049l209 1049h254l-322 -1360h-287l-231 1038l-229 -1038h-289l-324 1360h262l222 -1047l219 1047h280z" />
    <glyph glyph-name="wacute" unicode="&#x1e83;" horiz-adv-x="1378" 
d="M395 297l176 707h234l178 -707l150 707h245l-272 -1004h-215l-203 737l-201 -737h-215l-272 1004h246zM1038 1360l-270 -242h-174l176 242h268z" />
    <glyph glyph-name="Wdieresis" unicode="&#x1e84;" horiz-adv-x="1705" 
d="M995 1360l236 -1049l209 1049h254l-322 -1360h-287l-231 1038l-229 -1038h-289l-324 1360h262l222 -1047l219 1047h280zM975 1640h201v-204h-201v204zM526 1640h201v-204h-201v204z" />
    <glyph glyph-name="wdieresis" unicode="&#x1e85;" horiz-adv-x="1378" 
d="M395 297l176 707h234l178 -707l150 707h245l-272 -1004h-215l-203 737l-201 -737h-215l-272 1004h246zM813 1343h201v-210h-201v210zM365 1133v210h200v-210h-200z" />
    <glyph glyph-name="uni1EA0" unicode="&#x1ea0;" horiz-adv-x="1286" 
d="M532 -86h201v-211h-201v211zM633 1079l-211 -592h424zM0 0l514 1360h254l518 -1360h-264l-104 287h-568l-102 -287h-248z" />
    <glyph glyph-name="uni1EA1" unicode="&#x1ea1;" horiz-adv-x="1064" 
d="M428 -86h201v-211h-201v211zM741 418v61l-190 -20q-129 -14 -189 -51t-59 -105q0 -69 48 -109q47 -40 143 -40t172 65q75 66 75 199zM68 306q0 138 110 213t367 106l188 20v35q0 178 -202 178t-218 -166l-211 6q10 152 127 241t326 89t306 -88t97 -297l-4 -289
q0 -182 21 -354h-213l-6 121q-98 -145 -326 -146q-166 1 -264 97t-98 234z" />
    <glyph glyph-name="uni1EB8" unicode="&#x1eb8;" horiz-adv-x="1171" 
d="M524 -86h201v-211h-201v211zM139 0v1360h977v-203h-735v-358h694v-201h-694v-395h735v-203h-977z" />
    <glyph glyph-name="uni1EB9" unicode="&#x1eb9;" horiz-adv-x="1097" 
d="M449 -86h200v-211h-200v211zM554 850q-106 0 -182 -64t-83 -186h522q-4 114 -77 182q-74 68 -180 68zM561 -25q-242 -1 -372 147t-130 380q-1 232 137 376q138 146 368 146t361 -164q132 -164 117 -428h-753q2 -123 77 -199t191 -75q188 0 250 157l219 -28
q-41 -129 -159 -221t-306 -91z" />
    <glyph glyph-name="uni1ECA" unicode="&#x1eca;" horiz-adv-x="520" 
d="M158 -86h200v-211h-200v211zM381 1360v-1360h-242v1360h242z" />
    <glyph glyph-name="uni1ECB" unicode="&#x1ecb;" horiz-adv-x="479" 
d="M137 -86h201v-211h-201v211zM127 1360h227v-230h-227v230zM127 1004h227v-1004h-227v1004z" />
    <glyph glyph-name="uni1ECC" unicode="&#x1ecc;" horiz-adv-x="1486" 
d="M639 -86h201v-211h-201v211zM84 683q0 321 180 511t481 190t479 -188t179 -513q0 -325 -179 -516q-180 -191 -482 -191t-480 193q-178 194 -178 514zM1153 683q0 245 -114 374t-295 129q-182 0 -296 -129t-114 -373t115 -377t295 -133t294 132q115 132 115 377z" />
    <glyph glyph-name="uni1ECD" unicode="&#x1ecd;" horiz-adv-x="1103" 
d="M442 -86h201v-211h-201v211zM59 500q-1 256 141 390t351 134t350 -134t141 -390t-141 -390t-350 -134t-351 134t-141 390zM293 500q0 -166 71 -254q70 -88 188 -88t188 88t69 254q0 166 -70 254q-69 88 -187 88t-188 -88t-71 -254z" />
    <glyph glyph-name="uni1EE4" unicode="&#x1ee4;" horiz-adv-x="1366" 
d="M569 -86h201v-211h-201v211zM119 1360h241v-795q0 -203 70 -297t253 -94t253 98t70 301v787h241v-778q0 -326 -131 -466t-432 -140t-433 134q-132 136 -132 465v785z" />
    <glyph glyph-name="uni1EE5" unicode="&#x1ee5;" horiz-adv-x="1112" 
d="M444 -86h201v-211h-201v211zM760 0v125q-98 -150 -288 -150t-284 115q-74 94 -73 289v625h227v-574q0 -139 33 -192q47 -74 157 -74q227 0 228 319v521h227v-1004h-227z" />
    <glyph glyph-name="Ygrave" unicode="&#x1ef2;" horiz-adv-x="1218" 
d="M573 1430l-294 215h290l203 -215h-199zM723 0h-242v516l-493 844h276l342 -617l352 617h273l-508 -848v-512z" />
    <glyph glyph-name="ygrave" unicode="&#x1ef3;" horiz-adv-x="935" 
d="M406 1118l-271 242h268l179 -242h-176zM182 -354h-102v190h86q80 0 117 26t69 120l10 24l-370 998h248l231 -715l234 715h231l-361 -1002q-76 -209 -151 -283q-76 -73 -242 -73z" />
    <glyph glyph-name="endash" unicode="&#x2013;" horiz-adv-x="966" 
d="M905 412h-844v202h844v-202z" />
    <glyph glyph-name="emdash" unicode="&#x2014;" horiz-adv-x="1382" 
d="M1321 412h-1260v202h1260v-202z" />
    <glyph glyph-name="quoteleft" unicode="&#x2018;" horiz-adv-x="462" 
d="M365 1069v-256h-267v274l142 273h135l-125 -291h115z" />
    <glyph glyph-name="quoteright" unicode="&#x2019;" horiz-adv-x="462" 
d="M98 1104v256h267v-275l-142 -272h-135l125 291h-115z" />
    <glyph glyph-name="quotesinglbase" unicode="&#x201a;" horiz-adv-x="462" 
d="M98 0v258h267v-276l-142 -283h-135l125 301h-115z" />
    <glyph glyph-name="quotedblleft" unicode="&#x201c;" horiz-adv-x="821" 
d="M365 1069v-256h-267v274l142 273h135l-125 -291h115zM723 1069v-256h-264v274l141 273h133l-125 -291h115z" />
    <glyph glyph-name="quotedblright" unicode="&#x201d;" horiz-adv-x="821" 
d="M459 1104v256h264v-275l-141 -272h-133l124 291h-114zM98 1104v256h267v-275l-142 -272h-135l125 291h-115z" />
    <glyph glyph-name="quotedblbase" unicode="&#x201e;" horiz-adv-x="831" 
d="M469 0v258h264v-276l-141 -283h-135l125 301h-113zM98 0v258h267v-276l-142 -283h-135l125 301h-115z" />
    <glyph glyph-name="dagger" unicode="&#x2020;" horiz-adv-x="1114" 
d="M664 0h-211v764h-404v205h404v391h211v-391h401v-205h-401v-764z" />
    <glyph glyph-name="daggerdbl" unicode="&#x2021;" horiz-adv-x="1114" 
d="M664 557h401v-203h-401v-354h-211v354h-404v203h404v248h-404v205h404v350h211v-350h401v-205h-401v-248z" />
    <glyph glyph-name="bullet" unicode="&#x2022;" horiz-adv-x="849" 
d="M82 526q0 142 98 242t242 100t244 -98q102 -98 102 -242t-100 -245t-244 -101t-244 100q-98 100 -98 244z" />
    <glyph glyph-name="ellipsis" unicode="&#x2026;" horiz-adv-x="1724" 
d="M1307 0v258h258v-258h-258zM733 0v258h256v-258h-256zM158 0v258h258v-258h-258z" />
    <glyph glyph-name="perthousand" unicode="&#x2030;" horiz-adv-x="2471" 
d="M2105 113q152 0 152 275t-152 276q-152 0 -152 -276t152 -275zM2427 389q0 -187 -83 -295t-240 -108q-156 0 -238 108t-82 295q0 189 82 295t238 106t240 -107q83 -108 83 -294zM1376 113q152 0 152 275t-152 276q-152 0 -152 -276t152 -275zM1698 389q0 -187 -83 -295
t-240 -108t-239 108t-81 295q0 189 82 295q83 106 239 106t239 -107q83 -108 83 -294zM514 0h-240l953 1360h239zM365 696q151 0 151 276t-152 275q-152 1 -151 -275q0 -276 152 -276zM686 973q0 -186 -82 -295t-240 -109q-157 0 -239 108t-82 296q0 189 82 295t239 106
q158 0 240 -108t82 -293z" />
    <glyph glyph-name="guilsinglleft" unicode="&#x2039;" horiz-adv-x="573" 
d="M315 61l-303 439l303 436h217l-256 -436l256 -439h-217z" />
    <glyph glyph-name="guilsinglright" unicode="&#x203a;" horiz-adv-x="573" 
d="M561 500l-303 -439h-217l256 439l-256 436h217z" />
    <glyph glyph-name="fraction" unicode="&#x2044;" horiz-adv-x="282" 
d="M-215 0h-240l953 1360h239z" />
    <glyph glyph-name="zero.superior" unicode="&#x2070;" horiz-adv-x="763" 
d="M383 946q152 0 152 276t-152 275q-152 1 -152 -275t152 -276zM382 819q-157 0 -239 108t-82 296q0 189 82 295t239 106t240 -108t83 -293q0 -186 -83 -295t-240 -109z" />
    <glyph glyph-name="four.superior" unicode="&#x2074;" horiz-adv-x="739" 
d="M709 1147v-143h-131v-170h-164v170h-381v133l391 473h154v-463h131zM414 1147v254l-209 -254h209z" />
    <glyph glyph-name="five.superior" unicode="&#x2075;" horiz-adv-x="716" 
d="M356 946q63 0 101 38q37 38 37 107t-40 107t-98 37q-100 0 -131 -72l-151 11l53 436h500v-142h-363l-20 -153q63 49 167 49q105 0 179 -73t74 -201t-86 -199q-86 -72 -218 -72t-214 69q-81 69 -93 177l158 20q22 -139 145 -139z" />
    <glyph glyph-name="six.superior" unicode="&#x2076;" horiz-adv-x="714" 
d="M394 1354q116 0 193 -72t77 -195t-84 -195t-228 -73t-222 103t-77 284q0 180 80 299t246 119q123 0 193 -63t75 -154l-160 -2q-13 92 -129 92q-58 0 -98 -57q-41 -57 -43 -158q61 72 177 72zM494 1085q0 63 -38 103t-96 39q-58 1 -95 -39q-38 -40 -38 -104t38 -100
q38 -38 96 -38t96 38q37 38 37 101z" />
    <glyph glyph-name="seven.superior" unicode="&#x2077;" horiz-adv-x="614" 
d="M23 1468v142h589v-137q-162 -143 -238 -289t-81 -350h-182q8 358 329 634h-417z" />
    <glyph glyph-name="eight.superior" unicode="&#x2078;" horiz-adv-x="720" 
d="M479 1399q0 45 -32 71t-86 27q-54 0 -86 -27q-31 -26 -31 -70t32 -74t84 -30q53 0 86 29t33 74zM361 1182q-62 0 -99 -32t-37 -85t37 -86t99 -33t100 33q37 33 37 86t-37 85q-38 32 -100 32zM80 1406q0 100 76 160q76 58 205 58q128 0 204 -58t76 -160t-90 -157
q115 -63 115 -182t-85 -183t-219 -65q-134 0 -220 65q-85 64 -85 182t113 183q-90 57 -90 157z" />
    <glyph glyph-name="nine.superior" unicode="&#x2079;" horiz-adv-x="708" 
d="M47 1354q0 122 83 196q84 74 228 74t222 -102t78 -284t-80 -301q-78 -118 -244 -118q-123 0 -194 65t-74 152l157 2q13 -92 131 -92q58 0 99 58t41 157q-60 -71 -176 -71t-194 70t-77 194zM217 1358q0 -62 38 -102t95 -40t96 40q39 38 39 102t-38 102t-97 37
q-59 0 -96 -38t-37 -101z" />
    <glyph glyph-name="plus.superior" unicode="&#x207a;" horiz-adv-x="720" 
d="M438 834h-155v219h-228v143h228v219h155v-219h228v-143h-228v-219z" />
    <glyph glyph-name="minus.superior" unicode="&#x207b;" horiz-adv-x="706" 
d="M55 1196h598v-143h-598v143z" />
    <glyph glyph-name="equal.superior" unicode="&#x207c;" horiz-adv-x="710" 
d="M639 934h-567v145h567v-145zM639 1169h-567v146h567v-146z" />
    <glyph glyph-name="parenleft.superior" unicode="&#x207d;" horiz-adv-x="358" 
d="M45 1122q0 142 46 272t106 216h155q-137 -224 -137 -490t137 -489h-155q-59 86 -106 217q-46 131 -46 274z" />
    <glyph glyph-name="parenright.superior" unicode="&#x207e;" horiz-adv-x="358" 
d="M311 1122q0 -143 -45 -275t-104 -216h-156q137 223 137 489t-137 490h156q59 -86 104 -216t45 -272z" />
    <glyph glyph-name="n.superior" unicode="&#x207f;" horiz-adv-x="698" 
d="M252 1407v-68q50 80 164 80t164 -63q43 -49 43 -168v-354h-166v319q0 75 -22 103t-73 28q-111 0 -110 -158v-292h-166v573h166z" />
    <glyph glyph-name="zero.inferior" unicode="&#x2080;" horiz-adv-x="763" 
d="M383 -133q152 0 152 275t-152 276q-152 0 -152 -276t152 -275zM705 143q0 -187 -83 -295t-240 -108t-239 108t-82 295q0 189 82 295t239 106t240 -107q83 -108 83 -294z" />
    <glyph glyph-name="one.inferior" unicode="&#x2081;" horiz-adv-x="454" 
d="M356 -246h-163v557h-173v117q96 4 140 24t71 80h125v-778z" />
    <glyph glyph-name="two.inferior" unicode="&#x2082;" horiz-adv-x="671" 
d="M340 545q129 -1 205 -57t76 -159t-87 -197t-278 -236h362v-142h-579v133q29 23 151 118t156 133q80 90 92 121t12 69t-31 65q-32 27 -84 27t-89 -38t-37 -116h-162q0 127 82 203t211 76z" />
    <glyph glyph-name="three.inferior" unicode="&#x2083;" horiz-adv-x="712" 
d="M352 -133q61 0 100 30q38 30 37 78q0 113 -184 113h-31v133h27q168 0 168 105q0 44 -34 68t-83 24q-123 0 -143 -129l-158 18q16 111 96 174q81 63 207 63t204 -54t79 -164q0 -110 -107 -162q62 -23 96 -73t33 -114q0 -113 -89 -175t-221 -62t-213 72t-93 178l158 16
q24 -139 151 -139z" />
    <glyph glyph-name="four.inferior" unicode="&#x2084;" horiz-adv-x="739" 
d="M709 68v-144h-131v-170h-164v170h-381v133l391 473h154v-462h131zM414 68v254l-209 -254h209z" />
    <glyph glyph-name="five.inferior" unicode="&#x2085;" horiz-adv-x="716" 
d="M356 -133q63 0 101 38q37 39 37 107t-40 106t-98 38q-100 0 -131 -72l-151 10l53 436h500v-141h-363l-20 -153q63 49 167 49q105 0 179 -73t74 -201q0 -127 -86 -199t-218 -72t-214 69q-81 69 -93 177l158 20q22 -139 145 -139z" />
    <glyph glyph-name="six.inferior" unicode="&#x2086;" horiz-adv-x="714" 
d="M664 8q0 -124 -84 -196t-228 -72t-222 103t-77 283q0 180 80 300q80 119 246 119q123 1 193 -63t75 -154l-160 -2q-13 92 -129 92q-58 0 -98 -58q-41 -58 -43 -157q61 71 177 71t193 -72t77 -194zM494 6q0 62 -38 102t-96 40t-95 -40q-38 -38 -38 -102t38 -102t96 -37
q58 0 96 38q37 38 37 101z" />
    <glyph glyph-name="seven.inferior" unicode="&#x2087;" horiz-adv-x="614" 
d="M23 389v141h589v-137q-162 -143 -238 -289t-81 -350h-182q8 358 329 635h-417z" />
    <glyph glyph-name="eight.inferior" unicode="&#x2088;" horiz-adv-x="720" 
d="M479 319q0 45 -32 72t-86 27t-86 -27q-31 -27 -31 -71t32 -74t84 -29q53 1 86 29t33 73zM361 102q-62 0 -99 -32t-37 -84q0 -53 37 -86t99 -33t100 33q37 33 37 86t-37 85q-38 31 -100 31zM80 328q0 100 76 158t205 59q128 -1 204 -59t76 -160t-90 -156q115 -62 115 -182
t-85 -184t-219 -64t-220 64q-85 64 -85 182t113 184q-90 58 -90 158z" />
    <glyph glyph-name="nine.inferior" unicode="&#x2089;" horiz-adv-x="708" 
d="M318 10q-116 0 -194 71t-77 193q0 122 83 197q84 74 228 74q144 -1 222 -103t78 -284t-80 -300q-78 -118 -244 -118q-123 0 -194 64t-74 153l157 2q13 -92 131 -92q58 0 99 57t41 158q-60 -72 -176 -72zM485 277q0 61 -38 101t-97 40t-96 -38t-37 -102t38 -102
q38 -39 95 -39t96 39t39 101z" />
    <glyph glyph-name="parenleft.inferior" unicode="&#x208d;" horiz-adv-x="358" 
d="M45 43q0 143 46 272t106 215h155q-137 -223 -137 -489t137 -490h-155q-59 85 -105 217t-47 275z" />
    <glyph glyph-name="parenright.inferior" unicode="&#x208e;" horiz-adv-x="358" 
d="M311 43q0 -143 -45 -275t-104 -217h-156q137 223 137 489t-137 490h156q59 -86 104 -215t45 -272z" />
    <glyph glyph-name="Euro" unicode="&#x20ac;" horiz-adv-x="1392" 
d="M788 158q290 0 338 286l213 -4q-29 -219 -181 -342t-377 -123t-375 130t-197 370h-234l95 141h123q-7 81 0 140h-218l95 141h141q49 231 203 359t376 128t369 -124t174 -340l-213 -5q-47 287 -332 287t-358 -305h522l-94 -141h-448q-2 -25 -2 -72t2 -68h383l-95 -141
h-270q70 -317 360 -317z" />
    <glyph glyph-name="afii61289" unicode="&#x2113;" horiz-adv-x="919" 
d="M444 1040v-295l13 11q94 72 137 146t43 179q0 135 -94 136q-53 -1 -76 -41t-23 -136zM217 330v32l-137 -104l-92 139l229 174v430q0 383 334 383q135 0 214 -80t79 -235q0 -156 -105 -277q-57 -67 -112 -114t-158 -125l-25 -18v-205q0 -94 34 -133t111 -39t167 71
l88 -139q-127 -115 -300 -115q-173 1 -250 83t-77 272z" />
    <glyph glyph-name="afii61352" unicode="&#x2116;" horiz-adv-x="2072" 
d="M1997 412h-621v202h621v-202zM1808 1038q0 88 -31 140q-32 51 -91 51q-125 0 -125 -193t125 -192q61 0 92 53q30 53 30 141zM2007 1039q0 -167 -86 -260q-85 -93 -235 -93t-236 93t-86 258t90 256t232 91t232 -89q89 -89 89 -256zM1282 0h-336l-565 1075v-1075h-242v1360
h334l567 -1075v1075h242v-1360z" />
    <glyph glyph-name="trademark" unicode="&#x2122;" horiz-adv-x="1755" 
d="M950 600h-194v760h309l164 -520l170 520h295v-760h-195v543l-184 -543h-178l-187 541v-541zM262 600v596h-246v164h686v-164h-245v-596h-195z" />
    <glyph glyph-name="Omega" unicode="&#x2126;" horiz-adv-x="1513" 
d="M82 786q0 276 198 437t476 161t477 -160t199 -438q0 -176 -104 -319t-267 -201v-63h369v-203h-582v391q162 25 260 139t98 277t-124 279t-326 116t-325 -116q-124 -116 -124 -280q1 -164 99 -277q98 -114 260 -138v-391h-582v203h369v63q-167 56 -269 200t-102 320z" />
    <glyph glyph-name="estimated" unicode="&#x212e;" horiz-adv-x="1103" 
d="M270 565h559v297q-101 100 -283 100t-276 -98v-299zM270 143q100 -104 329 -104q114 -1 208 63t141 179h76q-49 -137 -165 -221t-294 -85q-244 1 -379 149t-135 378t138 378q139 146 367 146t359 -150t136 -372h-781v-361z" />
    <glyph glyph-name="onethird" unicode="&#x2153;" horiz-adv-x="1740" 
d="M532 584h-165v557h-172v116q96 3 140 23t71 82h126v-778zM514 0h-240l953 1360h239zM1378 113q61 0 99 29q37 30 36 79q0 113 -184 113h-31v133h27q168 0 168 104q0 43 -34 68t-88 25t-91 -35t-45 -94l-160 18q16 111 96 174q81 63 207 63t204 -54t79 -164
q0 -110 -107 -162q62 -23 96 -73t33 -114q0 -113 -88 -175t-221 -62t-214 72t-93 178l160 16q20 -139 151 -139z" />
    <glyph glyph-name="twothirds" unicode="&#x2154;" horiz-adv-x="1740" 
d="M514 0h-240l953 1360h239zM78 1096q0 126 82 202t211 76t205 -56t75 -160q0 -104 -87 -196q-87 -93 -277 -237h346v-141h-563v133q113 84 205 161q91 78 114 102t59 68t35 96q0 52 -31 79q-32 27 -84 27t-90 -39q-38 -38 -38 -115h-162zM1378 113q61 0 99 29q37 30 36 79
q0 113 -184 113h-31v133h27q168 0 168 104q0 43 -34 68t-88 25t-91 -35t-45 -94l-160 18q16 111 96 174q81 63 207 63t204 -54t79 -164q0 -110 -107 -162q62 -23 96 -73t33 -114q0 -113 -88 -175t-221 -62t-214 72t-93 178l160 16q20 -139 151 -139z" />
    <glyph glyph-name="uni2155" unicode="&#x2155;" horiz-adv-x="1740" 
d="M532 584h-165v557h-172v116q96 3 140 23t71 82h126v-778zM514 0h-240l953 1360h239zM1372 113q63 0 102 38q38 39 38 107t-41 106q-40 38 -99 37q-96 0 -131 -71l-149 10l53 436h497v-141h-360l-20 -154q58 49 164 49t181 -72t75 -200q0 -127 -87 -200q-86 -72 -218 -72
t-213 68t-93 177l156 21q22 -139 145 -139z" />
    <glyph glyph-name="uni2156" unicode="&#x2156;" horiz-adv-x="1740" 
d="M1372 113q63 0 102 38q38 39 38 107t-41 106q-40 38 -99 37q-96 0 -131 -71l-149 10l53 436h497v-141h-360l-20 -154q58 49 164 49t181 -72t75 -200q0 -127 -87 -200q-86 -72 -218 -72t-213 68t-93 177l156 21q22 -139 145 -139zM514 0h-240l953 1360h239zM78 1096
q0 126 82 202t211 76t205 -56t75 -160q0 -104 -87 -196q-87 -93 -277 -237h346v-141h-563v133q113 84 205 161q91 78 114 102t59 68t35 96q0 52 -31 79q-32 27 -84 27t-90 -39q-38 -38 -38 -115h-162z" />
    <glyph glyph-name="uni2157" unicode="&#x2157;" horiz-adv-x="1740" 
d="M514 0h-240l953 1360h239zM367 696q61 0 98 30t37 79q0 113 -185 113h-30v133h26q168 0 168 104q0 43 -34 68q-33 25 -87 25t-92 -36q-38 -35 -45 -94l-160 19q17 111 97 174t206 63t204 -54t79 -164q0 -110 -106 -163q61 -23 95 -73t34 -113q0 -113 -88 -175t-222 -62
t-214 71q-81 72 -93 178l160 17q21 -140 152 -140zM1372 113q63 0 102 38q38 39 38 107t-41 106q-40 38 -99 37q-96 0 -131 -71l-149 10l53 436h497v-141h-360l-20 -154q58 49 164 49t181 -72t75 -200q0 -127 -87 -200q-86 -72 -218 -72t-213 68t-93 177l156 21
q22 -139 145 -139z" />
    <glyph glyph-name="uni2158" unicode="&#x2158;" horiz-adv-x="1740" 
d="M514 0h-240l953 1360h239zM1372 113q63 0 102 38q38 39 38 107t-41 106q-40 38 -99 37q-96 0 -131 -71l-149 10l53 436h497v-141h-360l-20 -154q58 49 164 49t181 -72t75 -200q0 -127 -87 -200q-86 -72 -218 -72t-213 68t-93 177l156 21q22 -139 145 -139zM702 897v-143
h-131v-170h-165v170h-381v133l393 473h153v-463h131zM406 897v254l-207 -254h207z" />
    <glyph glyph-name="uni2159" unicode="&#x2159;" horiz-adv-x="1740" 
d="M532 584h-165v557h-172v116q96 3 140 23t71 82h126v-778zM1378 664q-58 0 -100 -58q-41 -58 -41 -157q57 71 174 71t194 -72t77 -194q0 -123 -85 -196q-85 -72 -227 -72t-220 103t-79 283q0 180 81 300q81 119 247 119q123 1 191 -63t75 -155l-160 -2q-12 93 -127 93z
M1245 252q0 -64 39 -102t96 -37q57 0 96 39q38 39 38 101t-38 101t-96 39t-96 -39q-39 -38 -39 -102zM514 0h-240l953 1360h239z" />
    <glyph glyph-name="uni215A" unicode="&#x215a;" horiz-adv-x="1740" 
d="M1378 664q-58 0 -100 -58q-41 -58 -41 -157q57 71 174 71t194 -72t77 -194q0 -123 -85 -196q-85 -72 -227 -72t-220 103t-79 283q0 180 81 300q81 119 247 119q123 1 191 -63t75 -155l-160 -2q-12 93 -127 93zM1245 252q0 -64 39 -102t96 -37q57 0 96 39q38 39 38 101
t-38 101t-96 39t-96 -39q-39 -38 -39 -102zM514 0h-240l953 1360h239zM360 696q63 0 102 38q38 38 38 107t-40 107t-100 37q-96 0 -131 -72l-149 11l53 436h498v-141h-361l-20 -154q59 49 165 49q107 0 181 -73t74 -199t-86 -200q-86 -73 -218 -73t-213 69t-94 177l156 21
q22 -140 145 -140z" />
    <glyph glyph-name="oneeighth" unicode="&#x215b;" horiz-adv-x="1740" 
d="M532 584h-165v557h-172v116q96 3 140 23t71 82h126v-778zM514 0h-240l953 1360h239zM1376 463q53 -1 85 29t32 74t-32 71t-86 27t-86 -27t-32 -72t33 -73t86 -29zM1375 348q-62 0 -99 -32t-37 -85t37 -86t99 -33t100 33q37 33 36 86q0 53 -36 85q-38 32 -100 32z
M1096 572q0 102 76 160t203 59q128 -1 205 -59t77 -158t-90 -158q115 -66 115 -184t-87 -182q-86 -64 -220 -64t-219 64t-85 182t115 184q-90 54 -90 156z" />
    <glyph glyph-name="threeeighths" unicode="&#x215c;" horiz-adv-x="1740" 
d="M1376 463q53 -1 85 29t32 74t-32 71t-86 27t-86 -27t-32 -72t33 -73t86 -29zM1375 348q-62 0 -99 -32t-37 -85t37 -86t99 -33t100 33q37 33 36 86q0 53 -36 85q-38 32 -100 32zM1096 572q0 102 76 160t203 59q128 -1 205 -59t77 -158t-90 -158q115 -66 115 -184t-87 -182
q-86 -64 -220 -64t-219 64t-85 182t115 184q-90 54 -90 156zM514 0h-240l953 1360h239zM367 696q61 0 98 30t37 79q0 113 -185 113h-30v133h26q168 0 168 104q0 43 -34 68q-33 25 -87 25t-92 -36q-38 -35 -45 -94l-160 19q17 111 97 174t206 63t204 -54t79 -164
q0 -110 -106 -163q61 -23 95 -73t34 -113q0 -113 -88 -175t-222 -62t-214 71q-81 72 -93 178l160 17q21 -140 152 -140z" />
    <glyph glyph-name="fiveeighths" unicode="&#x215d;" horiz-adv-x="1740" 
d="M514 0h-240l953 1360h239zM1376 463q53 -1 85 29t32 74t-32 71t-86 27t-86 -27t-32 -72t33 -73t86 -29zM1375 348q-62 0 -99 -32t-37 -85t37 -86t99 -33t100 33q37 33 36 86q0 53 -36 85q-38 32 -100 32zM1096 572q0 102 76 160t203 59q128 -1 205 -59t77 -158t-90 -158
q115 -66 115 -184t-87 -182q-86 -64 -220 -64t-219 64t-85 182t115 184q-90 54 -90 156zM360 696q63 0 102 38q38 38 38 107t-40 107t-100 37q-96 0 -131 -72l-149 11l53 436h498v-141h-361l-20 -154q59 49 165 49q107 0 181 -73t74 -199t-86 -200q-86 -73 -218 -73t-213 69
t-94 177l156 21q22 -140 145 -140z" />
    <glyph glyph-name="seveneighths" unicode="&#x215e;" horiz-adv-x="1740" 
d="M514 0h-240l953 1360h239zM1376 463q53 -1 85 29t32 74t-32 71t-86 27t-86 -27t-32 -72t33 -73t86 -29zM1375 348q-62 0 -99 -32t-37 -85t37 -86t99 -33t100 33q37 33 36 86q0 53 -36 85q-38 32 -100 32zM1096 572q0 102 76 160t203 59q128 -1 205 -59t77 -158t-90 -158
q115 -66 115 -184t-87 -182q-86 -64 -220 -64t-219 64t-85 182t115 184q-90 54 -90 156zM70 1219v141h589v-137q-161 -143 -237 -289t-82 -350h-182q8 358 329 635h-417z" />
    <glyph glyph-name="uni215F" unicode="&#x215f;" horiz-adv-x="1011" 
d="M532 584h-165v557h-172v116q96 3 140 23t71 82h126v-778zM514 0h-240l953 1360h239z" />
    <glyph glyph-name="uni2190" unicode="&#x2190;" horiz-adv-x="1542" 
d="M1481 610v-202h-1063l348 -342l-137 -144l-588 590l588 590l137 -146l-352 -346h1067z" />
    <glyph glyph-name="uni2191" unicode="&#x2191;" horiz-adv-x="1261" 
d="M731 0h-203v1024l-348 -350l-139 137l590 590l590 -590l-140 -137l-350 352v-1026z" />
    <glyph glyph-name="uni2192" unicode="&#x2192;" horiz-adv-x="1542" 
d="M61 408v202h1067l-352 346l137 146l588 -590l-588 -590l-137 144l346 342h-1061z" />
    <glyph glyph-name="uni2193" unicode="&#x2193;" horiz-adv-x="1261" 
d="M528 1360h203v-1026l350 352l140 -137l-590 -590l-590 590l139 137l348 -350v1024z" />
    <glyph glyph-name="uni2196" unicode="&#x2196;" horiz-adv-x="1257" 
d="M127 1061h834v-197h-492l748 -753l-140 -140l-753 746v-490h-197v834z" />
    <glyph glyph-name="uni2197" unicode="&#x2197;" horiz-adv-x="1257" 
d="M297 1061h833v-834h-194v492l-754 -748l-141 140l747 753h-491v197z" />
    <glyph glyph-name="uni2198" unicode="&#x2198;" horiz-adv-x="1257" 
d="M1130 834v-834h-833v195h494l-750 753l141 142l754 -750v494h194z" />
    <glyph glyph-name="uni2199" unicode="&#x2199;" horiz-adv-x="1257" 
d="M127 0v834h197v-492l753 748l140 -142l-750 -753h494v-195h-834z" />
    <glyph glyph-name="uni219E" unicode="&#x219e;" horiz-adv-x="1542" 
d="M1481 610v-202h-621l348 -342l-137 -144l-485 486h-168l348 -342l-137 -144l-588 590l588 590l137 -146l-352 -346h166l491 492l137 -146l-352 -346h625z" />
    <glyph glyph-name="uni219F" unicode="&#x219f;" horiz-adv-x="1261" 
d="M731 0h-203v571l-348 -350l-139 137l487 488v178l-348 -350l-139 137l590 590l590 -590l-140 -137l-350 352v-178l490 -490l-140 -137l-350 352v-573z" />
    <glyph glyph-name="uni21A0" unicode="&#x21a0;" horiz-adv-x="1542" 
d="M61 408v202h625l-352 346l137 146l492 -492h165l-352 346l137 146l588 -590l-588 -590l-137 144l346 342h-166l-485 -486l-137 144l346 342h-619z" />
    <glyph glyph-name="uni21A1" unicode="&#x21a1;" horiz-adv-x="1261" 
d="M528 1360h203v-574l350 353l140 -138l-490 -489v-178l350 352l140 -137l-590 -590l-590 590l139 137l348 -350v178l-487 487l139 138l348 -351v572z" />
    <glyph glyph-name="uni21A2" unicode="&#x21a2;" horiz-adv-x="1828" 
d="M41 512l590 590l137 -146l-352 -346h745l492 492l135 -146l-447 -444l447 -446l-135 -144l-486 486h-747l348 -342l-137 -144z" />
    <glyph glyph-name="uni21A3" unicode="&#x21a3;" horiz-adv-x="1828" 
d="M1198 1102l590 -590l-590 -590l-137 144l346 342h-745l-486 -486l-135 144l446 446l-446 444l135 146l492 -492h745l-352 346z" />
    <glyph glyph-name="uni21A4" unicode="&#x21a4;" horiz-adv-x="1607" 
d="M1481 1004v-1004h-213v408h-850l348 -342l-137 -144l-588 590l588 590l137 -146l-352 -346h854v394h213z" />
    <glyph glyph-name="uni21A5" unicode="&#x21a5;" horiz-adv-x="1302" 
d="M752 207h391v-207h-1004v207h410v815l-342 -348l-146 137l590 590l590 -590l-145 -137l-344 350v-817z" />
    <glyph glyph-name="uni21A6" unicode="&#x21a6;" horiz-adv-x="1607" 
d="M127 0v1004h213v-394h854l-352 346l137 146l588 -590l-588 -590l-137 144l346 342h-848v-408h-213z" />
    <glyph glyph-name="uni21A7" unicode="&#x21a7;" horiz-adv-x="1302" 
d="M549 1153h-410v207h1004v-207h-391v-817l344 350l145 -137l-590 -590l-590 590l146 137l342 -348v815z" />
    <glyph glyph-name="partialdiff" unicode="&#x2202;" horiz-adv-x="1128" 
d="M1059 635q0 -313 -130 -487q-131 -174 -365 -173q-234 -1 -370 135t-136 358t129 351q130 129 328 129t304 -137l2 2q-29 173 -172 279t-356 114v185q352 -7 559 -225t207 -531zM550 158q120 0 194 80t73 224q0 144 -75 224q-74 80 -192 80t-189 -82t-71 -222t70 -222
t190 -82z" />
    <glyph glyph-name="Delta" unicode="&#x2206;" horiz-adv-x="1323" 
d="M1018 197l-356 745l-357 -745h713zM-4 0l666 1397l665 -1397h-1331z" />
    <glyph glyph-name="product" unicode="&#x220f;" horiz-adv-x="1310" 
d="M338 -354h-211v1714h1057v-1714h-213v1511h-633v-1511z" />
    <glyph glyph-name="summation" unicode="&#x2211;" horiz-adv-x="1134" 
d="M53 1358h1032v-203h-757l506 -653l-512 -654h763v-202h-1036v186l518 670l-514 672v184z" />
    <glyph glyph-name="minus" unicode="&#x2212;" horiz-adv-x="1146" 
d="M61 610h1024v-202h-1024v202z" />
    <glyph glyph-name="radical" unicode="&#x221a;" horiz-adv-x="1040" 
d="M0 328l315 155l236 -526l266 1403h223l-342 -1714h-213l-268 565l-131 -66z" />
    <glyph glyph-name="infinity" unicode="&#x221e;" horiz-adv-x="1482" 
d="M1069 616q-98 0 -201 -124q104 -127 207 -127q59 0 100 36q39 37 39 91t-39 89q-40 35 -106 35zM410 365q102 0 206 129q-104 123 -202 122q-63 0 -105 -34q-41 -35 -41 -89t40 -92q41 -36 102 -36zM1060 811q167 0 264 -90t97 -231q0 -142 -95 -232t-259 -90t-324 178
q-167 -176 -329 -176t-257 90t-95 232t96 230q98 89 265 89t318 -166q152 166 319 166z" />
    <glyph glyph-name="integral" unicode="&#x222b;" horiz-adv-x="651" 
d="M426 1079l12 -456v-439q0 -316 -87 -432q-87 -117 -222 -117q-78 0 -134 38q-56 37 -56 97t29 92q30 32 74 32t74 -28q44 -41 23 -126q49 6 66 62q16 56 16 169l-10 371v477q0 561 317 561q78 0 131 -39t53 -99t-28 -91q-29 -31 -74 -31q-44 0 -74 28t-30 67t6 59
q-86 -11 -86 -195z" />
    <glyph glyph-name="approxequal" unicode="&#x2248;" horiz-adv-x="1099" 
d="M750 375q117 0 122 131h187q-6 -154 -83 -241t-220 -87q-80 0 -211 66t-195 65q-117 0 -123 -131h-186q6 154 83 241t220 87q96 0 226 -66t180 -65zM750 752q117 0 122 131h187q-6 -154 -83 -241t-220 -87q-80 0 -211 66t-195 65q-117 0 -123 -131h-186q6 152 83 240
t220 88q96 1 226 -65t180 -66z" />
    <glyph glyph-name="notequal" unicode="&#x2260;" horiz-adv-x="1167" 
d="M102 211v205h318l98 190h-416v205h525l135 258l172 -88l-90 -170h221v-205h-328l-100 -190h428v-205h-537l-149 -287l-172 86l104 201h-209z" />
    <glyph glyph-name="lessequal" unicode="&#x2264;" horiz-adv-x="1212" 
d="M102 0v203h1008v-203h-1008zM391 633l715 -182v-215l-1002 303v188l1002 307v-217z" />
    <glyph glyph-name="greaterequal" unicode="&#x2265;" horiz-adv-x="1212" 
d="M1110 0h-1008v203h1008v-203zM821 633l-715 184v217l1002 -307v-188l-1002 -303v215z" />
    <glyph glyph-name="uni25A0" unicode="&#x25a0;" horiz-adv-x="1257" 
d="M127 0v1004h1003v-1004h-1003z" />
    <glyph glyph-name="uni25A1" unicode="&#x25a1;" horiz-adv-x="1257" 
d="M252 881v-756h756v756h-756zM127 0v1004h1003v-1004h-1003z" />
    <glyph glyph-name="lozenge" unicode="&#x25ca;" horiz-adv-x="1044" 
d="M10 643l518 821l506 -821l-506 -821zM530 1094l-278 -451l278 -450l277 450z" />
    <glyph glyph-name="uni25CB" unicode="&#x25cb;" horiz-adv-x="1163" 
d="M582 94q166 0 280 117t115 287q0 170 -115 286q-114 116 -280 117q-166 0 -281 -117q-115 -116 -115 -284t115 -287t281 -119zM59 498q0 218 153 370t370 152q218 0 370 -153t152 -369t-153 -370q-153 -153 -369 -153t-370 153q-153 153 -153 370z" />
    <glyph glyph-name="uni25CF" unicode="&#x25cf;" horiz-adv-x="1163" 
d="M59 498q0 218 153 370t370 152q218 0 370 -153t152 -369t-153 -370q-153 -153 -369 -153t-370 153q-153 153 -153 370z" />
    <glyph glyph-name="onesuperior" horiz-adv-x="454" 
d="M356 834h-163v557h-173v116q96 3 140 23t71 82h125v-778z" />
    <glyph glyph-name="threesuperior" horiz-adv-x="712" 
d="M352 946q61 0 100 30q38 30 37 79q0 113 -184 112h-31v133h27q168 0 168 105q0 43 -34 68t-83 24q-123 0 -143 -129l-158 18q16 110 96 174q81 64 207 64t204 -54t79 -164q0 -110 -107 -163q62 -23 96 -73t33 -113q0 -113 -89 -175t-221 -62t-213 71q-81 72 -93 178
l158 16q24 -139 151 -139z" />
    <glyph glyph-name="twosuperior" horiz-adv-x="671" 
d="M47 1346q0 126 82 202t211 76t205 -56t76 -160t-87 -196q-87 -94 -278 -237h362v-141h-579v133q29 23 150 116t155 132q82 91 94 123t12 70t-31 65q-32 27 -84 27t-89 -39q-37 -38 -37 -115h-162z" />
    <glyph glyph-name="commaaccent" horiz-adv-x="280" 
d="M47 -250v182h193v-194l-84 -170h-115l74 182h-68z" />
    <glyph glyph-name="a.alt" horiz-adv-x="1136" 
d="M293 500q-1 -158 63 -250t180 -92t186 90t71 253q0 163 -70 252q-71 89 -187 89t-180 -92t-63 -250zM1010 1004v-1004h-217l-5 119q-100 -143 -294 -143t-315 140q-120 142 -120 383t126 383q125 142 313 142t284 -129v109h228z" />
    <glyph glyph-name="aacute.alt" horiz-adv-x="1136" 
d="M293 500q-1 -158 63 -250t180 -92t186 90t71 253q0 163 -70 252q-71 89 -187 89t-180 -92t-63 -250zM1010 1004v-1004h-217l-5 119q-100 -143 -294 -143t-315 140q-120 142 -120 383t126 383q125 142 313 142t284 -129v109h228zM860 1360l-270 -242h-174l176 242h268z
" />
    <glyph glyph-name="abreve.alt" horiz-adv-x="1136" 
d="M566 1108q-150 0 -226 71t-86 181h166q14 -125 149 -125t150 125h164q-12 -112 -89 -182t-228 -70zM293 500q-1 -158 63 -250t180 -92t186 90t71 253q0 163 -70 252q-71 89 -187 89t-180 -92t-63 -250zM1010 1004v-1004h-217l-5 119q-100 -143 -294 -143t-315 140
q-120 142 -120 383t126 383q125 142 313 142t284 -129v109h228z" />
    <glyph glyph-name="acircumflex.alt" horiz-adv-x="1136" 
d="M293 500q-1 -158 63 -250t180 -92t186 90t71 253q0 163 -70 252q-71 89 -187 89t-180 -92t-63 -250zM1010 1004v-1004h-217l-5 119q-100 -143 -294 -143t-315 140q-120 142 -120 383t126 383q125 142 313 142t284 -129v109h228zM662 1360l266 -242h-209l-150 113
l-153 -113h-207l272 242h181z" />
    <glyph glyph-name="adieresis.alt" horiz-adv-x="1136" 
d="M293 500q-1 -158 63 -250t180 -92t186 90t71 253q0 163 -70 252q-71 89 -187 89t-180 -92t-63 -250zM1010 1004v-1004h-217l-5 119q-100 -143 -294 -143t-315 140q-120 142 -120 383t126 383q125 142 313 142t284 -129v109h228zM713 1343h200v-210h-200v210zM264 1133
v210h201v-210h-201z" />
    <glyph glyph-name="ae.alt" horiz-adv-x="1818" 
d="M1276 850q-106 0 -184 -64q-76 -64 -82 -186h522q-4 114 -77 182t-179 68zM293 500q-1 -158 63 -250t180 -92t186 90t71 253q0 163 -70 252q-71 89 -187 89t-180 -92t-63 -250zM59 499q0 241 126 383q125 142 313 142t284 -129v109h213v-109q96 129 281 129
q238 0 370 -164t117 -428h-753q2 -123 76 -199t192 -75q188 0 250 157l219 -28q-41 -129 -156 -220t-309 -91t-293 143l-4 -119h-192l-5 119q-100 -143 -294 -143t-315 140q-120 142 -120 383z" />
    <glyph glyph-name="aeacute.alt" horiz-adv-x="1818" 
d="M1241 1360l-270 -242h-174l176 242h268zM1276 850q-106 0 -184 -64q-76 -64 -82 -186h522q-4 114 -77 182t-179 68zM293 500q-1 -158 63 -250t180 -92t186 90t71 253q0 163 -70 252q-71 89 -187 89t-180 -92t-63 -250zM59 499q0 241 126 383q125 142 313 142t284 -129
v109h213v-109q96 129 281 129q238 0 370 -164t117 -428h-753q2 -123 76 -199t192 -75q188 0 250 157l219 -28q-41 -129 -156 -220t-309 -91t-293 143l-4 -119h-192l-5 119q-100 -143 -294 -143t-315 140q-120 142 -120 383z" />
    <glyph glyph-name="agrave.alt" horiz-adv-x="1136" 
d="M580 1118l-271 242h269l178 -242h-176zM293 500q-1 -158 63 -250t180 -92t186 90t71 253q0 163 -70 252q-71 89 -187 89t-180 -92t-63 -250zM1010 1004v-1004h-217l-5 119q-100 -143 -294 -143t-315 140q-120 142 -120 383t126 383q125 142 313 142t284 -129v109h228z
" />
    <glyph glyph-name="amacron.alt" horiz-adv-x="1136" 
d="M870 1155h-585v166h585v-166zM293 500q-1 -158 63 -250t180 -92t186 90t71 253q0 163 -70 252q-71 89 -187 89t-180 -92t-63 -250zM1010 1004v-1004h-217l-5 119q-100 -143 -294 -143t-315 140q-120 142 -120 383t126 383q125 142 313 142t284 -129v109h228z" />
    <glyph glyph-name="aogonek.alt" horiz-adv-x="1136" 
d="M1010 1004v-1004q-82 -39 -124 -75t-42 -75q0 -72 98 -71q43 0 102 18v-139q-72 -20 -162 -20t-164 44q-75 44 -75 132q0 111 150 186l-5 119q-100 -143 -294 -143t-315 140q-120 142 -120 383t126 383q125 142 313 142t284 -129v109h228zM293 500q-1 -158 63 -250
t180 -92t186 90t71 253q0 163 -70 252q-71 89 -187 89t-180 -92t-63 -250z" />
    <glyph glyph-name="aring.alt" horiz-adv-x="1136" 
d="M293 500q-1 -158 63 -250t180 -92t186 90t71 253q0 163 -70 252q-71 89 -187 89t-180 -92t-63 -250zM1010 1004v-1004h-217l-5 119q-100 -143 -294 -143t-315 140q-120 142 -120 383t126 383q125 142 313 142t284 -129v109h228zM549 1356q-33 0 -55 -24t-23 -56
q0 -32 23 -56q24 -22 56 -22t56 23t23 55q1 32 -23 56t-57 24zM549 1442q74 0 126 -47t52 -119t-51 -119t-126 -47t-126 47t-51 119t51 119t125 47z" />
    <glyph glyph-name="aringacute.alt" horiz-adv-x="1136" 
d="M293 500q-1 -158 63 -250t180 -92t186 90t71 253q0 163 -70 252q-71 89 -187 89t-180 -92t-63 -250zM1010 1004v-1004h-217l-5 119q-100 -143 -294 -143t-315 140q-120 142 -120 383t126 383q125 142 313 142t284 -129v109h228zM541 1315q-33 0 -56 -24q-23 -25 -23 -57
t24 -54q22 -22 55 -23q33 0 57 23q24 24 23 56q1 32 -23 56t-57 23zM719 1235q0 -72 -51 -119t-126 -47t-126 47q-51 46 -51 108t38 122l162 235h269l-207 -201q92 -45 92 -145z" />
    <glyph glyph-name="atilde.alt" horiz-adv-x="1136" 
d="M678 1274q78 0 94 84h162q-20 -134 -91 -188t-146 -54t-149 43t-106 43q-76 0 -92 -84h-162q20 130 92 186t146 56t144 -43t108 -43zM293 500q-1 -158 63 -250t180 -92t186 90t71 253q0 163 -70 252q-71 89 -187 89t-180 -92t-63 -250zM1010 1004v-1004h-217l-5 119
q-100 -143 -294 -143t-315 140q-120 142 -120 383t126 383q125 142 313 142t284 -129v109h228z" />
    <glyph glyph-name="uni0227.alt" horiz-adv-x="1136" 
d="M467 1343h201v-210h-201v210zM293 500q-1 -158 63 -250t180 -92t186 90t71 253q0 163 -70 252q-71 89 -187 89t-180 -92t-63 -250zM1010 1004v-1004h-217l-5 119q-100 -143 -294 -143t-315 140q-120 142 -120 383t126 383q125 142 313 142t284 -129v109h228z" />
    <glyph glyph-name="uni1EA1.alt" horiz-adv-x="1136" 
d="M457 -86h200v-211h-200v211zM293 500q-1 -158 63 -250t180 -92t186 90t71 253q0 163 -70 252q-71 89 -187 89t-180 -92t-63 -250zM1010 1004v-1004h-217l-5 119q-100 -143 -294 -143t-315 140q-120 142 -120 383t126 383q125 142 313 142t284 -129v109h228z" />
    <glyph glyph-name="l.alt" horiz-adv-x="499" 
d="M113 268v1092h227v-1051q0 -81 22 -105t91 -24h39v-180h-121q-160 0 -209 53t-49 215z" />
    <glyph glyph-name="lacute.alt" horiz-adv-x="499" 
d="M608 1645l-295 -215h-198l200 215h293zM113 268v1092h227v-1051q0 -81 22 -105t91 -24h39v-180h-121q-160 0 -209 53t-49 215z" />
    <glyph glyph-name="lcaron.alt" horiz-adv-x="610" 
d="M113 268v1092h227v-1051q0 -81 22 -105t91 -24h39v-180h-121q-160 0 -209 53t-49 215zM680 1360l-133 -324h-148l58 324h223z" />
    <glyph glyph-name="lcommaaccent.alt" horiz-adv-x="499" 
d="M113 268v1092h227v-1051q0 -81 22 -105t91 -24h39v-180h-121q-160 0 -209 53t-49 215zM141 -250v182h193v-194l-84 -170h-115l74 182h-68z" />
    <glyph glyph-name="ldot.alt" horiz-adv-x="499" 
d="M113 268v1092h227v-1051q0 -81 22 -105t91 -24h39v-180h-121q-160 0 -209 53t-49 215zM113 1430v210h227v-210h-227z" />
    <glyph glyph-name="lslash.alt" horiz-adv-x="524" 
d="M123 1360h227v-465l139 86v-186l-139 -86v-400q0 -81 22 -105t91 -24h39v-180h-121q-160 0 -209 53t-49 215v303l-137 -84v187l137 84v602z" />
    <glyph glyph-name="zero.plf" horiz-adv-x="1249" 
d="M625 158q153 0 233 134t80 392t-81 388t-233 130t-232 -130q-81 -130 -81 -388t81 -392t233 -134zM625 -25q-269 1 -409 191t-140 517t139 514t409 187t409 -187q141 -187 141 -514t-140 -517t-409 -191z" />
    <glyph glyph-name="zeroslashed.plf" horiz-adv-x="1249" 
d="M311 684v-37l607 254q-57 301 -293 301q-152 0 -233 -130t-81 -388zM625 158q153 0 233 134t80 392q0 8 -1 22t-1 23l-608 -256q59 -315 297 -315zM625 -25q-269 1 -409 191t-140 517t139 514t409 187t409 -187q141 -187 141 -514t-140 -517t-409 -191z" />
    <glyph glyph-name="one.plf" horiz-adv-x="677" 
d="M535 0h-228v1030h-307v156q166 4 242 36t125 138h168v-1360z" />
    <glyph glyph-name="two.plf" horiz-adv-x="1093" 
d="M554 1384q210 0 336 -97t126 -269q0 -232 -280 -490q-135 -126 -398 -329h711v-199h-1006v186q508 396 622 543q115 147 115 257q0 108 -60 164t-167 56t-181 -70t-73 -218l-225 2q-2 208 134 336t346 128z" />
    <glyph glyph-name="three.plf" horiz-adv-x="1144" 
d="M552 158q126 0 205 59t79 166q0 233 -367 233h-45v187h37q340 0 340 209q0 92 -69 141q-70 49 -182 49t-184 -68t-87 -180l-222 23q27 186 160 297q133 110 341 110t341 -89t133 -269q0 -100 -54 -181t-147 -124q119 -45 179 -134t59 -200q0 -199 -148 -305
q-149 -106 -373 -106t-355 121q-131 122 -152 302l221 23q18 -120 91 -192t199 -72z" />
    <glyph glyph-name="four.plf" horiz-adv-x="1179" 
d="M1165 520v-196h-241v-324h-228v324h-682v188l684 848h226v-840h241zM696 520v545l-434 -545h434z" />
    <glyph glyph-name="five.plf" horiz-adv-x="1148" 
d="M567 158q119 0 196 76t77 214t-82 214t-184 76t-171 -41q-68 -40 -90 -95l-213 10l90 748h828v-201h-641l-43 -325q106 86 290 86t316 -125t133 -347q0 -222 -146 -348q-145 -125 -367 -125t-351 124t-148 298l220 25q42 -264 286 -264z" />
    <glyph glyph-name="six.plf" horiz-adv-x="1173" 
d="M608 1202q-139 0 -219 -121t-84 -331q111 154 321 154t341 -128q131 -127 131 -333t-140 -337t-362 -131q-262 -1 -391 177t-129 490t122 516q62 106 172 166t257 60q201 0 315 -108t129 -254l-229 -2q-12 86 -76 134t-158 48zM594 719q-118 0 -194 -78t-76 -204t76 -203
q76 -76 194 -76t194 76t76 203q0 126 -76 204t-194 78z" />
    <glyph glyph-name="seven.plf" horiz-adv-x="948" 
d="M-6 1159v201h991v-201q-277 -260 -413 -526t-158 -633h-256q33 653 587 1159h-751z" />
    <glyph glyph-name="eight.plf" horiz-adv-x="1206" 
d="M602 1202q-114 0 -182 -53t-68 -142t70 -147t182 -59q112 1 180 59t68 147t-68 142t-182 53zM603 629q-128 0 -204 -65q-75 -64 -75 -172t76 -171t203 -63q128 0 204 63t76 171t-76 172q-76 65 -204 65zM602 1384q213 0 343 -98t130 -252q0 -207 -176 -307
q219 -113 219 -342q0 -193 -144 -301t-370 -109q-226 0 -372 109q-144 109 -144 301q0 233 219 342q-88 47 -133 130t-45 177q0 154 130 252t343 98z" />
    <glyph glyph-name="nine.plf" horiz-adv-x="1159" 
d="M551 158q141 0 221 121t84 331q-111 -154 -320 -154q-208 0 -340 128q-132 127 -132 333q0 207 138 337t361 130q520 0 520 -663q0 -395 -180 -595q-61 -69 -155 -110t-211 -41q-201 0 -317 108t-132 255l229 2q14 -86 77 -134t157 -48zM838 925q0 125 -76 201t-196 76
t-194 -76t-75 -202q0 -126 75 -204q76 -79 194 -79t195 79t77 205z" />
    <glyph glyph-name="zero.pof" horiz-adv-x="1198" 
d="M598 160q139 0 214 116t75 347q0 459 -289 458q-289 0 -289 -458q0 -229 75 -346t214 -117zM598 -23q-256 -1 -389 173t-133 473t133 469t390 170t390 -170t133 -469t-134 -473t-390 -173z" />
    <glyph glyph-name="zeroslashed.pof" horiz-adv-x="1198" 
d="M309 623v-25l555 233q-57 250 -266 250q-289 1 -289 -458zM598 160q139 0 214 116t75 347q0 6 -1 18t-1 18l-557 -235q55 -264 270 -264zM598 -23q-256 -1 -389 173t-133 473t133 469t390 170t390 -170t133 -469t-134 -473t-390 -173z" />
    <glyph glyph-name="one.pof" horiz-adv-x="659" 
d="M516 0h-227v915h-289v158q156 4 230 37t118 133h168v-1243z" />
    <glyph glyph-name="two.pof" horiz-adv-x="1046" 
d="M532 1262q202 0 322 -90q121 -90 121 -261q0 -170 -184 -354q-93 -94 -191 -172t-252 -186h653v-199h-958v188q419 305 510 399q136 139 161 202t25 114q0 84 -56 132q-55 48 -153 48t-166 -61t-69 -197l-225 2q-2 197 129 316t333 119z" />
    <glyph glyph-name="three.pof" horiz-adv-x="1097" 
d="M532 160q114 0 186 50t70 140q0 201 -335 201h-50v186h43q311 0 312 181q0 80 -62 122t-166 41q-102 0 -170 -56t-84 -155l-221 23q25 172 156 270q131 99 327 99t324 -81q129 -81 129 -245q0 -92 -52 -166t-138 -113q111 -39 166 -121t55 -182q0 -180 -141 -278
t-353 -98t-339 108q-128 109 -148 279l221 22q16 -103 86 -165t184 -62z" />
    <glyph glyph-name="four.pof" horiz-adv-x="1118" 
d="M1104 489v-202h-221v-287h-228v287h-641v188l648 766h221v-752h221zM655 489v457l-391 -457h391z" />
    <glyph glyph-name="five.pof" horiz-adv-x="1110" 
d="M547 160q113 0 183 66t71 184q0 120 -77 184t-171 64q-95 0 -157 -34t-85 -83l-213 14l86 686h797v-199h-610l-37 -276q100 76 273 76t300 -115t127 -317t-140 -318q-140 -115 -350 -115t-335 111t-148 272l222 27q39 -227 264 -227z" />
    <glyph glyph-name="six.pof" horiz-adv-x="1126" 
d="M584 1081q-129 0 -202 -100t-75 -281q101 129 297 129t322 -118q125 -119 125 -309t-133 -307q-133 -118 -347 -118q-247 0 -371 164t-124 445t119 471q59 96 163 150t244 55q196 0 304 -98t122 -240l-229 -2q-11 78 -69 118t-146 41zM322 400q0 -110 68 -176t180 -64
q110 0 179 66t69 174q0 107 -69 177q-69 69 -179 69t-179 -68t-69 -178z" />
    <glyph glyph-name="seven.pof" horiz-adv-x="856" 
d="M-6 1042v199h940v-194q-264 -236 -392 -475t-147 -572h-254q27 598 549 1042h-696z" />
    <glyph glyph-name="eight.pof" horiz-adv-x="1155" 
d="M805 915q-1 76 -63 121t-164 45t-164 -45t-64 -121q0 -75 62 -125t166 -50q102 0 164 49q62 50 63 126zM578 160q116 0 186 56t70 147t-70 147t-187 55q-118 0 -187 -55q-68 -56 -68 -148t70 -147t186 -55zM578 1262q202 0 326 -92t124 -230q0 -184 -162 -276
q201 -102 201 -310q0 -176 -137 -276t-352 -100q-214 0 -352 100t-138 276q0 207 201 310q-162 94 -162 276q0 138 124 230t327 92z" />
    <glyph glyph-name="nine.pof" horiz-adv-x="1112" 
d="M528 158q129 0 203 100t76 281q-103 -127 -297 -127t-321 115q-126 115 -126 305q-1 190 131 310t343 120q255 0 377 -162t122 -447q0 -189 -48 -335t-169 -243t-309 -97t-300 98q-110 100 -124 241l227 2q11 -81 69 -121t146 -40zM544 596q108 0 178 68t71 176
q0 108 -70 176q-71 66 -181 66t-178 -68q-68 -66 -67 -174q0 -108 69 -176q70 -68 178 -68z" />
    <glyph glyph-name="zero.tlf" horiz-adv-x="1290" 
d="M645 158q152 0 233 134t80 392q0 258 -80 388q-81 130 -233 130q-153 0 -233 -130t-80 -388t80 -392t233 -134zM645 -25q-268 1 -408 191q-141 190 -141 517t140 514t408 187q270 0 410 -187t140 -514t-140 -517t-409 -191z" />
    <glyph glyph-name="zeroslashed.tlf" horiz-adv-x="1290" 
d="M332 684v-37l606 254q-57 301 -293 301q-153 0 -233 -130t-80 -388zM645 158q152 0 233 134t80 392q0 8 -1 22t-1 23l-608 -256q59 -315 297 -315zM645 -25q-268 1 -408 191q-141 190 -141 517t140 514t408 187q270 0 410 -187t140 -514t-140 -517t-409 -191z" />
    <glyph glyph-name="one.tlf" horiz-adv-x="1290" 
d="M770 193h317v-193h-886v193h342v837h-340v156q176 6 265 38t134 136h168v-1167z" />
    <glyph glyph-name="two.tlf" horiz-adv-x="1290" 
d="M653 1384q209 0 335 -97t126 -269q0 -231 -279 -490q-99 -92 -181 -158t-218 -171h711v-199h-1006v186q505 394 621 542q117 149 117 258q-1 108 -61 164t-167 56t-181 -70t-73 -218l-225 2q-2 208 134 336t347 128z" />
    <glyph glyph-name="three.tlf" horiz-adv-x="1290" 
d="M642 158q126 0 205 59t79 166q0 233 -367 233h-45v187h37q340 0 340 209q0 92 -69 141q-70 49 -182 49t-184 -68t-87 -180l-222 23q27 186 160 297q133 110 341 110t342 -89q132 -89 132 -269q0 -100 -54 -181t-146 -124q119 -45 178 -134t59 -200q0 -199 -148 -305
q-149 -106 -373 -106t-355 121q-131 122 -152 302l221 23q18 -120 91 -192t199 -72z" />
    <glyph glyph-name="four.tlf" horiz-adv-x="1290" 
d="M1221 520v-196h-242v-324h-227v324h-682v188l684 848h225v-840h242zM752 520v545l-435 -545h435z" />
    <glyph glyph-name="five.tlf" horiz-adv-x="1290" 
d="M645 158q119 0 196 76t77 214t-82 214t-184 76t-171 -41q-68 -40 -90 -95l-213 10l90 748h828v-201h-641l-43 -325q106 86 290 86t316 -125t133 -347q0 -222 -146 -348q-145 -125 -367 -125t-351 124t-148 298l219 25q43 -264 287 -264z" />
    <glyph glyph-name="six.tlf" horiz-adv-x="1290" 
d="M666 1202q-140 0 -220 -121t-84 -331q111 154 321 154t341 -128q131 -127 131 -333t-140 -337t-362 -131q-262 -1 -391 177t-129 489t122 517q62 106 172 166t257 60q200 0 314 -108t130 -254l-229 -2q-11 86 -75 134t-158 48zM652 719q-118 0 -194 -78t-77 -204
q0 -126 76 -203q77 -76 195 -76t194 76t76 203q0 126 -76 204t-194 78z" />
    <glyph glyph-name="seven.tlf" horiz-adv-x="1290" 
d="M150 1159v201h991v-201q-277 -260 -413 -526t-159 -633h-256q33 653 588 1159h-751z" />
    <glyph glyph-name="eight.tlf" horiz-adv-x="1290" 
d="M644 1202q-114 0 -182 -53t-69 -142q0 -89 70 -147q69 -58 181 -59q112 1 180 59t69 147q0 89 -68 142q-67 53 -181 53zM644 629q-128 0 -204 -65q-76 -64 -76 -172t76 -171t204 -63t204 63t76 171t-76 172q-76 65 -204 65zM643 1384q213 0 343 -98t130 -252
q0 -207 -176 -307q219 -113 219 -342q0 -193 -144 -301q-145 -108 -371 -109q-226 0 -371 109q-144 109 -144 301q0 233 219 342q-88 47 -133 130t-45 177q0 154 130 252t343 98z" />
    <glyph glyph-name="nine.tlf" horiz-adv-x="1290" 
d="M623 158q141 0 221 121t84 331q-111 -154 -320 -154t-341 128q-132 127 -132 333q0 207 138 337t362 130q520 0 520 -663q0 -391 -180 -595q-61 -69 -155 -110t-212 -41q-200 0 -316 108t-132 255l229 2q14 -86 77 -134t157 -48zM909 925q1 125 -75 201t-196 76t-195 -76
t-75 -202t76 -204q74 -79 193 -79t196 79q76 79 76 205z" />
    <glyph glyph-name="zeroslashed.superior" horiz-adv-x="763" 
d="M383 946q143 0 152 246l-297 -70q24 -176 145 -176zM383 1497q-145 0 -152 -250l297 70q-24 180 -145 180zM382 819q-157 0 -239 108t-82 296q0 189 82 295t239 106t240 -108t83 -293q0 -186 -83 -295t-240 -109z" />
    <glyph glyph-name="zeroslashed.inferior" horiz-adv-x="763" 
d="M383 -133q143 0 152 244l-297 -70q24 -174 145 -174zM383 418q-145 0 -152 -250l297 70q-24 180 -145 180zM705 143q0 -187 -83 -295t-240 -108t-239 108t-82 295q0 189 82 295t239 106t240 -107q83 -108 83 -294z" />
    <glyph glyph-name="zero.denominator" horiz-adv-x="763" 
d="M383 113q152 0 152 275t-152 276q-152 0 -152 -276t152 -275zM705 389q0 -187 -83 -295t-240 -108t-239 108t-82 295q0 189 82 295t239 106t240 -107q83 -108 83 -294z" />
    <glyph glyph-name="zeroslashed.denominator" horiz-adv-x="763" 
d="M383 113q143 0 152 243l-297 -69q24 -174 145 -174zM383 664q-145 0 -152 -250l297 69q-24 181 -145 181zM705 389q0 -187 -83 -295t-240 -108t-239 108t-82 295q0 189 82 295t239 106t240 -107q83 -108 83 -294z" />
    <glyph glyph-name="one.denominator" horiz-adv-x="454" 
d="M356 0h-163v557h-173v117q96 4 141 23q44 19 70 81h125v-778z" />
    <glyph glyph-name="two.denominator" horiz-adv-x="671" 
d="M340 791q129 -1 205 -57t76 -160t-87 -196q-87 -93 -278 -237h362v-141h-579v133q29 23 88 69q182 142 240 205q57 63 70 96t13 71t-31 65q-32 27 -84 27t-89 -38t-37 -116h-162q0 127 82 203t211 76z" />
    <glyph glyph-name="three.denominator" horiz-adv-x="712" 
d="M352 113q61 0 100 29q38 30 37 79q0 113 -184 113h-31v133h27q168 0 168 104q0 43 -34 68t-83 25q-123 0 -143 -129l-158 18q16 111 96 174q81 63 207 63t204 -54t79 -164q0 -110 -107 -162q62 -23 96 -73t33 -114q0 -113 -89 -175t-221 -62t-213 72t-93 178l158 16
q24 -139 151 -139z" />
    <glyph glyph-name="four.denominator" horiz-adv-x="739" 
d="M709 313v-143h-131v-170h-164v170h-381v133l391 473h154v-463h131zM414 313v254l-209 -254h209z" />
    <glyph glyph-name="five.denominator" horiz-adv-x="716" 
d="M356 113q63 0 101 38q37 39 37 107t-40 106t-98 37q-100 0 -131 -71l-151 10l53 436h500v-141h-363l-20 -154q63 49 167 49q105 0 179 -72t74 -201q0 -128 -86 -200q-86 -71 -218 -71t-214 68q-81 68 -93 177l158 21q22 -139 145 -139z" />
    <glyph glyph-name="six.denominator" horiz-adv-x="714" 
d="M358 664q-58 0 -98 -58q-41 -58 -43 -157q61 71 177 71t193 -72t77 -194q0 -123 -84 -196q-84 -72 -228 -72t-222 103t-77 283q0 180 80 300q80 119 246 119q123 1 193 -63t75 -155l-160 -2q-13 93 -129 93zM227 252q0 -64 38 -102t96 -37q58 0 96 38q37 38 37 101
t-38 102t-96 39t-95 -39q-38 -38 -38 -102z" />
    <glyph glyph-name="seven.denominator" horiz-adv-x="614" 
d="M23 635v141h589v-137q-162 -143 -238 -289t-81 -350h-182q8 358 329 635h-417z" />
    <glyph glyph-name="eight.denominator" horiz-adv-x="720" 
d="M479 565q0 45 -32 72t-86 27t-86 -27q-31 -27 -31 -71t32 -74t84 -29q53 1 86 29t33 73zM361 348q-62 0 -99 -32t-37 -85t37 -86t99 -33t100 33q37 33 37 86t-37 85q-38 32 -100 32zM80 574q0 100 76 158t205 59q128 -1 204 -59t76 -160t-90 -156q115 -62 115 -182
t-85 -184t-219 -64t-220 64q-85 64 -85 182t113 184q-90 58 -90 158z" />
    <glyph glyph-name="nine.denominator" horiz-adv-x="708" 
d="M318 256q-116 0 -194 71t-77 193q0 122 83 197q84 74 228 74q144 -1 222 -103t78 -284t-79 -301q-79 -118 -245 -117q-123 0 -194 64t-74 153l157 2q13 -92 131 -92q58 0 99 57t41 158q-60 -72 -176 -72zM485 523q0 61 -38 101t-97 40t-96 -38t-37 -102t38 -102
q38 -39 95 -39t96 39t39 101z" />
    <glyph glyph-name="zero.numerator" horiz-adv-x="763" 
d="M383 696q152 0 152 276t-152 275q-152 1 -152 -275t152 -276zM382 569q-157 0 -239 108t-82 296q0 189 82 295t239 106t240 -108t83 -293q0 -186 -83 -295t-240 -109z" />
    <glyph glyph-name="zeroslashed.numerator" horiz-adv-x="763" 
d="M383 696q143 0 152 244l-297 -70q24 -174 145 -174zM383 1247q-145 0 -152 -250l297 70q-24 180 -145 180zM382 569q-157 0 -239 108t-82 296q0 189 82 295t239 106t240 -108t83 -293q0 -186 -83 -295t-240 -109z" />
    <glyph glyph-name="one.numerator" horiz-adv-x="454" 
d="M356 584h-163v557h-173v116q96 3 140 23t71 82h125v-778z" />
    <glyph glyph-name="two.numerator" horiz-adv-x="671" 
d="M47 1096q0 126 82 202t211 76t205 -56t76 -160t-87 -196q-87 -93 -278 -237h362v-141h-579v133q29 23 150 116t155 132q35 39 70 82t36 96t-31 80t-84 27t-89 -39q-37 -38 -37 -115h-162z" />
    <glyph glyph-name="three.numerator" horiz-adv-x="712" 
d="M352 696q61 0 100 30q38 30 37 79q0 113 -184 113h-31v133h27q168 0 168 104q0 43 -34 68t-83 24q-123 0 -143 -129l-158 19q16 111 96 174q81 63 207 63t204 -54t79 -164q0 -110 -107 -163q61 -23 96 -72q34 -50 33 -114q0 -113 -89 -175t-221 -62t-213 71
q-81 72 -93 178l158 17q24 -140 151 -140z" />
    <glyph glyph-name="four.numerator" horiz-adv-x="739" 
d="M709 897v-143h-131v-170h-164v170h-381v133l391 473h154v-463h131zM414 897v254l-209 -254h209z" />
    <glyph glyph-name="five.numerator" horiz-adv-x="716" 
d="M356 696q63 0 101 38q37 38 37 107t-40 107t-98 37q-100 0 -131 -72l-151 11l53 436h500v-141h-363l-20 -154q63 49 167 49q105 0 179 -73t74 -201t-86 -199q-86 -72 -218 -72t-214 69q-81 69 -93 177l158 21q22 -140 145 -140z" />
    <glyph glyph-name="six.numerator" horiz-adv-x="714" 
d="M394 1104q116 0 193 -72t77 -194t-84 -196q-84 -73 -228 -73q-144 -1 -222 103t-77 284q0 180 80 299t246 119q123 0 193 -63t75 -154l-160 -2q-13 92 -129 92q-58 0 -98 -57q-41 -57 -43 -158q61 72 177 72zM227 836q0 -64 38 -102t96 -38t96 38q37 38 37 102t-38 102
q-38 39 -96 39t-95 -39q-38 -38 -38 -102z" />
    <glyph glyph-name="seven.numerator" horiz-adv-x="614" 
d="M23 1219v141h589v-137q-162 -143 -238 -289t-81 -350h-182q8 358 329 635h-417z" />
    <glyph glyph-name="eight.numerator" horiz-adv-x="720" 
d="M479 1149q0 45 -32 72t-86 27t-86 -28q-31 -26 -31 -70t32 -74t84 -30q53 0 86 30q33 28 33 73zM361 932q-62 0 -99 -32t-37 -85t37 -86t99 -33t100 33q37 33 37 86t-37 85q-38 32 -100 32zM80 1156q0 100 76 160q76 58 205 58q128 0 204 -58t76 -160t-90 -157
q115 -63 115 -182t-85 -183t-219 -65q-134 0 -220 65q-85 64 -85 182t113 183q-90 57 -90 157z" />
    <glyph glyph-name="nine.numerator" horiz-adv-x="708" 
d="M47 1104q0 122 83 196q84 74 228 74t222 -102t78 -284t-80 -301q-78 -118 -244 -118q-123 0 -194 65t-74 152l157 2q13 -92 131 -92q58 0 99 58t41 157q-60 -71 -176 -71t-194 70t-77 194zM485 1108q0 64 -38 102t-97 37q-59 0 -96 -38t-37 -101t38 -102t95 -39t96 39
q39 38 39 102z" />
    <glyph glyph-name="a.superior" horiz-adv-x="657" 
d="M426 1061v35l-92 -9q-117 -14 -117 -75q0 -31 23 -51q22 -21 68 -21t82 31t36 90zM340 1421q127 0 187 -53q59 -52 57 -150t-2 -187t12 -197h-152l-2 63q-56 -78 -166 -78t-168 55q-57 54 -57 134q1 80 61 126t220 60l92 10v19q0 82 -98 82t-103 -78l-153 2q10 90 77 141
q68 51 195 51z" />
    <glyph glyph-name="b.superior" horiz-adv-x="702" 
d="M369 1292q-57 0 -90 -47t-33 -126t33 -126t90 -47t88 49t30 125q0 76 -30 124q-31 48 -88 48zM86 834v776h166v-262q51 72 159 72q109 0 177 -82q68 -81 68 -219t-72 -219t-176 -81t-158 70l-2 -55h-162z" />
    <glyph glyph-name="c.superior" horiz-adv-x="661" 
d="M326 1419q120 0 194 -53t96 -149l-155 -25q-18 100 -117 100q-59 0 -93 -45t-34 -127t34 -129t93 -47q100 0 121 105l156 -23q-25 -98 -101 -152t-198 -55q-122 0 -197 82q-76 82 -76 217t79 218q78 83 198 83z" />
    <glyph glyph-name="d.superior" horiz-adv-x="706" 
d="M338 946q57 0 91 47t34 126t-34 126t-91 47t-87 -48t-30 -125t30 -125t87 -48zM623 1610v-776h-164v61q-51 -76 -161 -76t-178 81t-69 218q0 137 72 219t176 82t158 -67v258h166z" />
    <glyph glyph-name="e.superior" horiz-adv-x="679" 
d="M343 1303q-50 0 -88 -30t-42 -91h254q-2 59 -38 90t-86 31zM334 819q-129 0 -207 85t-78 218t81 215t218 82t215 -94t68 -252h-418q2 -57 39 -93t94 -36q90 0 121 80l156 -20q-25 -76 -93 -130t-196 -55z" />
    <glyph glyph-name="f.superior" horiz-adv-x="409" 
d="M104 1407v29q0 106 46 140t163 34h72v-129h-45q-45 -1 -57 -11t-13 -49v-14h115v-121h-117v-452h-164v452h-79v121h79z" />
    <glyph glyph-name="g.superior" horiz-adv-x="698" 
d="M334 969q57 0 91 43t34 118q0 74 -34 118t-90 44t-87 -46t-31 -116q0 -161 117 -161zM453 858v57q-49 -71 -158 -71t-177 78t-69 209q0 131 72 209t174 79q102 0 160 -67v55h161v-530q0 -135 -70 -195t-210 -59q-238 0 -264 184l155 8q16 -72 111 -72q53 1 84 25t31 90z
" />
    <glyph glyph-name="h.superior" horiz-adv-x="698" 
d="M252 1610v-271q50 80 164 80t164 -63q43 -49 43 -168v-354h-166v319q0 75 -22 103t-73 28q-111 0 -110 -158v-292h-166v776h166z" />
    <glyph glyph-name="i.superior" horiz-adv-x="335" 
d="M86 1610h166v-146h-166v146zM86 1407h166v-573h-166v573z" />
    <glyph glyph-name="j.superior" horiz-adv-x="337" 
d="M86 1610h166v-146h-166v146zM86 825v582h166v-584q0 -117 -40 -155t-155 -37h-51v129h25q35 0 45 12t10 53z" />
    <glyph glyph-name="k.superior" horiz-adv-x="667" 
d="M86 1610h166v-408l192 205h199l-209 -217l219 -356h-190l-144 237l-67 -72v-165h-166v776z" />
    <glyph glyph-name="l.superior" horiz-adv-x="335" 
d="M252 1610v-776h-166v776h166z" />
    <glyph glyph-name="m.superior" horiz-adv-x="1044" 
d="M86 834v573h166v-68q49 80 169 80t163 -94q66 94 180 94t160 -57t47 -174v-354h-166v319q0 79 -21 105t-67 26q-104 0 -105 -158v-292h-166v319q0 75 -22 103t-66 28q-106 0 -106 -158v-292h-166z" />
    <glyph glyph-name="o.superior" horiz-adv-x="684" 
d="M49 1119q0 146 84 223t210 77t210 -77t84 -223t-84 -223t-210 -77t-210 77t-84 223zM219 1119q0 -83 33 -128t90 -45t92 45t35 128t-35 128t-92 45t-90 -45t-33 -128z" />
    <glyph glyph-name="p.superior" horiz-adv-x="702" 
d="M369 1292q-57 0 -90 -47t-33 -126t33 -126t90 -47t88 49t30 125q0 76 -30 124q-31 48 -88 48zM252 631h-166v776h162v-64q51 76 161 76q111 0 179 -81t68 -219t-72 -219t-176 -81t-156 70v-258z" />
    <glyph glyph-name="q.superior" horiz-adv-x="702" 
d="M334 946q57 0 91 47t34 126t-34 126t-90 47t-87 -48t-31 -125t30 -125t87 -48zM618 1407v-776h-165v262q-51 -74 -159 -74t-176 81t-69 218q0 137 72 219q73 83 175 83t159 -68l2 55h161z" />
    <glyph glyph-name="r.superior" horiz-adv-x="450" 
d="M367 1251q-115 0 -115 -125v-292h-166v573h162v-90q45 90 153 90q21 0 29 -2v-160q-61 6 -63 6z" />
    <glyph glyph-name="s.superior" horiz-adv-x="620" 
d="M219 1253q0 -37 74 -53l69 -14q109 -25 163 -61q55 -35 55 -119t-76 -136t-184 -51q-108 0 -182 44q-75 44 -95 114l121 61q37 -96 145 -96t109 53q0 41 -90 58l-72 16q-193 39 -193 176q0 80 73 127t172 47q100 -1 170 -37t93 -102l-114 -61q-41 79 -139 79t-99 -45z
" />
    <glyph glyph-name="t.superior" horiz-adv-x="438" 
d="M106 1407v170h166v-170h119v-121h-119v-264q0 -37 14 -50t50 -14h53v-124h-108q-102 0 -139 32q-36 33 -36 131v289h-86v121h86z" />
    <glyph glyph-name="u.superior" horiz-adv-x="694" 
d="M276 819q-198 0 -198 234v354h166v-322q0 -74 18 -98q20 -33 72 -33q109 0 108 162v291h166v-573h-166v65q-51 -80 -166 -80z" />
    <glyph glyph-name="v.superior" horiz-adv-x="616" 
d="M201 1407l112 -381l111 381h174l-207 -573h-162l-209 573h181z" />
    <glyph glyph-name="w.superior" horiz-adv-x="878" 
d="M270 1022l84 385h172l88 -383l70 383h176l-158 -573h-165l-97 378l-94 -378h-168l-158 573h179z" />
    <glyph glyph-name="x.superior" horiz-adv-x="657" 
d="M627 1407l-205 -277l215 -296h-193l-120 165l-123 -165h-181l216 288l-203 285h188l111 -154l114 154h181z" />
    <glyph glyph-name="y.superior" horiz-adv-x="608" 
d="M135 631h-67v131h59q39 0 55 10t41 64l-211 571h181l112 -383l115 383h170l-209 -567q-45 -123 -95 -166t-151 -43z" />
    <glyph glyph-name="z.superior" horiz-adv-x="598" 
d="M37 834v120l289 320h-269v133h486v-123l-289 -317h299v-133h-516z" />
    <glyph glyph-name="a.inferior" horiz-adv-x="657" 
d="M426 -18v34l-92 -8q-117 -14 -117 -76q0 -31 23 -51q22 -20 68 -20t82 31t36 90zM340 342q127 0 187 -53q59 -53 57 -151t-2 -187q0 -90 12 -197h-152l-2 64q-56 -78 -166 -78t-168 55q-57 55 -57 134q1 79 61 125t220 61l92 10v18q0 82 -98 82t-103 -78l-153 3
q10 90 77 141q68 51 195 51z" />
    <glyph glyph-name="b.inferior" horiz-adv-x="702" 
d="M369 213q-57 0 -90 -47t-33 -126t33 -126t90 -47t88 49t30 125q0 76 -30 124q-31 48 -88 48zM86 -246v776h166v-262q51 72 159 72q109 0 177 -81t68 -219t-72 -219t-176 -81t-158 70l-2 -56h-162z" />
    <glyph glyph-name="c.inferior" horiz-adv-x="661" 
d="M326 340q120 0 194 -53t96 -150l-155 -24q-18 100 -117 100q-59 0 -93 -45t-34 -127t34 -129t93 -47q100 0 121 104l156 -22q-25 -99 -101 -153t-198 -54t-197 82q-76 82 -76 217t79 218q78 83 198 83z" />
    <glyph glyph-name="d.inferior" horiz-adv-x="706" 
d="M338 -133q57 0 91 47t34 126t-34 126t-91 47t-87 -48t-30 -125t30 -125t87 -48zM623 530v-776h-164v62q-51 -76 -161 -76t-178 81t-69 218q0 137 72 219t176 82t158 -68v258h166z" />
    <glyph glyph-name="e.inferior" horiz-adv-x="679" 
d="M343 223q-50 1 -88 -29t-42 -92h254q-2 59 -38 90t-86 31zM334 -260q-129 0 -207 85t-78 218t81 215t218 82t215 -94t68 -252h-418q4 -57 40 -93t93 -36q90 0 121 80l156 -21q-25 -76 -93 -130t-196 -54z" />
    <glyph glyph-name="f.inferior" horiz-adv-x="409" 
d="M104 328v28q0 106 46 140t163 34h72v-129h-45q-45 0 -57 -10t-13 -49v-14h115v-121h-117v-453h-164v453h-79v121h79z" />
    <glyph glyph-name="g.inferior" horiz-adv-x="698" 
d="M334 -111q57 0 91 43t34 118t-34 119t-90 44t-87 -46t-31 -116q0 -162 117 -162zM453 -221v57q-49 -72 -158 -72t-177 78t-69 209q0 131 72 210t174 79t160 -68v56h161v-531q0 -137 -73 -194q-68 -59 -207 -60q-238 0 -264 185l155 8q16 -72 111 -72q53 0 84 24t31 91z
" />
    <glyph glyph-name="h.inferior" horiz-adv-x="698" 
d="M252 530v-270q50 80 164 80t164 -64q43 -49 43 -167v-355h-166v320q0 74 -22 102t-73 29q-111 0 -110 -158v-293h-166v776h166z" />
    <glyph glyph-name="i.inferior" horiz-adv-x="335" 
d="M86 530h166v-145h-166v145zM86 328h166v-574h-166v574z" />
    <glyph glyph-name="j.inferior" horiz-adv-x="337" 
d="M86 530h166v-145h-166v145zM86 -254v582h166v-584q0 -117 -40 -155t-155 -38h-51v130h25q35 0 45 12t10 53z" />
    <glyph glyph-name="k.inferior" horiz-adv-x="667" 
d="M86 530h166v-407l192 205h199l-209 -217l219 -357h-190l-144 238l-67 -72v-166h-166v776z" />
    <glyph glyph-name="l.inferior" horiz-adv-x="335" 
d="M252 530v-776h-166v776h166z" />
    <glyph glyph-name="m.inferior" horiz-adv-x="1044" 
d="M86 -246v574h166v-68q49 80 169 80t163 -94q66 94 180 94t160 -57t47 -174v-355h-166v320q0 78 -21 104t-67 27q-104 0 -105 -158v-293h-166v320q0 76 -22 104t-66 27q-106 0 -106 -158v-293h-166z" />
    <glyph glyph-name="n.inferior" horiz-adv-x="698" 
d="M252 328v-68q50 80 164 80t164 -64q43 -49 43 -167v-355h-166v320q0 74 -22 102t-73 29q-111 0 -110 -158v-293h-166v574h166z" />
    <glyph glyph-name="o.inferior" horiz-adv-x="684" 
d="M49 40q0 146 84 223t210 77t210 -77t84 -223t-84 -223t-210 -77t-210 77t-84 223zM219 40q0 -83 33 -128t90 -45t92 45t35 128t-35 128t-92 45t-90 -45t-33 -128z" />
    <glyph glyph-name="p.inferior" horiz-adv-x="702" 
d="M369 213q-57 0 -90 -47t-33 -126t33 -126t90 -47t88 49t30 125q0 76 -30 124q-31 48 -88 48zM252 -449h-166v777h162v-64q51 76 161 76q111 0 179 -81t68 -219t-72 -219t-176 -81t-156 70v-259z" />
    <glyph glyph-name="q.inferior" horiz-adv-x="702" 
d="M334 -133q57 0 91 47t34 126t-34 126t-90 47t-87 -48t-31 -125t30 -125t87 -48zM618 328v-777h-165v263q-51 -74 -159 -74t-176 81t-69 218q0 137 72 219q73 82 175 82t159 -68l2 56h161z" />
    <glyph glyph-name="r.inferior" horiz-adv-x="450" 
d="M367 172q-115 0 -115 -125v-293h-166v574h162v-90q45 90 153 90q21 0 29 -2v-160q-61 6 -63 6z" />
    <glyph glyph-name="s.inferior" horiz-adv-x="620" 
d="M318 219q-98 0 -99 -45q0 -37 74 -53l69 -15q109 -24 163 -60q55 -36 55 -120t-76 -135t-184 -51t-182 44q-75 44 -95 114l121 61q37 -96 145 -96t109 53q0 41 -90 57l-72 17q-193 39 -193 176q0 80 73 127t172 47q100 0 170 -36t93 -103l-114 -62q-41 80 -139 80z" />
    <glyph glyph-name="t.inferior" horiz-adv-x="438" 
d="M106 328v170h166v-170h119v-121h-119v-264q0 -37 14 -51t50 -13h53v-125h-108q-102 0 -139 33q-36 33 -36 131v289h-86v121h86z" />
    <glyph glyph-name="u.inferior" horiz-adv-x="694" 
d="M442 -246v66q-50 -80 -160 -80t-157 57t-47 176v355h166v-322q0 -74 18 -98q20 -33 72 -33q109 0 108 162v291h166v-574h-166z" />
    <glyph glyph-name="v.inferior" horiz-adv-x="616" 
d="M201 328l112 -381l111 381h174l-207 -574h-162l-209 574h181z" />
    <glyph glyph-name="w.inferior" horiz-adv-x="878" 
d="M270 -57l84 385h172l88 -383l70 383h176l-158 -574h-165l-97 379l-94 -379h-168l-158 574h179z" />
    <glyph glyph-name="x.inferior" horiz-adv-x="657" 
d="M627 328l-205 -277l215 -297h-193l-120 168l-123 -168h-181l216 289l-203 285h188l111 -154l114 154h181z" />
    <glyph glyph-name="y.inferior" horiz-adv-x="608" 
d="M135 -449h-67v132h59q39 0 57 11t33 50l6 12l-211 572h181l112 -383l115 383h170l-209 -568q-45 -123 -95 -166t-151 -43z" />
    <glyph glyph-name="z.inferior" horiz-adv-x="598" 
d="M37 -246v121l289 320h-269v133h486v-123l-289 -318h299v-133h-516z" />
    <glyph glyph-name="a.denominator" horiz-adv-x="657" 
d="M426 227v35l-92 -8q-117 -14 -117 -76q0 -31 23 -51q22 -21 68 -21t82 31t36 90zM340 588q127 0 187 -53q59 -53 57 -151t-2 -187q0 -90 12 -197h-152l-2 63q-56 -77 -166 -77t-168 55q-57 55 -57 134q1 79 61 125t220 60l92 11v18q0 82 -98 82t-103 -78l-153 2
q10 90 77 142q68 51 195 51z" />
    <glyph glyph-name="b.denominator" horiz-adv-x="702" 
d="M369 459q-57 0 -90 -47t-33 -126t33 -126t90 -47t88 49t30 125q0 76 -30 124q-31 48 -88 48zM86 0v776h166v-262q51 72 159 72q109 0 177 -81t68 -219t-72 -219t-176 -81t-158 69l-2 -55h-162z" />
    <glyph glyph-name="c.denominator" horiz-adv-x="661" 
d="M326 586q120 0 194 -54t96 -149l-155 -25q-18 100 -117 101q-59 0 -93 -45t-34 -127t34 -129t93 -47q100 0 121 104l156 -22q-25 -99 -101 -153t-198 -54t-197 82q-76 82 -76 217t79 218q78 83 198 83z" />
    <glyph glyph-name="d.denominator" horiz-adv-x="706" 
d="M338 113q57 0 91 47t34 126t-34 126t-91 47t-87 -48t-30 -125t30 -125t87 -48zM623 776v-776h-164v61q-51 -75 -161 -75t-178 81t-69 218q0 137 72 219t176 82t158 -68v258h166z" />
    <glyph glyph-name="e.denominator" horiz-adv-x="679" 
d="M343 469q-50 0 -88 -30t-42 -91h254q-2 59 -38 90t-86 31zM334 -14q-129 0 -207 85t-78 218t81 215t218 82t215 -94t68 -252h-418q2 -58 39 -94t94 -35q90 0 121 79l156 -20q-25 -76 -93 -130t-196 -54z" />
    <glyph glyph-name="f.denominator" horiz-adv-x="409" 
d="M104 573v29q0 106 46 140t163 34h72v-129h-45q-45 0 -57 -10t-13 -49v-15h115v-120h-117v-453h-164v453h-79v120h79z" />
    <glyph glyph-name="g.denominator" horiz-adv-x="698" 
d="M334 135q57 0 91 43t34 118t-34 119t-90 44t-87 -46t-31 -116q0 -162 117 -162zM453 25v57q-49 -72 -158 -72t-177 78t-69 209q0 131 72 210t174 79t160 -68v55h161v-530q0 -137 -73 -195q-68 -59 -207 -59q-238 0 -264 184l155 9q16 -72 111 -72q53 0 84 24t31 91z" />
    <glyph glyph-name="h.denominator" horiz-adv-x="698" 
d="M252 776v-270q50 80 164 80t164 -64q43 -49 43 -168v-354h-166v319q0 74 -22 103t-73 29q-111 0 -110 -158v-293h-166v776h166z" />
    <glyph glyph-name="i.denominator" horiz-adv-x="335" 
d="M86 776h166v-145h-166v145zM86 573h166v-573h-166v573z" />
    <glyph glyph-name="j.denominator" horiz-adv-x="337" 
d="M86 776h166v-145h-166v145zM86 -8v581h166v-583q0 -117 -40 -155t-155 -38h-51v129h25q35 0 45 12t10 54z" />
    <glyph glyph-name="k.denominator" horiz-adv-x="667" 
d="M86 776h166v-407l192 204h199l-209 -217l219 -356h-190l-144 238l-67 -72v-166h-166v776z" />
    <glyph glyph-name="l.denominator" horiz-adv-x="335" 
d="M252 776v-776h-166v776h166z" />
    <glyph glyph-name="m.denominator" horiz-adv-x="1044" 
d="M86 0v573h166v-67q49 80 169 80t163 -94q66 94 180 94t160 -58t47 -174v-354h-166v319q0 78 -21 105t-67 27q-104 0 -105 -158v-293h-166v319q0 78 -22 105t-66 27q-106 0 -106 -158v-293h-166z" />
    <glyph glyph-name="n.denominator" horiz-adv-x="698" 
d="M252 573v-67q50 80 164 80t164 -64q43 -49 43 -168v-354h-166v319q0 74 -22 103t-73 29q-111 0 -110 -158v-293h-166v573h166z" />
    <glyph glyph-name="o.denominator" horiz-adv-x="684" 
d="M637 286q0 -146 -84 -224t-210 -76q-126 0 -210 77t-84 223t84 223t210 77t210 -77t84 -223zM219 286q0 -83 33 -128t90 -45t92 45t35 128t-35 128t-92 45t-90 -45t-33 -128z" />
    <glyph glyph-name="p.denominator" horiz-adv-x="702" 
d="M369 459q-57 0 -90 -47t-33 -126t33 -126t90 -47t88 49t30 125q0 76 -30 124q-31 48 -88 48zM252 -203h-166v776h162v-63q51 76 161 76q111 0 179 -81t68 -219t-72 -219t-176 -81t-156 69v-258z" />
    <glyph glyph-name="q.denominator" horiz-adv-x="702" 
d="M334 113q57 0 91 47t34 126t-34 126t-90 47t-87 -48t-31 -125t30 -125t87 -48zM618 573v-776h-165v262q-51 -73 -159 -73t-176 81t-69 218q0 137 72 219q73 82 175 82t159 -68l2 55h161z" />
    <glyph glyph-name="r.denominator" horiz-adv-x="450" 
d="M367 418q-115 0 -115 -125v-293h-166v573h162v-90q45 90 153 90q21 0 29 -2v-159q-61 6 -63 6z" />
    <glyph glyph-name="s.denominator" horiz-adv-x="620" 
d="M318 465q-98 0 -99 -45q0 -37 74 -53l69 -15q109 -24 163 -60q55 -36 55 -120t-76 -135t-184 -51t-182 44q-75 44 -95 113l121 62q37 -96 145 -96t109 53q0 41 -90 57l-72 17q-193 39 -193 176q0 80 73 127t172 47q100 0 170 -37t93 -103l-114 -61q-41 80 -139 80z" />
    <glyph glyph-name="t.denominator" horiz-adv-x="438" 
d="M106 573v170h166v-170h119v-120h-119v-265q0 -37 14 -50t50 -13h53v-125h-108q-102 0 -139 33q-36 33 -36 131v289h-86v120h86z" />
    <glyph glyph-name="u.denominator" horiz-adv-x="694" 
d="M442 0v66q-50 -80 -160 -80t-157 57t-47 176v354h166v-321q0 -74 18 -98q20 -33 72 -33q109 0 108 162v290h166v-573h-166z" />
    <glyph glyph-name="v.denominator" horiz-adv-x="616" 
d="M201 573l112 -380l111 380h174l-207 -573h-162l-209 573h181z" />
    <glyph glyph-name="w.denominator" horiz-adv-x="878" 
d="M270 188l84 385h172l88 -383l70 383h176l-158 -573h-165l-97 379l-94 -379h-168l-158 573h179z" />
    <glyph glyph-name="x.denominator" horiz-adv-x="657" 
d="M627 573l-205 -276l215 -297h-193l-120 166l-123 -166h-181l216 289l-203 284h188l111 -153l114 153h181z" />
    <glyph glyph-name="y.denominator" horiz-adv-x="608" 
d="M135 -203h-67v131h59q39 0 57 12t33 50l6 12l-211 571h181l112 -383l115 383h170l-209 -567q-45 -123 -95 -166t-151 -43z" />
    <glyph glyph-name="z.denominator" horiz-adv-x="598" 
d="M37 0v121l289 319h-269v133h486v-122l-289 -318h299v-133h-516z" />
    <glyph glyph-name="a.numerator" horiz-adv-x="657" 
d="M426 811v35l-92 -8q-117 -14 -117 -76q0 -31 23 -51q22 -21 68 -21t82 31t36 90zM340 1171q127 0 187 -53q59 -52 57 -150t-2 -186t12 -198h-152l-2 63q-56 -78 -166 -78q-110 -1 -168 55t-57 135t61 125t220 60l92 10v19q0 82 -98 82t-103 -78l-153 2q10 90 77 141
q68 51 195 51z" />
    <glyph glyph-name="b.numerator" horiz-adv-x="702" 
d="M369 1042q-57 0 -90 -47t-33 -126t33 -126t90 -47t88 49t30 125q0 76 -30 124q-31 48 -88 48zM86 584v776h166v-262q51 72 159 72q109 0 177 -82q68 -80 68 -218t-72 -220q-72 -81 -176 -81t-158 70l-2 -55h-162z" />
    <glyph glyph-name="c.numerator" horiz-adv-x="661" 
d="M326 1169q120 0 194 -53t96 -149l-155 -25q-18 100 -117 100q-59 0 -93 -45t-34 -127t34 -129t93 -47q100 0 121 105l156 -23q-25 -98 -101 -152t-198 -54t-197 81q-76 82 -76 217t79 218q78 83 198 83z" />
    <glyph glyph-name="d.numerator" horiz-adv-x="706" 
d="M338 696q57 0 91 47t34 126t-34 126t-91 47t-87 -48t-30 -126t30 -125t87 -47zM623 1360v-776h-164v61q-51 -76 -161 -76t-178 81t-69 218q0 137 72 219t176 82t158 -67v258h166z" />
    <glyph glyph-name="e.numerator" horiz-adv-x="679" 
d="M343 1053q-50 0 -88 -30t-42 -91h254q-2 59 -38 90t-86 31zM334 569q-129 0 -207 85t-78 218t81 215t218 82t215 -94t68 -252h-418q2 -57 39 -93t94 -36q90 0 121 80l156 -20q-25 -76 -93 -130t-196 -55z" />
    <glyph glyph-name="f.numerator" horiz-adv-x="409" 
d="M104 1157v29q0 106 46 140t163 34h72v-129h-45q-45 0 -57 -10t-13 -50v-14h115v-121h-117v-452h-164v452h-79v121h79z" />
    <glyph glyph-name="g.numerator" horiz-adv-x="698" 
d="M334 719q57 0 91 43t34 118q0 74 -34 118t-90 44t-87 -46t-31 -115q0 -162 117 -162zM453 608v58q-49 -72 -158 -72t-177 78t-69 209q0 131 72 210t174 79t160 -68v55h161v-530q0 -137 -73 -195q-68 -59 -207 -59q-238 0 -264 184l155 8q16 -72 111 -71q53 0 84 24t31 90
z" />
    <glyph glyph-name="h.numerator" horiz-adv-x="698" 
d="M252 1360v-270q50 80 164 80t164 -64q43 -49 43 -168v-354h-166v319q0 74 -22 103t-73 28q-111 0 -110 -157v-293h-166v776h166z" />
    <glyph glyph-name="i.numerator" horiz-adv-x="335" 
d="M86 1360h166v-146h-166v146zM86 1157h166v-573h-166v573z" />
    <glyph glyph-name="j.numerator" horiz-adv-x="337" 
d="M86 1360h166v-146h-166v146zM86 575v582h166v-584q0 -117 -40 -155t-155 -37h-51v129h25q35 0 45 12t10 53z" />
    <glyph glyph-name="k.numerator" horiz-adv-x="667" 
d="M86 1360h166v-408l192 205h199l-209 -217l219 -356h-190l-144 237l-67 -71v-166h-166v776z" />
    <glyph glyph-name="l.numerator" horiz-adv-x="335" 
d="M252 1360v-776h-166v776h166z" />
    <glyph glyph-name="m.numerator" horiz-adv-x="1044" 
d="M86 584v573h166v-67q49 80 169 80t163 -95q66 94 180 94t160 -57t47 -174v-354h-166v319q0 78 -21 105t-67 26q-104 0 -105 -157v-293h-166v319q0 76 -22 104t-66 27q-106 0 -106 -157v-293h-166z" />
    <glyph glyph-name="n.numerator" horiz-adv-x="698" 
d="M252 1157v-67q50 80 164 80t164 -64q43 -49 43 -168v-354h-166v319q0 74 -22 103t-73 28q-111 0 -110 -157v-293h-166v573h166z" />
    <glyph glyph-name="o.numerator" horiz-adv-x="684" 
d="M49 869q0 145 84 223t210 78t210 -78q84 -76 84 -222t-84 -224q-84 -77 -210 -77t-210 77t-84 223zM219 869q0 -83 33 -128t90 -45t92 45t35 128t-35 128t-92 45t-90 -45t-33 -128z" />
    <glyph glyph-name="p.numerator" horiz-adv-x="702" 
d="M369 1042q-57 0 -90 -47t-33 -126t33 -126t90 -47t88 49t30 125q0 76 -30 124q-31 48 -88 48zM252 381h-166v776h162v-63q51 76 161 76q111 0 179 -82q68 -80 68 -218t-72 -220q-72 -81 -176 -81t-156 70v-258z" />
    <glyph glyph-name="q.numerator" horiz-adv-x="702" 
d="M334 696q57 0 91 47t34 126t-34 126t-90 47t-87 -48t-31 -126t30 -125t87 -47zM618 1157v-776h-165v262q-51 -74 -159 -74t-176 81t-69 218q0 137 72 219q73 83 175 83t159 -68l2 55h161z" />
    <glyph glyph-name="r.numerator" horiz-adv-x="450" 
d="M367 1001q-115 0 -115 -124v-293h-166v573h162v-90q45 90 153 90q21 0 29 -2v-160q-61 6 -63 6z" />
    <glyph glyph-name="s.numerator" horiz-adv-x="620" 
d="M318 1049q-98 0 -99 -45q0 -37 74 -54l69 -14q109 -24 163 -60q55 -36 55 -120t-76 -135t-184 -51t-182 43q-75 44 -95 114l121 61q37 -96 145 -96t109 53q0 41 -90 58l-72 16q-193 39 -193 176q0 80 73 127t172 47t170 -36q70 -37 93 -103l-114 -61q-41 80 -139 80z" />
    <glyph glyph-name="t.numerator" horiz-adv-x="438" 
d="M106 1157v170h166v-170h119v-121h-119v-264q0 -37 14 -50t50 -13h53v-125h-108q-102 0 -139 32q-36 33 -36 132v288h-86v121h86z" />
    <glyph glyph-name="u.numerator" horiz-adv-x="694" 
d="M276 569q-198 0 -198 234v354h166v-321q0 -74 18 -99q20 -33 72 -32q109 0 108 161v291h166v-573h-166v65q-51 -80 -166 -80z" />
    <glyph glyph-name="v.numerator" horiz-adv-x="616" 
d="M201 1157l112 -381l111 381h174l-207 -573h-162l-209 573h181z" />
    <glyph glyph-name="w.numerator" horiz-adv-x="878" 
d="M270 772l84 385h172l88 -383l70 383h176l-158 -573h-165l-97 379l-94 -379h-168l-158 573h179z" />
    <glyph glyph-name="x.numerator" horiz-adv-x="657" 
d="M627 1157l-205 -276l215 -297h-193l-120 166l-123 -166h-181l216 288l-203 285h188l111 -153l114 153h181z" />
    <glyph glyph-name="y.numerator" horiz-adv-x="608" 
d="M135 381h-67v131h59q39 0 55 10t41 64l-211 571h181l112 -383l115 383h170l-209 -567q-45 -123 -95 -166t-151 -43z" />
    <glyph glyph-name="z.numerator" horiz-adv-x="598" 
d="M37 584v121l289 319h-269v133h486v-123l-289 -317h299v-133h-516z" />
    <glyph glyph-name="zero.fractioninf" 
d="M365 113q151 0 151 275t-151 276q-152 0 -152 -276t152 -275zM686 389q0 -187 -82 -295t-240 -108q-157 0 -239 108t-82 295q0 189 82 295t239 106q158 0 240 -107q82 -108 82 -294z" />
    <glyph glyph-name="one.fractioninf" 
d="M532 0h-165v557h-172v117q96 4 140 23t71 81h126v-778z" />
    <glyph glyph-name="two.fractioninf" 
d="M372 791q130 -1 205 -57t75 -160t-88 -196q-87 -93 -277 -237h364v-141h-581v133q27 20 147 115t179 155q60 60 73 97q14 36 14 74t-31 65q-32 27 -84 27t-90 -38t-38 -116h-162q0 127 82 203t212 76z" />
    <glyph glyph-name="three.fractioninf" 
d="M367 113q61 -1 98 29t37 79q0 113 -185 113h-30v133h26q168 0 168 104q0 43 -34 68q-33 25 -87 25t-92 -35t-45 -94l-160 18q17 111 97 174t206 63t204 -54t79 -164q0 -110 -106 -162q61 -23 95 -73t34 -114q0 -113 -88 -175t-222 -62t-214 72q-81 72 -93 178l160 16
q21 -139 152 -139z" />
    <glyph glyph-name="four.fractioninf" 
d="M702 313v-143h-131v-170h-165v170h-381v133l393 473h153v-463h131zM406 313v254l-207 -254h207z" />
    <glyph glyph-name="five.fractioninf" 
d="M360 113q63 0 102 38q38 39 38 107t-40 106t-100 37q-96 0 -131 -71l-149 10l53 436h498v-141h-361l-20 -154q59 49 165 49q107 0 181 -72t74 -200q0 -127 -86 -200q-86 -72 -218 -72t-213 68t-94 177l156 21q22 -139 145 -139z" />
    <glyph glyph-name="six.fractioninf" 
d="M670 254q0 -123 -84 -196q-84 -72 -226 -72t-222 103q-79 103 -79 283t81 300q81 119 247 119q123 1 192 -63t74 -155l-159 -2q-12 93 -128 93q-58 0 -100 -58q-41 -58 -41 -157q57 71 175 71t194 -72t76 -194zM369 393q-57 0 -97 -39q-40 -38 -39 -102q0 -64 39 -102
q38 -38 96 -37q58 0 96 39t38 101t-38 101t-95 39z" />
    <glyph glyph-name="seven.fractioninf" 
d="M70 635v141h589v-137q-161 -143 -237 -289t-82 -350h-182q8 358 329 635h-417z" />
    <glyph glyph-name="eight.fractioninf" 
d="M365 463q53 -1 85 29t31 74q0 44 -31 71q-32 27 -86 27t-86 -27t-32 -72t33 -73t86 -29zM364 348q-62 0 -100 -32t-37 -85q0 -53 37 -86q38 -33 100 -33t99 34q37 32 37 85t-37 85t-99 32zM84 572q0 102 76 160t204 59q128 -1 204 -59t77 -158q0 -100 -90 -158
q115 -66 115 -184t-86 -182t-220 -64t-220 64q-85 64 -85 182t115 184q-90 54 -90 156z" />
    <glyph glyph-name="nine.fractioninf" 
d="M331 256q-116 0 -194 71t-78 193t83 197q84 74 228 74q144 -1 222 -103t78 -283t-80 -301t-244 -118q-124 0 -194 64t-76 153l160 2q14 -92 130 -92q58 0 98 57t40 158q-57 -72 -173 -72zM496 524q0 64 -38 102t-96 38t-96 -38q-37 -38 -37 -102t38 -102q38 -39 95 -39
t96 39q38 38 38 102z" />
    <glyph glyph-name="zero.fractionsup" 
d="M365 696q151 0 151 276t-152 275q-152 1 -151 -275q0 -276 152 -276zM686 973q0 -186 -82 -295t-240 -109q-157 0 -239 108t-82 296q0 189 82 295t239 106q158 0 240 -108t82 -293z" />
    <glyph glyph-name="one.fractionsup" 
d="M532 584h-165v557h-172v116q96 3 140 23t71 82h126v-778z" />
    <glyph glyph-name="two.fractionsup" 
d="M78 1096q0 126 82 202t211 76t205 -56t75 -160q0 -104 -87 -196q-87 -93 -277 -237h346v-141h-563v133q113 84 205 161q91 78 114 102t59 68t35 96q0 52 -31 79q-32 27 -84 27t-90 -39q-38 -38 -38 -115h-162z" />
    <glyph glyph-name="three.fractionsup" 
d="M367 696q61 0 98 30t37 79q0 113 -185 113h-30v133h26q168 0 168 104q0 43 -34 68q-33 25 -87 25t-92 -36q-38 -35 -45 -94l-160 19q17 111 97 174t206 63t204 -54t79 -164q0 -110 -106 -163q61 -23 95 -73t34 -113q0 -113 -88 -175t-222 -62t-214 71q-81 72 -93 178
l160 17q21 -140 152 -140z" />
    <glyph glyph-name="four.fractionsup" 
d="M702 897v-143h-131v-170h-165v170h-381v133l393 473h153v-463h131zM406 897v254l-207 -254h207z" />
    <glyph glyph-name="five.fractionsup" 
d="M360 696q63 0 102 38q38 38 38 107t-40 107t-100 37q-96 0 -131 -72l-149 11l53 436h498v-141h-361l-20 -154q59 49 165 49q107 0 181 -73t74 -199t-86 -200q-86 -73 -218 -73t-213 69t-94 177l156 21q22 -140 145 -140z" />
    <glyph glyph-name="six.fractionsup" 
d="M400 1104q118 0 194 -72t76 -194t-84 -196q-84 -73 -226 -73q-142 -1 -222 103q-79 104 -79 284t81 299t247 119q123 0 192 -63t74 -154l-159 -2q-12 92 -128 92q-58 0 -100 -57q-41 -57 -41 -158q57 72 175 72zM369 977q-57 0 -97 -39t-39 -101q0 -61 39 -101
q38 -40 96 -40t96 39t38 101t-38 102q-38 39 -95 39z" />
    <glyph glyph-name="seven.fractionsup" 
d="M70 1219v141h589v-137q-161 -143 -237 -289t-82 -350h-182q8 358 329 635h-417z" />
    <glyph glyph-name="eight.fractionsup" 
d="M481 1150q0 44 -31 71q-32 27 -86 27t-86 -28q-32 -26 -32 -71t33 -74t86 -29t85 30q31 30 31 74zM364 932q-62 0 -100 -32t-37 -85q0 -53 37 -86q38 -33 100 -33t99 33t37 86t-37 85t-99 32zM84 1156q0 102 76 160t204 58t204 -58t77 -159q0 -101 -90 -158
q115 -65 115 -183t-86 -182t-220 -65q-134 0 -220 65q-85 64 -85 182t115 183q-90 55 -90 157z" />
    <glyph glyph-name="nine.fractionsup" 
d="M59 1104q0 122 83 196q84 74 228 74t222 -102t78 -284t-80 -300q-80 -119 -244 -119q-124 0 -194 65t-76 152l160 2q14 -92 130 -92q58 0 98 58t40 157q-57 -71 -173 -71t-194 70t-78 194zM496 1108q0 64 -38 102t-96 37q-58 0 -96 -38q-37 -38 -37 -101t38 -102t95 -39
t96 39q38 38 38 102z" />
    <glyph glyph-name="comma.superior" horiz-adv-x="335" 
d="M76 829v179h184v-191l-90 -164h-107l80 176h-67z" />
    <glyph glyph-name="period.superior" horiz-adv-x="317" 
d="M248 834h-180v174h180v-174z" />
    <glyph glyph-name="hyphen.superior" horiz-adv-x="448" 
d="M410 1053h-371v143h371v-143z" />
    <glyph glyph-name="dollar.superior" horiz-adv-x="720" 
d="M223 1411q0 -73 105 -96v182q-45 -3 -75 -25t-30 -61zM510 1044q0 72 -123 103v-203q53 2 88 28t35 72zM328 1716h59v-94q123 -8 195 -78t73 -178h-159q-2 57 -32 90t-77 39v-195q75 -19 113 -32q168 -61 168 -211q0 -105 -82 -169t-199 -69v-96h-59v98q-123 10 -198 85
t-77 188h160q2 -66 34 -105t81 -43v217l-45 13q-217 53 -217 227q0 100 76 158q77 57 186 63v92z" />
    <glyph glyph-name="Euro.superior" horiz-adv-x="860" 
d="M486 946q148 0 173 150h154q-14 -131 -102 -204q-89 -73 -225 -73t-224 75t-117 212h-141l57 82h74v69h-129l57 82h82q27 135 117 210t226 75t222 -74t99 -202l-152 -2q-27 152 -172 152t-180 -159h279l-58 -82h-231v-69h199l-56 -82h-133q33 -160 181 -160z" />
    <glyph glyph-name="cent.superior" horiz-adv-x="661" 
d="M217 1121q0 -144 90 -173v340q-90 -23 -90 -167zM365 731h-58v88q-123 8 -191 90t-67 208q0 126 69 208t189 92v94h58v-94q97 -4 163 -57t86 -143l-155 -25q-18 92 -94 100v-348q82 14 98 105l155 -23q-20 -92 -88 -145t-165 -62v-88z" />
    <glyph glyph-name="plus.inferior" horiz-adv-x="720" 
d="M438 -246h-155v219h-228v144h228v219h155v-219h228v-144h-228v-219z" />
    <glyph glyph-name="minus.inferior" horiz-adv-x="706" 
d="M55 117h598v-144h-598v144z" />
    <glyph glyph-name="equal.inferior" horiz-adv-x="710" 
d="M639 -145h-567v145h567v-145zM639 90h-567v146h567v-146z" />
    <glyph glyph-name="comma.inferior" horiz-adv-x="335" 
d="M76 -250v178h184v-190l-90 -164h-107l80 176h-67z" />
    <glyph glyph-name="period.inferior" horiz-adv-x="317" 
d="M248 -246h-180v174h180v-174z" />
    <glyph glyph-name="hyphen.inferior" horiz-adv-x="448" 
d="M410 -27h-371v144h371v-144z" />
    <glyph glyph-name="dollar.inferior" horiz-adv-x="720" 
d="M223 332q0 -73 105 -96v182q-45 -2 -75 -24t-30 -62zM510 -35q0 72 -123 103v-201q51 -1 87 25t36 73zM328 637h59v-94q123 -8 195 -78t73 -178h-159q-2 57 -32 90t-77 39v-195q125 -31 180 -66q101 -63 101 -174q0 -110 -81 -172t-200 -69v-96h-59v98q-123 10 -198 85
t-77 187h160q2 -66 34 -104t81 -43v217l-45 12q-217 53 -217 228q0 100 76 157q77 57 186 64v92z" />
    <glyph glyph-name="Euro.inferior" horiz-adv-x="860" 
d="M486 -133q148 0 173 149h154q-14 -132 -102 -204q-89 -72 -225 -72t-224 75t-117 212h-141l57 82h74v69h-129l57 82h82q27 135 117 210t226 75t222 -74t99 -203l-152 -2q-27 152 -172 152t-180 -158h279l-58 -82h-231v-69h199l-56 -82h-133q33 -160 181 -160z" />
    <glyph glyph-name="cent.inferior" horiz-adv-x="661" 
d="M217 42q0 -144 90 -171v338q-90 -23 -90 -167zM365 -348h-58v90q-123 8 -191 89t-67 207q0 126 69 208t189 92v94h58v-94q97 -4 163 -58t86 -143l-155 -24q-18 92 -94 100v-346q82 10 98 102l155 -22q-20 -91 -89 -145t-164 -60v-90z" />
    <glyph glyph-name="parenleft.denominator" horiz-adv-x="358" 
d="M45 289q0 143 46 272t106 215h155q-137 -223 -137 -489t137 -490h-155q-59 85 -105 217t-47 275z" />
    <glyph glyph-name="parenright.denominator" horiz-adv-x="358" 
d="M311 289q0 -143 -45 -275t-104 -217h-156q137 223 137 489t-137 490h156q59 -86 104 -215t45 -272z" />
    <glyph glyph-name="plus.denominator" horiz-adv-x="720" 
d="M438 0h-155v219h-228v143h228v220h155v-220h228v-143h-228v-219z" />
    <glyph glyph-name="minus.denominator" horiz-adv-x="706" 
d="M55 362h598v-143h-598v143z" />
    <glyph glyph-name="equal.denominator" horiz-adv-x="710" 
d="M639 100h-567v146h567v-146zM639 336h-567v145h567v-145z" />
    <glyph glyph-name="comma.denominator" horiz-adv-x="335" 
d="M76 -4v178h184v-190l-90 -164h-107l80 176h-67z" />
    <glyph glyph-name="period.denominator" horiz-adv-x="317" 
d="M248 0h-180v174h180v-174z" />
    <glyph glyph-name="hyphen.denominator" horiz-adv-x="448" 
d="M410 219h-371v143h371v-143z" />
    <glyph glyph-name="dollar.denominator" horiz-adv-x="720" 
d="M223 578q0 -74 105 -97v183q-45 -2 -75 -24t-30 -62zM510 211q0 72 -123 102v-202q53 1 88 27t35 73zM328 883h59v-95q123 -8 195 -78t73 -178h-159q-2 56 -32 90t-77 40v-195q125 -31 180 -66q101 -63 101 -174t-81 -173t-200 -68v-97h-59v99q-123 10 -198 85t-77 187
h160q2 -66 34 -104t81 -43v217l-45 12q-217 53 -217 227q0 100 76 158q77 57 186 64v92z" />
    <glyph glyph-name="Euro.denominator" horiz-adv-x="860" 
d="M135 354v70h-129l57 82h82q27 135 117 210t226 75t222 -74t99 -203l-152 -2q-27 152 -172 152t-180 -158h279l-58 -82h-231v-70h199l-56 -82h-133q33 -160 181 -160t173 150h154q-14 -131 -102 -204q-89 -72 -225 -72t-224 74t-117 212h-141l57 82h74z" />
    <glyph glyph-name="cent.denominator" horiz-adv-x="661" 
d="M217 288q0 -144 90 -173v340q-90 -23 -90 -167zM365 -102h-58v90q-123 8 -191 89t-67 207q0 126 69 208t189 92v94h58v-94q97 -4 163 -58t86 -143l-155 -25q-18 92 -94 101v-348q82 14 98 104l155 -22q-20 -91 -89 -145t-164 -60v-90z" />
    <glyph glyph-name="parenleft.numerator" horiz-adv-x="358" 
d="M45 872q0 142 46 272t106 216h155q-137 -224 -137 -490t137 -489h-155q-59 86 -106 217q-46 131 -46 274z" />
    <glyph glyph-name="parenright.numerator" horiz-adv-x="358" 
d="M311 872q0 -143 -45 -275t-104 -216h-156q137 223 137 489t-137 490h156q59 -86 104 -216t45 -272z" />
    <glyph glyph-name="plus.numerator" horiz-adv-x="720" 
d="M438 584h-155v219h-228v143h228v219h155v-219h228v-143h-228v-219z" />
    <glyph glyph-name="minus.numerator" horiz-adv-x="706" 
d="M55 946h598v-143h-598v143z" />
    <glyph glyph-name="equal.numerator" horiz-adv-x="710" 
d="M639 684h-567v145h567v-145zM639 920h-567v145h567v-145z" />
    <glyph glyph-name="comma.numerator" horiz-adv-x="335" 
d="M76 580v178h184v-191l-90 -164h-107l80 177h-67z" />
    <glyph glyph-name="period.numerator" horiz-adv-x="317" 
d="M248 584h-180v174h180v-174z" />
    <glyph glyph-name="hyphen.numerator" horiz-adv-x="448" 
d="M410 803h-371v143h371v-143z" />
    <glyph glyph-name="dollar.numerator" horiz-adv-x="720" 
d="M223 1161q0 -73 105 -96v182q-45 -3 -75 -25t-30 -61zM510 795q0 72 -123 102v-203q53 2 88 28t35 73zM328 1466h59v-94q123 -8 195 -78t73 -178h-159q-2 57 -32 90t-77 39v-194q125 -31 180 -66q101 -63 101 -174q0 -109 -82 -173t-199 -69v-96h-59v98q-123 10 -198 85
t-77 188h160q2 -66 34 -105t81 -43v217l-45 13q-217 53 -217 227q0 100 76 158q77 57 186 63v92z" />
    <glyph glyph-name="Euro.numerator" horiz-adv-x="860" 
d="M486 696q148 0 173 150h154q-14 -131 -102 -204q-89 -73 -225 -73t-224 75t-117 212h-141l57 82h74v70h-129l57 82h82q27 136 117 210t226 74t222 -74t99 -202l-152 -2q-27 152 -172 152t-180 -158h279l-58 -82h-231v-70h199l-56 -82h-133q33 -160 181 -160z" />
    <glyph glyph-name="cent.numerator" horiz-adv-x="661" 
d="M217 871q0 -144 90 -173v340q-90 -23 -90 -167zM365 481h-58v88q-123 8 -191 90t-67 208q0 126 69 208t189 92v95h58v-95q97 -4 163 -57t86 -143l-155 -25q-18 92 -94 100v-348q82 14 98 105l155 -23q-20 -92 -88 -145t-165 -62v-88z" />
    <glyph glyph-name="Gtilde" horiz-adv-x="1454" 
d="M745 1384q227 0 384 -118t200 -312l-231 -32q-33 128 -127 196t-230 68q-184 0 -296 -128q-111 -128 -111 -374t110 -378t295 -132q140 0 245 66q56 36 90 100t34 152v26h-352v203h577v-721h-190l-8 166q-127 -190 -421 -190t-462 190q-168 192 -168 516t178 513t483 189
zM840 1573q78 0 94 80h160q-20 -127 -92 -178t-143 -51q-72 0 -146 40q-74 41 -107 41q-78 0 -90 -80h-162q20 125 90 177t144 53q74 0 144 -41q71 -41 108 -41z" />
    <glyph glyph-name="gtilde" horiz-adv-x="1132" 
d="M684 1274q78 0 94 84h162q-20 -134 -91 -188t-145 -54t-148 43q-75 43 -107 43q-76 0 -93 -84h-161q20 130 91 186q72 56 146 56t144 -43t108 -43zM536 842q-116 0 -180 -88t-63 -238t63 -234t180 -83q118 0 186 82q68 81 69 237q0 156 -69 240q-70 84 -186 84zM780 66
v90q-100 -140 -290 -140t-311 138q-120 138 -120 365q0 229 126 367q125 138 313 138t284 -129l4 109h222v-893q0 -252 -113 -359q-117 -115 -356 -114q-180 0 -297 76t-142 239l226 8q31 -143 219 -143q117 0 176 54t59 194z" />
    <glyph glyph-name="Mcircumflex" horiz-adv-x="1693" 
d="M954 1645l256 -215h-231l-127 98l-131 -98h-229l262 215h200zM381 0h-242v1360h383l330 -1061l326 1061h378v-1360h-241v1073l-344 -1073h-246l-344 1073v-1073z" />
    <glyph glyph-name="mcircumflex" horiz-adv-x="1728" 
d="M127 0v1004h227v-125q88 145 295 145t291 -164q117 164 342 164q172 0 255 -98t83 -305v-621h-227v571q0 152 -43 205q-43 59 -146 60q-217 0 -217 -312v-524h-227v571q0 154 -45 209t-142 56q-219 0 -219 -312v-524h-227zM993 1360l267 -242h-209l-150 113l-153 -113
h-207l272 242h180z" />
    <glyph glyph-name="Mmacron" horiz-adv-x="1693" 
d="M381 0h-242v1360h383l330 -1061l326 1061h378v-1360h-241v1073l-344 -1073h-246l-344 1073v-1073zM1143 1454h-586v166h586v-166z" />
    <glyph glyph-name="mmacron" horiz-adv-x="1728" 
d="M1190 1155h-586v166h586v-166zM127 0v1004h227v-125q88 145 295 145t291 -164q117 164 342 164q172 0 255 -98t83 -305v-621h-227v571q0 152 -43 205q-43 59 -146 60q-217 0 -217 -312v-524h-227v571q0 154 -45 209t-142 56q-219 0 -219 -312v-524h-227z" />
    <glyph glyph-name="Ncircumflex" horiz-adv-x="1421" 
d="M1282 0h-332l-569 1081v-1081h-242v1360h332l569 -1081v1081h242v-1360zM829 1645l256 -215h-231l-127 98l-131 -98h-229l262 215h200z" />
    <glyph glyph-name="ncircumflex" horiz-adv-x="1120" 
d="M354 1004v-125q92 145 298 145t294 -125q66 -96 66 -278v-621h-228v563q0 170 -51 221t-141 52q-238 0 -238 -316v-520h-227v1004h227zM672 1360l266 -242h-209l-149 113l-154 -113h-207l273 242h180z" />
    <glyph glyph-name="Ndieresis" horiz-adv-x="1421" 
d="M1282 0h-332l-569 1081v-1081h-242v1360h332l569 -1081v1081h242v-1360zM852 1640h201v-204h-201v204zM403 1640h201v-204h-201v204z" />
    <glyph glyph-name="ndieresis" horiz-adv-x="1120" 
d="M354 1004v-125q92 145 298 145t294 -125q66 -96 66 -278v-621h-228v563q0 170 -51 221t-141 52q-238 0 -238 -316v-520h-227v1004h227zM694 1343h201v-210h-201v210zM246 1133v210h200v-210h-200z" />
    <glyph glyph-name="Nmacron" horiz-adv-x="1421" 
d="M1282 0h-332l-569 1081v-1081h-242v1360h332l569 -1081v1081h242v-1360zM1008 1454h-586v166h586v-166z" />
    <glyph glyph-name="nmacron" horiz-adv-x="1120" 
d="M354 1004v-125q92 145 298 145t294 -125q66 -96 66 -278v-621h-228v563q0 170 -51 221t-141 52q-238 0 -238 -316v-520h-227v1004h227zM864 1155h-585v166h585v-166z" />
    <glyph glyph-name="Pmacron" horiz-adv-x="1177" 
d="M573 1157h-188v-477h201q158 0 240 48t83 198q0 150 -106 194q-85 37 -230 37zM139 1360h434q334 0 460 -114t126 -331q0 -251 -171 -348q-148 -84 -410 -86h-193v-481h-246v1360zM862 1454h-586v166h586v-166z" />
    <glyph glyph-name="pmacron" horiz-adv-x="1136" 
d="M887 1155h-586v166h586v-166zM601 842q-117 0 -187 -90t-70 -253t70 -252t186 -89t180 92q63 92 64 250q0 158 -64 250t-179 92zM354 -354h-227v1358h219l2 -123q100 143 294 143t315 -141q120 -141 120 -382t-126 -383q-127 -142 -313 -142t-284 126v-456z" />
    <glyph glyph-name="zero.case" horiz-adv-x="1263" 
d="M633 174q143 0 224 130t81 379t-81 377t-224 128t-224 -128t-81 -377t81 -379t224 -130zM1188 682q0 -328 -142 -518t-414 -189t-414 191t-142 517t142 514t414 187t414 -187t142 -515z" />
    <glyph glyph-name="one.case" horiz-adv-x="692" 
d="M549 0h-242v1014h-307v168q164 4 242 39t127 143h180v-1364z" />
    <glyph glyph-name="two.case" horiz-adv-x="1101" 
d="M558 1384q216 0 343 -96t127 -285t-200 -395q-103 -106 -204 -192t-268 -213h701v-203h-1014v201q147 115 295 230t219 190q169 178 202 265q19 54 19 109q0 93 -60 143t-162 50t-175 -66q-72 -66 -72 -211h-239q-2 215 135 344t353 129z" />
    <glyph glyph-name="three.case" horiz-adv-x="1161" 
d="M560 174q122 0 199 55t77 154q0 223 -357 223h-53v201h45q330 0 330 201q0 88 -67 134q-66 46 -174 46t-182 -64t-89 -172l-234 25q27 186 165 297q138 110 348 110t348 -90q136 -90 137 -270q1 -98 -55 -178t-146 -125q117 -45 175 -134t58 -198q-1 -199 -151 -307
t-375 -107q-225 0 -360 121t-158 303l235 27q18 -116 90 -184t194 -68z" />
    <glyph glyph-name="four.case" horiz-adv-x="1185" 
d="M1171 532v-210h-235v-322h-242v322h-680v196l686 842h236v-828h235zM694 532v506l-415 -506h415z" />
    <glyph glyph-name="five.case" horiz-adv-x="1167" 
d="M573 174q119 0 193 71t74 203t-80 206q-80 73 -180 73t-166 -39t-90 -92l-226 12l92 752h842v-203h-643l-41 -317q106 82 290 82t318 -125q136 -125 136 -349t-151 -348q-151 -125 -373 -125t-354 123t-153 299l232 29q42 -252 280 -252z" />
    <glyph glyph-name="six.case" horiz-adv-x="1187" 
d="M618 1188q-137 0 -216 -113t-80 -313q112 143 318 143t339 -128t133 -336t-141 -337t-367 -129q-262 -1 -395 179t-133 487t128 517q66 106 176 166t255 60q205 0 319 -110t131 -260l-241 -2q-12 86 -74 131t-152 45zM340 438q0 -120 72 -192t188 -72t190 72
q72 72 72 192t-71 195q-72 74 -189 74q-118 0 -190 -74t-72 -195z" />
    <glyph glyph-name="seven.case" horiz-adv-x="956" 
d="M-6 1157v203h999v-203q-283 -260 -417 -524t-154 -633h-268q29 657 589 1157h-749z" />
    <glyph glyph-name="eight.case" horiz-adv-x="1214" 
d="M606 809q108 1 174 55t66 139t-66 135t-174 50t-174 -50q-64 -50 -64 -135t65 -140q65 -54 173 -54zM607 621q-125 -1 -197 -61t-72 -162t73 -164q73 -60 197 -60t197 60q74 60 74 162t-74 164q-74 61 -198 61zM606 1384q215 0 347 -100t132 -252q0 -205 -170 -305
q211 -113 211 -338q0 -195 -146 -305t-374 -109q-228 0 -373 110t-145 304q0 225 213 338q-84 49 -128 130t-44 173q0 154 131 254t346 100z" />
    <glyph glyph-name="nine.case" horiz-adv-x="1175" 
d="M559 174q137 0 215 112t80 310q-109 -141 -316 -141q-206 0 -340 127t-134 334q0 208 138 338q140 130 365 130q269 0 401 -179t132 -487t-125 -516q-63 -106 -173 -166t-257 -61q-205 0 -323 110t-132 261l242 2q12 -86 72 -130t155 -44zM838 922q0 122 -73 194t-190 72
t-189 -72t-73 -192q0 -120 73 -196q72 -75 188 -75t190 74t74 195z" />
    <glyph glyph-name="emdash.case" horiz-adv-x="1382" 
d="M1321 598h-1260v207h1260v-207z" />
    <glyph glyph-name="endash.case" horiz-adv-x="966" 
d="M905 598h-844v207h844v-207z" />
    <glyph glyph-name="guillemotleft.case" horiz-adv-x="993" 
d="M737 260l-303 438l303 437h215l-256 -437l256 -438h-215zM313 260l-301 438l301 437h219l-258 -437l258 -438h-219z" />
    <glyph glyph-name="guillemotright.case" horiz-adv-x="993" 
d="M559 698l-303 -438h-215l256 438l-256 437h215zM981 698l-303 -438h-217l256 438l-256 437h217z" />
    <glyph glyph-name="guilsinglleft.case" horiz-adv-x="573" 
d="M315 260l-303 436l303 437h217l-256 -437l256 -436h-217z" />
    <glyph glyph-name="guilsinglright.case" horiz-adv-x="573" 
d="M561 698l-303 -438h-217l256 438l-256 437h217z" />
    <glyph glyph-name="hyphen.case" horiz-adv-x="804" 
d="M713 598h-621v205h621v-205z" />
    <glyph glyph-name="braceleft.case" horiz-adv-x="561" 
d="M492 0q-190 0 -265 66q-74 66 -73 245v82q0 101 -29 149t-117 48v182q88 0 117 48t29 149v80q0 179 74 245t264 66h77v-184h-45q-84 0 -110 -29t-25 -107v-96q0 -123 -44 -180t-128 -80v-4q84 -23 128 -80t44 -180v-101q0 -79 26 -107t109 -28h45v-184h-77z" />
    <glyph glyph-name="braceright.case" horiz-adv-x="561" 
d="M-8 0v184h45q83 0 109 29t26 106v101q0 123 44 180t128 80v4q-84 23 -128 80t-44 180v96q0 78 -27 107t-108 29h-45v184h76q190 0 265 -66t75 -245v-80q0 -100 28 -149q29 -48 117 -48v-182q-88 0 -117 -48t-28 -149v-82q0 -179 -75 -245t-265 -66h-76z" />
    <glyph glyph-name="bracketleft.case" horiz-adv-x="585" 
d="M133 1360h465v-174h-250v-1012h250v-174h-465v1360z" />
    <glyph glyph-name="bracketright.case" horiz-adv-x="585" 
d="M-12 1360h465v-1360h-465v174h250v1012h-250v174z" />
    <glyph glyph-name="parenleft.case" horiz-adv-x="491" 
d="M45 682q0 350 215 678h232q-199 -324 -199 -680t199 -680h-232q-215 332 -215 682z" />
    <glyph glyph-name="parenright.case" horiz-adv-x="491" 
d="M442 678q0 -350 -215 -678h-229q199 330 199 680t-199 680h229q215 -332 215 -682z" />
    <glyph glyph-name="periodcentered.case" horiz-adv-x="454" 
d="M96 588v248h258v-248h-258z" />
    <glyph glyph-name="bullet.case" horiz-adv-x="849" 
d="M82 694q0 142 98 242t242 100t244 -98q102 -98 102 -242t-100 -245t-244 -101t-244 100q-98 100 -98 244z" />
    <glyph glyph-name="less.case" horiz-adv-x="1144" 
d="M61 795l981 424v-230l-720 -291l720 -288v-228l-981 422v191z" />
    <glyph glyph-name="greater.case" horiz-adv-x="1144" 
d="M1083 795v-191l-981 -422v228l721 288l-721 291v230z" />
    <glyph glyph-name="plus.case" horiz-adv-x="1171" 
d="M692 190h-211v408h-420v203h420v409h211v-409h418v-203h-418v-408z" />
    <glyph glyph-name="equal.case" horiz-adv-x="1167" 
d="M1065 401h-963v205h963v-205zM1065 797h-963v204h963v-204z" />
    <glyph glyph-name="notequal.case" horiz-adv-x="1167" 
d="M102 401v205h318l98 191h-416v204h525l135 259l172 -89l-90 -170h221v-204h-328l-100 -191h428v-205h-537l-149 -286l-172 86l104 200h-209z" />
    <glyph glyph-name="lessequal.case" horiz-adv-x="1212" 
d="M102 190v203h1008v-203h-1008zM391 823l715 -182v-215l-1002 303v189l1002 307v-217z" />
    <glyph glyph-name="greaterequal.case" horiz-adv-x="1212" 
d="M1110 190h-1008v203h1008v-203zM821 823l-715 185v217l1002 -307v-189l-1002 -303v215z" />
    <glyph glyph-name="divide.case" horiz-adv-x="1130" 
d="M1069 590h-1008v205h1008v-205zM436 897v248h258v-248h-258zM436 240v247h258v-247h-258z" />
    <glyph glyph-name="plusminus.case" horiz-adv-x="1236" 
d="M1135 190h-1033v203h1033v-203zM512 938v260h215v-260h408v-205h-408v-264h-215v264h-410v205h410z" />
    <glyph glyph-name="question.case" horiz-adv-x="978" 
d="M305 0v248h258v-248h-258zM496 1384q206 0 344 -86t139 -254q0 -120 -66 -202t-170 -146t-141 -107q-37 -44 -37 -130v-60h-243v66q0 125 50 199t144 130t124 80q88 66 89 168q0 62 -63 103t-174 41t-179 -62t-71 -180l-236 4q0 201 142 319q142 117 348 117z" />
    <glyph glyph-name="exclam.case" horiz-adv-x="512" 
d="M387 0h-258v248h258v-248zM123 1360h266v-359l-57 -595h-148l-61 595v359z" />
    <glyph glyph-name="questiondown.case" horiz-adv-x="978" 
d="M680 1384v-247h-258v247h258zM488 0q-206 0 -344 86t-138 254q0 121 66 203t170 145q104 64 141 108t37 130v59h244v-65q0 -125 -50 -199t-144 -130q-93 -56 -125 -80q-33 -24 -61 -66q-28 -41 -28 -103t63 -102t174 -41q111 0 179 62t71 179l236 -4q-1 -200 -143 -318
t-348 -118z" />
    </font>
</defs>
</svg>
