<?xml version="1.0" standalone="no"?>
<!DOCTYPE svg PUBLIC "-//W3C//DTD SVG 1.1//EN" "http://www.w3.org/Graphics/SVG/1.1/DTD/svg11.dtd" >
<svg xmlns="http://www.w3.org/2000/svg">
<metadata>
Created by FontPrep 20130207 at Tue Mar 13 16:41:54 2018
 By Sergei Fink
Copyright (c) 2011 by Ian Party, distributed by B&#38;P Foundry Srl, Switzerland, d/b/a b+p swiss typefaces: http://www.swisstypefaces.com. All rights reserved.
</metadata>
<defs>
<font id="87e10ae1f1e387a6b5d72a8a84e5dcdc" horiz-adv-x='1024' >
  <font-face 
    font-family="SuisseBPIntl-Regular"
    font-weight="400"
    font-stretch="normal"
    units-per-em="2048"
    panose-1="0 0 0 0 0 0 0 0 0 0"
    ascent="1536"
    descent="-512"
    x-height="1004"
    cap-height="1360"
    bbox="-442 -453 2415 1890"
    underline-thickness="102"
    underline-position="-102"
    unicode-range="U+0020-FB06"
  />
<missing-glyph horiz-adv-x="0" 
 />
    <glyph glyph-name="f_f" unicode="ff" horiz-adv-x="1191" 
d="M776 1004v73q0 164 54 223t223 60h90v-148h-86q-66 0 -86 -26t-21 -107v-75h193v-144h-193v-860h-174v860h-141v144h141zM180 1004v73q0 164 54 223t223 60h90v-148h-86q-68 0 -87 -26t-20 -107v-75h193v-144h-193v-860h-174v860h-141v144h141z" />
    <glyph glyph-name="fi" unicode="fi" horiz-adv-x="1044" 
d="M733 1360h174v-209h-174v209zM733 1004h174v-1004h-174v1004zM180 1004v73q0 164 54 223t223 60h90v-148h-86q-68 0 -87 -26t-20 -107v-75h193v-144h-193v-860h-174v860h-141v144h141z" />
    <glyph glyph-name="fl" unicode="fl" horiz-adv-x="1044" 
d="M907 1360v-1360h-174v1360h174zM180 1004v73q0 164 54 223t223 60h90v-148h-86q-68 0 -87 -26t-20 -107v-75h193v-144h-193v-860h-174v860h-141v144h141z" />
    <glyph glyph-name="f_f_i" unicode="ffi" horiz-adv-x="1640" 
d="M1329 1360h174v-209h-174v209zM1329 1004h174v-1004h-174v1004zM776 1004v73q0 164 54 223t223 60h90v-148h-86q-66 0 -86 -26t-21 -107v-75h193v-144h-193v-860h-174v860h-141v144h141zM180 1004v73q0 164 54 223t223 60h90v-148h-86q-68 0 -87 -26t-20 -107v-75h193
v-144h-193v-860h-174v860h-141v144h141z" />
    <glyph glyph-name="f_f_l" unicode="ffl" horiz-adv-x="1640" 
d="M1503 1360v-1360h-174v1360h174zM776 1004v73q0 164 54 223t223 60h90v-148h-86q-66 0 -86 -26t-21 -107v-75h193v-144h-193v-860h-174v860h-141v144h141zM180 1004v73q0 164 54 223t223 60h90v-148h-86q-68 0 -87 -26t-20 -107v-75h193v-144h-193v-860h-174v860h-141
v144h141z" />
    <glyph glyph-name="s_t" unicode="st" horiz-adv-x="1611" 
d="M1180 1004v276h174v-276h192v-144h-192v-579q0 -84 17 -109t89 -25h86v-147h-125q-147 0 -194 48t-47 208v604h-162v144h162zM909 284q0 -140 -117 -225q-118 -84 -303 -84q-185 -1 -301 97t-131 229l183 16q43 -197 256 -196q104 0 171 42t66 107q0 115 -219 162
l-131 27q-299 59 -299 282q0 127 119 203t287 76t275 -79t138 -210l-180 -16q-37 160 -250 159q-88 0 -151 -32q-64 -32 -64 -88q0 -57 40 -87t126 -49l121 -24q170 -34 267 -102t97 -208z" />
    <glyph glyph-name="f_b" unicode="fb" horiz-adv-x="1720" 
d="M1194 868q-131 0 -213 -94t-82 -279t80 -277t212 -91q132 0 204 96q71 95 71 273t-70 275q-71 97 -202 97zM733 1360h174v-502q106 162 326 162q184 0 301 -141t117 -382t-122 -381t-325 -140t-297 147l-8 -123h-166v1360zM180 1004v73q0 164 54 223t223 60h90v-148h-86
q-68 0 -87 -26t-20 -107v-75h193v-144h-193v-860h-174v860h-141v144h141z" />
    <glyph glyph-name="f_h" unicode="fh" horiz-adv-x="1695" 
d="M907 1360v-496q101 156 315 156t298 -137q55 -90 55 -267v-616h-174v569q0 147 -37 213q-51 86 -182 86t-203 -86t-72 -247v-535h-174v1360h174zM180 1004v73q0 164 54 223t223 60h90v-148h-86q-68 0 -87 -26t-20 -107v-75h193v-144h-193v-860h-174v860h-141v144h141z
" />
    <glyph glyph-name="f_k" unicode="fk" horiz-adv-x="1556" 
d="M907 1360v-780l412 424h213l-361 -371l394 -633h-203l-309 510l-146 -150v-360h-174v1360h174zM180 1004v73q0 164 54 223t223 60h90v-148h-86q-68 0 -87 -26t-20 -107v-75h193v-144h-193v-860h-174v860h-141v144h141z" />
    <glyph glyph-name="f_j" unicode="fj" horiz-adv-x="1044" 
d="M733 1360h174v-209h-174v209zM733 -74v1078h174v-1076q0 -164 -48 -223t-193 -59h-88v147h49q66 -1 86 25t20 108zM180 1004v73q0 164 54 223t223 60h90v-148h-86q-68 0 -87 -26t-20 -107v-75h193v-144h-193v-860h-174v860h-141v144h141z" />
    <glyph glyph-name="f_t" unicode="ft" horiz-adv-x="1214" 
d="M782 1004v276h174v-276h193v-144h-193v-579q0 -84 18 -109t89 -25h86v-147h-125q-147 0 -195 48q-47 48 -47 208v604h-161v144h161zM180 1004v73q0 164 54 223t223 60h90v-148h-86q-68 0 -87 -26t-20 -107v-75h193v-144h-193v-860h-174v860h-141v144h141z" />
    <glyph glyph-name="f_f_j" unicode="ffj" horiz-adv-x="1640" 
d="M1329 1360h174v-209h-174v209zM1329 -74v1078h174v-1076q0 -164 -48 -223t-193 -59h-88v147h49q68 -1 87 25t19 108zM776 1004v73q0 164 54 223t223 60h90v-148h-86q-66 0 -86 -26t-21 -107v-75h193v-144h-193v-860h-174v860h-141v144h141zM180 1004v73q0 164 54 223
t223 60h90v-148h-86q-68 0 -87 -26t-20 -107v-75h193v-144h-193v-860h-174v860h-141v144h141z" />
    <glyph glyph-name="f_f_k" unicode="ffk" horiz-adv-x="2152" 
d="M1503 1360v-780l412 424h213l-361 -371l394 -633h-203l-309 510l-146 -150v-360h-174v1360h174zM776 1004v73q0 164 54 223t223 60h90v-148h-86q-66 0 -86 -26t-21 -107v-75h193v-144h-193v-860h-174v860h-141v144h141zM180 1004v73q0 164 54 223t223 60h90v-148h-86
q-68 0 -87 -26t-20 -107v-75h193v-144h-193v-860h-174v860h-141v144h141z" />
    <glyph glyph-name="f_f_t" unicode="fft" horiz-adv-x="1810" 
d="M1378 1004v276h174v-276h193v-144h-193v-579q0 -84 18 -109t89 -25h86v-147h-125q-147 0 -195 48q-47 48 -47 208v604h-161v144h161zM776 1004v73q0 164 54 223t223 60h90v-148h-86q-66 0 -86 -26t-21 -107v-75h193v-144h-193v-860h-174v860h-141v144h141zM180 1004v73
q0 164 54 223t223 60h90v-148h-86q-68 0 -87 -26t-20 -107v-75h193v-144h-193v-860h-174v860h-141v144h141z" />
    <glyph glyph-name="f_f_b" unicode="ffb" horiz-adv-x="2316" 
d="M1790 868q-131 0 -213 -94t-82 -279t80 -277t212 -91q132 0 204 96q71 95 71 273t-70 275q-71 97 -202 97zM1329 1360h174v-502q106 162 326 162q184 0 301 -141t117 -382t-122 -381t-325 -140t-297 147l-8 -123h-166v1360zM776 1004v73q0 164 54 223t223 60h90v-148h-86
q-66 0 -86 -26t-21 -107v-75h193v-144h-193v-860h-174v860h-141v144h141zM180 1004v73q0 164 54 223t223 60h90v-148h-86q-68 0 -87 -26t-20 -107v-75h193v-144h-193v-860h-174v860h-141v144h141z" />
    <glyph glyph-name="f_f_h" unicode="ffh" horiz-adv-x="2291" 
d="M1503 1360v-496q101 156 315 156t298 -137q55 -90 55 -267v-616h-174v569q0 147 -37 213q-51 86 -182 86t-203 -86t-72 -247v-535h-174v1360h174zM776 1004v73q0 164 54 223t223 60h90v-148h-86q-66 0 -86 -26t-21 -107v-75h193v-144h-193v-860h-174v860h-141v144h141z
M180 1004v73q0 164 54 223t223 60h90v-148h-86q-68 0 -87 -26t-20 -107v-75h193v-144h-193v-860h-174v860h-141v144h141z" />
    <glyph glyph-name="s_p" unicode="sp" horiz-adv-x="2107" 
d="M1581 868q-131 0 -213 -94t-82 -279t80 -277t212 -91q132 0 204 96q72 95 72 273t-71 275t-202 97zM1294 -354h-174v1358h170l4 -146q106 162 326 162q184 0 301 -141t117 -382t-122 -381t-325 -140t-297 147v-477zM909 284q0 -140 -117 -225q-118 -84 -303 -84
q-185 -1 -301 97t-131 229l183 16q43 -197 256 -196q104 0 171 42t66 107q0 115 -219 162l-131 27q-299 59 -299 282q0 127 119 203t287 76t275 -79t138 -210l-180 -16q-37 160 -250 159q-88 0 -151 -32q-64 -32 -64 -88q0 -57 40 -87t126 -49l121 -24q170 -34 267 -102
t97 -208z" />
    <glyph glyph-name="c_t" unicode="ct" horiz-adv-x="1656" 
d="M1225 1004v276h174v-276h192v-144h-192v-579q0 -84 17 -109t89 -25h86v-147h-125q-147 0 -194 48t-47 208v604h-162v144h162zM557 1020q176 0 290 -101t132 -231l-176 -24q-18 94 -88 148q-69 54 -183 54t-196 -94t-82 -272t83 -274t199 -97q116 0 186 56q71 56 89 145
l178 -23q-25 -137 -149 -234t-299 -98q-219 1 -345 147t-126 376t131 376t356 146z" />
    <glyph glyph-name="t_t" unicode="tt" horiz-adv-x="1236" 
d="M805 1004v276h174v-276h192v-144h-192v-579q0 -84 17 -109t89 -25h86v-147h-124q-147 0 -195 48q-47 48 -47 208v604h-162v144h162zM186 1004v276h174v-276h193v-144h-193v-579q0 -84 18 -109t89 -25h86v-147h-125q-147 0 -195 48q-47 48 -47 208v604h-161v144h161z" />
    <glyph glyph-name="t_f" unicode="tf" horiz-adv-x="1214" 
d="M799 1004v73q0 164 54 223t222 60h90v-148h-86q-68 0 -87 -26t-19 -107v-75h192v-144h-192v-860h-174v860h-142v144h142zM186 1004v276h174v-276h193v-144h-193v-579q0 -84 18 -109t89 -25h86v-147h-125q-147 0 -195 48q-47 48 -47 208v604h-161v144h161z" />
    <glyph glyph-name=".notdef" horiz-adv-x="0" 
 />
    <glyph glyph-name=".null" horiz-adv-x="0" 
 />
    <glyph glyph-name="nonmarkingreturn" horiz-adv-x="681" 
 />
    <glyph glyph-name="space" unicode=" " horiz-adv-x="450" 
 />
    <glyph glyph-name="exclam" unicode="!" horiz-adv-x="464" 
d="M342 0h-219v219h219v-219zM135 1360h182v-397l-36 -560h-109l-37 560v397z" />
    <glyph glyph-name="quotedbl" unicode="&#x22;" horiz-adv-x="587" 
d="M342 1360h195l-39 -483h-117zM51 1360h195l-39 -483h-117z" />
    <glyph glyph-name="numbersign" unicode="#" horiz-adv-x="1267" 
d="M514 868l-43 -311h297l43 311h-297zM123 1004h268l51 356h142l-52 -356h297l52 356h141l-51 -356h256l-19 -136h-256l-43 -311h254l-18 -135h-254l-60 -422h-141l60 422h-297l-60 -422h-141l59 422h-270l18 135h271l43 311h-269z" />
    <glyph glyph-name="dollar" unicode="$" horiz-adv-x="1118" 
d="M279 1028q0 -162 221 -223l2 -2v430q-92 -6 -158 -57q-65 -52 -65 -148zM879 350q0 108 -65 158q-65 51 -208 90v-471q119 3 196 59t77 164zM502 1544h104v-162q196 -14 308 -128t110 -298l-178 -4q-2 135 -69 202t-171 77v-455l29 -8q95 -28 157 -52q177 -69 231 -182
q34 -69 34 -161q0 -179 -127 -281t-324 -115v-161h-104v161q-197 17 -319 143t-120 310l179 4q2 -141 76 -217t184 -88v498l-43 12q-164 45 -261 141q-98 96 -98 248t118 246t284 108v162z" />
    <glyph glyph-name="percent" unicode="%" horiz-adv-x="1693" 
d="M1336 94q171 0 171 294t-171 294t-171 -294t171 -294zM1649 389q0 -187 -80 -295t-233 -108q-152 0 -232 108t-80 295q0 186 80 294t234 108t232 -108q79 -108 79 -294zM274 0l953 1360h192l-952 -1360h-193zM357 678q171 0 171 294t-171 294t-171 -294t171 -294z
M357 569q-153 0 -233 109t-79 295q0 186 80 294q79 107 233 107t233 -108t79 -293q0 -186 -80 -295t-233 -109z" />
    <glyph glyph-name="ampersand" unicode="&#x26;" horiz-adv-x="1337" 
d="M434 1100q0 -100 154 -254q221 80 221 235q0 78 -51 115t-132 37q-80 1 -136 -33t-56 -100zM512 127q215 0 360 164l-368 389q-266 -94 -266 -299q0 -115 80 -185t194 -69zM512 -25q-207 0 -333 113t-126 274q0 309 348 426q-151 168 -151 304t103 214t258 78t259 -70
t105 -222q0 -233 -285 -353l279 -290q55 131 67 286h178q-18 -233 -124 -413l309 -322h-250l-168 176q-190 -201 -469 -201z" />
    <glyph glyph-name="quotesingle" unicode="'" horiz-adv-x="296" 
d="M51 1360h195l-39 -483h-117z" />
    <glyph glyph-name="parenleft" unicode="(" horiz-adv-x="466" 
d="M61 504q0 260 78 481t185 375h143q-227 -373 -227 -857t227 -857h-143q-106 154 -185 376q-78 222 -78 482z" />
    <glyph glyph-name="parenright" unicode=")" horiz-adv-x="466" 
d="M406 504q0 -260 -78 -482t-185 -376h-143q227 373 227 857t-227 857h143q107 -154 185 -375t78 -481z" />
    <glyph glyph-name="asterisk" unicode="*" horiz-adv-x="669" 
d="M389 1370v-227l215 82l45 -107l-219 -76l131 -184l-88 -67l-141 192l-129 -192l-101 65l134 186l-216 76l39 107l215 -82v227h115z" />
    <glyph glyph-name="plus" unicode="+" horiz-adv-x="1177" 
d="M676 0h-174v430h-430v164h430v418h174v-418h430v-164h-430v-430z" />
    <glyph glyph-name="comma" unicode="," horiz-adv-x="464" 
d="M123 0v219h219v-233l-117 -250h-110l100 264h-92z" />
    <glyph glyph-name="hyphen" unicode="-" horiz-adv-x="770" 
d="M688 440h-606v164h606v-164z" />
    <glyph glyph-name="period" unicode="." horiz-adv-x="464" 
d="M342 0h-219v219h219v-219z" />
    <glyph glyph-name="slash" unicode="/" horiz-adv-x="716" 
d="M174 0h-174l543 1360h174z" />
    <glyph glyph-name="zero" unicode="0" horiz-adv-x="1259" 
d="M629 127q166 0 260 141q94 140 94 416t-93 412t-261 137q-168 0 -260 -136q-93 -135 -93 -411t94 -418t259 -141zM629 -25q-269 1 -403 189t-134 520t134 516t402 184t404 -184q135 -184 135 -515t-135 -521t-403 -189z" />
    <glyph glyph-name="one" unicode="1" horiz-adv-x="700" 
d="M516 0h-174v1059h-319v119q109 4 171 16q133 26 203 166h119v-1360z" />
    <glyph glyph-name="two" unicode="2" horiz-adv-x="1122" 
d="M565 1384q207 0 328 -96t121 -266q0 -118 -76 -263t-333 -361q-92 -77 -300 -236h746v-162h-994v156q205 152 330 253q314 253 394 409q48 90 48 190t-67 162q-68 62 -192 62t-209 -73q-85 -74 -87 -233l-178 4q-4 202 129 328t340 126z" />
    <glyph glyph-name="three" unicode="3" horiz-adv-x="1118" 
d="M536 127q140 0 226 67t86 187q0 258 -397 258h-29v156h22q367 0 367 227q0 100 -76 156q-75 56 -201 55q-126 0 -203 -71t-87 -189l-181 14q15 178 145 288q130 109 332 109t328 -85t127 -261q0 -106 -58 -188t-167 -125q262 -84 262 -342q0 -195 -145 -301t-362 -106
t-343 119q-125 120 -139 296l178 15q15 -131 95 -205t220 -74z" />
    <glyph glyph-name="four" unicode="4" horiz-adv-x="1187" 
d="M1147 504v-164h-254v-340h-174v340h-686v164l684 856h176v-856h254zM719 504v618l-494 -618h494z" />
    <glyph glyph-name="five" unicode="5" horiz-adv-x="1155" 
d="M578 127q131 0 219 85q88 84 88 238t-92 234t-204 80q-111 0 -183 -44t-99 -102l-174 9l90 733h793v-168h-651l-50 -379q109 102 299 102t323 -125q132 -126 132 -345t-143 -345q-142 -126 -358 -125q-216 0 -339 119t-145 293l178 14q44 -274 316 -274z" />
    <glyph glyph-name="six" unicode="6" horiz-adv-x="1171" 
d="M610 1233q-158 0 -244 -137t-96 -379q113 188 365 188q193 0 319 -129t125 -329q0 -199 -135 -335t-350 -137q-502 0 -502 656q0 307 119 520q61 109 169 171t251 62q189 0 295 -97t131 -240l-189 -3q-35 189 -258 189zM293 435q0 -140 81 -224t217 -84t220 85t84 223
t-84 225q-84 88 -218 88t-217 -86t-83 -227z" />
    <glyph glyph-name="seven" unicode="7" horiz-adv-x="976" 
d="M20 1190v170h957v-170q-539 -434 -586 -1190h-209q45 715 592 1190h-754z" />
    <glyph glyph-name="eight" unicode="8" horiz-adv-x="1191" 
d="M883 1016q0 102 -78 160t-209 57q-131 0 -209 -57q-78 -58 -78 -160t79 -167t208 -65t208 65t79 167zM596 645q-145 0 -232 -72q-88 -73 -88 -191t86 -186t234 -69q148 0 233 69q86 70 86 188t-87 190t-232 71zM596 1384q209 0 335 -97t126 -251q0 -92 -47 -176
t-144 -135q233 -96 234 -342q0 -190 -142 -299t-362 -109q-221 0 -363 109q-141 109 -141 299q0 246 234 342q-96 51 -144 135q-47 84 -47 176q0 154 126 251t335 97z" />
    <glyph glyph-name="nine" unicode="9" horiz-adv-x="1161" 
d="M551 127q158 0 245 137t95 379q-113 -188 -365 -188q-192 0 -318 129q-126 128 -126 328t135 336t350 136q502 0 502 -655q0 -306 -117 -520q-126 -233 -440 -233q-165 0 -274 96q-109 98 -134 241l189 2q35 -188 258 -188zM266 925q0 -137 84 -225t218 -88t217 86
t83 227q0 140 -81 224t-217 84t-220 -85t-84 -223z" />
    <glyph glyph-name="colon" unicode=":" horiz-adv-x="464" 
d="M123 784v220h219v-220h-219zM123 0v219h219v-219h-219z" />
    <glyph glyph-name="semicolon" unicode=";" horiz-adv-x="464" 
d="M123 0v219h219v-233l-117 -250h-110l100 264h-92zM123 784v220h219v-220h-219z" />
    <glyph glyph-name="less" unicode="&#x3c;" horiz-adv-x="1130" 
d="M72 584l977 432v-187l-760 -319l760 -313v-185l-977 424v148z" />
    <glyph glyph-name="equal" unicode="=" horiz-adv-x="1118" 
d="M1036 248h-954v164h954v-164zM1036 633h-954v164h954v-164z" />
    <glyph glyph-name="greater" unicode="&#x3e;" horiz-adv-x="1130" 
d="M1059 584v-148l-977 -424v185l760 313l-760 319v187z" />
    <glyph glyph-name="question" unicode="?" horiz-adv-x="950" 
d="M309 0v219h219v-219h-219zM478 1384q190 0 317 -86t127 -249q0 -123 -70 -208t-177 -155t-139 -109q-32 -40 -32 -114v-60h-176v66q0 113 53 181t148 128t126 86t58 72q27 47 26 106q0 88 -70 139q-71 50 -199 50t-197 -79t-74 -183l-174 6q2 185 132 297
q131 112 321 112z" />
    <glyph glyph-name="at" unicode="@" horiz-adv-x="1615" 
d="M954 750q0 186 -178 186q-90 0 -152 -88t-63 -213q0 -199 160 -199q109 0 171 91t62 223zM1159 291q-78 0 -129 46t-63 130q-90 -170 -289 -170q-121 0 -201 86t-80 258t108 305t281 133q78 0 136 -39t84 -106l14 113h135l-55 -414q-27 -205 80 -205q76 0 129 92t53 246
q0 231 -144 356t-396 125t-418 -167q-164 -167 -164 -413q0 -245 140 -397t362 -152t384 83l54 -133q-197 -92 -422 -93q-297 0 -484 195q-186 195 -186 497t215 508q215 205 521 205t495 -154q188 -154 188 -454q-1 -219 -105 -350t-243 -131z" />
    <glyph glyph-name="A" unicode="A" horiz-adv-x="1255" 
d="M618 1159l-249 -694h503zM0 0l512 1360h225l518 -1360h-213l-108 295h-627l-104 -295h-203z" />
    <glyph glyph-name="B" unicode="B" horiz-adv-x="1280" 
d="M358 1188v-408h332q127 0 194 49t66 166q0 193 -260 193h-332zM358 618v-446h353q293 0 293 227q0 119 -73 169t-233 50h-340zM164 0v1360h498q485 0 485 -338q0 -98 -41 -178t-113 -121q209 -88 209 -322q0 -207 -135 -304t-358 -97h-545z" />
    <glyph glyph-name="C" unicode="C" horiz-adv-x="1372" 
d="M723 -25q-293 0 -460 194q-167 195 -167 515t174 510t467 190q215 0 368 -112t198 -305l-189 -27q-33 127 -130 202t-271 75q-174 1 -296 -139t-122 -394t121 -397t317 -144q160 0 258 74t131 203l189 -27q-45 -197 -203 -307t-385 -111z" />
    <glyph glyph-name="D" unicode="D" horiz-adv-x="1368" 
d="M164 1360h315q793 0 793 -680t-793 -680h-315v1360zM1073 680q0 135 -37 232q-37 98 -90 150t-139 82t-159 37t-175 7h-115v-1016h115q102 0 175 7t159 37t139 82t90 150t37 232z" />
    <glyph glyph-name="E" unicode="E" horiz-adv-x="1167" 
d="M164 0v1360h936v-172h-742v-402h699v-172h-699v-442h742v-172h-936z" />
    <glyph glyph-name="F" unicode="F" horiz-adv-x="1064" 
d="M164 0v1360h897v-172h-703v-402h662v-172h-662v-614h-194z" />
    <glyph glyph-name="G" unicode="G" horiz-adv-x="1466" 
d="M737 1384q215 0 370 -112t202 -303l-189 -27q-37 123 -136 199t-255 76q-190 1 -312 -139t-122 -394t119 -397t315 -144q155 0 271 71q135 83 135 286v32h-365v173h549v-705h-154l-8 174q-127 -199 -428 -199t-467 194t-166 513q0 318 175 510t466 192z" />
    <glyph glyph-name="H" unicode="H" horiz-adv-x="1441" 
d="M1083 1360h195v-1360h-195v614h-725v-614h-194v1360h194v-574h725v574z" />
    <glyph glyph-name="I" unicode="I" horiz-adv-x="522" 
d="M358 1360v-1360h-194v1360h194z" />
    <glyph glyph-name="J" unicode="J" horiz-adv-x="622" 
d="M61 0v174h31q121 0 147 28t25 144v1014h195v-1030q0 -214 -78 -276q-43 -34 -97 -44t-149 -10h-74z" />
    <glyph glyph-name="K" unicode="K" horiz-adv-x="1267" 
d="M358 1360v-676l623 676h242l-514 -549l573 -811h-233l-471 670l-220 -236v-434h-194v1360h194z" />
    <glyph glyph-name="L" unicode="L" 
d="M358 1360v-1188h729v-172h-923v1360h194z" />
    <glyph glyph-name="M" unicode="M" horiz-adv-x="1683" 
d="M358 0h-194v1360h325l353 -1131l352 1131h326v-1360h-195v1182l-381 -1182h-205l-381 1182v-1182z" />
    <glyph glyph-name="N" unicode="N" horiz-adv-x="1437" 
d="M1274 0h-285l-631 1157v-1157h-194v1360h285l630 -1155v1155h195v-1360z" />
    <glyph glyph-name="O" unicode="O" horiz-adv-x="1486" 
d="M1391 680q1 -324 -179 -514t-472 -190t-468 194q-176 195 -176 508t182 510q182 196 470 196t466 -190t177 -514zM1192 680q0 254 -126 395t-323 141t-323 -140q-126 -142 -125 -396q0 -254 126 -395q127 -141 323 -141t322 140q126 142 126 396z" />
    <glyph glyph-name="P" unicode="P" horiz-adv-x="1179" 
d="M580 1188h-222v-512h222q161 0 261 46q99 46 99 210q0 163 -99 209q-98 47 -261 47zM164 1360h401q277 0 425 -94t148 -334t-148 -334t-425 -94h-207v-504h-194v1360z" />
    <glyph glyph-name="Q" unicode="Q" horiz-adv-x="1513" 
d="M1192 696q0 238 -126 379t-323 141t-323 -140q-126 -142 -125 -396q0 -254 126 -395t322 -142q131 0 232 64l-127 127l119 119l129 -131q96 136 96 374zM96 678q0 313 182 510q182 196 470 196t466 -190t177 -502q0 -312 -160 -506l160 -159l-119 -119l-168 168
q-154 -100 -363 -101q-293 0 -469 195t-176 508z" />
    <glyph glyph-name="R" unicode="R" horiz-adv-x="1275" 
d="M600 1188h-242v-459h242q222 0 291 55q68 55 70 174q0 175 -148 210q-78 20 -213 20zM586 557h-228v-557h-194v1360h422q265 0 410 -75q163 -85 163 -322q0 -293 -266 -373l313 -590h-217l-295 559q-35 -2 -108 -2z" />
    <glyph glyph-name="S" unicode="S" horiz-adv-x="1220" 
d="M106 1012q0 180 154 276t348 96t338 -92q143 -92 182 -270l-188 -27q-31 117 -126 169t-187 52q-91 0 -153 -14q-62 -16 -116 -64t-53 -120q0 -154 225 -203l160 -35q98 -24 165 -46t143 -66q156 -90 155 -284q0 -194 -153 -302t-382 -107q-228 0 -378 119t-179 318
l189 26q57 -295 383 -295q153 -1 237 59t84 162t-75 154q-76 53 -222 84l-172 37q-379 82 -379 373z" />
    <glyph glyph-name="T" unicode="T" horiz-adv-x="1091" 
d="M449 0v1188h-449v172h1092v-172h-449v-1188h-194z" />
    <glyph glyph-name="U" unicode="U" horiz-adv-x="1392" 
d="M143 1360h195v-819q0 -207 82 -302t274 -95t277 102q84 104 84 315v799h194v-782q0 -310 -130 -456t-423 -146t-423 134t-130 451v799z" />
    <glyph glyph-name="V" unicode="V" horiz-adv-x="1214" 
d="M20 1360h213l383 -1159l375 1159h203l-467 -1360h-233z" />
    <glyph glyph-name="W" unicode="W" horiz-adv-x="1755" 
d="M993 1360l273 -1139l256 1139h202l-344 -1360h-235l-266 1114l-263 -1114h-235l-350 1360h213l266 -1139l256 1139h227z" />
    <glyph glyph-name="X" unicode="X" horiz-adv-x="1249" 
d="M0 0l512 700l-477 660h229l365 -502l366 502h219l-477 -653l512 -707h-229l-399 549l-402 -549h-219z" />
    <glyph glyph-name="Y" unicode="Y" horiz-adv-x="1187" 
d="M682 0h-195v518l-487 842h213l377 -674l385 674h213l-506 -846v-514z" />
    <glyph glyph-name="Z" unicode="Z" horiz-adv-x="1204" 
d="M1118 1360v-172l-811 -1016h842v-172h-1071v172l813 1016h-750v172h977z" />
    <glyph glyph-name="bracketleft" unicode="[" horiz-adv-x="581" 
d="M154 1360h428v-148h-260v-1419h260v-147h-428v1714z" />
    <glyph glyph-name="backslash" unicode="\" horiz-adv-x="716" 
d="M174 1360l543 -1360h-174l-543 1360h174z" />
    <glyph glyph-name="bracketright" unicode="]" horiz-adv-x="581" 
d="M0 1360h428v-1714h-428v147h260v1419h-260v148z" />
    <glyph glyph-name="asciicircum" unicode="^" horiz-adv-x="839" 
d="M489 1360l392 -737h-187l-278 520l-273 -520h-184l383 737h147z" />
    <glyph glyph-name="underscore" unicode="_" horiz-adv-x="872" 
d="M811 -166h-750v164h750v-164z" />
    <glyph glyph-name="grave" unicode="`" horiz-adv-x="516" 
d="M309 1118l-248 242h222l172 -242h-146z" />
    <glyph glyph-name="a" unicode="a" horiz-adv-x="1054" 
d="M770 434v60l-209 -21q-151 -14 -223 -55t-72 -121t56 -125t164 -45q106 -1 195 73t89 234zM554 1022q194 0 287 -89t91 -292l-4 -254q-2 -145 20 -387h-168l-6 141q-102 -166 -338 -166q-168 1 -261 95t-93 238t135 220q113 61 346 88l195 21v37q0 115 -60 161t-174 46
q-113 -1 -172 -51t-67 -136l-170 6q8 152 127 237q118 85 312 85z" />
    <glyph glyph-name="b" unicode="b" horiz-adv-x="1124" 
d="M598 868q-131 0 -213 -94t-82 -279t80 -277t212 -91q132 0 204 96q71 95 71 273t-70 275q-71 97 -202 97zM137 0v1360h174v-502q106 162 326 162q184 0 301 -141t117 -382t-122 -381t-325 -140t-297 147l-8 -123h-166z" />
    <glyph glyph-name="c" unicode="c" horiz-adv-x="1038" 
d="M557 1020q176 0 290 -101t132 -231l-176 -24q-18 94 -88 148q-69 54 -183 54t-196 -94t-82 -272t83 -274t199 -97q116 0 186 56q71 56 89 145l178 -23q-25 -137 -149 -234t-299 -98q-219 1 -345 147t-126 376t131 376t356 146z" />
    <glyph glyph-name="d" unicode="d" horiz-adv-x="1124" 
d="M529 868q-131 0 -203 -96t-72 -273t70 -275t202 -97q131 0 213 94q82 93 82 279t-80 277t-212 91zM987 1360v-1360h-168l-6 137q-106 -162 -326 -162q-184 -1 -301 141q-116 142 -116 383t121 381q122 140 325 140t297 -148v488h174z" />
    <glyph glyph-name="e" unicode="e" 
d="M557 872q-131 0 -213 -74t-88 -206h588q-4 112 -80 196t-207 84zM555 -25q-237 -1 -361 145t-124 378t136 378q136 144 359 144t353 -163t110 -411h-774q0 -145 84 -231t213 -86q213 0 283 176l178 -22q-37 -133 -157 -221t-300 -87z" />
    <glyph glyph-name="f" unicode="f" horiz-adv-x="595" 
d="M180 1004v73q0 164 54 223t223 60h90v-148h-86q-68 0 -87 -26t-20 -107v-75h193v-144h-193v-860h-174v860h-141v144h141z" />
    <glyph glyph-name="g" unicode="g" horiz-adv-x="1116" 
d="M529 868q-131 0 -203 -90t-72 -259t70 -260t202 -91q131 0 209 87t78 266t-76 263t-208 84zM805 88v90q-106 -162 -305 -162t-315 134q-115 134 -115 368q0 233 120 368q121 134 321 134t294 -148l4 132h170v-877q0 -151 -22 -229t-66 -129q-119 -135 -354 -136
q-176 0 -287 79t-135 229l184 6q21 -78 75 -120t179 -42q125 -1 189 69t63 234z" />
    <glyph glyph-name="h" unicode="h" horiz-adv-x="1099" 
d="M311 1360v-496q101 156 315 156t298 -137q55 -90 55 -267v-616h-174v569q0 147 -37 213q-51 86 -182 86t-203 -86t-72 -247v-535h-174v1360h174z" />
    <glyph glyph-name="i" unicode="i" horiz-adv-x="448" 
d="M137 1360h174v-209h-174v209zM137 1004h174v-1004h-174v1004z" />
    <glyph glyph-name="j" unicode="j" horiz-adv-x="448" 
d="M137 1360h174v-209h-174v209zM137 -74v1078h174v-1076q0 -164 -48 -223t-193 -59h-88v147h49q68 -1 87 25t19 108z" />
    <glyph glyph-name="k" unicode="k" horiz-adv-x="960" 
d="M137 1360h174v-780l412 424h213l-361 -371l394 -633h-203l-309 510l-146 -150v-360h-174v1360z" />
    <glyph glyph-name="l" unicode="l" horiz-adv-x="448" 
d="M311 1360v-1360h-174v1360h174z" />
    <glyph glyph-name="m" unicode="m" horiz-adv-x="1710" 
d="M137 0v1004h174v-140q93 156 307 156t291 -174q115 174 353 174q150 0 238 -94t89 -310v-616h-174v567q0 185 -56 243t-166 58q-111 0 -177 -86t-66 -241v-541h-174v567q0 185 -56 243t-166 58t-176 -86t-67 -241v-541h-174z" />
    <glyph glyph-name="n" unicode="n" horiz-adv-x="1099" 
d="M311 1004v-140q101 156 315 156t298 -137q55 -90 55 -267v-616h-174v569q0 147 -37 213q-51 86 -182 86t-203 -86t-72 -247v-535h-174v1004h174z" />
    <glyph glyph-name="o" unicode="o" horiz-adv-x="1085" 
d="M70 498q0 256 136 389t337 133t337 -133t136 -389t-136 -389t-337 -133t-337 132q-136 134 -136 390zM254 498q0 -188 79 -280t210 -91q131 0 210 91q79 92 79 280t-79 279t-210 91t-210 -91t-79 -279z" />
    <glyph glyph-name="p" unicode="p" horiz-adv-x="1124" 
d="M598 868q-131 0 -213 -94t-82 -279t80 -277t212 -91q132 0 204 96q71 95 71 273t-70 275q-71 97 -202 97zM311 -354h-174v1358h170l4 -146q106 162 326 162q184 0 301 -141t117 -382t-122 -381t-325 -140t-297 147v-477z" />
    <glyph glyph-name="q" unicode="q" horiz-adv-x="1124" 
d="M529 868q-131 0 -203 -96t-72 -273t70 -275t202 -97q131 0 213 94q82 93 82 279t-80 277t-212 91zM813 1004h174v-1358h-174v491q-106 -162 -326 -162q-184 -1 -301 141q-116 142 -116 383t121 381q122 140 325 140t297 -148v132z" />
    <glyph glyph-name="r" unicode="r" horiz-adv-x="675" 
d="M551 829q-123 1 -181 -73t-59 -240v-516h-174v1004h170v-179q80 178 289 185q33 0 51 -2v-185q-55 6 -96 6z" />
    <glyph glyph-name="s" unicode="s" horiz-adv-x="983" 
d="M909 284q0 -140 -117 -225q-118 -84 -303 -84q-185 -1 -301 97t-131 229l183 16q43 -197 256 -196q104 0 171 42t66 107q0 115 -219 162l-131 27q-299 59 -299 282q0 127 119 203t287 76t275 -79t138 -210l-180 -16q-37 160 -250 159q-88 0 -151 -32q-64 -32 -64 -88
q0 -57 40 -87t126 -49l121 -24q170 -34 267 -102t97 -208z" />
    <glyph glyph-name="t" unicode="t" horiz-adv-x="618" 
d="M186 1004v276h174v-276h193v-144h-193v-579q0 -84 18 -109t89 -25h86v-147h-125q-147 0 -195 48q-47 48 -47 208v604h-161v144h161z" />
    <glyph glyph-name="u" unicode="u" 
d="M461 -23q-332 0 -332 404v623h174v-568q0 -147 33 -213q45 -94 176 -94t198 85t66 243v547h174v-1004h-174v143q-98 -166 -315 -166z" />
    <glyph glyph-name="v" unicode="v" horiz-adv-x="927" 
d="M193 1004l278 -764l277 764h180l-387 -1004h-154l-387 1004h193z" />
    <glyph glyph-name="w" unicode="w" horiz-adv-x="1351" 
d="M383 266l203 738h180l203 -738l196 738h187l-295 -1004h-158l-227 803l-219 -803h-158l-295 1004h186z" />
    <glyph glyph-name="x" unicode="x" horiz-adv-x="995" 
d="M946 1004l-348 -482l381 -522h-207l-276 381l-277 -381h-199l377 516l-354 488h207l250 -347l252 347h194z" />
    <glyph glyph-name="y" unicode="y" horiz-adv-x="901" 
d="M180 -354h-90v151h72q92 0 135 32t80 151l6 20l-369 1004h193l260 -771l254 771h180l-364 -1047q-59 -171 -129 -241t-228 -70z" />
    <glyph glyph-name="z" unicode="z" horiz-adv-x="929" 
d="M63 0v143l592 717h-553v144h756v-144l-592 -717h602v-143h-805z" />
    <glyph glyph-name="braceleft" unicode="{" horiz-adv-x="512" 
d="M442 -354q-168 0 -222 59t-54 223v310q0 100 -29 148t-117 48v139q88 1 117 49t29 148v307q0 164 54 223t222 60h90v-148h-86q-66 0 -86 -26t-20 -107v-313q0 -125 -39 -181t-121 -79v-4q82 -23 121 -79t39 -181v-316q0 -82 20 -108t86 -25h86v-147h-90z" />
    <glyph glyph-name="bar" unicode="|" horiz-adv-x="485" 
d="M164 1360h158v-1530h-158v1530z" />
    <glyph glyph-name="braceright" unicode="}" horiz-adv-x="512" 
d="M-20 -354v147h86q66 0 86 26t20 107v316q0 125 39 181t121 79v4q-82 23 -121 79t-39 181v313q0 82 -20 108t-86 25h-86v148h90q168 0 222 -60t54 -223v-307q0 -100 29 -148t117 -49v-139q-88 0 -117 -48t-29 -148v-310q0 -164 -54 -223t-222 -59h-90z" />
    <glyph glyph-name="asciitilde" unicode="~" horiz-adv-x="1097" 
d="M320 676q112 0 254 -66t192 -65q51 0 88 35t41 96h162q-8 -127 -87 -205t-206 -78q-82 0 -225 66q-143 65 -201 65t-94 -35q-37 -35 -41 -96h-162q8 127 87 205q80 78 192 78z" />
    <glyph glyph-name="exclamdown" unicode="&#xa1;" horiz-adv-x="464" 
d="M123 1004h219v-220h-219v220zM330 -356h-183v397l37 559h109l37 -559v-397z" />
    <glyph glyph-name="cent" unicode="&#xa2;" horiz-adv-x="1038" 
d="M254 500q0 -162 69 -257t179 -112v731q-112 -14 -180 -107t-68 -255zM590 -184h-88v161q-203 13 -318 157q-114 144 -114 362t116 359q117 142 316 161v180h88v-178q160 -10 264 -108t125 -222l-176 -24q-17 82 -73 135t-140 63v-731q88 13 145 67t76 132l178 -23
q-25 -127 -135 -221t-264 -109v-161z" />
    <glyph glyph-name="sterling" unicode="&#xa3;" 
d="M567 1233q-106 0 -185 -48q-79 -47 -79 -149t98 -282h373v-123h-315q29 -78 28 -142q0 -188 -200 -307l2 -4q63 25 121 25t167 -37q107 -37 195 -37t213 51l51 -149q-111 -63 -264 -64q-72 0 -197 38t-200 38q-139 0 -279 -76l-57 139q53 23 107 63t107 120q52 80 52 163
t-37 179h-227v123h168q-90 172 -90 282q0 174 135 261q134 87 336 87t326 -122t120 -324l-178 -4q-6 299 -291 299z" />
    <glyph glyph-name="currency" unicode="&#xa4;" horiz-adv-x="1210" 
d="M901 660q0 132 -85 222t-215 91q-130 -1 -212 -91t-82 -222t82 -220t212 -88t215 88t85 220zM150 659q0 147 83 265l-131 133l95 92l129 -129q120 94 274 94t281 -96l133 131l94 -92l-135 -135q82 -118 82 -262t-84 -261l137 -137l-94 -92l-135 133q-123 -94 -278 -94
t-273 90l-131 -129l-95 92l131 133q-83 117 -83 264z" />
    <glyph glyph-name="yen" unicode="&#xa5;" horiz-adv-x="1146" 
d="M977 211h-326v-211h-174v211h-311v123h311v143h-311v123h264l-440 760h203l376 -694l385 694h203l-455 -760h275v-123h-326v-143h326v-123z" />
    <glyph glyph-name="brokenbar" unicode="&#xa6;" horiz-adv-x="432" 
d="M137 412h158v-582h-158v582zM137 1360h158v-582h-158v582z" />
    <glyph glyph-name="section" unicode="&#xa7;" horiz-adv-x="1103" 
d="M242 614q0 -60 34 -104q34 -43 115 -88l260 -139q35 -20 41 -23q170 78 170 191q0 63 -46 113t-150 104l-230 123q-82 -25 -138 -71t-56 -106zM547 -221q92 0 149 38q58 38 58 102q0 65 -39 113t-146 105l-245 131q-254 135 -254 332q0 90 63 162t164 108
q-133 96 -133 234t110 210q111 70 269 70t263 -82t128 -223l-178 -8q-31 168 -230 168q-84 0 -135 -32t-51 -83t34 -90t120 -84l262 -141q141 -76 210 -149q68 -73 68 -175t-59 -181t-162 -126q117 -100 117 -238t-111 -222t-283 -85t-282 93q-111 94 -125 254l178 8
q31 -209 240 -209z" />
    <glyph glyph-name="dieresis" unicode="&#xa8;" horiz-adv-x="733" 
d="M498 1329h174v-188h-174v188zM61 1141v188h175v-188h-175z" />
    <glyph glyph-name="copyright" unicode="&#xa9;" horiz-adv-x="1570" 
d="M784 424q152 0 191 141l141 -37q-33 -98 -118 -160q-86 -62 -234 -62t-240 102q-92 104 -92 284t96 282t263 103q127 -1 209 -65t110 -170l-139 -39q-37 157 -198 155q-79 0 -133 -66t-54 -198q0 -130 54 -200t144 -70zM221 679q0 -255 162 -417q163 -162 405 -162
t402 161t160 417t-160 417t-403 161t-405 -162q-162 -160 -161 -415zM784 -25q-298 0 -500 197t-202 505t204 507q204 198 500 198t499 -198q204 -198 204 -506q0 -307 -204 -505t-501 -198z" />
    <glyph glyph-name="ordfeminine" unicode="&#xaa;" horiz-adv-x="647" 
d="M434 1032v35l-104 -12q-133 -14 -133 -86q1 -35 27 -58t77 -23t92 36t41 108zM334 1384q240 0 234 -214q-3 -108 -3 -190q0 -83 13 -183h-129l-5 65q-56 -80 -166 -80t-166 56t-56 133q-1 160 270 182l104 12v21q0 96 -110 96t-115 -90l-131 4q8 86 73 137q66 51 187 51z
" />
    <glyph glyph-name="guillemotleft" unicode="&#xab;" horiz-adv-x="956" 
d="M731 63l-303 437l303 434h184l-286 -434l286 -437h-184zM303 63l-303 437l303 434h186l-286 -434l286 -437h-186z" />
    <glyph glyph-name="logicalnot" unicode="&#xac;" horiz-adv-x="1157" 
d="M901 655h-819v164h993v-633h-174v469z" />
    <glyph glyph-name="registered" unicode="&#xae;" horiz-adv-x="1570" 
d="M940 844q0 111 -174 110h-100v-221h108q166 0 166 111zM666 614v-284h-154v745h229q181 0 267 -47t86 -184t-136 -197l172 -317h-169l-152 284h-143zM221 679q0 -255 162 -417q163 -162 405 -162t402 161t160 417t-160 417t-403 161t-405 -162q-162 -160 -161 -415z
M784 -25q-298 0 -500 197t-202 505t204 507q204 198 500 198t499 -198q204 -198 204 -506q0 -307 -204 -505t-501 -198z" />
    <glyph glyph-name="macron" unicode="&#xaf;" horiz-adv-x="653" 
d="M612 1167h-571v144h571v-144z" />
    <glyph glyph-name="degree" unicode="&#xb0;" horiz-adv-x="641" 
d="M180 1104q0 -62 39 -106t100 -44t103 44q41 44 41 106t-41 107q-40 44 -102 44t-101 -44t-39 -107zM320 825q-116 0 -198 82t-81 198q0 116 82 198q81 81 197 81t198 -82t82 -197q0 -116 -82 -198t-198 -82z" />
    <glyph glyph-name="plusminus" unicode="&#xb1;" horiz-adv-x="1157" 
d="M1075 0h-993v164h993v-164zM492 717v295h174v-295h409v-164h-409v-297h-174v297h-410v164h410z" />
    <glyph glyph-name="two.superior" unicode="&#xb2;" horiz-adv-x="659" 
d="M338 1624q125 0 198 -55q72 -55 72 -162t-121 -225t-268 -230h377v-118h-553v112q14 12 84 68q270 214 315 302q23 44 23 91t-38 78t-95 31q-58 0 -98 -38t-39 -122h-138q-2 120 77 194t204 74z" />
    <glyph glyph-name="three.superior" unicode="&#xb3;" horiz-adv-x="692" 
d="M342 928q68 0 111 34t43 91q0 129 -203 129h-29v112h23q188 0 188 115q0 51 -38 79t-93 28q-133 0 -158 -142l-133 15q18 109 94 172t195 63t197 -52q77 -52 77 -161t-110 -166q63 -25 97 -77t34 -113q0 -113 -85 -174t-213 -61t-205 70q-77 71 -89 173l133 14
q27 -149 164 -149z" />
    <glyph glyph-name="acute" unicode="&#xb4;" horiz-adv-x="516" 
d="M455 1360l-248 -242h-146l172 242h222z" />
    <glyph glyph-name="mu" unicode="&#xb5;" horiz-adv-x="1091" 
d="M133 -53v1057h174v-582q0 -162 53 -228t170 -67q117 0 184 85t66 243v549h174v-1004h-174v141q-98 -166 -245 -166t-228 115v-127q0 -213 -22 -317h-172q20 94 20 301z" />
    <glyph glyph-name="mu" unicode="&#x3bc;" horiz-adv-x="1091" 
d="M133 -53v1057h174v-582q0 -162 53 -228t170 -67q117 0 184 85t66 243v549h174v-1004h-174v141q-98 -166 -245 -166t-228 115v-127q0 -213 -22 -317h-172q20 94 20 301z" />
    <glyph glyph-name="paragraph" unicode="&#xb6;" horiz-adv-x="991" 
d="M0 1011q0 161 117 255t342 94h395v-1530h-143v1397h-232v-1397h-143v836q-140 16 -238 100t-98 245z" />
    <glyph glyph-name="periodcentered" unicode="&#xb7;" horiz-adv-x="430" 
d="M102 412v219h220v-219h-220z" />
    <glyph glyph-name="cedilla" unicode="&#xb8;" horiz-adv-x="464" 
d="M182 -285q115 1 115 59t-82 58q-47 0 -74 -16l-57 32l98 158h101l-62 -98q31 6 58 6q69 0 107 -35t38 -101t-64 -107q-64 -42 -152 -42q-89 0 -167 35l31 78q53 -27 110 -27z" />
    <glyph glyph-name="one.superior" unicode="&#xb9;" horiz-adv-x="440" 
d="M334 834h-137v583h-172v94q67 3 99 9q74 15 107 90h103v-776z" />
    <glyph glyph-name="ordmasculine" unicode="&#xba;" horiz-adv-x="673" 
d="M55 1084q0 146 81 224t201 76q120 0 202 -76t82 -224q0 -146 -82 -223t-202 -77t-201 77t-81 223zM197 1084q-1 -91 37 -141t102 -50t104 50q39 50 39 141q0 90 -38 140q-37 50 -103 50t-104 -49q-37 -50 -37 -141z" />
    <glyph glyph-name="guillemotright" unicode="&#xbb;" horiz-adv-x="956" 
d="M528 500l-303 -437h-184l287 437l-287 434h184zM956 500l-303 -437h-186l287 437l-287 434h186z" />
    <glyph glyph-name="onequarter" unicode="&#xbc;" horiz-adv-x="1695" 
d="M1667 303v-123h-137v-180h-137v180h-387v115l389 481h135v-473h137zM1393 303v291l-236 -291h236zM467 0h-193l953 1360h192zM512 584h-137v583h-172v95q67 2 99 8q73 13 108 90h102v-776z" />
    <glyph glyph-name="onehalf" unicode="&#xbd;" horiz-adv-x="1695" 
d="M1346 791q126 1 198 -55t72 -162t-115 -220t-274 -235h377v-119h-553v113q14 12 84 67q267 210 315 302q23 44 23 91t-38 78q-37 31 -95 31t-98 -38t-40 -122h-137q-2 121 77 195t204 74zM467 0h-193l953 1360h192zM512 584h-137v583h-172v95q67 2 99 8q73 13 108 90h102
v-776z" />
    <glyph glyph-name="threequarters" unicode="&#xbe;" horiz-adv-x="1695" 
d="M1667 180h-137v-180h-137v180h-387v115l389 481h135v-473h137v-123zM1393 303v291l-236 -291h236zM274 0l953 1360h192l-952 -1360h-193zM358 678q68 0 111 34t43 91q0 129 -203 129h-28v112h22q188 0 189 115q0 51 -38 79t-94 28q-133 0 -157 -142l-133 15
q18 109 94 172t195 63t197 -52t77 -161q0 -109 -111 -166q63 -25 98 -76q34 -52 33 -114q0 -113 -85 -174t-213 -61q-129 0 -205 70q-76 71 -89 173l134 14q26 -149 163 -149z" />
    <glyph glyph-name="questiondown" unicode="&#xbf;" horiz-adv-x="950" 
d="M629 1004v-220h-219v220h219zM464 -381q-188 0 -313 86q-126 86 -126 250q0 84 43 160q43 77 86 115q90 80 166 134t95 93q19 40 19 84v59h176v-65q0 -126 -76 -197q-43 -42 -95 -78q-53 -38 -85 -62t-62 -51t-58 -77t-27 -109q0 -88 71 -138q72 -50 198 -50t193 81
t70 181l174 -6q-1 -182 -131 -296t-318 -114z" />
    <glyph glyph-name="Agrave" unicode="&#xc0;" horiz-adv-x="1255" 
d="M565 1430l-282 215h245l209 -215h-172zM618 1159l-249 -694h503zM0 0l512 1360h225l518 -1360h-213l-108 295h-627l-104 -295h-203z" />
    <glyph glyph-name="Aacute" unicode="&#xc1;" horiz-adv-x="1255" 
d="M950 1645l-282 -215h-172l209 215h245zM618 1159l-249 -694h503zM0 0l512 1360h225l518 -1360h-213l-108 295h-627l-104 -295h-203z" />
    <glyph glyph-name="Acircumflex" unicode="&#xc2;" horiz-adv-x="1255" 
d="M702 1645l250 -215h-202l-129 106l-132 -106h-202l256 215h159zM618 1159l-249 -694h503zM0 0l512 1360h225l518 -1360h-213l-108 295h-627l-104 -295h-203z" />
    <glyph glyph-name="Atilde" unicode="&#xc3;" horiz-adv-x="1255" 
d="M748 1556q78 0 90 86h135q-19 -110 -79 -162q-118 -100 -285 -7q-81 45 -115 45q-76 0 -86 -84h-136q18 106 76 159q116 105 283 9q78 -46 117 -46zM618 1159l-249 -694h503zM0 0l512 1360h225l518 -1360h-213l-108 295h-627l-104 -295h-203z" />
    <glyph glyph-name="Adieresis" unicode="&#xc4;" horiz-adv-x="1255" 
d="M752 1632h174v-188h-174v188zM315 1632h174v-188h-174v188zM618 1159l-249 -694h503zM0 0l512 1360h225l518 -1360h-213l-108 295h-627l-104 -295h-203z" />
    <glyph glyph-name="Aring" unicode="&#xc5;" horiz-adv-x="1255" 
d="M621 1655q-33 0 -58 -24q-25 -25 -25 -59t26 -56q24 -22 57 -23q33 0 57 23q24 24 24 58t-24 58t-57 23zM621 1735q71 0 121 -46t50 -116t-48 -116q-50 -46 -124 -46t-122 46q-49 46 -49 116t50 116t122 46zM618 1159l-249 -694h503zM0 0l512 1360h225l518 -1360h-213
l-108 295h-627l-104 -295h-203z" />
    <glyph glyph-name="AE" unicode="&#xc6;" horiz-adv-x="1998" 
d="M1006 465v616l-453 -616h453zM1931 1360v-172h-731v-402h688v-172h-688v-442h731v-172h-925v295h-578l-215 -295h-213l1006 1360h925z" />
    <glyph glyph-name="Ccedilla" unicode="&#xc7;" horiz-adv-x="1372" 
d="M647 -285q115 1 115 59t-82 58q-47 0 -74 -16l-57 32l82 134q-252 29 -393 218q-142 188 -142 496t174 498t467 190q215 0 368 -112t198 -305l-189 -27q-33 127 -130 202t-271 75q-174 1 -296 -139t-122 -394t121 -397t317 -144q160 0 258 74t131 203l189 -27
q-45 -197 -202 -307t-382 -111l-41 -67q31 6 57 6q68 0 107 -35t39 -101q1 -66 -63 -107q-64 -42 -153 -42t-167 35l31 78q53 -27 110 -27z" />
    <glyph glyph-name="Egrave" unicode="&#xc8;" horiz-adv-x="1167" 
d="M637 1430l-283 215h246l209 -215h-172zM164 0v1360h936v-172h-742v-402h699v-172h-699v-442h742v-172h-936z" />
    <glyph glyph-name="Eacute" unicode="&#xc9;" horiz-adv-x="1167" 
d="M926 1645l-283 -215h-172l209 215h246zM164 0v1360h936v-172h-742v-402h699v-172h-699v-442h742v-172h-936z" />
    <glyph glyph-name="Ecircumflex" unicode="&#xca;" horiz-adv-x="1167" 
d="M725 1645l250 -215h-203l-129 106l-131 -106h-203l256 215h160zM164 0v1360h936v-172h-742v-402h699v-172h-699v-442h742v-172h-936z" />
    <glyph glyph-name="Edieresis" unicode="&#xcb;" horiz-adv-x="1167" 
d="M756 1632h174v-188h-174v188zM319 1632h175v-188h-175v188zM164 0v1360h936v-172h-742v-402h699v-172h-699v-442h742v-172h-936z" />
    <glyph glyph-name="Igrave" unicode="&#xcc;" horiz-adv-x="522" 
d="M182 1430l-282 215h245l209 -215h-172zM358 1360v-1360h-194v1360h194z" />
    <glyph glyph-name="Iacute" unicode="&#xcd;" horiz-adv-x="522" 
d="M621 1645l-283 -215h-172l209 215h246zM358 1360v-1360h-194v1360h194z" />
    <glyph glyph-name="Icircumflex" unicode="&#xce;" horiz-adv-x="522" 
d="M358 1360v-1360h-194v1360h194zM348 1645l209 -215h-182l-109 106l-110 -106h-183l215 215h160z" />
    <glyph glyph-name="Idieresis" unicode="&#xcf;" horiz-adv-x="522" 
d="M358 1360v-1360h-194v1360h194zM350 1632h174v-188h-174v188zM0 1632h174v-188h-174v188z" />
    <glyph glyph-name="Eth" unicode="&#xd0;" horiz-adv-x="1394" 
d="M659 614h-268v-442h115q102 0 174 7t157 37t138 82t89 149t36 233t-36 232q-36 98 -89 150t-138 82t-157 37t-174 7h-115v-402h268v-172zM197 1360h315q786 0 786 -680t-786 -680h-315v614h-156v172h156v574z" />
    <glyph glyph-name="Ntilde" unicode="&#xd1;" horiz-adv-x="1437" 
d="M870 1556q78 0 91 86h135q-18 -110 -78 -162q-119 -101 -286 -7q-81 45 -116 45q-76 0 -86 -84h-135q19 106 77 159q115 104 282 9q77 -46 116 -46zM1274 0h-285l-631 1157v-1157h-194v1360h285l630 -1155v1155h195v-1360z" />
    <glyph glyph-name="Ograve" unicode="&#xd2;" horiz-adv-x="1486" 
d="M723 1430l-283 215h246l209 -215h-172zM1391 680q1 -324 -179 -514t-472 -190t-468 194q-176 195 -176 508t182 510q182 196 470 196t466 -190t177 -514zM1192 680q0 254 -126 395t-323 141t-323 -140q-126 -142 -125 -396q0 -254 126 -395q127 -141 323 -141t322 140
q126 142 126 396z" />
    <glyph glyph-name="Oacute" unicode="&#xd3;" horiz-adv-x="1486" 
d="M1016 1645l-283 -215h-172l209 215h246zM1391 680q1 -324 -179 -514t-472 -190t-468 194q-176 195 -176 508t182 510q182 196 470 196t466 -190t177 -514zM1192 680q0 254 -126 395t-323 141t-323 -140q-126 -142 -125 -396q0 -254 126 -395q127 -141 323 -141t322 140
q126 142 126 396z" />
    <glyph glyph-name="Ocircumflex" unicode="&#xd4;" horiz-adv-x="1486" 
d="M823 1645l250 -215h-203l-129 106l-131 -106h-202l256 215h159zM1391 680q1 -324 -179 -514t-472 -190t-468 194q-176 195 -176 508t182 510q182 196 470 196t466 -190t177 -514zM1192 680q0 254 -126 395t-323 141t-323 -140q-126 -142 -125 -396q0 -254 126 -395
q127 -141 323 -141t322 140q126 142 126 396z" />
    <glyph glyph-name="Otilde" unicode="&#xd5;" horiz-adv-x="1486" 
d="M856 1556q78 0 90 86h135q-19 -110 -79 -162q-118 -101 -284 -7q-81 45 -116 45q-76 0 -86 -84h-135q19 106 77 159q116 105 281 9q78 -46 117 -46zM1391 680q1 -324 -179 -514t-472 -190t-468 194q-176 195 -176 508t182 510q182 196 470 196t466 -190t177 -514z
M1192 680q0 254 -126 395t-323 141t-323 -140q-126 -142 -125 -396q0 -254 126 -395q127 -141 323 -141t322 140q126 142 126 396z" />
    <glyph glyph-name="Odieresis" unicode="&#xd6;" horiz-adv-x="1486" 
d="M866 1632h174v-188h-174v188zM430 1632h174v-188h-174v188zM1391 680q1 -324 -179 -514t-472 -190t-468 194q-176 195 -176 508t182 510q182 196 470 196t466 -190t177 -514zM1192 680q0 254 -126 395t-323 141t-323 -140q-126 -142 -125 -396q0 -254 126 -395
q127 -141 323 -141t322 140q126 142 126 396z" />
    <glyph glyph-name="multiply" unicode="&#xd7;" horiz-adv-x="976" 
d="M936 180l-123 -123l-330 330l-319 -317l-123 123l319 317l-319 321l123 123l319 -319l320 317l123 -123l-320 -319z" />
    <glyph glyph-name="Oslash" unicode="&#xd8;" horiz-adv-x="1474" 
d="M295 680q0 -205 82 -338l651 762q-118 113 -302 113q-184 1 -308 -141t-123 -396zM744 143q188 -1 312 141t124 374t-86 366l-654 -764q116 -117 304 -117zM96 687q0 306 178 502t465 195q244 0 410 -137l121 142l78 -66l-127 -149q157 -190 157 -504t-176 -504
t-467 -191q-244 0 -413 144l-125 -146l-76 68l129 152q-154 188 -154 494z" />
    <glyph glyph-name="Ugrave" unicode="&#xd9;" horiz-adv-x="1392" 
d="M696 1430l-282 215h245l209 -215h-172zM143 1360h195v-819q0 -207 82 -302t274 -95t277 102q84 104 84 315v799h194v-782q0 -310 -130 -456t-423 -146t-423 134t-130 451v799z" />
    <glyph glyph-name="Uacute" unicode="&#xda;" horiz-adv-x="1392" 
d="M985 1645l-283 -215h-172l209 215h246zM143 1360h195v-819q0 -207 82 -302t274 -95t277 102q84 104 84 315v799h194v-782q0 -310 -130 -456t-423 -146t-423 134t-130 451v799z" />
    <glyph glyph-name="Ucircumflex" unicode="&#xdb;" horiz-adv-x="1392" 
d="M782 1645l250 -215h-203l-129 106l-131 -106h-202l256 215h159zM143 1360h195v-819q0 -207 82 -302t274 -95t277 102q84 104 84 315v799h194v-782q0 -310 -130 -456t-423 -146t-423 134t-130 451v799z" />
    <glyph glyph-name="Udieresis" unicode="&#xdc;" horiz-adv-x="1392" 
d="M813 1632h174v-188h-174v188zM377 1632h174v-188h-174v188zM143 1360h195v-819q0 -207 82 -302t274 -95t277 102q84 104 84 315v799h194v-782q0 -310 -130 -456t-423 -146t-423 134t-130 451v799z" />
    <glyph glyph-name="Yacute" unicode="&#xdd;" horiz-adv-x="1187" 
d="M860 1645l-282 -215h-172l208 215h246zM682 0h-195v518l-487 842h213l377 -674l385 674h213l-506 -846v-514z" />
    <glyph glyph-name="Thorn" unicode="&#xde;" horiz-adv-x="1179" 
d="M580 948h-222v-512h222q161 0 261 46q99 46 99 210q0 163 -99 209q-98 47 -261 47zM358 1120h207q277 0 425 -94t148 -334t-148 -334t-425 -94h-207v-264h-194v1360h194v-240z" />
    <glyph glyph-name="germandbls" unicode="&#xdf;" horiz-adv-x="1204" 
d="M311 0h-174v922q0 225 105 333q123 129 383 129q188 0 309 -88t121 -235q0 -209 -207 -295q287 -72 287 -365q1 -221 -145 -323t-363 -103q-100 0 -207 21l37 166q78 -25 178 -25q313 0 313 262q0 274 -387 275h-6v155h4q154 -1 237 53t83 149t-71 149t-185 53
q-184 0 -254 -90q-57 -74 -58 -232v-911z" />
    <glyph glyph-name="agrave" unicode="&#xe0;" horiz-adv-x="1054" 
d="M530 1118l-247 242h221l172 -242h-146zM770 434v60l-209 -21q-151 -14 -223 -55t-72 -121t56 -125t164 -45q106 -1 195 73t89 234zM554 1022q194 0 287 -89t91 -292l-4 -254q-2 -145 20 -387h-168l-6 141q-102 -166 -338 -166q-168 1 -261 95t-93 238t135 220
q113 61 346 88l195 21v37q0 115 -60 161t-174 46q-113 -1 -172 -51t-67 -136l-170 6q8 152 127 237q118 85 312 85z" />
    <glyph glyph-name="aacute" unicode="&#xe1;" horiz-adv-x="1054" 
d="M780 1360l-248 -242h-145l172 242h221zM770 434v60l-209 -21q-151 -14 -223 -55t-72 -121t56 -125t164 -45q106 -1 195 73t89 234zM554 1022q194 0 287 -89t91 -292l-4 -254q-2 -145 20 -387h-168l-6 141q-102 -166 -338 -166q-168 1 -261 95t-93 238t135 220
q113 61 346 88l195 21v37q0 115 -60 161t-174 46q-113 -1 -172 -51t-67 -136l-170 6q8 152 127 237q118 85 312 85z" />
    <glyph glyph-name="acircumflex" unicode="&#xe2;" horiz-adv-x="1054" 
d="M612 1360l246 -242h-182l-150 123l-151 -123h-182l251 242h168zM770 434v60l-209 -21q-151 -14 -223 -55t-72 -121t56 -125t164 -45q106 -1 195 73t89 234zM554 1022q194 0 287 -89t91 -292l-4 -254q-2 -145 20 -387h-168l-6 141q-102 -166 -338 -166q-168 1 -261 95
t-93 238t135 220q113 61 346 88l195 21v37q0 115 -60 161t-174 46q-113 -1 -172 -51t-67 -136l-170 6q8 152 127 237q118 85 312 85z" />
    <glyph glyph-name="atilde" unicode="&#xe3;" horiz-adv-x="1054" 
d="M657 1260q78 0 91 86h135q-19 -111 -79 -163q-118 -101 -285 -7q-81 45 -116 45q-76 0 -86 -84h-135q18 106 76 159q115 104 283 9q77 -45 116 -45zM770 434v60l-209 -21q-151 -14 -223 -55t-72 -121t56 -125t164 -45q106 -1 195 73t89 234zM554 1022q194 0 287 -89
t91 -292l-4 -254q-2 -145 20 -387h-168l-6 141q-102 -166 -338 -166q-168 1 -261 95t-93 238t135 220q113 61 346 88l195 21v37q0 115 -60 161t-174 46q-113 -1 -172 -51t-67 -136l-170 6q8 152 127 237q118 85 312 85z" />
    <glyph glyph-name="adieresis" unicode="&#xe4;" horiz-adv-x="1054" 
d="M659 1329h175v-188h-175v188zM223 1141v188h174v-188h-174zM770 434v60l-209 -21q-151 -14 -223 -55t-72 -121t56 -125t164 -45q106 -1 195 73t89 234zM554 1022q194 0 287 -89t91 -292l-4 -254q-2 -145 20 -387h-168l-6 141q-102 -166 -338 -166q-168 1 -261 95t-93 238
t135 220q113 61 346 88l195 21v37q0 115 -60 161t-174 46q-113 -1 -172 -51t-67 -136l-170 6q8 152 127 237q118 85 312 85z" />
    <glyph glyph-name="aring" unicode="&#xe5;" horiz-adv-x="1054" 
d="M543 1346q-33 0 -58 -24t-25 -58t26 -58q24 -22 57 -22t57 22t25 58q-1 34 -25 58t-57 24zM543 1425q72 0 122 -46q50 -45 50 -115t-49 -116t-123 -46t-123 46t-49 116t50 116t122 45zM770 434v60l-209 -21q-151 -14 -223 -55t-72 -121t56 -125t164 -45q106 -1 195 73
t89 234zM554 1022q194 0 287 -89t91 -292l-4 -254q-2 -145 20 -387h-168l-6 141q-102 -166 -338 -166q-168 1 -261 95t-93 238t135 220q113 61 346 88l195 21v37q0 115 -60 161t-174 46q-113 -1 -172 -51t-67 -136l-170 6q8 152 127 237q118 85 312 85z" />
    <glyph glyph-name="ae" unicode="&#xe6;" horiz-adv-x="1757" 
d="M1229 872q-131 0 -213 -74t-90 -206h587q-5 112 -79 196t-205 84zM266 297q0 -80 56 -125t164 -45q106 0 195 74t89 233v60l-209 -21q-151 -14 -223 -55t-72 -121zM535 1020q256 0 342 -162q127 162 355 162t356 -163t110 -411h-774q0 -141 83 -229t226 -88
q203 0 270 176l178 -22q-37 -131 -155 -220q-119 -88 -297 -88q-268 0 -385 209q-55 -104 -166 -156t-236 -53q-172 1 -266 95t-94 238t135 218q113 66 346 90l195 21v37q0 115 -60 161t-172 46q-225 0 -239 -195l-172 8q8 154 126 240t294 86z" />
    <glyph glyph-name="ccedilla" unicode="&#xe7;" horiz-adv-x="1038" 
d="M471 -285q115 1 115 59t-82 58q-47 0 -74 -16l-57 32l82 134q-182 29 -284 170q-101 141 -101 358t131 363t356 147q176 0 290 -101t132 -231l-176 -24q-18 94 -88 148q-69 54 -183 54t-196 -94t-82 -272t83 -274t199 -97q116 0 186 56q71 56 89 145l178 -23
q-25 -135 -147 -231t-291 -101l-41 -67q31 6 57 6q68 0 107 -35t39 -101q1 -66 -63 -107q-64 -42 -153 -42t-167 35l30 78q53 -27 111 -27z" />
    <glyph glyph-name="egrave" unicode="&#xe8;" 
d="M553 1118l-248 242h221l172 -242h-145zM557 872q-131 0 -213 -74t-88 -206h588q-4 112 -80 196t-207 84zM555 -25q-237 -1 -361 145t-124 378t136 378q136 144 359 144t353 -163t110 -411h-774q0 -145 84 -231t213 -86q213 0 283 176l178 -22q-37 -133 -157 -221
t-300 -87z" />
    <glyph glyph-name="eacute" unicode="&#xe9;" 
d="M805 1360l-248 -242h-145l172 242h221zM557 872q-131 0 -213 -74t-88 -206h588q-4 112 -80 196t-207 84zM555 -25q-237 -1 -361 145t-124 378t136 378q136 144 359 144t353 -163t110 -411h-774q0 -145 84 -231t213 -86q213 0 283 176l178 -22q-37 -133 -157 -221
t-300 -87z" />
    <glyph glyph-name="ecircumflex" unicode="&#xea;" 
d="M635 1360l246 -242h-183l-149 123l-152 -123h-182l252 242h168zM557 872q-131 0 -213 -74t-88 -206h588q-4 112 -80 196t-207 84zM555 -25q-237 -1 -361 145t-124 378t136 378q136 144 359 144t353 -163t110 -411h-774q0 -145 84 -231t213 -86q213 0 283 176l178 -22
q-37 -133 -157 -221t-300 -87z" />
    <glyph glyph-name="edieresis" unicode="&#xeb;" 
d="M680 1329h174v-188h-174v188zM244 1141v188h174v-188h-174zM557 872q-131 0 -213 -74t-88 -206h588q-4 112 -80 196t-207 84zM555 -25q-237 -1 -361 145t-124 378t136 378q136 144 359 144t353 -163t110 -411h-774q0 -145 84 -231t213 -86q213 0 283 176l178 -22
q-37 -133 -157 -221t-300 -87z" />
    <glyph glyph-name="igrave" unicode="&#xec;" horiz-adv-x="448" 
d="M158 1118l-248 242h221l172 -242h-145zM137 1004h174v-1004h-174v1004z" />
    <glyph glyph-name="iacute" unicode="&#xed;" horiz-adv-x="448" 
d="M532 1360l-247 -242h-146l172 242h221zM137 1004h174v-1004h-174v1004z" />
    <glyph glyph-name="icircumflex" unicode="&#xee;" horiz-adv-x="448" 
d="M137 1004h174v-1004h-174v1004zM291 1360l225 -262h-192l-99 135l-100 -135h-193l232 262h127z" />
    <glyph glyph-name="idieresis" unicode="&#xef;" horiz-adv-x="448" 
d="M137 1004h174v-1004h-174v1004zM315 1145v188h174v-188h-174zM-39 1145v188h174v-188h-174z" />
    <glyph glyph-name="eth" unicode="&#xf0;" horiz-adv-x="1091" 
d="M529 870q-131 0 -203 -97t-72 -274t70 -275t205 -97q134 0 213 93q79 94 79 280t-80 278t-212 92zM1010 592q0 -305 -129 -461t-347 -156q-218 -1 -342 139q-122 140 -122 383t121 383q123 140 313 140t297 -148l2 2q-74 168 -254 287l-148 -90l-86 47l150 92
q-49 27 -152 76l125 113q76 -37 174 -96l131 81l88 -49l-143 -88q322 -246 322 -655z" />
    <glyph glyph-name="ntilde" unicode="&#xf1;" horiz-adv-x="1099" 
d="M702 1260q78 0 91 86h135q-18 -111 -78 -163q-118 -101 -286 -7q-81 45 -115 45q-76 0 -87 -84h-135q19 106 77 159q115 104 282 9q77 -45 116 -45zM311 1004v-140q101 156 315 156t298 -137q55 -90 55 -267v-616h-174v569q0 147 -37 213q-51 86 -182 86t-203 -86
t-72 -247v-535h-174v1004h174z" />
    <glyph glyph-name="ograve" unicode="&#xf2;" horiz-adv-x="1085" 
d="M573 1118l-247 242h221l172 -242h-146zM70 498q0 256 136 389t337 133t337 -133t136 -389t-136 -389t-337 -133t-337 132q-136 134 -136 390zM254 498q0 -188 79 -280t210 -91q131 0 210 91q79 92 79 280t-79 279t-210 91t-210 -91t-79 -279z" />
    <glyph glyph-name="oacute" unicode="&#xf3;" horiz-adv-x="1085" 
d="M829 1360l-247 -242h-146l172 242h221zM70 498q0 256 136 389t337 133t337 -133t136 -389t-136 -389t-337 -133t-337 132q-136 134 -136 390zM254 498q0 -188 79 -280t210 -91q131 0 210 91q79 92 79 280t-79 279t-210 91t-210 -91t-79 -279z" />
    <glyph glyph-name="ocircumflex" unicode="&#xf4;" horiz-adv-x="1085" 
d="M629 1360l245 -242h-182l-149 123l-152 -123h-182l252 242h168zM70 498q0 256 136 389t337 133t337 -133t136 -389t-136 -389t-337 -133t-337 132q-136 134 -136 390zM254 498q0 -188 79 -280t210 -91q131 0 210 91q79 92 79 280t-79 279t-210 91t-210 -91t-79 -279z" />
    <glyph glyph-name="otilde" unicode="&#xf5;" horiz-adv-x="1085" 
d="M678 1260q78 0 90 86h135q-19 -111 -79 -163q-118 -102 -284 -7q-81 45 -116 45q-76 0 -86 -84h-135q19 106 77 159q58 54 130 54t151 -45q78 -45 117 -45zM70 498q0 256 136 389t337 133t337 -133t136 -389t-136 -389t-337 -133t-337 132q-136 134 -136 390zM254 498
q0 -188 79 -280t210 -91q131 0 210 91q79 92 79 280t-79 279t-210 91t-210 -91t-79 -279z" />
    <glyph glyph-name="odieresis" unicode="&#xf6;" horiz-adv-x="1085" 
d="M674 1329h174v-188h-174v188zM238 1141v188h174v-188h-174zM70 498q0 256 136 389t337 133t337 -133t136 -389t-136 -389t-337 -133t-337 132q-136 134 -136 390zM254 498q0 -188 79 -280t210 -91q131 0 210 91q79 92 79 280t-79 279t-210 91t-210 -91t-79 -279z" />
    <glyph glyph-name="divide" unicode="&#xf7;" horiz-adv-x="1136" 
d="M72 410v163h993v-163h-993zM463 723v219h219v-219h-219zM463 61v220h219v-220h-219z" />
    <glyph glyph-name="oslash" unicode="&#xf8;" horiz-adv-x="1089" 
d="M836 498q0 131 -37 211l-447 -512q70 -70 198 -70q128 -1 207 91t79 280zM254 498q0 -127 39 -215l446 514q-75 71 -201 71t-205 -91t-79 -279zM70 518q0 234 138 368t324 134t314 -102l90 104l78 -66l-99 -112q105 -136 105 -368t-138 -366t-326 -134t-310 98l-86 -99
l-76 68l90 104q-104 137 -104 371z" />
    <glyph glyph-name="ugrave" unicode="&#xf9;" 
d="M551 1118l-248 242h221l172 -242h-145zM461 -23q-332 0 -332 404v623h174v-568q0 -147 33 -213q45 -94 176 -94t198 85t66 243v547h174v-1004h-174v143q-98 -166 -315 -166z" />
    <glyph glyph-name="uacute" unicode="&#xfa;" 
d="M807 1360l-248 -242h-145l172 242h221zM461 -23q-332 0 -332 404v623h174v-568q0 -147 33 -213q45 -94 176 -94t198 85t66 243v547h174v-1004h-174v143q-98 -166 -315 -166z" />
    <glyph glyph-name="ucircumflex" unicode="&#xfb;" 
d="M641 1360l246 -242h-182l-150 123l-152 -123h-182l252 242h168zM461 -23q-332 0 -332 404v623h174v-568q0 -147 33 -213q45 -94 176 -94t198 85t66 243v547h174v-1004h-174v143q-98 -166 -315 -166z" />
    <glyph glyph-name="udieresis" unicode="&#xfc;" 
d="M686 1329h174v-188h-174v188zM250 1141v188h174v-188h-174zM461 -23q-332 0 -332 404v623h174v-568q0 -147 33 -213q45 -94 176 -94t198 85t66 243v547h174v-1004h-174v143q-98 -166 -315 -166z" />
    <glyph glyph-name="yacute" unicode="&#xfd;" horiz-adv-x="901" 
d="M745 1360l-247 -242h-146l172 242h221zM90 -354v151h72q92 0 135 32t80 151l6 20l-369 1004h193l260 -771l254 771h180l-364 -1047q-59 -172 -129 -242t-228 -69h-90z" />
    <glyph glyph-name="thorn" unicode="&#xfe;" horiz-adv-x="1124" 
d="M598 868q-131 0 -213 -94t-82 -279t80 -277t212 -91q132 0 204 96q71 95 71 273t-70 275q-71 97 -202 97zM137 -354v1714h174v-502q106 162 326 162q184 0 301 -141t117 -382t-122 -381t-325 -140t-297 147v-477h-174z" />
    <glyph glyph-name="ydieresis" unicode="&#xff;" horiz-adv-x="901" 
d="M602 1329h174v-188h-174v188zM166 1141v188h174v-188h-174zM90 -354v151h72q92 0 135 32t80 151l6 20l-369 1004h193l260 -771l254 771h180l-364 -1047q-59 -172 -129 -242t-228 -69h-90z" />
    <glyph glyph-name="Amacron" unicode="&#x100;" horiz-adv-x="1255" 
d="M903 1464h-571v144h571v-144zM618 1159l-249 -694h503zM0 0l512 1360h225l518 -1360h-213l-108 295h-627l-104 -295h-203z" />
    <glyph glyph-name="amacron" unicode="&#x101;" horiz-adv-x="1054" 
d="M819 1167h-571v144h571v-144zM770 434v60l-209 -21q-151 -14 -223 -55t-72 -121t56 -125t164 -45q106 -1 195 73t89 234zM554 1022q194 0 287 -89t91 -292l-4 -254q-2 -145 20 -387h-168l-6 141q-102 -166 -338 -166q-168 1 -261 95t-93 238t135 220q113 61 346 88
l195 21v37q0 115 -60 161t-174 46q-113 -1 -172 -51t-67 -136l-170 6q8 152 127 237q118 85 312 85z" />
    <glyph glyph-name="Abreve" unicode="&#x102;" horiz-adv-x="1255" 
d="M626 1534q134 0 154 111h148q-12 -105 -88 -165t-213 -60t-212 60t-87 165h147q17 -111 151 -111zM618 1159l-249 -694h503zM0 0l512 1360h225l518 -1360h-213l-108 295h-627l-104 -295h-203z" />
    <glyph glyph-name="abreve" unicode="&#x103;" horiz-adv-x="1054" 
d="M521 1108q-277 0 -300 252h135q14 -137 167 -137t167 137h135q-27 -252 -304 -252zM770 434v60l-209 -21q-151 -14 -223 -55t-72 -121t56 -125t164 -45q106 -1 195 73t89 234zM554 1022q194 0 287 -89t91 -292l-4 -254q-2 -145 20 -387h-168l-6 141q-102 -166 -338 -166
q-168 1 -261 95t-93 238t135 220q113 61 346 88l195 21v37q0 115 -60 161t-174 46q-113 -1 -172 -51t-67 -136l-170 6q8 152 127 237q118 85 312 85z" />
    <glyph glyph-name="Aogonek" unicode="&#x104;" horiz-adv-x="1255" 
d="M618 1159l-249 -694h503zM1079 -162q0 -82 125 -82q55 0 94 17v-115q-51 -23 -139 -23q-88 -1 -163 45t-74 134q0 115 120 186l-108 295h-627l-104 -295h-203l512 1360h225l518 -1360q-176 -86 -176 -162z" />
    <glyph glyph-name="aogonek" unicode="&#x105;" horiz-adv-x="1054" 
d="M554 1022q194 0 287 -89t91 -292l-4 -254q-2 -145 20 -387q-168 -82 -168 -163t125 -81q55 0 94 17v-115q-51 -23 -139 -23q-88 -1 -163 45t-74 134q0 109 157 186l-6 141q-102 -166 -338 -166q-168 1 -261 95t-93 238t135 220q113 61 346 88l195 21v37q0 115 -60 161
t-174 46q-113 -1 -172 -51t-67 -136l-170 6q8 152 127 237q118 85 312 85zM770 434v60l-209 -21q-151 -14 -223 -55t-72 -121t56 -125t164 -45q106 -1 195 73t89 234z" />
    <glyph glyph-name="Cacute" unicode="&#x106;" horiz-adv-x="1372" 
d="M1020 1645l-283 -215h-172l209 215h246zM723 -25q-293 0 -460 194q-167 195 -167 515t174 510t467 190q215 0 368 -112t198 -305l-189 -27q-33 127 -130 202t-271 75q-174 1 -296 -139t-122 -394t121 -397t317 -144q160 0 258 74t131 203l189 -27q-45 -197 -203 -307
t-385 -111z" />
    <glyph glyph-name="cacute" unicode="&#x107;" horiz-adv-x="1038" 
d="M817 1360l-248 -242h-145l172 242h221zM557 1020q176 0 290 -101t132 -231l-176 -24q-18 94 -88 148q-69 54 -183 54t-196 -94t-82 -272t83 -274t199 -97q116 0 186 56q71 56 89 145l178 -23q-25 -137 -149 -234t-299 -98q-219 1 -345 147t-126 376t131 376t356 146z" />
    <glyph glyph-name="Ccircumflex" unicode="&#x108;" horiz-adv-x="1372" 
d="M809 1645l250 -215h-203l-129 106l-131 -106h-203l256 215h160zM723 -25q-293 0 -460 194q-167 195 -167 515t174 510t467 190q215 0 368 -112t198 -305l-189 -27q-33 127 -130 202t-271 75q-174 1 -296 -139t-122 -394t121 -397t317 -144q160 0 258 74t131 203l189 -27
q-45 -197 -203 -307t-385 -111z" />
    <glyph glyph-name="ccircumflex" unicode="&#x109;" horiz-adv-x="1038" 
d="M639 1360l246 -242h-183l-149 123l-152 -123h-182l252 242h168zM557 1020q176 0 290 -101t132 -231l-176 -24q-18 94 -88 148q-69 54 -183 54t-196 -94t-82 -272t83 -274t199 -97q116 0 186 56q71 56 89 145l178 -23q-25 -137 -149 -234t-299 -98q-219 1 -345 147
t-126 376t131 376t356 146z" />
    <glyph glyph-name="Cdotaccent" unicode="&#x10a;" horiz-adv-x="1372" 
d="M637 1634h174v-188h-174v188zM723 -25q-293 0 -460 194q-167 195 -167 515t174 510t467 190q215 0 368 -112t198 -305l-189 -27q-33 127 -130 202t-271 75q-174 1 -296 -139t-122 -394t121 -397t317 -144q160 0 258 74t131 203l189 -27q-45 -197 -203 -307t-385 -111z
" />
    <glyph glyph-name="cdotaccent" unicode="&#x10b;" horiz-adv-x="1038" 
d="M444 1333h174v-188h-174v188zM557 1020q176 0 290 -101t132 -231l-176 -24q-18 94 -88 148q-69 54 -183 54t-196 -94t-82 -272t83 -274t199 -97q116 0 186 56q71 56 89 145l178 -23q-25 -137 -149 -234t-299 -98q-219 1 -345 147t-126 376t131 376t356 146z" />
    <glyph glyph-name="Ccaron" unicode="&#x10c;" horiz-adv-x="1372" 
d="M723 -25q-293 0 -460 194q-167 195 -167 515t174 510t467 190q215 0 368 -112t198 -305l-189 -27q-33 127 -130 202t-271 75q-174 1 -296 -139t-122 -394t121 -397t317 -144q160 0 258 74t131 203l189 -27q-45 -197 -203 -307t-385 -111zM635 1430l-250 215h203l129 -107
l131 107h203l-256 -215h-160z" />
    <glyph glyph-name="ccaron" unicode="&#x10d;" horiz-adv-x="1038" 
d="M457 1118l-246 242h182l150 -123l151 123h183l-252 -242h-168zM557 1020q176 0 290 -101t132 -231l-176 -24q-18 94 -88 148q-69 54 -183 54t-196 -94t-82 -272t83 -274t199 -97q116 0 186 56q71 56 89 145l178 -23q-25 -137 -149 -234t-299 -98q-219 1 -345 147
t-126 376t131 376t356 146z" />
    <glyph glyph-name="Dcaron" unicode="&#x10e;" horiz-adv-x="1368" 
d="M485 1430l-249 215h202l129 -107l131 107h203l-256 -215h-160zM164 1360h315q793 0 793 -680t-793 -680h-315v1360zM1073 680q0 135 -37 232q-37 98 -90 150t-139 82t-159 37t-175 7h-115v-1016h115q102 0 175 7t159 37t139 82t90 150t37 232z" />
    <glyph glyph-name="dcaron" unicode="&#x10f;" horiz-adv-x="1193" 
d="M529 868q-131 0 -203 -96t-72 -273t70 -275t202 -97q131 0 213 94q82 93 82 279t-80 277t-212 91zM987 0h-168l-6 137q-106 -162 -326 -162q-184 -1 -301 141q-116 142 -116 383t121 381q122 140 325 140t297 -148v488h174v-1360zM1288 1360l-133 -324h-111l58 324h186z
" />
    <glyph glyph-name="Dcroat" unicode="&#x110;" horiz-adv-x="1394" 
d="M1100 680q0 135 -36 232q-36 98 -89 150t-138 82t-157 37t-174 7h-115v-402h268v-172h-268v-442h115q102 0 174 7t157 37t138 82t89 150t36 232zM41 786h156v574h315q786 0 786 -680t-786 -680h-315v614h-156v172z" />
    <glyph glyph-name="dcroat" unicode="&#x111;" horiz-adv-x="1124" 
d="M529 868q-131 0 -203 -96t-72 -273t70 -275t202 -97q131 0 213 94q82 93 82 279t-80 277t-212 91zM987 1081v-1081h-168l-6 137q-106 -162 -326 -162q-184 -1 -301 141q-116 142 -116 383t121 381q122 140 325 140t297 -148v209h-215v144h215v135h174v-135h160v-144h-160
z" />
    <glyph glyph-name="Emacron" unicode="&#x112;" horiz-adv-x="1167" 
d="M922 1464h-572v144h572v-144zM164 0v1360h936v-172h-742v-402h699v-172h-699v-442h742v-172h-936z" />
    <glyph glyph-name="emacron" unicode="&#x113;" 
d="M838 1167h-572v144h572v-144zM557 872q-131 0 -213 -74t-88 -206h588q-4 112 -80 196t-207 84zM555 -25q-237 -1 -361 145t-124 378t136 378q136 144 359 144t353 -163t110 -411h-774q0 -145 84 -231t213 -86q213 0 283 176l178 -22q-37 -133 -157 -221t-300 -87z" />
    <glyph glyph-name="Ebreve" unicode="&#x114;" horiz-adv-x="1167" 
d="M624 1534q134 0 154 111h148q-12 -105 -88 -165t-213 -60t-212 60t-87 165h147q17 -111 151 -111zM164 0v1360h936v-172h-742v-402h699v-172h-699v-442h742v-172h-936z" />
    <glyph glyph-name="ebreve" unicode="&#x115;" 
d="M542 1108q-277 0 -300 252h135q14 -137 167 -137t167 137h135q-27 -252 -304 -252zM557 872q-131 0 -213 -74t-88 -206h588q-4 112 -80 196t-207 84zM555 -25q-237 -1 -361 145t-124 378t136 378q136 144 359 144t353 -163t110 -411h-774q0 -145 84 -231t213 -86
q213 0 283 176l178 -22q-37 -133 -157 -221t-300 -87z" />
    <glyph glyph-name="Edotaccent" unicode="&#x116;" horiz-adv-x="1167" 
d="M535 1634h174v-188h-174v188zM164 0v1360h936v-172h-742v-402h699v-172h-699v-442h742v-172h-936z" />
    <glyph glyph-name="edotaccent" unicode="&#x117;" 
d="M463 1333h174v-188h-174v188zM557 872q-131 0 -213 -74t-88 -206h588q-4 112 -80 196t-207 84zM555 -25q-237 -1 -361 145t-124 378t136 378q136 144 359 144t353 -163t110 -411h-774q0 -145 84 -231t213 -86q213 0 283 176l178 -22q-37 -133 -157 -221t-300 -87z" />
    <glyph glyph-name="Eogonek" unicode="&#x118;" horiz-adv-x="1167" 
d="M164 0v1360h936v-172h-742v-402h699v-172h-699v-442h742v-172h-10q-168 -82 -168 -163t125 -81q55 0 94 17v-115q-51 -23 -139 -23q-88 -1 -163 45t-75 134q0 111 151 186h-751z" />
    <glyph glyph-name="eogonek" unicode="&#x119;" 
d="M557 872q-131 0 -213 -74t-88 -206h588q-4 112 -80 196t-207 84zM561 -162q0 -82 125 -82q55 0 94 17v-115q-51 -23 -139 -23q-88 -1 -163 45t-75 137t109 160q-215 15 -329 157q-113 142 -113 370t136 372t359 144t353 -163t110 -411h-774q0 -145 84 -231t213 -86
q211 0 283 176l178 -22q-57 -197 -273 -283q-76 -31 -127 -76t-51 -86z" />
    <glyph glyph-name="Ecaron" unicode="&#x11a;" horiz-adv-x="1167" 
d="M557 1430l-250 215h203l129 -107l131 107h203l-256 -215h-160zM164 0v1360h936v-172h-742v-402h699v-172h-699v-442h742v-172h-936z" />
    <glyph glyph-name="ecaron" unicode="&#x11b;" 
d="M461 1118l-246 242h182l150 -123l151 123h183l-252 -242h-168zM557 872q-131 0 -213 -74t-88 -206h588q-4 112 -80 196t-207 84zM555 -25q-237 -1 -361 145t-124 378t136 378q136 144 359 144t353 -163t110 -411h-774q0 -145 84 -231t213 -86q213 0 283 176l178 -22
q-37 -133 -157 -221t-300 -87z" />
    <glyph glyph-name="Gcircumflex" unicode="&#x11c;" horiz-adv-x="1466" 
d="M817 1645l250 -215h-203l-129 106l-131 -106h-203l256 215h160zM737 1384q215 0 370 -112t202 -303l-189 -27q-37 123 -136 199t-255 76q-190 1 -312 -139t-122 -394t119 -397t315 -144q155 0 271 71q135 83 135 286v32h-365v173h549v-705h-154l-8 174
q-127 -199 -428 -199t-467 194t-166 513q0 318 175 510t466 192z" />
    <glyph glyph-name="gcircumflex" unicode="&#x11d;" horiz-adv-x="1116" 
d="M641 1360l246 -242h-182l-150 123l-152 -123h-182l252 242h168zM529 868q-131 0 -203 -90t-72 -259t70 -260t202 -91q131 0 209 87t78 266t-76 263t-208 84zM500 16q-199 0 -315 134q-115 134 -115 368q0 233 120 368q121 134 321 134t294 -148l4 132h170v-877
q0 -151 -22 -229t-66 -129q-119 -135 -354 -136q-176 0 -287 79t-135 229l184 6q21 -78 75 -120t179 -42q125 -1 189 69t63 234v90q-106 -162 -305 -162z" />
    <glyph glyph-name="Gbreve" unicode="&#x11e;" horiz-adv-x="1466" 
d="M730 1534q134 0 155 111h147q-12 -105 -88 -165t-213 -60t-212 60t-87 165h148q16 -111 150 -111zM737 1384q215 0 370 -112t202 -303l-189 -27q-37 123 -136 199t-255 76q-190 1 -312 -139t-122 -394t119 -397t315 -144q155 0 271 71q135 83 135 286v32h-365v173h549
v-705h-154l-8 174q-127 -199 -428 -199t-467 194t-166 513q0 318 175 510t466 192z" />
    <glyph glyph-name="gbreve" unicode="&#x11f;" horiz-adv-x="1116" 
d="M550 1108q-277 0 -300 252h135q14 -137 167 -137t167 137h135q-27 -252 -304 -252zM529 868q-131 0 -203 -90t-72 -259t70 -260t202 -91q131 0 209 87t78 266t-76 263t-208 84zM500 16q-199 0 -315 134q-115 134 -115 368q0 233 120 368q121 134 321 134t294 -148l4 132
h170v-877q0 -151 -22 -229t-66 -129q-119 -135 -354 -136q-176 0 -287 79t-135 229l184 6q21 -78 75 -120t179 -42q125 -1 189 69t63 234v90q-106 -162 -305 -162z" />
    <glyph glyph-name="Gdotaccent" unicode="&#x120;" horiz-adv-x="1466" 
d="M629 1634h174v-188h-174v188zM737 1384q215 0 370 -112t202 -303l-189 -27q-37 123 -136 199t-255 76q-190 1 -312 -139t-122 -394t119 -397t315 -144q155 0 271 71q135 83 135 286v32h-365v173h549v-705h-154l-8 174q-127 -199 -428 -199t-467 194t-166 513
q0 318 175 510t466 192z" />
    <glyph glyph-name="gdotaccent" unicode="&#x121;" horiz-adv-x="1116" 
d="M459 1333h174v-188h-174v188zM529 868q-131 0 -203 -90t-72 -259t70 -260t202 -91q131 0 209 87t78 266t-76 263t-208 84zM500 16q-199 0 -315 134q-115 134 -115 368q0 233 120 368q121 134 321 134t294 -148l4 132h170v-877q0 -151 -22 -229t-66 -129
q-119 -135 -354 -136q-176 0 -287 79t-135 229l184 6q21 -78 75 -120t179 -42q125 -1 189 69t63 234v90q-106 -162 -305 -162z" />
    <glyph glyph-name="Gcommaaccent" unicode="&#x122;" horiz-adv-x="1466" 
d="M641 -238v170h180v-182l-84 -170h-102l74 182h-68zM737 1384q215 0 370 -112t202 -303l-189 -27q-37 123 -136 199t-255 76q-190 1 -312 -139t-122 -394t119 -397t315 -144q155 0 271 71q135 83 135 286v32h-365v173h549v-705h-154l-8 174q-127 -199 -428 -199t-467 194
t-166 513q0 318 175 510t466 192z" />
    <glyph glyph-name="gcommaaccent" unicode="&#x123;" horiz-adv-x="1116" 
d="M529 868q-131 0 -203 -90t-72 -259t70 -260t202 -91q131 0 209 87t78 266t-76 263t-208 84zM500 16q-199 0 -315 134q-115 134 -115 368q0 233 120 368q121 134 321 134t294 -148l4 132h170v-877q0 -151 -22 -229t-66 -129q-119 -135 -354 -136q-176 0 -287 79t-135 229
l184 6q21 -78 75 -120t179 -42q125 -1 189 69t63 234v90q-106 -162 -305 -162zM621 1255v-170h-181v183l84 170h103l-74 -183h68z" />
    <glyph glyph-name="Hcircumflex" unicode="&#x124;" horiz-adv-x="1441" 
d="M805 1645l250 -215h-203l-129 106l-131 -106h-203l256 215h160zM1083 1360h195v-1360h-195v614h-725v-614h-194v1360h194v-574h725v574z" />
    <glyph glyph-name="hcircumflex" unicode="&#x125;" horiz-adv-x="1099" 
d="M311 1360v-496q101 156 315 156t298 -137q55 -90 55 -267v-616h-174v569q0 147 -37 213q-51 86 -182 86t-203 -86t-72 -247v-535h-174v1360h174zM711 1360l225 -262h-172l-119 135l-121 -135h-172l232 262h127z" />
    <glyph glyph-name="Hbar" unicode="&#x126;" horiz-adv-x="1441" 
d="M358 786h725v183h-725v-183zM1083 1360h195v-1360h-195v614h-725v-614h-194v1360h194v-219h725v219z" />
    <glyph glyph-name="hbar" unicode="&#x127;" horiz-adv-x="1099" 
d="M311 1360v-135h238v-144h-238v-217q101 156 315 156t298 -137q55 -90 55 -267v-616h-174v569q0 147 -37 213q-51 86 -182 86t-203 -86t-72 -247v-535h-174v1081h-160v144h160v135h174z" />
    <glyph glyph-name="Itilde" unicode="&#x128;" horiz-adv-x="522" 
d="M358 1360v-1360h-194v1360h194zM128 1653q56 0 134 -48q78 -49 109 -49t45 20t20 66h111q-12 -110 -54 -164q-41 -54 -95 -54t-136 48q-82 50 -112 50t-46 -18t-18 -70h-113q3 117 51 168t104 51z" />
    <glyph glyph-name="itilde" unicode="&#x129;" horiz-adv-x="448" 
d="M137 1004h174v-1004h-174v1004zM336 1264q84 0 100 77h139q-24 -143 -99 -181q-74 -38 -130 -38t-130 39q-73 39 -103 39q-82 0 -99 -78h-139q25 143 98 181q74 38 131 38q57 -1 127 -39t105 -38z" />
    <glyph glyph-name="Imacron" unicode="&#x12a;" horiz-adv-x="522" 
d="M358 1360v-1360h-194v1360h194zM461 1464h-400v144h400v-144z" />
    <glyph glyph-name="imacron" unicode="&#x12b;" horiz-adv-x="448" 
d="M137 1004h174v-1004h-174v1004zM463 1155h-475v143h475v-143z" />
    <glyph glyph-name="Ibreve" unicode="&#x12c;" horiz-adv-x="522" 
d="M358 1360v-1360h-194v1360h194zM266 1419q-110 1 -178 63t-80 163h148q16 -111 109 -111t114 111h147q-12 -102 -80 -164t-180 -62z" />
    <glyph glyph-name="ibreve" unicode="&#x12d;" horiz-adv-x="448" 
d="M137 1004h174v-1004h-174v1004zM226 1198q134 0 147 162h135q-25 -276 -283 -276t-280 276h135q12 -162 146 -162z" />
    <glyph glyph-name="Iogonek" unicode="&#x12e;" horiz-adv-x="522" 
d="M164 1360h194v-1360q-168 -82 -168 -163t125 -81q55 0 95 17v-115q-51 -23 -139 -23q-88 -1 -163 45t-75 134q0 118 131 186v1360z" />
    <glyph glyph-name="iogonek" unicode="&#x12f;" horiz-adv-x="448" 
d="M137 1004h174v-1004q-168 -82 -168 -163t125 -81q55 0 94 17v-115q-51 -23 -139 -23q-88 -1 -163 45t-74 134q-1 110 151 186v1004zM137 1360h174v-209h-174v209z" />
    <glyph glyph-name="Idotaccent" unicode="&#x130;" horiz-adv-x="522" 
d="M358 1360v-1360h-194v1360h194zM164 1634h194v-188h-194v188z" />
    <glyph glyph-name="dotlessi" unicode="&#x131;" horiz-adv-x="448" 
d="M137 1004h174v-1004h-174v1004z" />
    <glyph glyph-name="IJ" unicode="&#x132;" horiz-adv-x="1144" 
d="M584 0v174h30q121 0 147 28t25 144v1014h195v-1030q0 -110 -17 -176q-16 -66 -60 -100t-98 -44t-149 -10h-73zM358 1360v-1360h-194v1360h194z" />
    <glyph glyph-name="ij" unicode="&#x133;" horiz-adv-x="897" 
d="M586 1360h174v-209h-174v209zM586 -74v1078h174v-1076q0 -164 -48 -223t-194 -59h-88v147h49q67 -1 87 25t20 108zM137 1360h174v-209h-174v209zM137 1004h174v-1004h-174v1004z" />
    <glyph glyph-name="Jcircumflex" unicode="&#x134;" horiz-adv-x="622" 
d="M61 0v174h31q121 0 147 28t25 144v1014h195v-1030q0 -214 -78 -276q-43 -34 -97 -44t-149 -10h-74zM442 1645l209 -215h-182l-109 106l-110 -106h-182l215 215h159z" />
    <glyph glyph-name="jcircumflex" unicode="&#x135;" horiz-adv-x="448" 
d="M285 1360l225 -262h-172l-119 135l-121 -135h-172l232 262h127zM137 -74v1078h174v-1076q0 -164 -48 -223t-193 -59h-88v147h49q68 -1 87 25t19 108z" />
    <glyph glyph-name="Kcommaaccent" unicode="&#x136;" horiz-adv-x="1267" 
d="M578 -238v170h180v-182l-84 -170h-103l74 182h-67zM358 1360v-676l623 676h242l-514 -549l573 -811h-233l-471 670l-220 -236v-434h-194v1360h194z" />
    <glyph glyph-name="kcommaaccent" unicode="&#x137;" horiz-adv-x="960" 
d="M420 -238v170h180v-182l-84 -170h-102l73 182h-67zM137 1360h174v-780l412 424h213l-361 -371l394 -633h-203l-309 510l-146 -150v-360h-174v1360z" />
    <glyph glyph-name="kgreenlandic" unicode="&#x138;" horiz-adv-x="962" 
d="M137 1004h174v-443l416 443h197l-383 -404l430 -600h-213l-340 471l-107 -113v-358h-174v1004z" />
    <glyph glyph-name="Lacute" unicode="&#x139;" 
d="M621 1645l-283 -215h-172l209 215h246zM358 1360v-1188h729v-172h-923v1360h194z" />
    <glyph glyph-name="lacute" unicode="&#x13a;" horiz-adv-x="448" 
d="M598 1645l-283 -215h-172l209 215h246zM311 1360v-1360h-174v1360h174z" />
    <glyph glyph-name="Lcommaaccent" unicode="&#x13b;" 
d="M551 -238v170h180v-182l-84 -170h-102l73 182h-67zM358 1360v-1188h729v-172h-923v1360h194z" />
    <glyph glyph-name="lcommaaccent" unicode="&#x13c;" horiz-adv-x="448" 
d="M135 -238v170h180v-182l-84 -170h-102l74 182h-68zM311 1360v-1360h-174v1360h174z" />
    <glyph glyph-name="Lcaron" unicode="&#x13d;" 
d="M358 1360v-1188h729v-172h-923v1360h194zM776 1360l-133 -324h-111l58 324h186z" />
    <glyph glyph-name="lcaron" unicode="&#x13e;" horiz-adv-x="518" 
d="M311 1360v-1360h-174v1360h174zM612 1360l-133 -324h-110l57 324h186z" />
    <glyph glyph-name="Ldot" unicode="&#x13f;" 
d="M358 1360v-1188h729v-172h-923v1360h194zM164 1634h194v-188h-194v188z" />
    <glyph glyph-name="ldot" unicode="&#x140;" horiz-adv-x="448" 
d="M311 1360v-1360h-174v1360h174zM137 1446v188h174v-188h-174z" />
    <glyph glyph-name="Lslash" unicode="&#x141;" horiz-adv-x="1097" 
d="M174 1360h195v-567l348 239v-174l-348 -240v-446h729v-172h-924v485l-174 -118v174l174 118v701z" />
    <glyph glyph-name="lslash" unicode="&#x142;" horiz-adv-x="448" 
d="M137 1360h174v-494l138 95v-146l-138 -94v-721h-174v602l-137 -94v145l137 95v612z" />
    <glyph glyph-name="Nacute" unicode="&#x143;" horiz-adv-x="1437" 
d="M1059 1645l-283 -215h-172l209 215h246zM1274 0h-285l-631 1157v-1157h-194v1360h285l630 -1155v1155h195v-1360z" />
    <glyph glyph-name="nacute" unicode="&#x144;" horiz-adv-x="1099" 
d="M856 1360l-248 -242h-145l172 242h221zM311 1004v-140q101 156 315 156t298 -137q55 -90 55 -267v-616h-174v569q0 147 -37 213q-51 86 -182 86t-203 -86t-72 -247v-535h-174v1004h174z" />
    <glyph glyph-name="Ncommaaccent" unicode="&#x145;" horiz-adv-x="1437" 
d="M645 -238v170h180v-182l-84 -170h-102l74 182h-68zM1274 0h-285l-631 1157v-1157h-194v1360h285l630 -1155v1155h195v-1360z" />
    <glyph glyph-name="ncommaaccent" unicode="&#x146;" horiz-adv-x="1099" 
d="M473 -238v170h180v-182l-84 -170h-102l74 182h-68zM311 1004v-140q101 156 315 156t298 -137q55 -90 55 -267v-616h-174v569q0 147 -37 213q-51 86 -182 86t-203 -86t-72 -247v-535h-174v1004h174z" />
    <glyph glyph-name="Ncaron" unicode="&#x147;" horiz-adv-x="1437" 
d="M664 1430l-250 215h202l129 -107l132 107h202l-256 -215h-159zM1274 0h-285l-631 1157v-1157h-194v1360h285l630 -1155v1155h195v-1360z" />
    <glyph glyph-name="ncaron" unicode="&#x148;" horiz-adv-x="1099" 
d="M473 1118l-246 242h183l149 -123l152 123h182l-252 -242h-168zM311 1004v-140q101 156 315 156t298 -137q55 -90 55 -267v-616h-174v569q0 147 -37 213q-51 86 -182 86t-203 -86t-72 -247v-535h-174v1004h174z" />
    <glyph glyph-name="napostrophe" unicode="&#x149;" horiz-adv-x="1099" 
d="M147 1268v170h181v-183l-84 -170h-103l74 183h-68zM311 1004v-140q101 156 315 156t298 -137q55 -90 55 -267v-616h-174v569q0 147 -37 213q-51 86 -182 86t-203 -86t-72 -247v-535h-174v1004h174z" />
    <glyph glyph-name="Eng" unicode="&#x14a;" horiz-adv-x="1437" 
d="M358 0h-194v1360h291l624 -1010v1010h195v-1389q0 -195 -71 -261t-247 -64h-79v174h41q106 0 134 30t27 138v18l-721 1147v-1153z" />
    <glyph glyph-name="eng" unicode="&#x14b;" horiz-adv-x="1099" 
d="M805 -74v654q0 160 -54 224t-175 64t-193 -86t-72 -247v-535h-174v1004h174v-140q100 156 328 156q170 0 255 -104t85 -287v-701q0 -164 -48 -223t-194 -59h-88v147h49q68 -1 88 25t19 108z" />
    <glyph glyph-name="Omacron" unicode="&#x14c;" horiz-adv-x="1486" 
d="M1028 1464h-571v144h571v-144zM1391 680q1 -324 -179 -514t-472 -190t-468 194q-176 195 -176 508t182 510q182 196 470 196t466 -190t177 -514zM1192 680q0 254 -126 395t-323 141t-323 -140q-126 -142 -125 -396q0 -254 126 -395q127 -141 323 -141t322 140
q126 142 126 396z" />
    <glyph glyph-name="omacron" unicode="&#x14d;" horiz-adv-x="1085" 
d="M823 1167h-571v144h571v-144zM70 498q0 256 136 389t337 133t337 -133t136 -389t-136 -389t-337 -133t-337 132q-136 134 -136 390zM254 498q0 -188 79 -280t210 -91q131 0 210 91q79 92 79 280t-79 279t-210 91t-210 -91t-79 -279z" />
    <glyph glyph-name="Obreve" unicode="&#x14e;" horiz-adv-x="1486" 
d="M728 1534q134 0 155 111h147q-12 -105 -88 -165t-213 -60t-212 60t-87 165h148q16 -111 150 -111zM1391 680q1 -324 -179 -514t-472 -190t-468 194q-176 195 -176 508t182 510q182 196 470 196t466 -190t177 -514zM1192 680q0 254 -126 395t-323 141t-323 -140
q-126 -142 -125 -396q0 -254 126 -395q127 -141 323 -141t322 140q126 142 126 396z" />
    <glyph glyph-name="obreve" unicode="&#x14f;" horiz-adv-x="1085" 
d="M536 1108q-277 0 -300 252h135q14 -137 167 -137t167 137h135q-27 -252 -304 -252zM70 498q0 256 136 389t337 133t337 -133t136 -389t-136 -389t-337 -133t-337 132q-136 134 -136 390zM254 498q0 -188 79 -280t210 -91q131 0 210 91q79 92 79 280t-79 279t-210 91
t-210 -91t-79 -279z" />
    <glyph glyph-name="Ohungarumlaut" unicode="&#x150;" horiz-adv-x="1486" 
d="M1210 1645l-282 -215h-172l209 215h245zM893 1645l-283 -215h-172l209 215h246zM1391 680q1 -324 -179 -514t-472 -190t-468 194q-176 195 -176 508t182 510q182 196 470 196t466 -190t177 -514zM1192 680q0 254 -126 395t-323 141t-323 -140q-126 -142 -125 -396
q0 -254 126 -395q127 -141 323 -141t322 140q126 142 126 396z" />
    <glyph glyph-name="ohungarumlaut" unicode="&#x151;" horiz-adv-x="1085" 
d="M969 1360l-248 -242h-146l173 242h221zM668 1360l-248 -242h-146l172 242h222zM70 498q0 256 136 389t337 133t337 -133t136 -389t-136 -389t-337 -133t-337 132q-136 134 -136 390zM254 498q0 -188 79 -280t210 -91q131 0 210 91q79 92 79 280t-79 279t-210 91t-210 -91
t-79 -279z" />
    <glyph glyph-name="OE" unicode="&#x152;" horiz-adv-x="2158" 
d="M1180 680q0 254 -124 395t-319 141t-319 -140q-124 -142 -123 -396q0 -254 124 -395q125 -141 319 -141t318 140q124 142 124 396zM96 679q0 313 178 509t452 196t439 -163v139h926v-172h-731v-402h688v-172h-688v-442h731v-172h-926v141q-167 -166 -445 -166t-451 195
t-173 509z" />
    <glyph glyph-name="oe" unicode="&#x153;" horiz-adv-x="1835" 
d="M1308 872q-130 0 -213 -74t-91 -206h587q-5 112 -79 196t-204 84zM254 498q0 -188 79 -280t212 -91q133 0 212 91q79 92 79 280t-79 279t-212 91t-212 -91t-79 -279zM70 498q0 254 138 388t337 134q252 0 377 -203q128 203 372 203t372 -163t110 -411h-775
q0 -147 86 -232t220 -85q203 0 274 176l178 -22q-35 -129 -155 -218t-297 -90q-264 0 -387 201q-123 -201 -375 -201q-199 1 -337 135t-138 388z" />
    <glyph glyph-name="Racute" unicode="&#x154;" horiz-adv-x="1275" 
d="M889 1645l-283 -215h-172l209 215h246zM600 1188h-242v-459h242q222 0 291 55q68 55 70 174q0 175 -148 210q-78 20 -213 20zM586 557h-228v-557h-194v1360h422q265 0 410 -75q163 -85 163 -322q0 -293 -266 -373l313 -590h-217l-295 559q-35 -2 -108 -2z" />
    <glyph glyph-name="racute" unicode="&#x155;" horiz-adv-x="675" 
d="M659 1360l-247 -242h-146l172 242h221zM551 829q-123 1 -181 -73t-59 -240v-516h-174v1004h170v-179q80 178 289 185q33 0 51 -2v-185q-55 6 -96 6z" />
    <glyph glyph-name="Rcommaaccent" unicode="&#x156;" horiz-adv-x="1275" 
d="M530 -238v170h181v-182l-84 -170h-103l74 182h-68zM600 1188h-242v-459h242q222 0 291 55q68 55 70 174q0 175 -148 210q-78 20 -213 20zM586 557h-228v-557h-194v1360h422q265 0 410 -75q163 -85 163 -322q0 -293 -266 -373l313 -590h-217l-295 559q-35 -2 -108 -2z" />
    <glyph glyph-name="rcommaaccent" unicode="&#x157;" horiz-adv-x="675" 
d="M135 -238v170h180v-182l-84 -170h-102l74 182h-68zM551 829q-123 1 -181 -73t-59 -240v-516h-174v1004h170v-179q80 178 289 185q33 0 51 -2v-185q-55 6 -96 6z" />
    <glyph glyph-name="Rcaron" unicode="&#x158;" horiz-adv-x="1275" 
d="M524 1430l-250 215h203l129 -107l131 107h203l-256 -215h-160zM600 1188h-242v-459h242q222 0 291 55q68 55 70 174q0 175 -148 210q-78 20 -213 20zM586 557h-228v-557h-194v1360h422q265 0 410 -75q163 -85 163 -322q0 -293 -266 -373l313 -590h-217l-295 559
q-35 -2 -108 -2z" />
    <glyph glyph-name="rcaron" unicode="&#x159;" horiz-adv-x="675" 
d="M305 1118l-246 242h183l149 -123l152 123h182l-252 -242h-168zM551 829q-123 1 -181 -73t-59 -240v-516h-174v1004h170v-179q80 178 289 185q33 0 51 -2v-185q-55 6 -96 6z" />
    <glyph glyph-name="Sacute" unicode="&#x15a;" horiz-adv-x="1220" 
d="M895 1645l-283 -215h-172l209 215h246zM106 1012q0 180 154 276t348 96t338 -92q143 -92 182 -270l-188 -27q-31 117 -126 169t-187 52q-91 0 -153 -14q-62 -16 -116 -64t-53 -120q0 -154 225 -203l160 -35q98 -24 165 -46t143 -66q156 -90 155 -284q0 -194 -153 -302
t-382 -107q-228 0 -378 119t-179 318l189 26q57 -295 383 -295q153 -1 237 59t84 162t-75 154q-76 53 -222 84l-172 37q-379 82 -379 373z" />
    <glyph glyph-name="sacute" unicode="&#x15b;" horiz-adv-x="983" 
d="M760 1360l-248 -242h-145l172 242h221zM909 284q0 -140 -117 -225q-118 -84 -303 -84q-185 -1 -301 97t-131 229l183 16q43 -197 256 -196q104 0 171 42t66 107q0 115 -219 162l-131 27q-299 59 -299 282q0 127 119 203t287 76t275 -79t138 -210l-180 -16
q-37 160 -250 159q-88 0 -151 -32q-64 -32 -64 -88q0 -57 40 -87t126 -49l121 -24q170 -34 267 -102t97 -208z" />
    <glyph glyph-name="Scircumflex" unicode="&#x15c;" horiz-adv-x="1220" 
d="M692 1645l250 -215h-203l-129 106l-131 -106h-203l256 215h160zM106 1012q0 180 154 276t348 96t338 -92q143 -92 182 -270l-188 -27q-31 117 -126 169t-187 52q-91 0 -153 -14q-62 -16 -116 -64t-53 -120q0 -154 225 -203l160 -35q98 -24 165 -46t143 -66
q156 -90 155 -284q0 -194 -153 -302t-382 -107q-228 0 -378 119t-179 318l189 26q57 -295 383 -295q153 -1 237 59t84 162t-75 154q-76 53 -222 84l-172 37q-379 82 -379 373z" />
    <glyph glyph-name="scircumflex" unicode="&#x15d;" horiz-adv-x="983" 
d="M575 1360l246 -242h-182l-150 123l-151 -123h-182l252 242h167zM909 284q0 -140 -117 -225q-118 -84 -303 -84q-185 -1 -301 97t-131 229l183 16q43 -197 256 -196q104 0 171 42t66 107q0 115 -219 162l-131 27q-299 59 -299 282q0 127 119 203t287 76t275 -79t138 -210
l-180 -16q-37 160 -250 159q-88 0 -151 -32q-64 -32 -64 -88q0 -57 40 -87t126 -49l121 -24q170 -34 267 -102t97 -208z" />
    <glyph glyph-name="Scedilla" unicode="&#x15e;" horiz-adv-x="1220" 
d="M532 -285q115 1 115 59t-82 58q-47 0 -73 -16l-58 32l84 136q-192 26 -312 140t-145 288l189 26q57 -295 383 -295q153 -1 237 59t84 162t-75 154q-76 53 -222 84l-172 37q-379 82 -379 373q0 180 154 276t348 96t338 -92q143 -92 182 -270l-188 -27q-31 117 -126 169
t-187 52q-91 0 -153 -14q-62 -16 -116 -64t-53 -120q0 -154 225 -203l160 -35q98 -24 165 -46t143 -66q156 -90 155 -284q0 -194 -153 -302t-371 -107h-17l-41 -67q31 6 58 6q69 0 107 -35t38 -101t-63 -107q-63 -42 -153 -42t-167 35l31 78q53 -27 110 -27z" />
    <glyph glyph-name="scedilla" unicode="&#x15f;" horiz-adv-x="983" 
d="M408 -285q115 0 114 60q0 57 -82 57q-47 0 -73 -16l-58 32l84 136q-147 26 -235 116t-101 201l183 16q43 -197 256 -196q104 0 171 42t66 107q0 115 -219 162l-131 27q-299 59 -299 282q0 127 119 203t287 76t276 -79t137 -210l-180 -16q-37 160 -250 159q-88 0 -151 -32
q-64 -32 -64 -88q0 -57 40 -87t126 -49l121 -24q170 -34 267 -102t97 -208t-117 -225q-118 -84 -300 -84h-5l-41 -67q31 6 58 6q68 0 106 -35t39 -101q0 -66 -63 -107q-62 -42 -152 -42t-168 35l31 78q53 -27 111 -27z" />
    <glyph glyph-name="Scaron" unicode="&#x160;" horiz-adv-x="1220" 
d="M530 1430l-249 215h202l129 -107l131 107h203l-256 -215h-160zM106 1012q0 180 154 276t348 96t338 -92q143 -92 182 -270l-188 -27q-31 117 -126 169t-187 52q-91 0 -153 -14q-62 -16 -116 -64t-53 -120q0 -154 225 -203l160 -35q98 -24 165 -46t143 -66
q156 -90 155 -284q0 -194 -153 -302t-382 -107q-228 0 -378 119t-179 318l189 26q57 -295 383 -295q153 -1 237 59t84 162t-75 154q-76 53 -222 84l-172 37q-379 82 -379 373z" />
    <glyph glyph-name="scaron" unicode="&#x161;" horiz-adv-x="983" 
d="M395 1118l-245 242h182l149 -123l152 123h182l-252 -242h-168zM909 284q0 -140 -117 -225q-118 -84 -303 -84q-185 -1 -301 97t-131 229l183 16q43 -197 256 -196q104 0 171 42t66 107q0 115 -219 162l-131 27q-299 59 -299 282q0 127 119 203t287 76t275 -79t138 -210
l-180 -16q-37 160 -250 159q-88 0 -151 -32q-64 -32 -64 -88q0 -57 40 -87t126 -49l121 -24q170 -34 267 -102t97 -208z" />
    <glyph glyph-name="Tcommaaccent" unicode="&#x162;" horiz-adv-x="1091" 
d="M449 0v1188h-449v172h1092v-172h-449v-1188h-37l-57 -92q31 6 57 6q68 0 107 -35t39 -101t-64 -107q-64 -42 -152 -42q-89 0 -167 35l30 78q53 -27 111 -27q115 1 115 59t-82 58q-47 0 -74 -16l-57 32l94 152h-57z" />
    <glyph glyph-name="tcommaaccent" unicode="&#x163;" horiz-adv-x="618" 
d="M338 -285q115 1 115 59t-82 58q-47 0 -74 -16l-57 32l96 156q-88 12 -119 66t-31 186v604h-161v144h161v276h174v-276h193v-144h-193v-579q0 -84 18 -109t89 -25h86v-147h-119l-57 -92q31 6 57 6q68 0 107 -35t39 -101t-64 -107q-64 -42 -152 -42q-89 0 -167 35l30 78
q53 -27 111 -27z" />
    <glyph glyph-name="Tcaron" unicode="&#x164;" horiz-adv-x="1091" 
d="M461 1430l-250 215h203l129 -107l131 107h203l-256 -215h-160zM449 0v1188h-449v172h1092v-172h-449v-1188h-194z" />
    <glyph glyph-name="tcaron" unicode="&#x165;" horiz-adv-x="677" 
d="M186 1004v276h174v-276h193v-144h-193v-579q0 -84 18 -109t89 -25h86v-147h-125q-147 0 -195 48q-47 48 -47 208v604h-161v144h161zM719 1360l-133 -324h-111l57 324h187z" />
    <glyph glyph-name="Tbar" unicode="&#x166;" horiz-adv-x="1091" 
d="M449 0v614h-287v172h287v402h-449v172h1092v-172h-449v-402h287v-172h-287v-614h-194z" />
    <glyph glyph-name="tbar" unicode="&#x167;" horiz-adv-x="659" 
d="M207 1004v276h174v-276h192v-144h-192v-133h192v-143h-192v-303q0 -84 17 -109t89 -25h86v-147h-124q-147 0 -195 48q-47 48 -47 208v328h-162v143h162v133h-162v144h162z" />
    <glyph glyph-name="Utilde" unicode="&#x168;" horiz-adv-x="1392" 
d="M825 1556q78 0 90 86h136q-19 -110 -79 -162q-119 -101 -285 -7q-81 45 -116 45q-76 0 -86 -84h-135q18 106 76 159q115 104 283 9q77 -46 116 -46zM143 1360h195v-819q0 -207 82 -302t274 -95t277 102q84 104 84 315v799h194v-782q0 -310 -130 -456t-423 -146t-423 134
t-130 451v799z" />
    <glyph glyph-name="utilde" unicode="&#x169;" 
d="M666 1260q78 0 90 86h135q-19 -111 -79 -163q-118 -101 -285 -7q-81 45 -115 45q-76 0 -86 -84h-136q18 106 76 159q58 54 132 54q73 0 151 -45t117 -45zM461 -23q-332 0 -332 404v623h174v-568q0 -147 33 -213q45 -94 176 -94t198 85t66 243v547h174v-1004h-174v143
q-98 -166 -315 -166z" />
    <glyph glyph-name="Umacron" unicode="&#x16a;" horiz-adv-x="1392" 
d="M969 1464h-572v144h572v-144zM143 1360h195v-819q0 -207 82 -302t274 -95t277 102q84 104 84 315v799h194v-782q0 -310 -130 -456t-423 -146t-423 134t-130 451v799z" />
    <glyph glyph-name="umacron" unicode="&#x16b;" 
d="M829 1167h-571v144h571v-144zM461 -23q-332 0 -332 404v623h174v-568q0 -147 33 -213q45 -94 176 -94t198 85t66 243v547h174v-1004h-174v143q-98 -166 -315 -166z" />
    <glyph glyph-name="Ubreve" unicode="&#x16c;" horiz-adv-x="1392" 
d="M681 1534q135 0 155 111h147q-12 -105 -88 -165t-213 -60t-212 60t-87 165h147q16 -111 151 -111zM143 1360h195v-819q0 -207 82 -302t274 -95t277 102q84 104 84 315v799h194v-782q0 -310 -130 -456t-423 -146t-423 134t-130 451v799z" />
    <glyph glyph-name="ubreve" unicode="&#x16d;" 
d="M538 1108q-277 0 -300 252h135q14 -137 167 -137t167 137h135q-27 -252 -304 -252zM461 -23q-332 0 -332 404v623h174v-568q0 -147 33 -213q45 -94 176 -94t198 85t66 243v547h174v-1004h-174v143q-98 -166 -315 -166z" />
    <glyph glyph-name="Uring" unicode="&#x16e;" horiz-adv-x="1392" 
d="M690 1655q-34 0 -58 -24q-24 -25 -24 -59t25 -56t57 -23q32 0 58 23q24 24 24 58t-24 58t-58 23zM690 1735q72 0 122 -46t50 -116t-49 -116t-123 -46t-123 46t-49 116t50 116t122 46zM143 1360h195v-819q0 -207 82 -302t274 -95t277 102q84 104 84 315v799h194v-782
q0 -310 -130 -456t-423 -146t-423 134t-130 451v799z" />
    <glyph glyph-name="uring" unicode="&#x16f;" 
d="M539 1346q-33 0 -58 -24t-25 -58t26 -58q24 -22 57 -22t57 22t25 58q-1 34 -25 58t-57 24zM539 1425q71 0 121 -46q50 -45 50 -115t-48 -116q-49 -46 -123 -46t-123 46t-49 116t50 116t122 45zM461 -23q-332 0 -332 404v623h174v-568q0 -147 33 -213q45 -94 176 -94
t198 85t66 243v547h174v-1004h-174v143q-98 -166 -315 -166z" />
    <glyph glyph-name="Uhungarumlaut" unicode="&#x170;" horiz-adv-x="1392" 
d="M1190 1645l-283 -215h-172l209 215h246zM872 1645l-282 -215h-172l209 215h245zM143 1360h195v-819q0 -207 82 -302t274 -95t277 102q84 104 84 315v799h194v-782q0 -310 -130 -456t-423 -146t-423 134t-130 451v799z" />
    <glyph glyph-name="uhungarumlaut" unicode="&#x171;" 
d="M956 1360l-247 -242h-146l172 242h221zM655 1360l-247 -242h-146l172 242h221zM461 -23q-332 0 -332 404v623h174v-568q0 -147 33 -213q45 -94 176 -94t198 85t66 243v547h174v-1004h-174v143q-98 -166 -315 -166z" />
    <glyph glyph-name="Uogonek" unicode="&#x172;" horiz-adv-x="1392" 
d="M143 1360h195v-819q0 -207 82 -302t274 -95t277 102q84 104 84 315v799h194v-782q0 -285 -109 -432q-110 -146 -354 -166q-127 -72 -127 -142q0 -82 125 -82q55 0 95 17v-115q-51 -23 -139 -23q-88 -1 -163 45t-75 138t110 162q-248 16 -358 150t-111 431v799z" />
    <glyph glyph-name="uogonek" unicode="&#x173;" 
d="M461 -23q-332 0 -332 404v623h174v-568q0 -147 33 -213q45 -94 176 -94t198 85t66 243v547h174v-1004q-168 -82 -168 -163t125 -81q55 0 94 17v-115q-51 -23 -139 -23q-88 -1 -163 45t-74 134q-1 110 151 186v143q-98 -166 -315 -166z" />
    <glyph glyph-name="Wcircumflex" unicode="&#x174;" horiz-adv-x="1755" 
d="M967 1645l250 -215h-203l-129 106l-131 -106h-203l256 215h160zM993 1360l273 -1139l256 1139h202l-344 -1360h-235l-266 1114l-263 -1114h-235l-350 1360h213l266 -1139l256 1139h227z" />
    <glyph glyph-name="wcircumflex" unicode="&#x175;" horiz-adv-x="1351" 
d="M760 1360l246 -242h-183l-149 123l-152 -123h-182l252 242h168zM586 1004h180l203 -738l196 738h187l-295 -1004h-158l-227 803l-219 -803h-158l-295 1004h186l197 -738z" />
    <glyph glyph-name="Ycircumflex" unicode="&#x176;" horiz-adv-x="1187" 
d="M672 1645l250 -215h-203l-129 106l-131 -106h-203l256 215h160zM682 0h-195v518l-487 842h213l377 -674l385 674h213l-506 -846v-514z" />
    <glyph glyph-name="ycircumflex" unicode="&#x177;" horiz-adv-x="901" 
d="M559 1360l246 -242h-182l-150 123l-151 -123h-183l252 242h168zM90 -354v151h72q92 0 135 32t80 151l6 20l-369 1004h193l260 -771l254 771h180l-364 -1047q-59 -172 -129 -242t-228 -69h-90z" />
    <glyph glyph-name="Ydieresis" unicode="&#x178;" horiz-adv-x="1187" 
d="M721 1632h174v-188h-174v188zM285 1632h174v-188h-174v188zM682 0h-195v518l-487 842h213l377 -674l385 674h213l-506 -846v-514z" />
    <glyph glyph-name="Zacute" unicode="&#x179;" horiz-adv-x="1204" 
d="M926 1645l-283 -215h-172l209 215h246zM1118 1360v-172l-811 -1016h842v-172h-1071v172l813 1016h-750v172h977z" />
    <glyph glyph-name="zacute" unicode="&#x17a;" horiz-adv-x="929" 
d="M774 1360l-248 -242h-145l172 242h221zM102 860v144h756v-144l-592 -717h602v-143h-805v143l592 717h-553z" />
    <glyph glyph-name="Zdotaccent" unicode="&#x17b;" horiz-adv-x="1204" 
d="M551 1634h174v-188h-174v188zM1118 1360v-172l-811 -1016h842v-172h-1071v172l813 1016h-750v172h977z" />
    <glyph glyph-name="zdotaccent" unicode="&#x17c;" horiz-adv-x="929" 
d="M391 1333h174v-188h-174v188zM102 860v144h756v-144l-592 -717h602v-143h-805v143l592 717h-553z" />
    <glyph glyph-name="Zcaron" unicode="&#x17d;" horiz-adv-x="1204" 
d="M573 1430l-249 215h202l129 -107l131 107h203l-256 -215h-160zM1118 1360v-172l-811 -1016h842v-172h-1071v172l813 1016h-750v172h977z" />
    <glyph glyph-name="zcaron" unicode="&#x17e;" horiz-adv-x="929" 
d="M397 1118l-245 242h182l149 -123l152 123h182l-252 -242h-168zM102 860v144h756v-144l-592 -717h602v-143h-805v143l592 717h-553z" />
    <glyph glyph-name="uni0186" unicode="&#x186;" horiz-adv-x="1370" 
d="M1274 674q0 -318 -175 -508t-470 -191q-209 0 -364 113t-204 295l187 33q39 -137 144 -205t237 -68q207 1 327 137t119 392q0 256 -116 400t-304 145q-309 -1 -393 -263l-184 31q45 174 203 287t387 112q286 0 446 -196t160 -514z" />
    <glyph glyph-name="uni018F" unicode="&#x18f;" horiz-adv-x="1486" 
d="M742 143q183 0 305 120q121 120 135 345h-875q6 -221 129 -343t306 -122zM745 1384q289 0 464 -189t175 -514t-176 -515t-467 -191q-325 1 -493 225t-142 572h1076q-14 209 -138 327t-288 118q-165 0 -266 -66t-140 -172l-188 49q61 166 220 261t363 95z" />
    <glyph glyph-name="uni0190" unicode="&#x190;" horiz-adv-x="1144" 
d="M1067 172v-172h-496q-494 0 -493 391q0 225 209 322q-154 88 -154 295q0 352 485 352h449v-172h-477q-117 0 -189 -51q-71 -51 -71 -151t68 -153q68 -52 192 -53h422v-162h-430q-305 0 -306 -223q0 -223 304 -223h487z" />
    <glyph glyph-name="uni019D" unicode="&#x19d;" horiz-adv-x="1437" 
d="M8 -354v174h49q63 0 85 26t22 80v1434h291l624 -1151v1151h195v-1360h-291l-625 1153v-1225q0 -160 -57 -221t-205 -61h-88z" />
    <glyph glyph-name="uni019F" unicode="&#x19f;" horiz-adv-x="1486" 
d="M743 1217q-173 0 -293 -115t-145 -322h875q-25 207 -144 322t-293 115zM742 143q181 0 301 122t139 343h-879q18 -221 138 -343t301 -122zM1384 681q0 -325 -176 -515t-468 -190t-465 194q-173 195 -173 509t178 510q178 195 466 195t463 -189t175 -514z" />
    <glyph glyph-name="Ohorn" unicode="&#x1a0;" horiz-adv-x="1486" 
d="M1192 680q0 254 -126 395t-323 141t-323 -140q-126 -142 -125 -396q0 -254 126 -395q127 -141 323 -141t322 140q126 142 126 396zM1348 1313q0 55 -41 104l137 41q47 -72 47 -158t-56 -138t-161 -46q117 -182 117 -436q1 -324 -179 -514t-472 -190t-468 194
q-176 195 -176 508t182 510t467 196q217 0 388 -114q74 -49 131 -49q84 0 84 92z" />
    <glyph glyph-name="ohorn" unicode="&#x1a1;" horiz-adv-x="1085" 
d="M254 498q0 -188 79 -280t210 -91q131 0 210 91q79 92 79 280t-79 279t-210 91t-210 -91t-79 -279zM893 930q88 0 88 91q0 46 -31 93l133 35q35 -74 35 -137q0 -174 -194 -183q92 -131 92 -331q0 -256 -136 -389t-337 -133t-337 132q-136 134 -136 390t136 389t337 133
q111 0 213 -45q101 -45 137 -45z" />
    <glyph glyph-name="Uhorn" unicode="&#x1af;" horiz-adv-x="1392" 
d="M143 1360h195v-819q0 -207 82 -302t274 -95t277 102q84 104 84 315v799h149q98 6 99 92q0 49 -35 104l131 41q47 -71 47 -157t-60 -135t-137 -52v-675q0 -310 -130 -456t-423 -146t-423 134t-130 451v799z" />
    <glyph glyph-name="uhorn" unicode="&#x1b0;" 
d="M461 -23q-332 0 -332 404v623h174v-568q0 -147 33 -213q45 -94 176 -94t198 85t66 243v547h117q98 6 98 92q0 49 -35 104l131 41q47 -67 47 -153t-54 -136t-130 -55v-897h-174v143q-98 -166 -315 -166z" />
    <glyph glyph-name="uni01C4" unicode="&#x1c4;" horiz-adv-x="2469" 
d="M1827 1430l-250 215h203l129 -107l131 107h203l-256 -215h-160zM2384 1360v-172l-811 -1016h842v-172h-1072v172l814 1016h-750v172h977zM164 1360h315q793 0 793 -680t-793 -680h-315v1360zM1073 680q0 135 -37 232q-37 98 -90 150t-139 82t-159 37t-175 7h-115v-1016
h115q102 0 175 7t159 37t139 82t90 150t37 232z" />
    <glyph glyph-name="uni01C5" unicode="&#x1c5;" horiz-adv-x="2240" 
d="M1726 1118l-245 242h182l149 -123l152 123h182l-252 -242h-168zM1413 860v144h756v-144l-592 -717h602v-143h-805v143l592 717h-553zM164 1360h315q793 0 793 -680t-793 -680h-315v1360zM1073 680q0 135 -37 232q-37 98 -90 150t-139 82t-159 37t-175 7h-115v-1016h115
q102 0 175 7t159 37t139 82t90 150t37 232z" />
    <glyph glyph-name="uni01C6" unicode="&#x1c6;" horiz-adv-x="2058" 
d="M1544 1118l-246 242h183l149 -123l152 123h182l-252 -242h-168zM1192 0v143l592 717h-553v144h756v-144l-592 -717h602v-143h-805zM529 868q-131 0 -203 -96t-72 -273t70 -275t202 -97q131 0 213 94q82 93 82 279t-80 277t-212 91zM987 1360v-1360h-168l-6 137
q-106 -162 -326 -162q-184 -1 -301 141q-116 142 -116 383t121 381q122 140 325 140t297 -148v488h174z" />
    <glyph glyph-name="uni01C7" unicode="&#x1c7;" horiz-adv-x="1710" 
d="M1149 0v174h31q120 0 146 28t26 144v1014h194v-1030q0 -110 -17 -176t-61 -100t-97 -44q-54 -10 -148 -10h-74zM358 1360v-1188h729v-172h-923v1360h194z" />
    <glyph glyph-name="uni01C8" unicode="&#x1c8;" horiz-adv-x="1536" 
d="M1225 1360h174v-209h-174v209zM1225 -74v1078h174v-1076q0 -164 -48 -223t-194 -59h-88v147h49q66 -1 86 25t21 108zM358 1360v-1188h729v-172h-923v1360h194z" />
    <glyph glyph-name="uni01C9" unicode="&#x1c9;" horiz-adv-x="897" 
d="M586 1360h174v-209h-174v209zM586 -74v1078h174v-1076q0 -164 -48 -223t-194 -59h-88v147h49q67 -1 87 25t20 108zM311 1360v-1360h-174v1360h174z" />
    <glyph glyph-name="uni01CA" unicode="&#x1ca;" horiz-adv-x="2060" 
d="M1499 0v174h31q120 0 146 28t26 144v1014h194v-1030q0 -110 -17 -176q-31 -121 -158 -144q-54 -10 -148 -10h-74zM1274 0h-285l-631 1157v-1157h-194v1360h285l630 -1155v1155h195v-1360z" />
    <glyph glyph-name="uni01CB" unicode="&#x1cb;" horiz-adv-x="1886" 
d="M1575 1360h174v-209h-174v209zM1575 -74v1078h174v-1076q0 -164 -48 -223t-194 -59h-88v147h49q68 -1 88 25t19 108zM1274 0h-285l-631 1157v-1157h-194v1360h285l630 -1155v1155h195v-1360z" />
    <glyph glyph-name="uni01CC" unicode="&#x1cc;" horiz-adv-x="1548" 
d="M1237 1360h174v-209h-174v209zM1237 -74v1078h174v-1076q0 -164 -48 -223t-194 -59h-88v147h49q66 -1 86 25t21 108zM311 1004v-140q101 156 315 156t298 -137q55 -90 55 -267v-616h-174v569q0 147 -37 213q-51 86 -182 86t-203 -86t-72 -247v-535h-174v1004h174z" />
    <glyph glyph-name="uni01F1" unicode="&#x1f1;" horiz-adv-x="2469" 
d="M2384 1360v-172l-811 -1016h842v-172h-1072v172l814 1016h-750v172h977zM164 1360h315q793 0 793 -680t-793 -680h-315v1360zM1073 680q0 135 -37 232q-37 98 -90 150t-139 82t-159 37t-175 7h-115v-1016h115q102 0 175 7t159 37t139 82t90 150t37 232z" />
    <glyph glyph-name="uni01F2" unicode="&#x1f2;" horiz-adv-x="2260" 
d="M1434 860v144h755v-144l-592 -717h603v-143h-805v143l592 717h-553zM164 1360h315q793 0 793 -680t-793 -680h-315v1360zM1073 680q0 135 -37 232q-37 98 -90 150t-139 82t-159 37t-175 7h-115v-1016h115q102 0 175 7t159 37t139 82t90 150t37 232z" />
    <glyph glyph-name="uni01F3" unicode="&#x1f3;" horiz-adv-x="2058" 
d="M1192 0v143l592 717h-553v144h756v-144l-592 -717h602v-143h-805zM529 868q-131 0 -203 -96t-72 -273t70 -275t202 -97q131 0 213 94q82 93 82 279t-80 277t-212 91zM987 1360v-1360h-168l-6 137q-106 -162 -326 -162q-184 -1 -301 141q-116 142 -116 383t121 381
q122 140 325 140t297 -148v488h174z" />
    <glyph glyph-name="Aringacute" unicode="&#x1fa;" horiz-adv-x="1255" 
d="M618 1159l-249 -694h503zM0 0l512 1360h225l518 -1360h-213l-108 295h-627l-104 -295h-203zM621 1655q-33 0 -58 -24q-25 -25 -25 -59t26 -56q24 -22 57 -23q33 0 57 23q24 24 24 58t-24 58t-57 23zM793 1573q1 -70 -49 -116t-124 -46t-122 46q-49 47 -49 113t51 120
l194 200h246l-233 -178q86 -45 86 -139z" />
    <glyph glyph-name="aringacute" unicode="&#x1fb;" horiz-adv-x="1054" 
d="M770 434v60l-209 -21q-151 -14 -223 -55t-72 -121t56 -125t164 -45q106 -1 195 73t89 234zM554 1022q194 0 287 -89t91 -292l-4 -254q-2 -145 20 -387h-168l-6 141q-102 -166 -338 -166q-168 1 -261 95t-93 238t135 220q113 61 346 88l195 21v37q0 115 -60 161t-174 46
q-113 -1 -172 -51t-67 -136l-170 6q8 152 127 237q118 85 312 85zM530 1305q-34 0 -58 -24q-24 -25 -24 -59t26 -57q24 -23 56 -23t58 24q25 22 24 57q0 35 -24 59t-58 23zM530 1061q-74 0 -122 46q-48 45 -50 105q0 60 31 107l166 250h221l-184 -195q49 -16 80 -57
q30 -41 30 -103t-49 -107q-49 -46 -123 -46z" />
    <glyph glyph-name="AEacute" unicode="&#x1fc;" horiz-adv-x="1998" 
d="M1798 1645l-282 -215h-173l209 215h246zM1006 465v616l-453 -616h453zM1931 1360v-172h-731v-402h688v-172h-688v-442h731v-172h-925v295h-578l-215 -295h-213l1006 1360h925z" />
    <glyph glyph-name="aeacute" unicode="&#x1fd;" horiz-adv-x="1761" 
d="M1139 1360l-248 -242h-146l173 242h221zM1229 872q-131 0 -213 -74t-90 -206h587q-5 112 -79 196t-205 84zM266 297q0 -80 56 -125t164 -45q106 0 195 74t89 233v60l-209 -21q-151 -14 -223 -55t-72 -121zM535 1020q256 0 342 -162q127 162 355 162t356 -163t110 -411
h-774q0 -141 83 -229t226 -88q203 0 270 176l178 -22q-37 -131 -155 -220q-119 -88 -297 -88q-268 0 -385 209q-55 -104 -166 -156t-236 -53q-172 1 -266 95t-94 238t135 218q113 66 346 90l195 21v37q0 115 -60 161t-172 46q-225 0 -239 -195l-172 8q8 154 126 240t294 86z
" />
    <glyph glyph-name="Oslashacute" unicode="&#x1fe;" horiz-adv-x="1474" 
d="M1083 1645l-282 -215h-172l209 215h245zM295 680q0 -205 82 -338l651 762q-118 113 -302 113q-184 1 -308 -141t-123 -396zM744 143q188 -1 312 141t124 374t-86 366l-654 -764q116 -117 304 -117zM96 687q0 306 178 502t465 195q244 0 410 -137l121 142l78 -66
l-127 -149q157 -190 157 -504t-176 -504t-467 -191q-244 0 -413 144l-125 -146l-76 68l129 152q-154 188 -154 494z" />
    <glyph glyph-name="oslashacute" unicode="&#x1ff;" horiz-adv-x="1085" 
d="M856 1360l-248 -242h-145l172 242h221zM254 498q0 -125 37 -209l442 508q-73 71 -197 71t-203 -91t-79 -279zM831 498q0 125 -38 213l-445 -510q74 -74 200 -74t205 91q78 92 78 280zM70 498q0 256 136 389t322 133t312 -98l88 100l78 -66l-95 -108q105 -138 105 -372
t-136 -367t-326 -133t-314 102l-88 -103l-76 68l94 109q-100 133 -100 346z" />
    <glyph glyph-name="Scommaaccent" unicode="&#x218;" horiz-adv-x="1220" 
d="M518 -238v170h180v-182l-84 -170h-102l74 182h-68zM106 1012q0 180 154 276t348 96t338 -92q143 -92 182 -270l-188 -27q-31 117 -126 169t-187 52q-91 0 -153 -14q-62 -16 -116 -64t-53 -120q0 -154 225 -203l160 -35q98 -24 165 -46t143 -66q156 -90 155 -284
q0 -194 -153 -302t-382 -107q-228 0 -378 119t-179 318l189 26q57 -295 383 -295q153 -1 237 59t84 162t-75 154q-76 53 -222 84l-172 37q-379 82 -379 373z" />
    <glyph glyph-name="scommaaccent" unicode="&#x219;" horiz-adv-x="983" 
d="M397 -238v170h181v-182l-84 -170h-103l74 182h-68zM909 284q0 -140 -117 -225q-118 -84 -303 -84q-185 -1 -301 97t-131 229l183 16q43 -197 256 -196q104 0 171 42t66 107q0 115 -219 162l-131 27q-299 59 -299 282q0 127 119 203t287 76t275 -79t138 -210l-180 -16
q-37 160 -250 159q-88 0 -151 -32q-64 -32 -64 -88q0 -57 40 -87t126 -49l121 -24q170 -34 267 -102t97 -208z" />
    <glyph glyph-name="uni021A" unicode="&#x21a;" horiz-adv-x="1091" 
d="M455 -238v170h180v-182l-84 -170h-102l73 182h-67zM449 0v1188h-449v172h1092v-172h-449v-1188h-194z" />
    <glyph glyph-name="uni021B" unicode="&#x21b;" horiz-adv-x="618" 
d="M203 -238v170h180v-182l-84 -170h-102l73 182h-67zM186 1004v276h174v-276h193v-144h-193v-579q0 -84 18 -109t89 -25h86v-147h-125q-147 0 -195 48q-47 48 -47 208v604h-161v144h161z" />
    <glyph glyph-name="uni021C" unicode="&#x21c;" horiz-adv-x="1089" 
d="M854 204q0 120 -95 194q-95 75 -253 75q-70 0 -156 -16l-20 161q231 35 357 113t126 230q0 115 -87 185t-216 68q-268 0 -344 -243l-166 59q47 158 182 251t339 93t344 -101t141 -304q0 -254 -277 -383q143 -42 231 -146t89 -256q0 -526 -963 -551l-6 174q186 8 317 29
q305 46 403 176q54 72 54 192z" />
    <glyph glyph-name="uni021D" unicode="&#x21d;" horiz-adv-x="1017" 
d="M463 1020q182 0 307 -85t125 -255q0 -197 -225 -289q118 -29 190 -113t72 -208q0 -225 -232 -337t-622 -122l-6 151q326 14 500 85t176 225q0 129 -125 185t-314 17l-22 146q203 27 313 83t111 169q0 90 -74 143t-180 53q-240 0 -293 -186l-164 49q39 131 160 210t303 79
z" />
    <glyph glyph-name="uni0226" unicode="&#x226;" horiz-adv-x="1255" 
d="M535 1634h174v-188h-174v188zM618 1159l-249 -694h503zM0 0l512 1360h225l518 -1360h-213l-108 295h-627l-104 -295h-203z" />
    <glyph glyph-name="uni0227" unicode="&#x227;" horiz-adv-x="1054" 
d="M451 1333h174v-188h-174v188zM770 434v60l-209 -21q-151 -14 -223 -55t-72 -121t56 -125t164 -45q106 -1 195 73t89 234zM554 1022q194 0 287 -89t91 -292l-4 -254q-2 -145 20 -387h-168l-6 141q-102 -166 -338 -166q-168 1 -261 95t-93 238t135 220q113 61 346 88
l195 21v37q0 115 -60 161t-174 46q-113 -1 -172 -51t-67 -136l-170 6q8 152 127 237q118 85 312 85z" />
    <glyph glyph-name="uni0232" unicode="&#x232;" horiz-adv-x="1187" 
d="M874 1464h-571v144h571v-144zM682 0h-195v518l-487 842h213l377 -674l385 674h213l-506 -846v-514z" />
    <glyph glyph-name="uni0233" unicode="&#x233;" horiz-adv-x="901" 
d="M748 1167h-572v144h572v-144zM90 -354v151h72q92 0 135 32t80 151l6 20l-369 1004h193l260 -771l254 771h180l-364 -1047q-59 -172 -129 -242t-228 -69h-90z" />
    <glyph glyph-name="dotlessj" unicode="&#x237;" horiz-adv-x="448" 
d="M137 -74v1078h174v-1076q0 -164 -48 -223t-193 -59h-88v147h49q68 -1 87 25t19 108z" />
    <glyph glyph-name="uni0254" unicode="&#x254;" horiz-adv-x="1048" 
d="M489 -25q-173 -1 -287 99t-136 225l174 33q20 -94 90 -148t184 -55q114 0 198 94q83 95 83 273t-81 274q-80 96 -196 96t-184 -56t-86 -144l-176 30q27 135 147 230q121 94 295 94q219 0 342 -146t123 -377q1 -232 -131 -377t-359 -145z" />
    <glyph glyph-name="uni0259" unicode="&#x259;" horiz-adv-x="1099" 
d="M543 123q131 0 212 74t89 202h-586q4 -111 79 -193t206 -83zM545 1020q227 0 356 -148t129 -377q0 -231 -136 -375t-359 -144t-352 160q-128 161 -109 409h772q0 139 -85 230t-212 91q-211 0 -285 -180l-176 31q41 129 160 216t297 87z" />
    <glyph glyph-name="uni025B" unicode="&#x25b;" horiz-adv-x="993" 
d="M932 150v-150h-469q-401 0 -402 291q0 78 43 139t117 96q-51 31 -84 92t-33 123q0 115 92 189t304 74h432v-150h-447q-203 0 -202 -125q0 -137 194 -137h400v-150h-406q-123 0 -176 -36t-53 -111q0 -145 221 -145h469z" />
    <glyph glyph-name="uni0272" unicode="&#x272;" horiz-adv-x="1099" 
d="M137 -74v1078h174v-140q100 156 328 156q170 0 255 -104t85 -287v-629h-174v580q0 160 -54 224t-175 64t-193 -86t-72 -247v-607q0 -164 -48 -223t-193 -59h-88v147h49q68 -1 87 25t19 108z" />
    <glyph glyph-name="uni0275" unicode="&#x275;" horiz-adv-x="1089" 
d="M544 868q-118 0 -195 -72t-91 -223h573q-17 151 -93 223t-194 72zM544 127q120 0 198 75t89 228h-575q14 -154 91 -228t197 -75zM70 498q0 254 138 388t337 134t337 -134t138 -388t-138 -388t-337 -134t-337 134t-138 388z" />
    <glyph glyph-name="circumflex" unicode="&#x2c6;" horiz-adv-x="747" 
d="M461 1360l246 -242h-183l-149 123l-152 -123h-182l252 242h168z" />
    <glyph glyph-name="caron" unicode="&#x2c7;" horiz-adv-x="747" 
d="M287 1118l-246 242h182l150 -123l151 123h183l-252 -242h-168z" />
    <glyph glyph-name="breve" unicode="&#x2d8;" horiz-adv-x="686" 
d="M341 1108q-277 0 -300 252h135q14 -137 167 -137t167 137h135q-27 -252 -304 -252z" />
    <glyph glyph-name="dotaccent" unicode="&#x2d9;" horiz-adv-x="256" 
d="M41 1333h174v-188h-174v188z" />
    <glyph glyph-name="ring" unicode="&#x2da;" horiz-adv-x="425" 
d="M213 1346q-33 0 -57 -24t-25 -58q0 -34 25 -58q26 -22 58 -22t56 22t25 58q-1 34 -25 58t-57 24zM213 1425q72 0 122 -46q50 -45 50 -115t-49 -116t-123 -46t-123 46t-49 116t50 116t122 45z" />
    <glyph glyph-name="ogonek" unicode="&#x2db;" horiz-adv-x="458" 
d="M199 -163q0 -81 125 -81q55 0 94 17v-115q-51 -23 -139 -23q-88 -1 -163 45t-75 134q0 110 152 186h174q-168 -82 -168 -163z" />
    <glyph glyph-name="tilde" unicode="&#x2dc;" horiz-adv-x="782" 
d="M516 1260q78 0 90 86h135q-18 -111 -78 -163q-118 -102 -285 -7q-81 45 -116 45q-76 0 -86 -84h-135q19 106 77 159q58 54 130 54t151 -45q78 -45 117 -45z" />
    <glyph glyph-name="hungarumlaut" unicode="&#x2dd;" horiz-adv-x="776" 
d="M735 1360l-248 -242h-145l172 242h221zM434 1360l-248 -242h-145l172 242h221z" />
    <glyph glyph-name="uni032C" unicode="&#x32c;" horiz-adv-x="747" 
d="M307 -262l-266 262h192l140 -135l141 135h193l-273 -262h-127z" />
    <glyph glyph-name="pi" unicode="&#x3c0;" horiz-adv-x="1230" 
d="M377 0h-174v840h-142v164h1096v-164h-143v-561q0 -82 18 -107t92 -25h45v-147h-84q-149 0 -197 49t-48 207v584h-463v-840z" />
    <glyph glyph-name="Wgrave" unicode="&#x1e80;" horiz-adv-x="1755" 
d="M801 1430l-283 215h246l209 -215h-172zM993 1360l273 -1139l256 1139h202l-344 -1360h-235l-266 1114l-263 -1114h-235l-350 1360h213l266 -1139l256 1139h227z" />
    <glyph glyph-name="wgrave" unicode="&#x1e81;" horiz-adv-x="1351" 
d="M596 1118l-248 242h221l172 -242h-145zM586 1004h180l203 -738l196 738h187l-295 -1004h-158l-227 803l-219 -803h-158l-295 1004h186l197 -738z" />
    <glyph glyph-name="Wacute" unicode="&#x1e82;" horiz-adv-x="1755" 
d="M1231 1645l-283 -215h-172l209 215h246zM993 1360l273 -1139l256 1139h202l-344 -1360h-235l-266 1114l-263 -1114h-235l-350 1360h213l266 -1139l256 1139h227z" />
    <glyph glyph-name="wacute" unicode="&#x1e83;" horiz-adv-x="1351" 
d="M993 1360l-248 -242h-145l172 242h221zM586 1004h180l203 -738l196 738h187l-295 -1004h-158l-227 803l-219 -803h-158l-295 1004h186l197 -738z" />
    <glyph glyph-name="Wdieresis" unicode="&#x1e84;" horiz-adv-x="1755" 
d="M1014 1632h174v-188h-174v188zM578 1632h174v-188h-174v188zM993 1360l273 -1139l256 1139h202l-344 -1360h-235l-266 1114l-263 -1114h-235l-350 1360h213l266 -1139l256 1139h227z" />
    <glyph glyph-name="wdieresis" unicode="&#x1e85;" horiz-adv-x="1351" 
d="M805 1329h174v-188h-174v188zM369 1141v188h174v-188h-174zM586 1004h180l203 -738l196 738h187l-295 -1004h-158l-227 803l-219 -803h-158l-295 1004h186l197 -738z" />
    <glyph glyph-name="uni1EA0" unicode="&#x1ea0;" horiz-adv-x="1255" 
d="M532 -100h175v-189h-175v189zM618 1159l-249 -694h503zM0 0l512 1360h225l518 -1360h-213l-108 295h-627l-104 -295h-203z" />
    <glyph glyph-name="uni1EA1" unicode="&#x1ea1;" horiz-adv-x="1054" 
d="M438 -100h174v-189h-174v189zM770 434v60l-209 -21q-151 -14 -223 -55t-72 -121t56 -125t164 -45q106 -1 195 73t89 234zM554 1022q194 0 287 -89t91 -292l-4 -254q-2 -145 20 -387h-168l-6 141q-102 -166 -338 -166q-168 1 -261 95t-93 238t135 220q113 61 346 88
l195 21v37q0 115 -60 161t-174 46q-113 -1 -172 -51t-67 -136l-170 6q8 152 127 237q118 85 312 85z" />
    <glyph glyph-name="uni1EB8" unicode="&#x1eb8;" horiz-adv-x="1167" 
d="M543 -100h174v-189h-174v189zM164 0v1360h936v-172h-742v-402h699v-172h-699v-442h742v-172h-936z" />
    <glyph glyph-name="uni1EB9" unicode="&#x1eb9;" 
d="M469 -100h174v-189h-174v189zM557 872q-131 0 -213 -74t-88 -206h588q-4 112 -80 196t-207 84zM555 -25q-237 -1 -361 145t-124 378t136 378q136 144 359 144t353 -163t110 -411h-774q0 -145 84 -231t213 -86q213 0 283 176l178 -22q-37 -133 -157 -221t-300 -87z" />
    <glyph glyph-name="uni1ECA" unicode="&#x1eca;" horiz-adv-x="522" 
d="M172 -100h174v-189h-174v189zM358 1360v-1360h-194v1360h194z" />
    <glyph glyph-name="uni1ECB" unicode="&#x1ecb;" horiz-adv-x="448" 
d="M137 -100h174v-189h-174v189zM137 1360h174v-209h-174v209zM137 1004h174v-1004h-174v1004z" />
    <glyph glyph-name="uni1ECC" unicode="&#x1ecc;" horiz-adv-x="1486" 
d="M655 -100h174v-189h-174v189zM1391 680q1 -324 -179 -514t-472 -190t-468 194q-176 195 -176 508t182 510q182 196 470 196t466 -190t177 -514zM1192 680q0 254 -126 395t-323 141t-323 -140q-126 -142 -125 -396q0 -254 126 -395q127 -141 323 -141t322 140
q126 142 126 396z" />
    <glyph glyph-name="uni1ECD" unicode="&#x1ecd;" horiz-adv-x="1089" 
d="M449 -100h174v-189h-174v189zM72 498q0 256 136 389t337 133t337 -133t136 -389t-136 -389t-337 -133t-337 132q-136 134 -136 390zM256 498q0 -188 79 -280t210 -91q131 0 210 91q79 92 79 280t-79 279t-210 91t-210 -91t-79 -279z" />
    <glyph glyph-name="uni1EE4" unicode="&#x1ee4;" horiz-adv-x="1392" 
d="M598 -100h174v-189h-174v189zM143 1360h195v-819q0 -207 82 -302t274 -95t277 102q84 104 84 315v799h194v-782q0 -310 -130 -456t-423 -146t-423 134t-130 451v799z" />
    <glyph glyph-name="uni1EE5" unicode="&#x1ee5;" 
d="M444 -100h174v-189h-174v189zM461 -23q-332 0 -332 404v623h174v-568q0 -147 33 -213q45 -94 176 -94t198 85t66 243v547h174v-1004h-174v143q-98 -166 -315 -166z" />
    <glyph glyph-name="Ygrave" unicode="&#x1ef2;" horiz-adv-x="1187" 
d="M582 1430l-283 215h246l209 -215h-172zM682 0h-195v518l-487 842h213l377 -674l385 674h213l-506 -846v-514z" />
    <glyph glyph-name="ygrave" unicode="&#x1ef3;" horiz-adv-x="901" 
d="M446 1118l-247 242h221l172 -242h-146zM90 -354v151h72q92 0 135 32t80 151l6 20l-369 1004h193l260 -771l254 771h180l-364 -1047q-59 -172 -129 -242t-228 -69h-90z" />
    <glyph glyph-name="endash" unicode="&#x2013;" horiz-adv-x="974" 
d="M903 440h-831v164h831v-164z" />
    <glyph glyph-name="emdash" unicode="&#x2014;" horiz-adv-x="1376" 
d="M1315 440h-1254v164h1254v-164z" />
    <glyph glyph-name="quoteleft" unicode="&#x2018;" horiz-adv-x="464" 
d="M342 1096v-219h-219v233l117 250h110l-100 -264h92z" />
    <glyph glyph-name="quoteright" unicode="&#x2019;" horiz-adv-x="464" 
d="M123 1141v219h219v-234l-117 -249h-110l100 264h-92z" />
    <glyph glyph-name="quotesinglbase" unicode="&#x201a;" horiz-adv-x="464" 
d="M123 0v219h219v-233l-117 -250h-110l100 264h-92z" />
    <glyph glyph-name="quotedblleft" unicode="&#x201c;" horiz-adv-x="784" 
d="M342 1096v-219h-219v233l117 250h110l-100 -264h92zM662 1096v-219h-220v233l117 250h111l-101 -264h93z" />
    <glyph glyph-name="quotedblright" unicode="&#x201d;" horiz-adv-x="784" 
d="M442 1141v219h220v-234l-117 -249h-111l101 264h-93zM123 1141v219h219v-234l-117 -249h-110l100 264h-92z" />
    <glyph glyph-name="quotedblbase" unicode="&#x201e;" horiz-adv-x="802" 
d="M461 0v219h219v-233l-117 -250h-110l100 264h-92zM123 0v219h219v-233l-117 -250h-110l100 264h-92z" />
    <glyph glyph-name="dagger" unicode="&#x2020;" horiz-adv-x="1075" 
d="M625 0h-174v778h-390v164h390v418h174v-418h389v-164h-389v-778z" />
    <glyph glyph-name="daggerdbl" unicode="&#x2021;" horiz-adv-x="1075" 
d="M625 532h389v-163h-389v-369h-174v369h-390v163h390v287h-390v164h390v377h174v-377h389v-164h-389v-287z" />
    <glyph glyph-name="bullet" unicode="&#x2022;" horiz-adv-x="849" 
d="M82 526q0 142 98 242t242 100t244 -98q102 -98 102 -242t-100 -245t-244 -101t-244 100q-98 100 -98 244z" />
    <glyph glyph-name="ellipsis" unicode="&#x2026;" horiz-adv-x="1482" 
d="M1141 0v219h219v-219h-219zM633 0v219h219v-219h-219zM123 0v219h219v-219h-219z" />
    <glyph glyph-name="perthousand" unicode="&#x2030;" horiz-adv-x="2410" 
d="M2053 94q171 0 171 294t-171 294t-171 -294t171 -294zM2053 -14q-153 0 -233 108t-79 295q0 186 80 294q79 108 233 108t233 -108t79 -294t-80 -295q-80 -108 -233 -108zM1336 94q171 0 171 294t-171 294t-171 -294t171 -294zM1649 389q0 -187 -80 -295t-233 -108
q-152 0 -232 108t-80 295q0 186 80 294t234 108t232 -108q79 -108 79 -294zM274 0l953 1360h192l-952 -1360h-193zM357 678q171 0 171 294t-171 294t-171 -294t171 -294zM357 569q-153 0 -233 109t-79 295q0 186 80 294q79 107 233 107t233 -108t79 -293q0 -186 -80 -295
t-233 -109z" />
    <glyph glyph-name="guilsinglleft" unicode="&#x2039;" horiz-adv-x="530" 
d="M303 63l-303 437l303 434h186l-286 -434l286 -437h-186z" />
    <glyph glyph-name="guilsinglright" unicode="&#x203a;" horiz-adv-x="530" 
d="M530 500l-303 -437h-186l287 437l-287 434h186z" />
    <glyph glyph-name="fraction" unicode="&#x2044;" horiz-adv-x="262" 
d="M-250 0h-192l952 1360h192z" />
    <glyph glyph-name="zero.superior" unicode="&#x2070;" horiz-adv-x="759" 
d="M382 928q171 0 171 294t-171 294t-171 -294t171 -294zM694 1223q0 -186 -80 -295t-232 -109t-232 109t-80 295t80 294q80 107 234 107t232 -108t78 -293z" />
    <glyph glyph-name="four.superior" unicode="&#x2074;" horiz-adv-x="722" 
d="M692 1137v-123h-137v-180h-137v180h-387v114l389 482h135v-473h137zM418 1137v290l-236 -290h236z" />
    <glyph glyph-name="five.superior" unicode="&#x2075;" horiz-adv-x="694" 
d="M346 928q66 0 108 42t42 120t-45 118q-45 41 -101 41q-56 -1 -95 -23q-38 -22 -50 -52l-127 8l51 428h477v-121h-364l-23 -176q61 47 163 47t179 -72q76 -72 76 -198t-84 -199q-84 -72 -211 -72t-201 72t-84 172l131 14q23 -149 158 -149z" />
    <glyph glyph-name="six.superior" unicode="&#x2076;" horiz-adv-x="696" 
d="M348 1516q-64 0 -108 -67t-45 -181q61 80 179 80t194 -73t75 -191q0 -118 -80 -192q-81 -74 -219 -73t-212 103t-75 282q0 180 76 300t238 120q117 0 183 -63t73 -150h-138q-6 49 -42 77q-35 28 -99 28zM205 1083q0 -71 42 -113t106 -42t107 43q42 43 42 113t-41 112
q-41 43 -107 43t-108 -43t-41 -113z" />
    <glyph glyph-name="seven.superior" unicode="&#x2077;" horiz-adv-x="593" 
d="M20 1489v121h570v-115q-158 -155 -234 -305t-88 -356h-153q16 360 329 655h-424z" />
    <glyph glyph-name="eight.superior" unicode="&#x2078;" horiz-adv-x="712" 
d="M489 1407q0 49 -35 79q-36 30 -98 30t-97 -30q-36 -30 -36 -79t37 -82t97 -33t97 33q35 33 35 82zM357 1190q-69 0 -109 -36t-41 -95q0 -59 41 -95q42 -36 110 -36t109 36t41 95t-41 95t-110 36zM356 1624q121 0 195 -57t74 -144q0 -119 -97 -176q121 -63 121 -183
t-82 -182t-211 -62t-210 62q-80 62 -80 182t118 183q-96 59 -96 176q0 85 74 143t194 58z" />
    <glyph glyph-name="nine.superior" unicode="&#x2079;" horiz-adv-x="688" 
d="M330 928q78 0 122 66t44 182q-56 -80 -176 -80t-196 72t-75 189q0 119 78 193q77 74 219 74t216 -102t73 -282q0 -180 -76 -300q-76 -121 -235 -121q-117 -1 -185 63t-76 148l140 2q6 -48 41 -76t86 -28zM487 1360q0 70 -42 113q-41 43 -107 43t-107 -42t-41 -113
t41 -114t107 -43t108 43t41 113z" />
    <glyph glyph-name="plus.superior" unicode="&#x207a;" horiz-adv-x="712" 
d="M422 834h-129v229h-236v123h236v231h129v-231h233v-123h-233v-229z" />
    <glyph glyph-name="minus.superior" unicode="&#x207b;" horiz-adv-x="698" 
d="M59 1186h582v-123h-582v123z" />
    <glyph glyph-name="equal.superior" unicode="&#x207c;" horiz-adv-x="708" 
d="M629 948h-549v123h549v-123zM629 1176h-549v122h549v-122z" />
    <glyph glyph-name="parenleft.superior" unicode="&#x207d;" horiz-adv-x="327" 
d="M45 1123q0 265 150 487h124q-131 -218 -131 -490t131 -489h-124q-150 227 -150 492z" />
    <glyph glyph-name="parenright.superior" unicode="&#x207e;" horiz-adv-x="327" 
d="M281 1122q0 -272 -150 -491h-125q131 217 131 489t-131 490h125q150 -216 150 -488z" />
    <glyph glyph-name="n.superior" unicode="&#x207f;" horiz-adv-x="684" 
d="M403 1419q199 0 199 -229v-356h-137v323q0 76 -25 112t-82 36q-127 0 -127 -177v-294h-139v573h139v-70q51 82 172 82z" />
    <glyph glyph-name="zero.inferior" unicode="&#x2080;" horiz-adv-x="759" 
d="M382 -152q171 0 171 294t-171 294t-171 -294t171 -294zM694 143q0 -187 -80 -295t-232 -108t-232 108t-80 295q0 186 80 294t234 108t232 -108t78 -294z" />
    <glyph glyph-name="one.inferior" unicode="&#x2081;" horiz-adv-x="440" 
d="M334 -246h-137v584h-172v94q67 2 99 8q73 13 107 90h103v-776z" />
    <glyph glyph-name="two.inferior" unicode="&#x2082;" horiz-adv-x="659" 
d="M338 545q125 1 198 -55q72 -56 72 -163t-118 -223q-118 -115 -271 -231h377v-119h-553v113q14 11 84 67q270 214 315 303q23 44 23 91t-38 78q-38 30 -95 30q-58 0 -98 -38t-39 -122h-138q-2 121 77 195t204 74z" />
    <glyph glyph-name="three.inferior" unicode="&#x2083;" horiz-adv-x="692" 
d="M342 -152q68 0 111 34t43 91q0 129 -203 129h-29v113h23q188 0 188 115q0 51 -38 79t-93 27q-133 0 -158 -141l-133 14q18 109 94 172t195 63t197 -51q77 -52 77 -161t-110 -166q63 -25 97 -77t34 -114q0 -113 -85 -174t-213 -61t-205 71t-89 173l133 14
q27 -150 164 -150z" />
    <glyph glyph-name="four.inferior" unicode="&#x2084;" horiz-adv-x="722" 
d="M692 57v-123h-137v-180h-137v180h-387v115l389 481h135v-473h137zM418 57v291l-236 -291h236z" />
    <glyph glyph-name="five.inferior" unicode="&#x2085;" horiz-adv-x="694" 
d="M346 -152q66 0 108 42t42 120t-45 119t-101 41t-95 -23q-38 -23 -50 -53l-127 8l51 428h477v-120h-364l-23 -177q61 47 163 47t179 -71q76 -72 76 -199q0 -126 -84 -198t-211 -72t-201 72t-84 172l131 14q23 -150 158 -150z" />
    <glyph glyph-name="six.inferior" unicode="&#x2086;" horiz-adv-x="696" 
d="M374 268q118 0 194 -72t75 -191q0 -117 -80 -191q-81 -74 -219 -74t-212 102t-75 282q0 180 76 301q76 120 238 120q117 1 183 -63t73 -150h-138q-13 104 -141 104q-64 0 -108 -66t-45 -182q61 80 179 80zM205 4q0 -70 42 -113t106 -43t107 43q42 43 42 113t-41 113
t-107 43t-108 -43t-41 -113z" />
    <glyph glyph-name="seven.inferior" unicode="&#x2087;" horiz-adv-x="593" 
d="M20 410v120h570v-114q-158 -156 -234 -306t-88 -356h-153q16 360 329 656h-424z" />
    <glyph glyph-name="eight.inferior" unicode="&#x2088;" horiz-adv-x="712" 
d="M489 328q0 49 -35 79q-36 29 -98 29t-97 -30q-36 -30 -36 -78q0 -49 37 -82t97 -33t97 33q35 33 35 82zM357 111q-69 0 -109 -36t-41 -95q0 -60 41 -96q42 -36 110 -36t109 36t41 96t-41 95q-41 36 -110 36zM356 545q121 1 195 -57t74 -144q0 -119 -97 -176
q121 -64 121 -184t-82 -182t-211 -62t-210 62q-80 62 -80 182t118 184q-96 59 -96 176q0 86 74 144t194 57z" />
    <glyph glyph-name="nine.inferior" unicode="&#x2089;" horiz-adv-x="688" 
d="M330 -152q78 0 122 67t44 181q-56 -80 -176 -80t-196 72t-75 190q0 118 78 192q77 74 219 75q142 -1 216 -103t73 -281q0 -179 -76 -300t-235 -121q-117 0 -185 63t-76 148l140 2q6 -49 41 -77t86 -28zM487 281q0 71 -42 113q-41 42 -107 42t-107 -42t-41 -112t41 -114
q41 -43 107 -43t108 43t41 113z" />
    <glyph glyph-name="parenleft.inferior" unicode="&#x208d;" horiz-adv-x="327" 
d="M45 44q0 265 150 486h124q-131 -217 -131 -489t131 -490h-124q-150 228 -150 493z" />
    <glyph glyph-name="parenright.inferior" unicode="&#x208e;" horiz-adv-x="327" 
d="M281 43q0 -272 -150 -492h-125q131 217 131 489t-131 490h125q150 -215 150 -487z" />
    <glyph glyph-name="Euro" unicode="&#x20ac;" horiz-adv-x="1335" 
d="M755 1384q218 0 365 -124t172 -332l-180 -6q-18 150 -116 230t-242 81q-144 0 -244 -86t-137 -252h530l-82 -121h-467q-4 -57 -4 -98t2 -64h398l-82 -120h-301q37 -178 137 -272t248 -93q148 0 245 80q98 80 119 231l180 -6q-26 -209 -176 -333t-374 -124
q-224 -1 -374 135t-194 382h-207l82 120h113l-2 74q0 31 4 88h-197l82 121h129q47 231 201 360t372 129z" />
    <glyph glyph-name="afii61289" unicode="&#x2113;" horiz-adv-x="854" 
d="M393 1049v-340l17 12q109 82 157 167q49 85 49 197q0 154 -110 154q-61 -1 -87 -41t-26 -149zM219 324v63l-137 -102l-82 123l219 167v451q0 358 299 358q127 0 198 -80q70 -80 70 -232q0 -150 -87 -268t-281 -265l-25 -19v-209q0 -104 37 -144q38 -40 116 -40t169 80
l78 -119q-121 -113 -279 -113q-158 1 -226 83t-69 266z" />
    <glyph glyph-name="afii61352" unicode="&#x2116;" horiz-adv-x="2035" 
d="M1366 440v164h590v-164h-590zM1800 1038q0 94 -36 150t-103 55q-141 0 -141 -207t141 -207q67 -1 103 57t36 152zM1966 1039q0 -167 -83 -260t-222 -93t-222 93t-83 258t87 256t220 91t218 -89t85 -256zM1274 0h-291l-625 1153v-1153h-194v1360h291l624 -1151v1151h195
v-1360z" />
    <glyph glyph-name="trademark" unicode="&#x2122;" horiz-adv-x="1615" 
d="M852 600h-152v760h236l197 -569l190 569h231v-760h-151v559l-199 -559h-151l-201 559v-559zM248 600v635h-238v125h627v-125h-238v-635h-151z" />
    <glyph glyph-name="Omega" unicode="&#x2126;" horiz-adv-x="1511" 
d="M756 1384q278 0 476 -162t198 -444q0 -176 -106 -326t-273 -202v-86h376v-164h-553v354q168 27 270 150q101 122 101 302t-138 304t-351 123q-214 0 -352 -124t-138 -303t102 -302t269 -150v-354h-553v164h377v86q-168 51 -274 202q-105 151 -105 326q0 282 198 444
t476 162z" />
    <glyph glyph-name="estimated" unicode="&#x212e;" horiz-adv-x="1103" 
d="M270 565h559v297q-101 100 -283 100t-276 -98v-299zM270 143q100 -104 329 -104q114 -1 208 63t141 179h76q-49 -137 -165 -221t-294 -85q-244 1 -379 149t-135 378t138 378q139 146 367 146t359 -150t136 -372h-781v-361z" />
    <glyph glyph-name="onethird" unicode="&#x2153;" horiz-adv-x="1695" 
d="M1337 94q68 0 111 34t43 91q0 129 -203 129h-28v113h22q188 0 188 114q0 51 -37 79q-38 28 -94 28q-133 0 -157 -141l-133 14q18 109 94 172t195 63q118 0 196 -52t78 -160t-111 -166q63 -25 97 -77t34 -114q0 -113 -85 -174t-213 -61t-205 70t-89 173l134 15
q26 -150 163 -150zM467 0h-193l953 1360h192zM512 584h-137v583h-172v95q67 2 99 8q73 13 108 90h102v-776z" />
    <glyph glyph-name="twothirds" unicode="&#x2154;" horiz-adv-x="1695" 
d="M1337 94q68 0 111 34t43 91q0 129 -203 129h-28v113h22q188 0 188 114q0 51 -37 79q-38 28 -94 28q-133 0 -157 -141l-133 14q18 109 94 172t195 63q118 0 196 -52t78 -160t-111 -166q63 -25 97 -77t34 -114q0 -113 -85 -174t-213 -61t-205 70t-89 173l134 15
q26 -150 163 -150zM274 0l953 1360h192l-952 -1360h-193zM367 1374q125 0 197 -56t73 -161q0 -105 -118 -221t-271 -234h377v-118h-553v112q14 12 84 68q268 212 315 302q23 44 23 91t-38 78t-96 31t-97 -38q-40 -38 -40 -122h-137q-2 120 77 194t204 74z" />
    <glyph glyph-name="uni2155" unicode="&#x2155;" horiz-adv-x="1695" 
d="M1335 94q66 0 108 42t42 120t-45 119q-46 41 -102 41t-94 -23t-50 -53l-127 8l51 428h477v-121h-364l-23 -176q62 47 164 47t178 -72t76 -198q0 -127 -84 -199q-84 -71 -211 -71t-201 72t-83 171l131 15q22 -150 157 -150zM467 0h-193l953 1360h192zM512 584h-137v583
h-172v95q67 2 99 8q73 13 108 90h102v-776z" />
    <glyph glyph-name="uni2156" unicode="&#x2156;" horiz-adv-x="1695" 
d="M1335 94q66 0 108 42t42 120t-45 119q-46 41 -102 41t-94 -23t-50 -53l-127 8l51 428h477v-121h-364l-23 -176q62 47 164 47t178 -72t76 -198q0 -127 -84 -199q-84 -71 -211 -71t-201 72t-83 171l131 15q22 -150 157 -150zM274 0l953 1360h192l-952 -1360h-193zM367 1374
q125 0 197 -56t73 -161q0 -105 -118 -221t-271 -234h377v-118h-553v112q14 12 84 68q268 212 315 302q23 44 23 91t-38 78t-96 31t-97 -38q-40 -38 -40 -122h-137q-2 120 77 194t204 74z" />
    <glyph glyph-name="uni2157" unicode="&#x2157;" horiz-adv-x="1695" 
d="M1335 94q66 0 108 42t42 120t-45 119q-46 41 -102 41t-94 -23t-50 -53l-127 8l51 428h477v-121h-364l-23 -176q62 47 164 47t178 -72t76 -198q0 -127 -84 -199q-84 -71 -211 -71t-201 72t-83 171l131 15q22 -150 157 -150zM274 0l953 1360h192l-952 -1360h-193zM358 678
q68 0 111 34t43 91q0 129 -203 129h-28v112h22q188 0 189 115q0 51 -38 79t-94 28q-133 0 -157 -142l-133 15q18 109 94 172t195 63t197 -52t77 -161q0 -109 -111 -166q63 -25 98 -76q34 -52 33 -114q0 -113 -85 -174t-213 -61q-129 0 -205 70q-76 71 -89 173l134 14
q26 -149 163 -149z" />
    <glyph glyph-name="uni2158" unicode="&#x2158;" horiz-adv-x="1695" 
d="M1335 94q66 0 108 42t42 120t-45 119q-46 41 -102 41t-94 -23t-50 -53l-127 8l51 428h477v-121h-364l-23 -176q62 47 164 47t178 -72t76 -198q0 -127 -84 -199q-84 -71 -211 -71t-201 72t-83 171l131 15q22 -150 157 -150zM467 0h-193l953 1360h192zM688 887v-123h-137
v-180h-137v180h-387v115l389 481h135v-473h137zM414 887v291l-236 -291h236z" />
    <glyph glyph-name="uni2159" unicode="&#x2159;" horiz-adv-x="1695" 
d="M1361 514q117 0 193 -73t76 -191t-80 -191t-218 -73t-214 102q-74 102 -74 282t76 301q76 120 238 120q116 1 182 -63t74 -150h-137q-13 104 -141 104q-64 0 -108 -67t-46 -181q61 80 179 80zM1192 250q0 -70 42 -113t106 -43t107 43q42 43 42 113t-41 112t-107 44
q-65 0 -107 -43t-42 -113zM467 0h-193l953 1360h192zM512 584h-137v583h-172v95q67 2 99 8q73 13 108 90h102v-776z" />
    <glyph glyph-name="uni215A" unicode="&#x215a;" horiz-adv-x="1695" 
d="M1361 514q117 0 193 -73t76 -191t-80 -191t-218 -73t-214 102q-74 102 -74 282t76 301q76 120 238 120q116 1 182 -63t74 -150h-137q-13 104 -141 104q-64 0 -108 -67t-46 -181q61 80 179 80zM1192 250q0 -70 42 -113t106 -43t107 43q42 43 42 113t-41 112t-107 44
q-65 0 -107 -43t-42 -113zM274 0l953 1360h192l-952 -1360h-193zM356 678q66 0 108 42t42 120t-45 118t-101 41q-56 -1 -95 -23q-38 -22 -50 -52l-127 8l51 428h477v-121h-364l-23 -176q61 47 163 47t179 -72q76 -72 76 -198t-84 -199q-84 -72 -211 -72q-126 0 -200 72
t-84 172l131 14q22 -149 157 -149z" />
    <glyph glyph-name="oneeighth" unicode="&#x215b;" horiz-adv-x="1695" 
d="M1468 573q0 49 -35 79t-97 30t-98 -30t-36 -79t36 -81t97 -33q61 1 97 33t36 81zM1487 225q0 59 -41 95t-110 36q-70 0 -110 -36t-40 -94q0 -60 41 -96t109 -36t110 36q41 36 41 95zM1335 791q121 1 195 -57t74 -144q0 -119 -97 -176q121 -64 121 -184t-82 -182t-211 -62
t-210 62t-81 182t119 184q-96 59 -96 176q-1 86 73 144t195 57zM467 0h-193l953 1360h192zM512 584h-137v583h-172v95q67 2 99 8q73 13 108 90h102v-776z" />
    <glyph glyph-name="threeeighths" unicode="&#x215c;" horiz-adv-x="1695" 
d="M1468 573q0 49 -35 79t-97 30t-98 -30t-36 -79t36 -81t97 -33q61 1 97 33t36 81zM1487 225q0 59 -41 95t-110 36q-70 0 -110 -36t-40 -94q0 -60 41 -96t109 -36t110 36q41 36 41 95zM1335 791q121 1 195 -57t74 -144q0 -119 -97 -176q121 -64 121 -184t-82 -182t-211 -62
t-210 62t-81 182t119 184q-96 59 -96 176q-1 86 73 144t195 57zM274 0l953 1360h192l-952 -1360h-193zM358 678q68 0 111 34t43 91q0 129 -203 129h-28v112h22q188 0 189 115q0 51 -38 79t-94 28q-133 0 -157 -142l-133 15q18 109 94 172t195 63t197 -52t77 -161
q0 -109 -111 -166q63 -25 98 -76q34 -52 33 -114q0 -113 -85 -174t-213 -61q-129 0 -205 70q-76 71 -89 173l134 14q26 -149 163 -149z" />
    <glyph glyph-name="fiveeighths" unicode="&#x215d;" horiz-adv-x="1695" 
d="M1468 573q0 49 -35 79t-97 30t-98 -30t-36 -79t36 -81t97 -33q61 1 97 33t36 81zM1487 225q0 59 -41 95t-110 36q-70 0 -110 -36t-40 -94q0 -60 41 -96t109 -36t110 36q41 36 41 95zM1335 791q121 1 195 -57t74 -144q0 -119 -97 -176q121 -64 121 -184t-82 -182t-211 -62
t-210 62t-81 182t119 184q-96 59 -96 176q-1 86 73 144t195 57zM274 0l953 1360h192l-952 -1360h-193zM356 678q66 0 108 42t42 120t-45 118t-101 41q-56 -1 -95 -23q-38 -22 -50 -52l-127 8l51 428h477v-121h-364l-23 -176q61 47 163 47t179 -72q76 -72 76 -198t-84 -199
q-84 -72 -211 -72q-126 0 -200 72t-84 172l131 14q22 -149 157 -149z" />
    <glyph glyph-name="seveneighths" unicode="&#x215e;" horiz-adv-x="1695" 
d="M1468 573q0 49 -35 79t-97 30t-98 -30t-36 -79t36 -81t97 -33q61 1 97 33t36 81zM1487 225q0 59 -41 95t-110 36q-70 0 -110 -36t-40 -94q0 -60 41 -96t109 -36t110 36q41 36 41 95zM1335 791q121 1 195 -57t74 -144q0 -119 -97 -176q121 -64 121 -184t-82 -182t-211 -62
t-210 62t-81 182t119 184q-96 59 -96 176q-1 86 73 144t195 57zM274 0l953 1360h192l-952 -1360h-193zM74 1239v121h569v-115q-157 -155 -233 -305t-88 -356h-154q16 360 330 655h-424z" />
    <glyph glyph-name="uni215F" unicode="&#x215f;" horiz-adv-x="978" 
d="M467 0h-193l953 1360h192zM512 584h-137v583h-172v95q67 2 99 8q73 13 108 90h102v-776z" />
    <glyph glyph-name="uni2190" unicode="&#x2190;" horiz-adv-x="1566" 
d="M1495 594v-164h-1153l393 -385l-110 -117l-584 584l584 584l110 -117l-393 -385h1153z" />
    <glyph glyph-name="uni2191" unicode="&#x2191;" horiz-adv-x="1249" 
d="M707 0h-164v1098l-385 -391l-117 110l584 584l583 -584l-116 -110l-385 391v-1098z" />
    <glyph glyph-name="uni2192" unicode="&#x2192;" horiz-adv-x="1566" 
d="M72 430v164h1151l-392 385l111 117l584 -584l-584 -584l-111 117l392 385h-1151z" />
    <glyph glyph-name="uni2193" unicode="&#x2193;" horiz-adv-x="1249" 
d="M543 1360h164v-1100l385 393l116 -110l-583 -584l-584 584l117 110l385 -393v1100z" />
    <glyph glyph-name="uni2196" unicode="&#x2196;" horiz-adv-x="1263" 
d="M137 1063h826v-156h-553l813 -815l-115 -115l-815 814v-553h-156v825z" />
    <glyph glyph-name="uni2197" unicode="&#x2197;" horiz-adv-x="1263" 
d="M301 1063h825v-825h-155v553l-815 -814l-115 115l813 815h-553v156z" />
    <glyph glyph-name="uni2198" unicode="&#x2198;" horiz-adv-x="1263" 
d="M1126 825v-825h-825v156h553l-813 815l115 114l815 -813v553h155z" />
    <glyph glyph-name="uni2199" unicode="&#x2199;" horiz-adv-x="1263" 
d="M137 0v825h156v-553l815 813l115 -114l-813 -815h553v-156h-826z" />
    <glyph glyph-name="uni219E" unicode="&#x219e;" horiz-adv-x="1566" 
d="M1495 594v-164h-711l394 -385l-111 -117l-502 502h-223l393 -385l-110 -117l-584 584l584 584l110 -117l-393 -385h223l502 502l111 -117l-394 -385h711z" />
    <glyph glyph-name="uni219F" unicode="&#x219f;" horiz-adv-x="1249" 
d="M707 0h-164v655l-385 -391l-117 111l502 502v221l-385 -391l-117 110l584 584l583 -584l-116 -110l-385 391v-221l501 -502l-116 -111l-385 391v-655z" />
    <glyph glyph-name="uni21A0" unicode="&#x21a0;" horiz-adv-x="1566" 
d="M72 430v164h708l-391 385l111 117l501 -502h222l-392 385l111 117l584 -584l-584 -584l-111 117l392 385h-222l-501 -502l-111 117l391 385h-708z" />
    <glyph glyph-name="uni21A1" unicode="&#x21a1;" horiz-adv-x="1249" 
d="M543 1360h164v-658l385 394l116 -111l-501 -502v-223l385 393l116 -110l-583 -584l-584 584l117 110l385 -393v223l-502 502l117 111l385 -394v658z" />
    <glyph glyph-name="uni21A2" unicode="&#x21a2;" horiz-adv-x="1847" 
d="M41 512l584 584l110 -117l-393 -385h852l502 502l110 -117l-467 -467l467 -467l-110 -117l-502 502h-852l393 -385l-110 -117z" />
    <glyph glyph-name="uni21A3" unicode="&#x21a3;" horiz-adv-x="1847" 
d="M1223 1096l583 -584l-583 -584l-111 117l391 385h-850l-501 -502l-111 117l467 467l-467 467l111 117l501 -502h850l-391 385z" />
    <glyph glyph-name="uni21A4" unicode="&#x21a4;" horiz-adv-x="1632" 
d="M1495 1004v-1004h-174v430h-979l393 -385l-110 -117l-584 584l584 584l110 -117l-393 -385h979v410h174z" />
    <glyph glyph-name="uni21A5" unicode="&#x21a5;" horiz-adv-x="1249" 
d="M707 174h409v-174h-1003v174h430v924l-385 -391l-117 110l584 584l583 -584l-116 -110l-385 391v-924z" />
    <glyph glyph-name="uni21A6" unicode="&#x21a6;" horiz-adv-x="1632" 
d="M311 430v-430h-174v1004h174v-410h977l-391 385l111 117l583 -584l-583 -584l-111 117l391 385h-977z" />
    <glyph glyph-name="uni21A7" unicode="&#x21a7;" horiz-adv-x="1249" 
d="M543 1186h-430v174h1003v-174h-409v-926l385 393l116 -110l-583 -584l-584 584l117 110l385 -393v926z" />
    <glyph glyph-name="partialdiff" unicode="&#x2202;" horiz-adv-x="1091" 
d="M1010 608q0 -320 -130 -477q-130 -156 -347 -156q-219 -1 -341 139t-122 383t121 383q123 140 313 140t297 -148l2 2q-57 160 -197 262t-313 109v154q313 -15 515 -243t202 -548zM821 500q0 186 -80 277t-212 91q-131 0 -203 -96t-72 -273t71 -275t205 -97q134 -1 212 93
q79 94 79 280z" />
    <glyph glyph-name="Delta" unicode="&#x2206;" horiz-adv-x="1327" 
d="M1069 164l-405 846l-406 -846h811zM-10 0l674 1384l673 -1384h-1347z" />
    <glyph glyph-name="product" unicode="&#x220f;" horiz-adv-x="1267" 
d="M311 -354h-174v1714h993v-1714h-174v1550h-645v-1550z" />
    <glyph glyph-name="summation" unicode="&#x2211;" horiz-adv-x="1118" 
d="M61 1360h996v-164h-787l506 -694l-506 -692h787v-164h-996v143l514 713l-514 715v143z" />
    <glyph glyph-name="minus" unicode="&#x2212;" horiz-adv-x="1177" 
d="M72 594h1034v-164h-1034v164z" />
    <glyph glyph-name="radical" unicode="&#x221a;" horiz-adv-x="970" 
d="M0 432l283 129l278 -659l240 1458h170l-299 -1714h-168l-307 688l-123 -55z" />
    <glyph glyph-name="infinity" unicode="&#x221e;" horiz-adv-x="1499" 
d="M1097 633q-73 0 -126 -40t-119 -114q129 -158 248 -157q72 0 121 45t49 111t-50 110q-50 45 -123 45zM396 322q71 0 127 36t128 121q-63 76 -119 115t-130 39q-72 0 -122 -43t-50 -111q0 -69 47 -113q48 -44 119 -44zM1104 788q145 0 239 -87q95 -87 95 -225t-91 -225
t-239 -87q-188 0 -356 194q-176 -193 -359 -192q-147 0 -239 87t-93 224t95 224t247 87q186 0 349 -184q84 96 165 140t187 44z" />
    <glyph glyph-name="integral" unicode="&#x222b;" horiz-adv-x="604" 
d="M213 877q0 276 73 392t210 115q72 0 120 -32t50 -83q0 -52 -27 -81t-70 -29t-69 26q-26 27 -25 59q0 32 8 52q-67 0 -84 -71q-16 -71 -16 -170l4 -307v-637q0 -262 -70 -371t-208 -109q-72 0 -121 30t-49 82t26 81q27 29 70 29t69 -26t25 -59q0 -33 -8 -53q69 0 84 78
q12 62 12 164l-4 307v613z" />
    <glyph glyph-name="approxequal" unicode="&#x2248;" horiz-adv-x="1097" 
d="M320 496q112 0 254 -66t192 -65q51 1 88 35t41 96h162q-8 -127 -87 -205t-206 -78q-82 0 -225 66q-143 65 -201 65t-94 -35q-37 -35 -41 -96h-162q8 127 87 205q80 78 192 78zM320 852q112 0 254 -66t192 -65q51 0 88 35t41 96h162q-8 -127 -87 -205t-206 -78
q-82 0 -225 66q-143 65 -201 65t-94 -34q-37 -34 -41 -97h-162q8 127 87 205q80 78 192 78z" />
    <glyph glyph-name="notequal" unicode="&#x2260;" horiz-adv-x="1159" 
d="M102 248v164h324l119 221h-443v164h531l155 286l142 -69l-119 -217h246v-164h-334l-119 -221h453v-164h-541l-170 -318l-141 70l133 248h-236z" />
    <glyph glyph-name="lessequal" unicode="&#x2264;" horiz-adv-x="1157" 
d="M82 0v164h993v-164h-993zM326 621l739 -232v-184l-977 342v147l977 350v-186z" />
    <glyph glyph-name="greaterequal" unicode="&#x2265;" horiz-adv-x="1157" 
d="M1075 0h-993v164h993v-164zM831 621l-739 237v186l977 -350v-147l-977 -342v184z" />
    <glyph glyph-name="uni25A0" unicode="&#x25a0;" horiz-adv-x="1277" 
d="M137 0v1004h1004v-1004h-1004z" />
    <glyph glyph-name="uni25A1" unicode="&#x25a1;" horiz-adv-x="1277" 
d="M262 881v-756h756v756h-756zM137 0v1004h1004v-1004h-1004z" />
    <glyph glyph-name="lozenge" unicode="&#x25ca;" horiz-adv-x="968" 
d="M20 649l472 801l456 -801l-456 -801zM492 1135l-279 -486l279 -485l276 485z" />
    <glyph glyph-name="uni25CB" unicode="&#x25cb;" horiz-adv-x="1183" 
d="M592 94q166 0 280 117t115 287q0 170 -115 286q-114 116 -280 117q-166 0 -281 -117q-115 -116 -115 -284t116 -287q114 -119 280 -119zM70 498q0 218 152 370t370 152q217 0 370 -153q152 -153 152 -369t-152 -370q-152 -153 -370 -153q-217 0 -370 153
q-152 153 -152 370z" />
    <glyph glyph-name="uni25CF" unicode="&#x25cf;" horiz-adv-x="1183" 
d="M70 498q0 218 152 370t370 152q217 0 370 -153q152 -153 152 -369t-152 -370q-152 -153 -370 -153q-217 0 -370 153q-152 153 -152 370z" />
    <glyph glyph-name="onesuperior" horiz-adv-x="440" 
d="M334 834h-137v583h-172v94q67 3 99 9q74 15 107 90h103v-776z" />
    <glyph glyph-name="threesuperior" horiz-adv-x="692" 
d="M342 928q68 0 111 34t43 91q0 129 -203 129h-29v112h23q188 0 188 115q0 51 -38 79t-93 28q-133 0 -158 -142l-133 15q18 109 94 172t195 63t197 -52q77 -52 77 -161t-110 -166q63 -25 97 -77t34 -113q0 -113 -85 -174t-213 -61t-205 70q-77 71 -89 173l133 14
q27 -149 164 -149z" />
    <glyph glyph-name="twosuperior" horiz-adv-x="659" 
d="M338 1624q125 0 198 -55q72 -55 72 -162t-121 -225t-268 -230h377v-118h-553v112q14 12 84 68q270 214 315 302q23 44 23 91t-38 78t-95 31q-58 0 -98 -38t-39 -122h-138q-2 120 77 194t204 74z" />
    <glyph glyph-name="commaaccent" horiz-adv-x="268" 
d="M47 -238v170h180v-182l-84 -170h-102l74 182h-68z" />
    <glyph glyph-name="a.alt" horiz-adv-x="1124" 
d="M529 868q-131 0 -203 -96t-72 -273t70 -275t202 -97q131 0 213 94q82 93 82 279t-80 277t-212 91zM987 1004v-1004h-168l-6 137q-106 -162 -326 -162q-184 -1 -301 141q-116 142 -116 383t121 381q122 140 325 140t297 -148v132h174z" />
    <glyph glyph-name="aacute.alt" horiz-adv-x="1124" 
d="M829 1360l-247 -242h-146l172 242h221zM529 868q-131 0 -203 -96t-72 -273t70 -275t202 -97q131 0 213 94q82 93 82 279t-80 277t-212 91zM987 0h-168l-6 137q-106 -162 -326 -162q-184 -1 -301 141q-116 142 -116 383t121 381q122 140 325 140t297 -148v132h174v-1004z
" />
    <glyph glyph-name="abreve.alt" horiz-adv-x="1124" 
d="M554 1108q-277 0 -300 252h135q14 -137 167 -137t167 137h135q-27 -252 -304 -252zM529 868q-131 0 -203 -96t-72 -273t70 -275t202 -97q131 0 213 94q82 93 82 279t-80 277t-212 91zM987 0h-168l-6 137q-106 -162 -326 -162q-184 -1 -301 141q-116 142 -116 383t121 381
q122 140 325 140t297 -148v132h174v-1004z" />
    <glyph glyph-name="acircumflex.alt" horiz-adv-x="1124" 
d="M645 1360l246 -242h-182l-150 123l-151 -123h-183l252 242h168zM529 868q-131 0 -203 -96t-72 -273t70 -275t202 -97q131 0 213 94q82 93 82 279t-80 277t-212 91zM987 0h-168l-6 137q-106 -162 -326 -162q-184 -1 -301 141q-116 142 -116 383t121 381q122 140 325 140
t297 -148v132h174v-1004z" />
    <glyph glyph-name="adieresis.alt" horiz-adv-x="1124" 
d="M711 1329h174v-188h-174v188zM274 1141v188h175v-188h-175zM529 868q-131 0 -203 -96t-72 -273t70 -275t202 -97q131 0 213 94q82 93 82 279t-80 277t-212 91zM987 0h-168l-6 137q-106 -162 -326 -162q-184 -1 -301 141q-116 142 -116 383t121 381q122 140 325 140
t297 -148v132h174v-1004z" />
    <glyph glyph-name="ae.alt" horiz-adv-x="1820" 
d="M1290 872q-131 0 -213 -74t-88 -206h588q-4 112 -80 196t-207 84zM529 868q-131 0 -203 -96t-72 -273t70 -275t202 -97q131 0 213 94q82 93 82 279t-80 277t-212 91zM1276 -25q-192 0 -309 117v-92h-148l-6 137q-106 -162 -326 -162q-184 -1 -301 141q-116 142 -116 383
t121 381q122 140 325 140t297 -148v132h174l-4 -97q123 113 307 113q230 0 360 -163t111 -411h-774q0 -145 84 -231t213 -86q213 0 283 176l178 -22q-37 -133 -157 -221t-312 -87z" />
    <glyph glyph-name="aeacute.alt" horiz-adv-x="1820" 
d="M1219 1360l-248 -242h-146l172 242h222zM1290 872q-131 0 -213 -74t-88 -206h588q-4 112 -80 196t-207 84zM529 868q-131 0 -203 -96t-72 -273t70 -275t202 -97q131 0 213 94q82 93 82 279t-80 277t-212 91zM1276 -25q-192 0 -309 117v-92h-148l-6 137
q-106 -162 -326 -162q-184 -1 -301 141q-116 142 -116 383t121 381q122 140 325 140t297 -148v132h174l-4 -97q123 113 307 113q230 0 360 -163t111 -411h-774q0 -145 84 -231t213 -86q213 0 283 176l178 -22q-37 -133 -157 -221t-312 -87z" />
    <glyph glyph-name="agrave.alt" horiz-adv-x="1124" 
d="M580 1118l-248 242h221l172 -242h-145zM529 868q-131 0 -203 -96t-72 -273t70 -275t202 -97q131 0 213 94q82 93 82 279t-80 277t-212 91zM987 0h-168l-6 137q-106 -162 -326 -162q-184 -1 -301 141q-116 142 -116 383t121 381q122 140 325 140t297 -148v132h174v-1004z
" />
    <glyph glyph-name="amacron.alt" horiz-adv-x="1124" 
d="M854 1167h-571v144h571v-144zM529 868q-131 0 -203 -96t-72 -273t70 -275t202 -97q131 0 213 94q82 93 82 279t-80 277t-212 91zM987 0h-168l-6 137q-106 -162 -326 -162q-184 -1 -301 141q-116 142 -116 383t121 381q122 140 325 140t297 -148v132h174v-1004z" />
    <glyph glyph-name="aogonek.alt" horiz-adv-x="1124" 
d="M987 1004v-1004q-168 -82 -168 -163t125 -81q55 0 94 17v-115q-51 -23 -139 -23q-88 -1 -163 45t-74 134q0 109 157 186l-6 137q-106 -162 -326 -162q-184 -1 -301 141q-116 142 -116 383t121 381q122 140 325 140t297 -148v132h174zM529 868q-131 0 -203 -96t-72 -273
t70 -275t202 -97q131 0 213 94q82 93 82 279t-80 277t-212 91z" />
    <glyph glyph-name="aring.alt" horiz-adv-x="1124" 
d="M539 1346q-33 0 -58 -24t-25 -58t26 -58q24 -22 57 -22t57 22t25 58q-1 34 -25 58t-57 24zM539 1425q71 0 121 -46q50 -45 50 -115t-48 -116q-49 -46 -123 -46t-123 46t-49 116t50 116t122 45zM529 868q-131 0 -203 -96t-72 -273t70 -275t202 -97q131 0 213 94
q82 93 82 279t-80 277t-212 91zM987 0h-168l-6 137q-106 -162 -326 -162q-184 -1 -301 141q-116 142 -116 383t121 381q122 140 325 140t297 -148v132h174v-1004z" />
    <glyph glyph-name="aringacute.alt" horiz-adv-x="1124" 
d="M529 868q-131 0 -203 -96t-72 -273t70 -275t202 -97q131 0 213 94q82 93 82 279t-80 277t-212 91zM987 0h-168l-6 137q-106 -162 -326 -162q-184 -1 -301 141q-116 142 -116 383t121 381q122 140 325 140t297 -148v132h174v-1004zM530 1305q-34 0 -58 -24
q-24 -25 -24 -59t26 -57q24 -23 56 -23t58 24q25 22 24 57q0 35 -24 59t-58 23zM530 1061q-74 0 -122 46q-48 45 -50 105q0 60 31 107l166 250h221l-184 -195q49 -16 80 -57q30 -41 30 -103t-49 -107q-49 -46 -123 -46z" />
    <glyph glyph-name="atilde.alt" horiz-adv-x="1124" 
d="M682 1260q78 0 90 86h135q-19 -111 -79 -163q-118 -102 -284 -7q-81 45 -116 45q-76 0 -86 -84h-135q19 106 77 159q58 54 130 54t151 -45q78 -45 117 -45zM529 868q-131 0 -203 -96t-72 -273t70 -275t202 -97q131 0 213 94q82 93 82 279t-80 277t-212 91zM987 0h-168
l-6 137q-106 -162 -326 -162q-184 -1 -301 141q-116 142 -116 383t121 381q122 140 325 140t297 -148v132h174v-1004z" />
    <glyph glyph-name="uni0227.alt" horiz-adv-x="1124" 
d="M453 1333h174v-188h-174v188zM529 868q-131 0 -203 -96t-72 -273t70 -275t202 -97q131 0 213 94q82 93 82 279t-80 277t-212 91zM987 0h-168l-6 137q-106 -162 -326 -162q-184 -1 -301 141q-116 142 -116 383t121 381q122 140 325 140t297 -148v132h174v-1004z" />
    <glyph glyph-name="uni1EA1.alt" horiz-adv-x="1124" 
d="M438 -100h174v-189h-174v189zM529 868q-131 0 -203 -96t-72 -273t70 -275t202 -97q131 0 213 94q82 93 82 279t-80 277t-212 91zM987 1004v-1004h-168l-6 137q-106 -162 -326 -162q-184 -1 -301 141q-116 142 -116 383t121 381q122 140 325 140t297 -148v132h174z" />
    <glyph glyph-name="l.alt" horiz-adv-x="473" 
d="M133 256v1104h174v-1079q-1 -84 17 -109t90 -25h37v-147h-76q-147 0 -195 48q-47 48 -47 208z" />
    <glyph glyph-name="lacute.alt" horiz-adv-x="473" 
d="M594 1645l-283 -215h-172l209 215h246zM133 256v1104h174v-1079q-1 -84 17 -109t90 -25h37v-147h-76q-147 0 -195 48q-47 48 -47 208z" />
    <glyph glyph-name="lcaron.alt" horiz-adv-x="530" 
d="M133 256v1104h174v-1079q-1 -84 17 -109t90 -25h37v-147h-76q-147 0 -195 48q-47 48 -47 208zM612 1360l-133 -324h-110l57 324h186z" />
    <glyph glyph-name="lcommaaccent.alt" horiz-adv-x="473" 
d="M137 -238v170h180v-182l-84 -170h-102l74 182h-68zM133 256v1104h174v-1079q-1 -84 17 -109t90 -25h37v-147h-76q-147 0 -195 48q-47 48 -47 208z" />
    <glyph glyph-name="ldot.alt" horiz-adv-x="473" 
d="M133 256v1104h174v-1079q-1 -84 17 -109t90 -25h37v-147h-76q-147 0 -195 48q-47 48 -47 208zM133 1446v188h174v-188h-174z" />
    <glyph glyph-name="lslash.alt" horiz-adv-x="473" 
d="M133 1360h174v-494l137 95v-146l-137 -94v-440q-1 -84 17 -109t90 -25h37v-147h-76q-147 0 -195 48q-47 48 -47 208v346l-137 -94v145l137 95v612z" />
    <glyph glyph-name="zero.plf" horiz-adv-x="1259" 
d="M629 127q166 0 260 141q94 140 94 416t-93 412t-261 137q-168 0 -260 -136q-93 -135 -93 -411t94 -418t259 -141zM629 -25q-269 1 -403 189t-134 520t134 516t402 184t404 -184q135 -184 135 -515t-135 -521t-403 -189z" />
    <glyph glyph-name="zeroslashed.plf" horiz-adv-x="1259" 
d="M276 686v-57l689 268q-66 336 -336 336q-169 -1 -261 -137t-92 -410zM629 127q166 0 260 141t94 418q0 41 -2 59l-688 -270q64 -348 336 -348zM629 -25q-269 1 -403 189t-134 520t134 516t402 184t404 -184q135 -184 135 -515t-135 -521t-403 -189z" />
    <glyph glyph-name="one.plf" horiz-adv-x="700" 
d="M516 0h-174v1059h-319v119q109 4 171 16q133 26 203 166h119v-1360z" />
    <glyph glyph-name="two.plf" horiz-adv-x="1122" 
d="M565 1384q207 0 328 -96t121 -266q0 -118 -76 -263t-333 -361q-92 -77 -300 -236h746v-162h-994v156q205 152 330 253q314 253 394 409q48 90 48 190t-67 162q-68 62 -192 62t-209 -73q-85 -74 -87 -233l-178 4q-4 202 129 328t340 126z" />
    <glyph glyph-name="three.plf" horiz-adv-x="1118" 
d="M536 127q140 0 226 67t86 187q0 258 -397 258h-29v156h22q367 0 367 227q0 100 -76 156q-75 56 -201 55q-126 0 -203 -71t-87 -189l-181 14q15 178 145 288q130 109 332 109t328 -85t127 -261q0 -106 -58 -188t-167 -125q262 -84 262 -342q0 -195 -145 -301t-362 -106
t-343 119q-125 120 -139 296l178 15q15 -131 95 -205t220 -74z" />
    <glyph glyph-name="four.plf" horiz-adv-x="1187" 
d="M1147 504v-164h-254v-340h-174v340h-686v164l684 856h176v-856h254zM719 504v618l-494 -618h494z" />
    <glyph glyph-name="five.plf" horiz-adv-x="1155" 
d="M578 127q131 0 219 85q88 84 88 238t-92 234t-204 80q-111 0 -183 -44t-99 -102l-174 9l90 733h793v-168h-651l-50 -379q109 102 299 102t323 -125q132 -126 132 -345t-143 -345q-142 -126 -358 -125q-216 0 -339 119t-145 293l178 14q44 -274 316 -274z" />
    <glyph glyph-name="six.plf" horiz-adv-x="1171" 
d="M610 1233q-158 0 -244 -137t-96 -379q113 188 365 188q193 0 319 -129t125 -329q0 -199 -135 -335t-350 -137q-502 0 -502 656q0 307 119 520q61 109 169 171t251 62q189 0 295 -97t131 -240l-189 -3q-35 189 -258 189zM293 435q0 -140 81 -224t217 -84t220 85t84 223
t-84 225q-84 88 -218 88t-217 -86t-83 -227z" />
    <glyph glyph-name="seven.plf" horiz-adv-x="976" 
d="M20 1190v170h957v-170q-539 -434 -586 -1190h-209q45 715 592 1190h-754z" />
    <glyph glyph-name="eight.plf" horiz-adv-x="1191" 
d="M883 1016q0 102 -78 160t-209 57q-131 0 -209 -57q-78 -58 -78 -160t79 -167t208 -65t208 65t79 167zM596 645q-145 0 -232 -72q-88 -73 -88 -191t86 -186t234 -69q148 0 233 69q86 70 86 188t-87 190t-232 71zM596 1384q209 0 335 -97t126 -251q0 -92 -47 -176
t-144 -135q233 -96 234 -342q0 -190 -142 -299t-362 -109q-221 0 -363 109q-141 109 -141 299q0 246 234 342q-96 51 -144 135q-47 84 -47 176q0 154 126 251t335 97z" />
    <glyph glyph-name="nine.plf" horiz-adv-x="1161" 
d="M551 127q158 0 245 137t95 379q-113 -188 -365 -188q-192 0 -318 129q-126 128 -126 328t135 336t350 136q502 0 502 -655q0 -306 -117 -520q-126 -233 -440 -233q-165 0 -274 96q-109 98 -134 241l189 2q35 -188 258 -188zM266 925q0 -137 84 -225t218 -88t217 86
t83 227q0 140 -81 224t-217 84t-220 -85t-84 -223z" />
    <glyph glyph-name="zero.pof" horiz-adv-x="1181" 
d="M591 129q153 0 239 126t88 370q0 243 -86 365t-242 122q-154 0 -239 -122t-85 -366t86 -369q86 -126 239 -126zM590 -23q-252 -1 -380 173t-128 475t127 470t381 169t382 -169t128 -470t-129 -475t-381 -173z" />
    <glyph glyph-name="zeroslashed.pof" horiz-adv-x="1181" 
d="M266 625v-52l633 248q-63 291 -309 291q-154 0 -239 -122t-85 -365zM590 129q154 0 240 126t88 370q0 31 -3 47l-630 -250q63 -293 305 -293zM590 -23q-252 -1 -380 173t-128 475t127 470t381 169t382 -169t128 -470t-129 -475t-381 -173z" />
    <glyph glyph-name="one.pof" horiz-adv-x="636" 
d="M473 0h-174v954h-299v125q156 4 230 35t122 129h121v-1243z" />
    <glyph glyph-name="two.pof" horiz-adv-x="1056" 
d="M534 1264q196 0 311 -88q116 -88 116 -237t-97 -274q-53 -69 -120 -143t-272 -229q-56 -43 -173 -131h696v-162h-938v156q193 139 309 229q287 222 365 367q45 82 45 168t-62 138q-62 54 -175 54t-192 -66t-81 -204l-176 2q-4 186 122 303t322 117z" />
    <glyph glyph-name="three.pof" horiz-adv-x="1056" 
d="M499 129q130 0 209 57t78 162q0 225 -368 225h-31v156h25q340 0 340 199q0 88 -70 136t-186 48t-187 -63q-72 -63 -84 -170l-176 16q16 166 138 267q121 102 313 102t314 -80t122 -242q0 -94 -54 -168t-155 -115q244 -76 244 -309q0 -178 -138 -275t-344 -97t-325 109
q-119 110 -133 273l176 17q14 -115 88 -181t204 -67z" />
    <glyph glyph-name="four.pof" horiz-adv-x="1077" 
d="M1067 469v-166h-238v-303h-174v303h-645v162l645 776h174v-772h238zM655 469v526l-452 -526h452z" />
    <glyph glyph-name="five.pof" horiz-adv-x="1073" 
d="M537 129q123 0 203 74t81 207q0 134 -85 204q-86 70 -190 70t-170 -38t-91 -89l-170 8l84 676h753v-166h-612l-45 -323q102 84 281 84q180 0 304 -114t124 -314t-136 -316q-136 -115 -340 -115t-321 111t-137 270l176 17q41 -246 291 -246z" />
    <glyph glyph-name="six.pof" horiz-adv-x="1112" 
d="M584 1112q-144 0 -226 -119t-88 -325q106 158 338 157q184 -1 303 -117t119 -302t-128 -307q-128 -122 -333 -122q-241 0 -359 158t-118 441t113 477q121 211 419 211q158 0 260 -94t124 -226l-185 -2q-13 82 -77 126t-162 44zM568 670q-124 0 -200 -75t-77 -198
q0 -123 75 -195q76 -72 200 -73q124 0 202 74q78 73 78 195t-77 197t-201 75z" />
    <glyph glyph-name="seven.pof" horiz-adv-x="927" 
d="M20 1075v166h908v-162q-506 -432 -549 -1079h-207q41 635 557 1075h-709z" />
    <glyph glyph-name="eight.pof" horiz-adv-x="1118" 
d="M821 923q0 87 -71 138q-72 51 -191 51t-191 -51t-73 -138q0 -87 74 -143q75 -56 191 -57q116 0 189 56q72 57 72 144zM558 582q-134 0 -213 -62t-79 -166t79 -164t214 -61q135 0 214 60q79 59 79 163t-80 167t-214 63zM559 1264q199 0 318 -90t118 -230q0 -193 -178 -282
q219 -94 219 -312q0 -174 -134 -273t-343 -99t-343 98q-134 100 -134 274q0 217 217 312q-88 46 -132 122t-44 160q1 140 119 230t317 90z" />
    <glyph glyph-name="nine.pof" horiz-adv-x="1110" 
d="M526 129q145 0 228 118q82 118 88 324q-104 -156 -338 -155q-184 0 -303 116t-119 300q0 186 127 309t332 123q241 0 359 -157t118 -443t-111 -476q-122 -210 -417 -210q-158 0 -262 92q-104 94 -126 227l187 2q15 -82 77 -126t160 -44zM544 571q124 0 200 75t77 197
q0 121 -76 195q-77 74 -201 74t-202 -74t-78 -194t78 -197q78 -76 202 -76z" />
    <glyph glyph-name="zero.tlf" horiz-adv-x="1290" 
d="M643 127q166 0 260 141q94 140 94 416t-93 412t-261 137q-168 0 -260 -136q-92 -135 -92 -411t93 -418t259 -141zM643 -25q-268 1 -402 189q-135 188 -135 520t134 516t403 184q267 0 403 -184t136 -515t-136 -521t-403 -189z" />
    <glyph glyph-name="zeroslashed.tlf" horiz-adv-x="1290" 
d="M291 686v-57l688 268q-66 336 -336 336q-168 -1 -260 -137t-92 -410zM643 127q166 0 260 141t94 418q0 41 -2 59l-688 -270q64 -348 336 -348zM643 -25q-268 1 -402 189q-135 188 -135 520t134 516t403 184q267 0 403 -184t136 -515t-136 -521t-403 -189z" />
    <glyph glyph-name="one.tlf" horiz-adv-x="1290" 
d="M752 160h329v-160h-872v160h369v901h-367v119q176 6 272 41t150 141h119v-1202z" />
    <glyph glyph-name="two.tlf" horiz-adv-x="1290" 
d="M656 1384q208 0 328 -96t120 -266q0 -118 -76 -263t-333 -361q-92 -77 -300 -236h746v-162h-994v156q205 152 330 253q314 253 394 409q49 90 49 190t-68 162t-192 62t-208 -73q-85 -74 -87 -233l-179 4q-4 202 130 328t340 126z" />
    <glyph glyph-name="three.tlf" horiz-adv-x="1290" 
d="M642 127q140 0 226 67t86 187q0 258 -397 258h-29v156h23q367 0 367 227q0 100 -76 156t-202 55q-126 0 -203 -71t-87 -189l-180 14q16 178 145 288q129 109 331 109t329 -85t127 -261q0 -106 -58 -188t-167 -125q262 -84 262 -342q1 -195 -145 -301t-363 -106t-342 119
q-125 120 -139 296l178 15q16 -131 95 -205t219 -74z" />
    <glyph glyph-name="four.tlf" horiz-adv-x="1290" 
d="M1202 504v-164h-254v-340h-174v340h-686v164l684 856h176v-856h254zM774 504v618l-493 -618h493z" />
    <glyph glyph-name="five.tlf" horiz-adv-x="1290" 
d="M645 127q131 0 219 85q88 84 88 238t-92 234t-204 80t-183 -44q-72 -44 -98 -102l-174 9l90 733h792v-168h-651l-49 -379q109 102 299 102t323 -125q132 -126 132 -345q1 -219 -143 -345t-359 -125q-215 0 -338 119t-145 293l178 14q43 -274 315 -274z" />
    <glyph glyph-name="six.tlf" horiz-adv-x="1290" 
d="M670 1233q-158 0 -245 -137t-95 -379q113 188 364 188q193 0 319 -129t126 -329q0 -199 -135 -335t-351 -137q-502 0 -501 656q0 309 118 520q61 109 169 171t251 62q188 0 294 -97t132 -240l-188 -3q-35 189 -258 189zM352 435q0 -140 81 -224t217 -84t220 85t84 223
t-84 225q-84 88 -218 88t-217 -86t-83 -227z" />
    <glyph glyph-name="seven.tlf" horiz-adv-x="1290" 
d="M166 1190v170h956v-170q-539 -434 -585 -1190h-209q45 715 592 1190h-754z" />
    <glyph glyph-name="eight.tlf" horiz-adv-x="1290" 
d="M932 1016q0 102 -78 160t-209 57q-131 0 -209 -57q-78 -58 -78 -160t79 -167t208 -65t208 65t79 167zM645 645q-145 0 -232 -72q-87 -73 -87 -191t86 -186t233 -69q147 0 234 69q86 70 86 188q1 118 -87 190t-233 71zM645 1384q209 0 335 -97t126 -251q0 -92 -47 -176
t-144 -135q233 -96 234 -342q0 -190 -141 -299q-140 -109 -362 -109t-363 109t-142 299q0 246 234 342q-96 51 -144 135q-47 84 -47 176q0 154 126 251t335 97z" />
    <glyph glyph-name="nine.tlf" horiz-adv-x="1290" 
d="M621 127q159 0 245 137t95 379q-113 -188 -365 -188q-192 0 -318 129q-126 128 -126 328t135 336t350 136q502 0 502 -655q0 -306 -117 -520q-126 -233 -440 -233q-166 0 -275 96q-109 98 -133 241l188 2q36 -188 259 -188zM336 925q0 -137 84 -225t218 -88t217 86
t83 227q0 140 -81 224t-217 84t-220 -85t-84 -223z" />
    <glyph glyph-name="zeroslashed.superior" horiz-adv-x="759" 
d="M383 928q160 0 170 268l-336 -72q25 -196 166 -196zM383 1516q-168 0 -172 -279l336 72q-25 207 -164 207zM694 1223q0 -186 -80 -295t-232 -109t-232 109t-80 295t80 294q80 107 234 107t232 -108t78 -293z" />
    <glyph glyph-name="zeroslashed.inferior" horiz-adv-x="759" 
d="M383 -152q160 0 170 267l-336 -72q29 -195 166 -195zM383 436q-168 0 -172 -278l336 71q-25 207 -164 207zM694 143q0 -187 -80 -295t-232 -108t-232 108t-80 295q0 186 80 294t234 108t232 -108t78 -294z" />
    <glyph glyph-name="zero.denominator" horiz-adv-x="759" 
d="M382 94q171 0 171 294t-171 294t-171 -294t171 -294zM694 389q0 -187 -80 -295t-232 -108t-232 108t-80 295q0 186 80 294t234 108t232 -108t78 -294z" />
    <glyph glyph-name="zeroslashed.denominator" horiz-adv-x="759" 
d="M383 94q160 0 170 266l-336 -71q29 -195 166 -195zM383 682q-168 0 -172 -279l336 72q-25 207 -164 207zM694 389q0 -187 -80 -295t-232 -108t-232 108t-80 295q0 186 80 294t234 108t232 -108t78 -294z" />
    <glyph glyph-name="one.denominator" horiz-adv-x="440" 
d="M334 0h-137v584h-172v94q67 2 99 8q73 13 107 90h103v-776z" />
    <glyph glyph-name="two.denominator" horiz-adv-x="659" 
d="M338 791q125 1 198 -55q72 -56 72 -163t-118 -223q-118 -115 -271 -231h377v-119h-553v113q14 12 84 67q135 106 236 204q102 98 102 185q0 51 -38 82t-95 31q-58 0 -98 -38t-39 -122h-138q-2 121 77 195t204 74z" />
    <glyph glyph-name="three.denominator" horiz-adv-x="692" 
d="M342 94q68 0 111 34t43 91q0 129 -203 129h-29v113h23q188 0 188 114q0 51 -38 79t-93 28q-133 0 -158 -141l-133 14q18 109 94 172t195 63t197 -52q77 -52 77 -160t-110 -166q63 -25 97 -77t34 -114q0 -113 -85 -174t-213 -61t-205 70t-89 173l133 15q27 -150 164 -150z
" />
    <glyph glyph-name="four.denominator" horiz-adv-x="722" 
d="M692 303v-123h-137v-180h-137v180h-387v115l389 481h135v-473h137zM418 303v291l-236 -291h236z" />
    <glyph glyph-name="five.denominator" horiz-adv-x="694" 
d="M346 94q66 0 108 42t42 120t-45 119t-101 41t-95 -23q-38 -23 -50 -53l-127 8l51 428h477v-121h-364l-23 -176q61 47 163 47t179 -72q76 -72 76 -198q0 -127 -84 -199q-84 -71 -211 -71t-201 72t-84 171l131 15q23 -150 158 -150z" />
    <glyph glyph-name="six.denominator" horiz-adv-x="696" 
d="M374 514q118 0 194 -73t75 -191q0 -118 -80 -191q-81 -73 -219 -73t-212 102t-75 282q0 180 76 301q76 120 238 120q117 1 183 -63t73 -150h-138q-13 104 -141 104q-64 0 -108 -67t-45 -181q61 80 179 80zM205 250q0 -70 42 -113t106 -43t107 43q42 43 42 113t-41 112
t-107 44q-66 0 -108 -43t-41 -113z" />
    <glyph glyph-name="seven.denominator" horiz-adv-x="593" 
d="M20 655v121h570v-114q-158 -156 -234 -306t-88 -356h-153q16 360 329 655h-424z" />
    <glyph glyph-name="eight.denominator" horiz-adv-x="712" 
d="M489 573q0 49 -35 79q-36 30 -98 30t-97 -30q-36 -30 -36 -79t37 -81t97 -33q60 1 96 33t36 81zM508 225q0 59 -41 95t-110 36t-109 -36t-41 -94q0 -60 41 -96q42 -36 110 -36t109 36t41 95zM356 791q121 1 195 -57t74 -144q0 -119 -97 -176q121 -64 121 -184t-82 -182
t-211 -62t-210 62q-80 62 -80 182t118 184q-96 59 -96 176q0 86 74 144t194 57z" />
    <glyph glyph-name="nine.denominator" horiz-adv-x="688" 
d="M330 94q78 0 122 67t44 181q-56 -80 -176 -80t-196 72t-75 190q0 118 78 192q77 75 219 75q142 -1 216 -103t73 -281q0 -179 -76 -301t-235 -120q-117 0 -185 63t-76 148l140 2q6 -49 41 -77t86 -28zM487 526q0 70 -42 113q-41 43 -107 43t-107 -42t-41 -113t41 -113
t107 -43q66 1 108 43t41 112z" />
    <glyph glyph-name="zero.numerator" horiz-adv-x="759" 
d="M382 678q171 0 171 294t-171 294t-171 -294t171 -294zM694 973q0 -186 -80 -295t-232 -109t-232 109t-80 295t80 294q80 107 234 107t232 -108t78 -293z" />
    <glyph glyph-name="zeroslashed.numerator" horiz-adv-x="759" 
d="M383 678q160 0 170 266l-336 -72q29 -194 166 -194zM383 1266q-168 0 -172 -279l336 72q-25 207 -164 207zM694 973q0 -186 -80 -295t-232 -109t-232 109t-80 295t80 294q80 107 234 107t232 -108t78 -293z" />
    <glyph glyph-name="one.numerator" horiz-adv-x="440" 
d="M334 584h-137v583h-172v95q67 2 99 8q74 14 107 90h103v-776z" />
    <glyph glyph-name="two.numerator" horiz-adv-x="659" 
d="M338 1374q125 0 198 -55q72 -55 72 -162t-121 -225t-268 -230h377v-118h-553v112q14 12 84 68q268 212 315 302q23 44 23 91t-38 78t-95 31q-58 0 -98 -38t-39 -122h-138q-2 120 77 194t204 74z" />
    <glyph glyph-name="three.numerator" horiz-adv-x="692" 
d="M342 678q68 0 111 34t43 91q0 129 -203 129h-29v112h23q188 0 188 115q0 51 -38 79t-93 28q-133 0 -158 -142l-133 15q18 109 94 172t195 63t197 -52q77 -52 77 -161t-110 -166q63 -25 97 -77t34 -113q0 -113 -85 -174t-213 -61t-205 70q-77 71 -89 173l133 14
q27 -149 164 -149z" />
    <glyph glyph-name="four.numerator" horiz-adv-x="722" 
d="M692 887v-123h-137v-180h-137v180h-387v115l389 481h135v-473h137zM418 887v291l-236 -291h236z" />
    <glyph glyph-name="five.numerator" horiz-adv-x="694" 
d="M346 678q66 0 108 42t42 120t-45 118t-101 41q-56 -1 -95 -23q-38 -22 -50 -52l-127 8l51 428h477v-121h-364l-23 -176q61 47 163 47t179 -72q76 -72 76 -198t-84 -199q-84 -72 -211 -72t-201 72t-84 172l131 14q23 -149 158 -149z" />
    <glyph glyph-name="six.numerator" horiz-adv-x="696" 
d="M348 1266q-64 0 -108 -67t-45 -181q61 80 179 80t194 -73t75 -191q0 -118 -80 -191q-81 -74 -219 -74q-138 1 -212 103t-75 282q0 180 76 300t238 120q117 0 183 -63t73 -150h-138q-6 49 -42 77q-35 28 -99 28zM205 834q0 -70 42 -113t106 -43t107 43q42 43 42 113
t-41 112t-107 43q-66 -1 -108 -43t-41 -112z" />
    <glyph glyph-name="seven.numerator" horiz-adv-x="593" 
d="M20 1239v121h570v-115q-158 -155 -234 -305t-88 -356h-153q16 360 329 655h-424z" />
    <glyph glyph-name="eight.numerator" horiz-adv-x="712" 
d="M489 1157q0 49 -35 79q-36 30 -98 30t-97 -30q-36 -30 -36 -79t37 -82t97 -33t97 33q35 33 35 82zM357 940q-69 0 -109 -36t-41 -95q0 -59 41 -95q42 -36 110 -36t109 36t41 95t-41 95t-110 36zM356 1374q121 0 195 -57t74 -143q0 -119 -97 -177q121 -63 121 -183
t-82 -182t-211 -62t-210 62q-80 62 -80 182t118 183q-96 59 -96 177q0 86 74 143t194 57z" />
    <glyph glyph-name="nine.numerator" horiz-adv-x="688" 
d="M330 678q78 0 122 66t44 182q-56 -80 -176 -80t-196 72t-75 190q0 118 78 192q77 74 219 74t216 -102t73 -282q0 -180 -76 -300q-76 -121 -235 -121q-117 -1 -185 63t-76 148l140 2q6 -48 41 -76t86 -28zM487 1110q0 70 -42 113q-41 43 -107 43t-107 -42t-41 -113
t41 -114t107 -43t108 43t41 113z" />
    <glyph glyph-name="a.superior" horiz-adv-x="647" 
d="M434 1069v35l-104 -12q-133 -14 -133 -86q1 -35 27 -58q26 -22 77 -22t92 36t41 107zM334 1421q240 1 234 -213q-3 -108 -3 -191t13 -183h-129l-5 65q-56 -80 -166 -80t-166 55q-56 56 -56 134t62 124q63 46 208 58l104 12v21q0 96 -110 96t-115 -90l-131 4q8 86 73 137
q66 51 187 51z" />
    <glyph glyph-name="b.superior" horiz-adv-x="692" 
d="M365 1309q-63 -1 -101 -51t-39 -139q0 -89 38 -140q37 -51 101 -51t99 52t35 139t-35 139t-98 51zM92 834v776h139v-267q55 76 163 76t176 -81t69 -218q0 -137 -72 -219t-177 -82t-161 70l-2 -55h-135z" />
    <glyph glyph-name="c.superior" horiz-adv-x="651" 
d="M340 1419q96 0 168 -52t92 -146l-133 -21q-18 109 -131 109q-61 0 -100 -49q-39 -48 -39 -140t39 -142t100 -50q113 0 135 112l133 -18q-23 -98 -96 -151q-74 -52 -190 -52t-190 83q-75 83 -75 217t77 217t210 83z" />
    <glyph glyph-name="d.superior" horiz-adv-x="692" 
d="M330 928q63 0 100 51t37 140t-37 139t-100 50q-62 0 -98 -50q-36 -52 -36 -139t36 -139q35 -52 98 -52zM602 1610v-776h-135v63q-59 -78 -168 -78t-177 81t-69 218q0 137 73 219t175 82t162 -69v260h139z" />
    <glyph glyph-name="e.superior" horiz-adv-x="669" 
d="M338 1315q-57 0 -100 -34t-45 -103h284q-2 66 -42 102t-97 35zM328 819q-123 0 -199 85t-76 217t79 215t210 83t207 -93t67 -249h-423q4 -65 44 -107t103 -42q106 0 135 88l133 -17q-23 -74 -90 -127t-190 -53z" />
    <glyph glyph-name="f.superior" horiz-adv-x="389" 
d="M109 1407v33q0 102 45 136t157 34h51v-113h-32q-54 0 -68 -13t-14 -59v-18h114v-107h-114v-466h-139v466h-82v107h82z" />
    <glyph glyph-name="g.superior" horiz-adv-x="686" 
d="M330 952q63 0 100 46t37 130t-37 132t-100 49q-62 0 -98 -49t-35 -130q0 -178 133 -178zM461 866v52q-53 -74 -161 -74t-178 78t-69 208q0 130 73 209q73 80 177 80t160 -69l2 57h135v-514q0 -141 -67 -203t-203 -63q-227 0 -252 182l133 6q18 -80 123 -80q59 -1 93 27
t34 104z" />
    <glyph glyph-name="h.superior" horiz-adv-x="684" 
d="M403 1419q199 0 199 -229v-356h-137v323q0 76 -25 112t-82 36q-127 0 -127 -177v-294h-139v776h139v-273q51 82 172 82z" />
    <glyph glyph-name="i.superior" horiz-adv-x="321" 
d="M92 1610h139v-135h-139v135zM92 1407h139v-573h-139v573z" />
    <glyph glyph-name="j.superior" horiz-adv-x="323" 
d="M92 1610h139v-135h-139v135zM92 821v586h139v-588q1 -115 -35 -151t-143 -37h-41v112h21q41 1 50 15t9 63z" />
    <glyph glyph-name="k.superior" horiz-adv-x="634" 
d="M92 1610h139v-426l209 223h166l-207 -217l219 -356h-159l-154 256l-74 -76v-180h-139v776z" />
    <glyph glyph-name="l.superior" horiz-adv-x="321" 
d="M231 1610v-776h-139v776h139z" />
    <glyph glyph-name="m.superior" horiz-adv-x="1030" 
d="M92 834v573h139v-70q51 82 167 82t163 -92q69 92 181 92t159 -58t47 -171v-356h-139v327q0 80 -22 112t-78 32q-119 0 -119 -177v-294h-139v327q0 82 -24 113t-77 31q-119 0 -119 -177v-294h-139z" />
    <glyph glyph-name="o.superior" horiz-adv-x="673" 
d="M55 1119q0 146 81 223t201 77t202 -77t82 -223t-82 -223t-202 -77t-201 77t-81 223zM197 1119q-1 -91 37 -141t102 -50t104 50q39 50 39 141t-38 141q-37 50 -103 49q-66 0 -104 -49q-37 -50 -37 -141z" />
    <glyph glyph-name="p.superior" horiz-adv-x="692" 
d="M365 1309q-63 -1 -101 -51t-39 -139q0 -89 38 -140q37 -51 101 -51t99 52t35 139t-35 139t-98 51zM231 631h-139v776h135v-68q55 80 165 80t178 -81t69 -218q0 -137 -72 -219q-73 -82 -177 -82t-159 70v-258z" />
    <glyph glyph-name="q.superior" horiz-adv-x="692" 
d="M330 928q63 0 100 51t37 140t-37 139t-100 50q-62 0 -98 -50q-36 -52 -36 -139t36 -139q35 -52 98 -52zM602 1407v-776h-139v264q-55 -76 -164 -76t-177 81t-69 218q0 137 73 219q72 83 176 83t163 -70l2 57h135z" />
    <glyph glyph-name="r.superior" horiz-adv-x="438" 
d="M356 1274q-61 0 -93 -33t-32 -113v-294h-139v573h137v-94q49 92 156 92q23 0 31 -2v-133q-41 4 -60 4z" />
    <glyph glyph-name="s.superior" horiz-adv-x="610" 
d="M306 1315q-108 0 -109 -55q0 -45 88 -66l67 -14q109 -25 162 -60q53 -36 53 -118t-72 -133q-73 -50 -182 -50t-179 53t-81 138l133 20q6 -47 41 -77t95 -29q111 0 110 67q0 38 -50 56q-19 6 -54 14l-74 16q-90 17 -138 57t-48 116t69 122q70 47 167 47t169 -45t88 -129
l-127 -18q-20 88 -128 88z" />
    <glyph glyph-name="t.superior" horiz-adv-x="417" 
d="M109 1407v168h139v-168h119v-107h-119v-284q0 -46 15 -60t56 -14h46v-108h-101q-94 0 -125 32t-30 123v311h-84v107h84z" />
    <glyph glyph-name="u.superior" horiz-adv-x="679" 
d="M281 819q-197 0 -197 230v358h139v-330q0 -80 19 -104q27 -39 84 -39q125 0 125 180v293h137v-573h-137v67q-55 -82 -170 -82z" />
    <glyph glyph-name="v.superior" horiz-adv-x="591" 
d="M176 1407l125 -397l125 397h145l-213 -573h-120l-215 573h153z" />
    <glyph glyph-name="w.superior" horiz-adv-x="833" 
d="M250 1008l96 399h141l97 -397l78 397h149l-152 -573h-133l-110 409l-111 -409h-131l-151 573h149z" />
    <glyph glyph-name="x.superior" horiz-adv-x="626" 
d="M592 1407l-199 -274l211 -299h-164l-131 184l-133 -184h-151l211 290l-199 283h162l118 -170l123 170h152z" />
    <glyph glyph-name="y.superior" horiz-adv-x="581" 
d="M125 631h-59v117h53q43 0 62 13t44 77l-213 569h154l125 -397l129 397h141l-207 -565q-45 -123 -89 -167t-140 -44z" />
    <glyph glyph-name="z.superior" horiz-adv-x="569" 
d="M37 834v100l299 356h-277v117h457v-102l-299 -355h307v-116h-487z" />
    <glyph glyph-name="a.inferior" horiz-adv-x="647" 
d="M434 -10v35l-104 -13q-133 -14 -133 -86q1 -36 27 -58t77 -22t92 36t41 108zM334 342q240 0 234 -214q-3 -108 -3 -190q0 -83 13 -184h-129l-5 66q-56 -80 -166 -80t-166 55t-56 133t62 124q63 46 208 59l104 12v20q0 97 -110 97t-115 -90l-131 4q8 86 73 137
q66 51 187 51z" />
    <glyph glyph-name="b.inferior" horiz-adv-x="692" 
d="M365 229q-63 0 -101 -50t-39 -139q0 -89 38 -140q37 -52 101 -52t99 52t35 140q0 87 -35 138t-98 51zM92 -246v776h139v-266q55 76 163 76t176 -81t69 -218q0 -137 -72 -219t-177 -82t-161 70l-2 -56h-135z" />
    <glyph glyph-name="c.inferior" horiz-adv-x="651" 
d="M340 340q96 0 168 -52t92 -147l-133 -20q-18 109 -131 108q-61 0 -100 -49t-39 -140t39 -141t100 -51q113 0 135 113l133 -18q-23 -98 -96 -151q-74 -52 -190 -52t-190 83q-75 83 -75 217t77 217t210 83z" />
    <glyph glyph-name="d.inferior" horiz-adv-x="692" 
d="M330 -152q63 0 100 52t37 140q0 89 -37 139t-100 50q-62 0 -98 -51t-36 -138q0 -88 36 -140q35 -52 98 -52zM602 530v-776h-135v64q-59 -78 -168 -78t-177 81t-69 218q0 137 73 219t175 82t162 -70v260h139z" />
    <glyph glyph-name="e.inferior" horiz-adv-x="669" 
d="M338 236q-57 0 -100 -34t-45 -104h284q-2 66 -42 102t-97 36zM328 -260q-123 0 -199 85t-76 217t79 215t210 83t207 -93t67 -249h-423q4 -66 44 -108t103 -42q106 0 135 89l133 -17q-23 -74 -90 -127t-190 -53z" />
    <glyph glyph-name="f.inferior" horiz-adv-x="389" 
d="M109 328v32q0 102 45 136t157 34h51v-112h-32q-54 0 -68 -14t-14 -58v-18h114v-107h-114v-467h-139v467h-82v107h82z" />
    <glyph glyph-name="g.inferior" horiz-adv-x="686" 
d="M330 -127q63 0 100 46t37 130t-37 132t-100 48q-62 0 -98 -49t-35 -129q0 -178 133 -178zM461 -213v51q-53 -74 -161 -74t-178 78t-69 208q0 130 73 210t177 80t160 -70l2 58h135v-514q0 -142 -67 -204t-203 -63q-227 0 -252 183l133 6q18 -80 123 -80q59 0 93 28t34 103
z" />
    <glyph glyph-name="h.inferior" horiz-adv-x="684" 
d="M403 340q199 0 199 -229v-357h-137v324q0 78 -25 112t-82 35q-127 0 -127 -176v-295h-139v776h139v-272q51 82 172 82z" />
    <glyph glyph-name="i.inferior" horiz-adv-x="321" 
d="M92 530h139v-135h-139v135zM92 328h139v-574h-139v574z" />
    <glyph glyph-name="j.inferior" horiz-adv-x="323" 
d="M92 530h139v-135h-139v135zM92 -258v586h139v-588q1 -115 -35 -152t-143 -37h-41v113h21q41 0 50 14t9 64z" />
    <glyph glyph-name="k.inferior" horiz-adv-x="634" 
d="M92 530h139v-426l209 224h166l-207 -217l219 -357h-159l-154 256l-74 -76v-180h-139v776z" />
    <glyph glyph-name="l.inferior" horiz-adv-x="321" 
d="M231 530v-776h-139v776h139z" />
    <glyph glyph-name="m.inferior" horiz-adv-x="1030" 
d="M92 -246v574h139v-70q51 82 167 82t163 -92q69 92 181 92t159 -58t47 -171v-357h-139v328q0 80 -22 112t-78 31q-119 0 -119 -176v-295h-139v328q0 82 -24 113t-77 30q-119 0 -119 -176v-295h-139z" />
    <glyph glyph-name="n.inferior" horiz-adv-x="684" 
d="M403 340q199 0 199 -229v-357h-137v324q0 78 -25 112t-82 35q-127 0 -127 -176v-295h-139v574h139v-70q51 82 172 82z" />
    <glyph glyph-name="o.inferior" horiz-adv-x="673" 
d="M55 40q0 146 81 223t201 77t202 -77t82 -223t-82 -223t-202 -77t-201 77t-81 223zM338 229q-66 0 -104 -49t-37 -140q-1 -91 37 -141q38 -51 102 -51t104 50q39 50 39 142q0 91 -38 140q-37 49 -103 49z" />
    <glyph glyph-name="p.inferior" horiz-adv-x="692" 
d="M365 229q-63 0 -101 -50t-39 -139q0 -89 38 -140q37 -52 101 -52t99 52t35 140q0 87 -35 138t-98 51zM231 -449h-139v777h135v-68q55 80 165 80t178 -81t69 -218q0 -137 -72 -219q-73 -82 -177 -82t-159 70v-259z" />
    <glyph glyph-name="q.inferior" horiz-adv-x="692" 
d="M330 -152q63 0 100 52t37 140q0 89 -37 139t-100 50q-62 0 -98 -51t-36 -138q0 -88 36 -140q35 -52 98 -52zM602 328v-777h-139v265q-55 -76 -164 -76t-177 81t-69 218q0 137 73 219q72 82 176 82t163 -70l2 58h135z" />
    <glyph glyph-name="r.inferior" horiz-adv-x="438" 
d="M231 49v-295h-139v574h137v-95q49 92 156 93q23 0 31 -2v-134q-41 4 -60 5q-61 0 -93 -33t-32 -113z" />
    <glyph glyph-name="s.inferior" horiz-adv-x="610" 
d="M197 180q0 -45 88 -65l67 -15q109 -26 162 -60t53 -117q-1 -83 -73 -133t-181 -50t-179 53t-81 137l133 21q6 -47 41 -77t95 -30q111 0 110 68q0 40 -50 55q-19 6 -54 15l-74 16q-90 18 -138 57t-48 115t69 123q70 47 167 47t169 -45t88 -129l-127 -19q-20 89 -128 89
t-109 -56z" />
    <glyph glyph-name="t.inferior" horiz-adv-x="417" 
d="M109 328v168h139v-168h119v-107h-119v-284q0 -45 15 -59t56 -15h46v-109h-101q-94 0 -125 32t-30 124v311h-84v107h84z" />
    <glyph glyph-name="u.inferior" horiz-adv-x="679" 
d="M281 -260q-197 0 -197 229v359h139v-330q0 -80 19 -104q27 -39 84 -39q125 0 125 180v293h137v-574h-137v68q-55 -82 -170 -82z" />
    <glyph glyph-name="v.inferior" horiz-adv-x="591" 
d="M176 328l125 -398l125 398h145l-213 -574h-120l-215 574h153z" />
    <glyph glyph-name="w.inferior" horiz-adv-x="833" 
d="M250 -72l96 400h141l97 -398l78 398h149l-152 -574h-133l-110 410l-111 -410h-131l-151 574h149z" />
    <glyph glyph-name="x.inferior" horiz-adv-x="626" 
d="M592 328l-199 -275l211 -299h-164l-131 185l-133 -185h-151l211 291l-199 283h162l118 -170l123 170h152z" />
    <glyph glyph-name="y.inferior" horiz-adv-x="581" 
d="M125 -449h-59v117h53q43 0 61 12t45 78l-213 570h154l125 -398l129 398h141l-207 -566q-45 -123 -89 -167t-140 -44z" />
    <glyph glyph-name="z.inferior" horiz-adv-x="569" 
d="M37 -246v101l299 356h-277v117h457v-103l-299 -354h307v-117h-487z" />
    <glyph glyph-name="a.denominator" horiz-adv-x="647" 
d="M434 236v34l-104 -12q-133 -14 -133 -86q1 -36 27 -58t77 -22t92 36t41 108zM334 588q240 0 234 -214q-3 -108 -3 -189q0 -82 13 -185h-129l-5 66q-56 -80 -166 -80t-166 55t-56 133q-1 160 270 182l104 13v20q0 96 -110 96t-115 -90l-131 4q8 86 73 138q66 51 187 51z
" />
    <glyph glyph-name="b.denominator" horiz-adv-x="692" 
d="M365 475q-63 0 -101 -50t-39 -139q0 -88 38 -140q37 -52 101 -52t99 52t35 140t-35 138q-35 51 -98 51zM92 0v776h139v-266q55 76 163 76t176 -81t69 -218q0 -137 -72 -219t-177 -82t-161 69l-2 -55h-135z" />
    <glyph glyph-name="c.denominator" horiz-adv-x="651" 
d="M340 586q96 0 168 -52t92 -147l-133 -20q-18 109 -131 108q-61 0 -100 -49t-39 -140q0 -92 39 -142t100 -50q113 0 135 113l133 -19q-22 -98 -96 -150t-190 -52t-190 83q-75 83 -75 217t77 217t210 83z" />
    <glyph glyph-name="d.denominator" horiz-adv-x="692" 
d="M330 94q63 0 100 51t37 141t-37 139q-37 50 -100 50q-62 0 -98 -51t-36 -138t35 -140q36 -52 99 -52zM602 776v-776h-135v63q-59 -77 -168 -77t-177 81t-69 218q0 137 73 219t175 82t162 -70v260h139z" />
    <glyph glyph-name="e.denominator" horiz-adv-x="669" 
d="M338 481q-57 0 -100 -34t-45 -103h284q-2 66 -42 102t-97 35zM328 -14q-123 0 -199 85t-76 217t79 215t210 83t207 -93t67 -249h-423q4 -66 44 -108t103 -42q106 0 135 88l133 -16q-23 -74 -90 -127t-190 -53z" />
    <glyph glyph-name="f.denominator" horiz-adv-x="389" 
d="M109 573v33q0 102 45 136t157 34h51v-112h-32q-54 0 -68 -14t-14 -58v-19h114v-106h-114v-467h-139v467h-82v106h82z" />
    <glyph glyph-name="g.denominator" horiz-adv-x="686" 
d="M330 119q63 0 100 46t37 130t-37 132t-100 48q-62 0 -98 -49t-35 -129q0 -178 133 -178zM461 33v51q-53 -74 -161 -74t-178 78t-69 208q0 130 73 210t177 80t160 -70l2 57h135v-514q0 -141 -67 -203t-203 -63q-227 0 -252 182l133 7q18 -80 123 -80q59 0 93 28t34 103z
" />
    <glyph glyph-name="h.denominator" horiz-adv-x="684" 
d="M403 586q199 0 199 -230v-356h-137v324q0 76 -25 112t-82 35q-127 0 -127 -176v-295h-139v776h139v-272q51 82 172 82z" />
    <glyph glyph-name="i.denominator" horiz-adv-x="321" 
d="M92 776h139v-135h-139v135zM92 573h139v-573h-139v573z" />
    <glyph glyph-name="j.denominator" horiz-adv-x="323" 
d="M92 776h139v-135h-139v135zM92 -12v585h139v-587q1 -115 -35 -152t-143 -37h-41v113h21q41 0 50 14t9 64z" />
    <glyph glyph-name="k.denominator" horiz-adv-x="634" 
d="M92 776h139v-426l209 223h166l-207 -217l219 -356h-159l-154 256l-74 -76v-180h-139v776z" />
    <glyph glyph-name="l.denominator" horiz-adv-x="321" 
d="M231 776v-776h-139v776h139z" />
    <glyph glyph-name="m.denominator" horiz-adv-x="1030" 
d="M754 586q194 0 194 -230v-356h-139v328q0 80 -22 112t-78 31q-119 0 -119 -176v-295h-139v328q0 82 -24 112t-77 31q-119 0 -119 -176v-295h-139v573h139v-69q51 82 167 82t163 -92q68 92 193 92z" />
    <glyph glyph-name="n.denominator" horiz-adv-x="684" 
d="M403 586q199 0 199 -230v-356h-137v324q0 76 -25 112t-82 35q-127 0 -127 -176v-295h-139v573h139v-69q51 82 172 82z" />
    <glyph glyph-name="o.denominator" horiz-adv-x="673" 
d="M621 286q0 -146 -82 -224t-202 -76q-120 0 -201 77t-81 223t81 223t201 77t202 -77t82 -223zM338 475q-66 0 -104 -49t-37 -140q0 -91 37 -142q38 -50 102 -50t104 50q39 50 39 142t-38 140q-37 49 -103 49z" />
    <glyph glyph-name="p.denominator" horiz-adv-x="692" 
d="M365 475q-63 0 -101 -50t-39 -139q0 -88 38 -140q37 -52 101 -52t99 52t35 140t-35 138q-35 51 -98 51zM231 -203h-139v776h135v-67q55 80 165 80t178 -81t69 -218q0 -137 -72 -219q-73 -82 -177 -82t-159 69v-258z" />
    <glyph glyph-name="q.denominator" horiz-adv-x="692" 
d="M330 94q63 0 100 51t37 141t-37 139q-37 50 -100 50q-62 0 -98 -51t-36 -138t35 -140q36 -52 99 -52zM602 573v-776h-139v264q-55 -75 -164 -75t-177 81t-69 218q0 137 73 219q72 82 176 82t163 -70l2 57h135z" />
    <glyph glyph-name="r.denominator" horiz-adv-x="438" 
d="M356 440q-61 0 -93 -32t-32 -113v-295h-139v573h137v-94q49 92 156 92q23 0 31 -2v-133q-41 4 -60 4z" />
    <glyph glyph-name="s.denominator" horiz-adv-x="610" 
d="M306 481q-108 0 -109 -55q0 -45 88 -66l67 -14q109 -26 162 -60t53 -117q-1 -83 -73 -133t-181 -50t-179 53t-81 137l133 21q6 -47 41 -77t95 -30q111 0 110 68q0 40 -50 55q-19 6 -54 14l-74 17q-90 18 -138 57t-48 115t69 123q70 47 167 47t169 -45t88 -129l-127 -19
q-20 88 -128 88z" />
    <glyph glyph-name="t.denominator" horiz-adv-x="417" 
d="M109 573v168h139v-168h119v-106h-119v-285q0 -45 15 -59t56 -14h46v-109h-101q-94 0 -125 32t-30 124v311h-84v106h84z" />
    <glyph glyph-name="u.denominator" horiz-adv-x="679" 
d="M281 -14q-197 0 -197 229v358h139v-329q0 -80 19 -105q27 -39 84 -39q125 0 125 181v292h137v-573h-137v68q-55 -82 -170 -82z" />
    <glyph glyph-name="v.denominator" horiz-adv-x="591" 
d="M176 573l125 -397l125 397h145l-213 -573h-120l-215 573h153z" />
    <glyph glyph-name="w.denominator" horiz-adv-x="833" 
d="M250 174l96 399h141l97 -397l78 397h149l-152 -573h-133l-110 410l-111 -410h-131l-151 573h149z" />
    <glyph glyph-name="x.denominator" horiz-adv-x="626" 
d="M592 573l-199 -274l211 -299h-164l-131 184l-133 -184h-151l211 291l-199 282h162l118 -170l123 170h152z" />
    <glyph glyph-name="y.denominator" horiz-adv-x="581" 
d="M125 -203h-59v117h53q43 0 60 12t46 78l-213 569h154l125 -397l129 397h141l-207 -565q-45 -123 -89 -167t-140 -44z" />
    <glyph glyph-name="z.denominator" horiz-adv-x="569" 
d="M37 0v100l299 357h-277v116h457v-102l-299 -354h307v-117h-487z" />
    <glyph glyph-name="a.numerator" horiz-adv-x="647" 
d="M434 819v35l-104 -12q-133 -14 -133 -86q1 -35 27 -58q26 -22 77 -22t92 36t41 107zM334 1171q240 1 234 -213q-3 -108 -3 -191t13 -183h-129l-5 65q-56 -80 -166 -80q-110 -1 -166 55t-56 134q-1 160 270 182l104 12v21q0 96 -110 96t-115 -90l-131 4q8 86 73 137
q66 51 187 51z" />
    <glyph glyph-name="b.numerator" horiz-adv-x="692" 
d="M365 1059q-63 0 -101 -50q-38 -49 -39 -139q0 -90 38 -141q37 -51 101 -51t99 52t35 139t-35 139t-98 51zM92 584v776h139v-266q55 76 163 76t176 -82q68 -80 69 -218q0 -138 -72 -219q-72 -82 -177 -82t-161 70l-2 -55h-135z" />
    <glyph glyph-name="c.numerator" horiz-adv-x="651" 
d="M340 1169q96 0 168 -52t92 -146l-133 -21q-18 109 -131 109q-61 0 -100 -49q-39 -48 -39 -140t39 -142t100 -50q113 0 135 113l133 -19q-22 -98 -96 -150t-190 -52t-190 82q-75 83 -75 217t77 217t210 83z" />
    <glyph glyph-name="d.numerator" horiz-adv-x="692" 
d="M330 678q63 0 100 51t37 140t-37 139t-100 51q-62 0 -98 -51q-36 -50 -36 -138t36 -140q35 -52 98 -52zM602 1360v-776h-135v63q-59 -78 -168 -78t-177 81t-69 218q0 137 73 219t175 82t162 -69v260h139z" />
    <glyph glyph-name="e.numerator" horiz-adv-x="669" 
d="M338 1065q-57 0 -100 -34t-45 -103h284q-2 66 -42 102t-97 35zM328 569q-123 0 -199 85t-76 217t79 215t210 83t207 -93t67 -249h-423q4 -65 44 -107t103 -42q106 0 135 88l133 -16q-23 -74 -90 -128t-190 -53z" />
    <glyph glyph-name="f.numerator" horiz-adv-x="389" 
d="M109 1157v33q0 102 45 136t157 34h51v-113h-32q-54 0 -68 -13t-14 -58v-19h114v-106h-114v-467h-139v467h-82v106h82z" />
    <glyph glyph-name="g.numerator" horiz-adv-x="686" 
d="M330 702q63 0 100 46t37 131q0 84 -37 132t-100 48q-62 0 -98 -49t-35 -129q0 -179 133 -179zM461 616v52q-53 -74 -161 -74t-178 78t-69 208q0 130 73 210t177 80t160 -70l2 57h135v-514q0 -141 -67 -203t-203 -63q-227 0 -252 182l133 6q18 -80 123 -80q59 -1 93 27
t34 104z" />
    <glyph glyph-name="h.numerator" horiz-adv-x="684" 
d="M403 1169q199 0 199 -229v-356h-137v323q0 76 -25 112t-82 36q-127 0 -127 -176v-295h-139v776h139v-273q51 82 172 82z" />
    <glyph glyph-name="i.numerator" horiz-adv-x="321" 
d="M92 1360h139v-135h-139v135zM92 1157h139v-573h-139v573z" />
    <glyph glyph-name="j.numerator" horiz-adv-x="323" 
d="M92 1360h139v-135h-139v135zM92 571v586h139v-588q1 -115 -35 -151t-143 -37h-41v113h21q41 0 50 14t9 63z" />
    <glyph glyph-name="k.numerator" horiz-adv-x="634" 
d="M92 1360h139v-426l209 223h166l-207 -217l219 -356h-159l-154 256l-74 -76v-180h-139v776z" />
    <glyph glyph-name="l.numerator" horiz-adv-x="321" 
d="M231 1360v-776h-139v776h139z" />
    <glyph glyph-name="m.numerator" horiz-adv-x="1030" 
d="M92 584v573h139v-70q51 82 167 82t163 -92q69 92 181 92t159 -58t47 -171v-356h-139v327q0 80 -22 112t-78 32q-119 0 -119 -176v-295h-139v327q0 82 -24 113t-77 31q-119 0 -119 -176v-295h-139z" />
    <glyph glyph-name="n.numerator" horiz-adv-x="684" 
d="M403 1169q199 0 199 -229v-356h-137v323q0 76 -25 112t-82 36q-127 0 -127 -176v-295h-139v573h139v-70q51 82 172 82z" />
    <glyph glyph-name="o.numerator" horiz-adv-x="673" 
d="M55 869q0 145 81 223t201 78t202 -78q82 -76 82 -222t-82 -224q-82 -77 -202 -77t-201 77t-81 223zM197 869q-1 -91 37 -141t102 -50t104 50q39 50 39 141t-38 141q-37 50 -103 49q-66 0 -104 -49q-37 -50 -37 -141z" />
    <glyph glyph-name="p.numerator" horiz-adv-x="692" 
d="M365 1059q-63 0 -101 -50q-38 -49 -39 -139q0 -90 38 -141q37 -51 101 -51t99 52t35 139t-35 139t-98 51zM231 381h-139v776h135v-67q55 80 165 80t178 -82q68 -80 69 -218q0 -138 -72 -219q-73 -82 -177 -82t-159 70v-258z" />
    <glyph glyph-name="q.numerator" horiz-adv-x="692" 
d="M330 678q63 0 100 51t37 140t-37 139t-100 51q-62 0 -98 -51q-36 -50 -36 -138t36 -140q35 -52 98 -52zM602 1157v-776h-139v264q-55 -76 -164 -76t-177 81t-69 218q0 137 73 219q72 83 176 83t163 -70l2 57h135z" />
    <glyph glyph-name="r.numerator" horiz-adv-x="438" 
d="M356 1024q-61 0 -93 -33t-32 -112v-295h-139v573h137v-94q49 92 156 92q23 0 31 -2v-133q-41 4 -60 4z" />
    <glyph glyph-name="s.numerator" horiz-adv-x="610" 
d="M306 1065q-108 0 -109 -55q0 -45 88 -66l67 -14q109 -25 162 -60q53 -36 53 -118q-1 -82 -73 -132t-181 -50t-179 52q-70 54 -81 138l133 20q6 -47 41 -77t95 -29q111 0 110 67q0 38 -50 56q-19 6 -54 14l-74 16q-90 17 -138 57t-48 116t69 122q70 47 167 47t169 -45
t88 -129l-127 -18q-20 88 -128 88z" />
    <glyph glyph-name="t.numerator" horiz-adv-x="417" 
d="M109 1157v168h139v-168h119v-106h-119v-285q0 -45 15 -59t56 -15h46v-108h-101q-94 0 -125 32t-30 123v312h-84v106h84z" />
    <glyph glyph-name="u.numerator" horiz-adv-x="679" 
d="M281 569q-197 0 -197 230v358h139v-330q0 -80 19 -104q27 -39 84 -39q125 0 125 180v293h137v-573h-137v67q-55 -82 -170 -82z" />
    <glyph glyph-name="v.numerator" horiz-adv-x="591" 
d="M176 1157l125 -397l125 397h145l-213 -573h-120l-215 573h153z" />
    <glyph glyph-name="w.numerator" horiz-adv-x="833" 
d="M250 758l96 399h141l97 -397l78 397h149l-152 -573h-133l-110 409l-111 -409h-131l-151 573h149z" />
    <glyph glyph-name="x.numerator" horiz-adv-x="626" 
d="M592 1157l-199 -274l211 -299h-164l-131 184l-133 -184h-151l211 290l-199 283h162l118 -170l123 170h152z" />
    <glyph glyph-name="y.numerator" horiz-adv-x="581" 
d="M125 381h-59v117h53q43 0 62 13t44 77l-213 569h154l125 -397l129 397h141l-207 -565q-45 -123 -89 -167t-140 -44z" />
    <glyph glyph-name="z.numerator" horiz-adv-x="569" 
d="M37 584v100l299 356h-277v117h457v-102l-299 -355h307v-116h-487z" />
    <glyph glyph-name="zero.fractioninf" horiz-adv-x="716" 
d="M357 94q171 0 171 294t-171 294t-171 -294t171 -294zM670 389q0 -187 -80 -295t-233 -108t-233 108t-79 295q0 186 80 294q79 108 233 108t233 -108t79 -294z" />
    <glyph glyph-name="one.fractioninf" horiz-adv-x="716" 
d="M512 0h-137v584h-172v94q67 2 99 8q72 13 108 90h102v-776z" />
    <glyph glyph-name="two.fractioninf" horiz-adv-x="716" 
d="M367 791q125 1 197 -55t73 -162q0 -106 -115 -220t-274 -235h377v-119h-553v113q14 12 84 67q267 210 315 302q23 44 23 91t-38 78t-96 31t-97 -38q-40 -38 -40 -122h-137q-2 121 77 195t204 74z" />
    <glyph glyph-name="three.fractioninf" horiz-adv-x="716" 
d="M358 94q68 0 111 34t43 91q0 129 -203 129h-28v113h22q188 0 189 114q0 51 -38 79t-94 28q-133 0 -157 -141l-133 14q18 109 94 172t195 63t197 -52t77 -160q0 -108 -111 -166q64 -25 98 -77t33 -114q0 -113 -85 -174t-213 -61q-129 0 -205 70t-89 173l134 15
q26 -150 163 -150z" />
    <glyph glyph-name="four.fractioninf" horiz-adv-x="716" 
d="M688 303v-123h-137v-180h-137v180h-387v115l389 481h135v-473h137zM414 303v291l-236 -291h236z" />
    <glyph glyph-name="five.fractioninf" horiz-adv-x="716" 
d="M356 94q66 0 108 42t42 120t-45 119t-101 41t-95 -23q-38 -23 -50 -53l-127 8l51 428h477v-121h-364l-23 -176q61 47 163 47t179 -72q76 -72 76 -198q0 -127 -84 -199q-84 -71 -211 -71q-126 0 -200 72t-84 171l131 15q22 -150 157 -150z" />
    <glyph glyph-name="six.fractioninf" horiz-adv-x="716" 
d="M382 514q118 0 194 -73t75 -191q0 -118 -80 -191t-218 -73t-213 102q-74 102 -74 282t75 301q76 120 238 120q117 1 183 -63t73 -150h-137q-14 104 -142 104q-64 0 -107 -67q-44 -67 -46 -181q61 80 179 80zM213 250q0 -70 42 -113t106 -43t107 43q42 43 42 113t-41 112
t-107 44q-66 0 -108 -43t-41 -113z" />
    <glyph glyph-name="seven.fractioninf" horiz-adv-x="716" 
d="M74 655v121h569v-114q-157 -156 -233 -306t-88 -356h-154q16 360 330 655h-424z" />
    <glyph glyph-name="eight.fractioninf" horiz-adv-x="716" 
d="M489 573q0 49 -35 79q-36 30 -98 30t-97 -30q-36 -30 -36 -79t37 -81t97 -33q60 1 96 33t36 81zM508 225q0 59 -41 95t-110 36t-109 -36t-41 -94q0 -60 41 -96q42 -36 110 -36t109 36t41 95zM356 791q121 1 195 -57t74 -144q0 -119 -97 -176q121 -64 121 -184t-82 -182
t-211 -62t-210 62q-80 62 -80 182t118 184q-96 59 -96 176q0 86 74 144t194 57z" />
    <glyph glyph-name="nine.fractioninf" horiz-adv-x="716" 
d="M346 94q78 0 122 67t44 181q-57 -80 -176 -80t-195 72q-75 72 -75 190t77 192q77 75 219 75q142 -1 216 -103t74 -281t-77 -301q-76 -122 -235 -120q-116 0 -184 63t-76 148l139 2q6 -49 41 -77t86 -28zM504 526q0 70 -42 113t-108 43t-106 -42t-41 -113q0 -71 41 -113
q40 -42 106 -43q66 1 108 43t42 112z" />
    <glyph glyph-name="zero.fractionsup" horiz-adv-x="716" 
d="M357 678q171 0 171 294t-171 294t-171 -294t171 -294zM357 569q-153 0 -233 109t-79 295q0 186 80 294q79 107 233 107t233 -108t79 -293q0 -186 -80 -295t-233 -109z" />
    <glyph glyph-name="one.fractionsup" horiz-adv-x="716" 
d="M512 584h-137v583h-172v95q67 2 99 8q73 13 108 90h102v-776z" />
    <glyph glyph-name="two.fractionsup" horiz-adv-x="716" 
d="M367 1374q125 0 197 -56t73 -161q0 -105 -118 -221t-271 -234h377v-118h-553v112q14 12 84 68q268 212 315 302q23 44 23 91t-38 78t-96 31t-97 -38q-40 -38 -40 -122h-137q-2 120 77 194t204 74z" />
    <glyph glyph-name="three.fractionsup" horiz-adv-x="716" 
d="M358 678q68 0 111 34t43 91q0 129 -203 129h-28v112h22q188 0 189 115q0 51 -38 79t-94 28q-133 0 -157 -142l-133 15q18 109 94 172t195 63t197 -52t77 -161q0 -109 -111 -166q63 -25 98 -76q34 -52 33 -114q0 -113 -85 -174t-213 -61q-129 0 -205 70q-76 71 -89 173
l134 14q26 -149 163 -149z" />
    <glyph glyph-name="four.fractionsup" horiz-adv-x="716" 
d="M688 887v-123h-137v-180h-137v180h-387v115l389 481h135v-473h137zM414 887v291l-236 -291h236z" />
    <glyph glyph-name="five.fractionsup" horiz-adv-x="716" 
d="M356 678q66 0 108 42t42 120t-45 118t-101 41q-56 -1 -95 -23q-38 -22 -50 -52l-127 8l51 428h477v-121h-364l-23 -176q61 47 163 47t179 -72q76 -72 76 -198t-84 -199q-84 -72 -211 -72q-126 0 -200 72t-84 172l131 14q22 -149 157 -149z" />
    <glyph glyph-name="six.fractionsup" horiz-adv-x="716" 
d="M356 1266q-64 0 -107 -67q-44 -67 -46 -181q61 80 179 80t194 -73t75 -191q0 -118 -80 -191q-80 -74 -218 -74q-138 1 -213 103q-74 102 -74 282t75 300q76 120 238 120q117 0 183 -63t73 -150h-137q-6 49 -42 77t-100 28zM213 834q0 -70 42 -113t106 -43t107 43
q42 43 42 113t-41 112t-107 43q-66 -1 -108 -43t-41 -112z" />
    <glyph glyph-name="seven.fractionsup" horiz-adv-x="716" 
d="M74 1239v121h569v-115q-157 -155 -233 -305t-88 -356h-154q16 360 330 655h-424z" />
    <glyph glyph-name="eight.fractionsup" horiz-adv-x="716" 
d="M489 1157q0 49 -35 79q-36 30 -98 30t-97 -30q-36 -30 -36 -79t37 -82t97 -33t97 33q35 33 35 82zM357 940q-69 0 -109 -36t-41 -95q0 -59 41 -95q42 -36 110 -36t109 36t41 95t-41 95t-110 36zM356 1374q121 0 195 -57t74 -143q0 -119 -97 -177q121 -63 121 -183
t-82 -182t-211 -62t-210 62q-80 62 -80 182t118 183q-96 59 -96 177q0 86 74 143t194 57z" />
    <glyph glyph-name="nine.fractionsup" horiz-adv-x="716" 
d="M346 678q78 0 122 66t44 182q-57 -80 -176 -80t-195 72q-75 72 -75 190t78 192t218 74q142 0 216 -102t74 -282t-77 -300q-76 -121 -235 -121q-116 -1 -184 63t-76 148l139 2q6 -48 41 -76t86 -28zM504 1110q0 70 -42 113t-108 43t-106 -42t-41 -113q0 -71 41 -114
q40 -43 106 -43t108 43t42 113z" />
    <glyph glyph-name="comma.superior" horiz-adv-x="329" 
d="M86 827v154h158v-166l-84 -160h-82l76 172h-68z" />
    <glyph glyph-name="period.superior" horiz-adv-x="307" 
d="M229 834h-153v147h153v-147z" />
    <glyph glyph-name="hyphen.superior" horiz-adv-x="446" 
d="M401 1063h-356v123h356v-123z" />
    <glyph glyph-name="dollar.superior" horiz-adv-x="710" 
d="M205 1415q0 -84 110 -108l7 -2v211q-47 -4 -82 -30t-35 -71zM518 1042q0 49 -33 76t-102 45v-235q135 8 135 114zM322 1714h61v-92q117 -10 187 -80t67 -176h-135q0 66 -34 102t-85 45v-225q97 -19 183 -73q85 -53 84 -159t-78 -168t-189 -69v-90h-61v92q-119 10 -192 83
t-71 186h138q0 -143 125 -162v250l-37 8q-211 51 -211 221q0 98 72 154q73 55 176 61v92z" />
    <glyph glyph-name="Euro.superior" horiz-adv-x="845" 
d="M476 928q161 0 190 159h127q-19 -127 -105 -197t-215 -71q-129 0 -214 74t-114 209h-135l56 84h69v76h-125l56 84h81q27 130 115 204t215 74t211 -72t100 -196l-126 -2q-29 162 -187 162t-199 -170h295l-55 -84h-252v-76h215l-55 -84h-148q39 -174 200 -174z" />
    <glyph glyph-name="cent.superior" horiz-adv-x="651" 
d="M197 1120q0 -164 106 -190v375q-49 -11 -77 -59t-29 -126zM358 735h-55v84q-117 10 -183 92t-67 207q0 125 67 206t183 93v92h55v-90q90 -4 156 -55t86 -143l-133 -21q-18 100 -109 109v-381q92 8 113 112l133 -18q-20 -92 -87 -144t-159 -59v-84z" />
    <glyph glyph-name="plus.inferior" horiz-adv-x="712" 
d="M422 -246h-129v230h-236v122h236v232h129v-232h233v-122h-233v-230z" />
    <glyph glyph-name="minus.inferior" horiz-adv-x="698" 
d="M59 106h582v-122h-582v122z" />
    <glyph glyph-name="equal.inferior" horiz-adv-x="708" 
d="M629 -131h-549v123h549v-123zM629 96h-549v123h549v-123z" />
    <glyph glyph-name="comma.inferior" horiz-adv-x="329" 
d="M86 -252v154h158v-166l-84 -160h-82l76 172h-68z" />
    <glyph glyph-name="period.inferior" horiz-adv-x="307" 
d="M229 -246h-153v148h153v-148z" />
    <glyph glyph-name="hyphen.inferior" horiz-adv-x="446" 
d="M401 -16h-356v122h356v-122z" />
    <glyph glyph-name="dollar.inferior" horiz-adv-x="710" 
d="M205 336q0 -84 110 -109l7 -2v211q-47 -4 -82 -30t-35 -70zM518 -39q0 51 -33 78t-102 45v-236q59 4 97 33t38 80zM322 635h61v-92q117 -10 187 -80t67 -176h-135q0 67 -34 103t-85 44v-225q99 -20 160 -58q61 -39 84 -81t22 -97q0 -104 -77 -164t-189 -67v-92h-61v92
q-119 10 -192 84t-71 184h138q1 -72 35 -112t90 -48v248l-37 8q-211 51 -211 222q0 98 72 153q73 55 176 62v92z" />
    <glyph glyph-name="Euro.inferior" horiz-adv-x="845" 
d="M474 -260q-128 0 -214 74t-115 209h-135l56 83h69v76h-125l56 84h81q27 131 115 205t215 74t211 -72t100 -197l-126 -2q-29 162 -187 162t-199 -170h295l-55 -84h-252v-76h215l-55 -83h-148q39 -175 200 -175t190 160h127q-19 -128 -105 -198t-214 -70z" />
    <glyph glyph-name="cent.inferior" horiz-adv-x="651" 
d="M197 41q0 -164 106 -188v372q-49 -10 -77 -58t-29 -126zM358 -344h-55v86q-117 8 -183 90t-67 207q0 125 67 206t183 93v92h55v-90q90 -4 156 -56t86 -143l-133 -20q-18 100 -109 108v-381q92 10 113 113l133 -18q-20 -91 -87 -143t-159 -58v-86z" />
    <glyph glyph-name="parenleft.denominator" horiz-adv-x="327" 
d="M45 290q0 265 150 486h124q-131 -217 -131 -489t131 -490h-124q-150 228 -150 493z" />
    <glyph glyph-name="parenright.denominator" horiz-adv-x="327" 
d="M281 289q0 -272 -150 -492h-125q131 217 131 489t-131 490h125q150 -215 150 -487z" />
    <glyph glyph-name="plus.denominator" horiz-adv-x="712" 
d="M422 0h-129v229h-236v123h236v232h129v-232h233v-123h-233v-229z" />
    <glyph glyph-name="minus.denominator" horiz-adv-x="698" 
d="M59 352h582v-123h-582v123z" />
    <glyph glyph-name="equal.denominator" horiz-adv-x="708" 
d="M629 115h-549v123h549v-123zM629 342h-549v123h549v-123z" />
    <glyph glyph-name="comma.denominator" horiz-adv-x="329" 
d="M86 -6v153h158v-165l-84 -160h-82l76 172h-68z" />
    <glyph glyph-name="period.denominator" horiz-adv-x="307" 
d="M229 0h-153v147h153v-147z" />
    <glyph glyph-name="hyphen.denominator" horiz-adv-x="446" 
d="M401 229h-356v123h356v-123z" />
    <glyph glyph-name="dollar.denominator" horiz-adv-x="710" 
d="M205 582q0 -84 110 -109l7 -2v211q-47 -4 -82 -30t-35 -70zM518 209q0 49 -33 76t-102 45v-236q135 9 135 115zM322 881h61v-93q117 -10 187 -80t67 -176h-135q0 66 -34 103t-85 45v-225q99 -20 160 -58q61 -39 84 -81t22 -97q0 -105 -77 -165t-189 -66v-92h-61v92
q-119 10 -192 83t-71 185h138q0 -143 125 -162v250l-37 8q-211 51 -211 221q0 98 72 154q73 55 176 61v93z" />
    <glyph glyph-name="Euro.denominator" horiz-adv-x="845" 
d="M476 94q161 0 190 160h127q-19 -127 -105 -198q-86 -70 -215 -70t-214 74t-114 208h-135l56 84h69v76h-125l56 84h81q27 131 115 205t215 74t211 -72t100 -197l-126 -2q-29 162 -187 162t-199 -170h295l-55 -84h-252v-76h215l-55 -84h-148q39 -174 200 -174z" />
    <glyph glyph-name="cent.denominator" horiz-adv-x="651" 
d="M197 287q0 -164 106 -191v375q-49 -10 -77 -58t-29 -126zM358 -98h-55v86q-117 8 -183 90t-67 207q0 125 67 205t183 94v92h55v-90q90 -4 156 -56t86 -143l-133 -20q-18 100 -109 108v-381q92 8 113 113l133 -19q-20 -92 -87 -143t-159 -57v-86z" />
    <glyph glyph-name="parenleft.numerator" horiz-adv-x="327" 
d="M45 873q0 265 150 487h124q-131 -218 -131 -490t131 -489h-124q-150 227 -150 492z" />
    <glyph glyph-name="parenright.numerator" horiz-adv-x="327" 
d="M281 872q0 -272 -150 -491h-125q131 217 131 489t-131 490h125q150 -216 150 -488z" />
    <glyph glyph-name="plus.numerator" horiz-adv-x="712" 
d="M422 584h-129v229h-236v123h236v231h129v-231h233v-123h-233v-229z" />
    <glyph glyph-name="minus.numerator" horiz-adv-x="698" 
d="M59 936h582v-123h-582v123z" />
    <glyph glyph-name="equal.numerator" horiz-adv-x="708" 
d="M629 698h-549v123h549v-123zM629 926h-549v123h549v-123z" />
    <glyph glyph-name="comma.numerator" horiz-adv-x="329" 
d="M86 578v153h158v-166l-84 -159h-82l76 172h-68z" />
    <glyph glyph-name="period.numerator" horiz-adv-x="307" 
d="M229 584h-153v147h153v-147z" />
    <glyph glyph-name="hyphen.numerator" horiz-adv-x="446" 
d="M401 813h-356v123h356v-123z" />
    <glyph glyph-name="dollar.numerator" horiz-adv-x="710" 
d="M205 1165q0 -84 110 -108l7 -2v211q-47 -4 -82 -30t-35 -71zM518 793q0 49 -33 75t-102 45v-235q135 9 135 115zM383 479h-61v92q-119 10 -192 83t-71 186h138q0 -143 125 -162v250l-37 8q-211 51 -211 221q0 98 72 154q73 55 176 61v92h61v-92q117 -10 187 -80t67 -176
h-135q0 66 -34 103t-85 45v-226q269 -54 266 -235q0 -103 -77 -165t-189 -69v-90z" />
    <glyph glyph-name="Euro.numerator" horiz-adv-x="845" 
d="M476 678q161 0 190 160h127q-19 -127 -105 -198t-215 -71t-214 74t-114 209h-135l56 84h69v76h-125l56 84h81q27 130 115 204t215 74t211 -72t100 -196l-126 -2q-29 162 -187 162t-199 -170h295l-55 -84h-252v-76h215l-55 -84h-148q39 -174 200 -174z" />
    <glyph glyph-name="cent.numerator" horiz-adv-x="651" 
d="M197 870q0 -164 106 -190v375q-49 -11 -77 -59t-29 -126zM358 485h-55v84q-117 11 -183 93t-67 206q0 124 67 206q67 81 183 93v93h55v-91q90 -4 156 -55t86 -143l-133 -21q-18 100 -109 109v-381q92 8 113 113l133 -19q-20 -92 -87 -144t-159 -59v-84z" />
    <glyph glyph-name="Gtilde" horiz-adv-x="1466" 
d="M846 1556q78 0 90 86h135q-19 -110 -79 -162q-118 -101 -284 -7q-81 45 -116 45q-76 0 -86 -84h-135q18 106 76 159q115 105 282 9q78 -46 117 -46zM737 1384q215 0 370 -112t202 -303l-189 -27q-37 123 -136 199t-255 76q-190 1 -312 -139t-122 -394t119 -397t315 -144
q155 0 271 71q135 83 135 286v32h-365v173h549v-705h-154l-8 174q-127 -199 -428 -199t-467 194t-166 513q0 318 175 510t466 192z" />
    <glyph glyph-name="gtilde" horiz-adv-x="1116" 
d="M682 1260q78 0 90 86h135q-19 -111 -79 -163q-118 -102 -284 -7q-81 45 -116 45q-76 0 -86 -84h-135q19 106 77 159q58 54 130 54t151 -45q78 -45 117 -45zM529 868q-131 0 -203 -90t-72 -259t70 -260t202 -91q131 0 209 87t78 266t-76 263t-208 84zM500 16
q-199 0 -315 134q-115 134 -115 368q0 233 120 368q121 134 321 134t294 -148l4 132h170v-877q0 -151 -22 -229t-66 -129q-119 -135 -354 -136q-176 0 -287 79t-135 229l184 6q21 -78 75 -120t179 -42q125 -1 189 69t63 234v90q-106 -162 -305 -162z" />
    <glyph glyph-name="Mcircumflex" horiz-adv-x="1683" 
d="M926 1645l250 -215h-203l-129 106l-131 -106h-203l256 215h160zM358 0h-194v1360h325l353 -1131l352 1131h326v-1360h-195v1182l-381 -1182h-205l-381 1182v-1182z" />
    <glyph glyph-name="mcircumflex" horiz-adv-x="1710" 
d="M977 1360l246 -242h-183l-149 123l-152 -123h-182l252 242h168zM137 0v1004h174v-140q93 156 307 156t291 -174q115 174 353 174q150 0 238 -94t89 -310v-616h-174v567q0 185 -56 243t-166 58q-111 0 -177 -86t-66 -241v-541h-174v567q0 185 -56 243t-166 58t-176 -86
t-67 -241v-541h-174z" />
    <glyph glyph-name="Mmacron" horiz-adv-x="1683" 
d="M1128 1464h-571v144h571v-144zM358 0h-194v1360h325l353 -1131l352 1131h326v-1360h-195v1182l-381 -1182h-205l-381 1182v-1182z" />
    <glyph glyph-name="mmacron" horiz-adv-x="1710" 
d="M1167 1167h-571v144h571v-144zM137 0v1004h174v-140q93 156 307 156t291 -174q115 174 353 174q150 0 238 -94t89 -310v-616h-174v567q0 185 -56 243t-166 58q-111 0 -177 -86t-66 -241v-541h-174v567q0 185 -56 243t-166 58t-176 -86t-67 -241v-541h-174z" />
    <glyph glyph-name="Ncircumflex" horiz-adv-x="1437" 
d="M817 1645l250 -215h-203l-129 106l-131 -106h-203l256 215h160zM1274 0h-285l-631 1157v-1157h-194v1360h285l630 -1155v1155h195v-1360z" />
    <glyph glyph-name="ncircumflex" horiz-adv-x="1099" 
d="M653 1360l246 -242h-182l-150 123l-151 -123h-183l252 242h168zM311 1004v-140q101 156 315 156t298 -137q55 -90 55 -267v-616h-174v569q0 147 -37 213q-51 86 -182 86t-203 -86t-72 -247v-535h-174v1004h174z" />
    <glyph glyph-name="Ndieresis" horiz-adv-x="1437" 
d="M870 1632h174v-188h-174v188zM434 1632h174v-188h-174v188zM1274 0h-285l-631 1157v-1157h-194v1360h285l630 -1155v1155h195v-1360z" />
    <glyph glyph-name="ndieresis" horiz-adv-x="1099" 
d="M690 1329h174v-188h-174v188zM254 1141v188h174v-188h-174zM311 1004v-140q101 156 315 156t298 -137q55 -90 55 -267v-616h-174v569q0 147 -37 213q-51 86 -182 86t-203 -86t-72 -247v-535h-174v1004h174z" />
    <glyph glyph-name="Nmacron" horiz-adv-x="1437" 
d="M1010 1464h-572v144h572v-144zM1274 0h-285l-631 1157v-1157h-194v1360h285l630 -1155v1155h195v-1360z" />
    <glyph glyph-name="nmacron" horiz-adv-x="1099" 
d="M850 1167h-571v144h571v-144zM311 1004v-140q101 156 315 156t298 -137q55 -90 55 -267v-616h-174v569q0 147 -37 213q-51 86 -182 86t-203 -86t-72 -247v-535h-174v1004h174z" />
    <glyph glyph-name="Pmacron" horiz-adv-x="1179" 
d="M858 1464h-571v144h571v-144zM580 1188h-222v-512h222q161 0 261 46q99 46 99 210q0 163 -99 209q-98 47 -261 47zM164 1360h401q277 0 425 -94t148 -334t-148 -334t-425 -94h-207v-504h-194v1360z" />
    <glyph glyph-name="pmacron" horiz-adv-x="1124" 
d="M883 1167h-572v144h572v-144zM598 868q-131 0 -213 -94t-82 -279t80 -277t212 -91q132 0 204 96q71 95 71 273t-70 275q-71 97 -202 97zM311 -354h-174v1358h170l4 -146q106 162 326 162q184 0 301 -141t117 -382t-122 -381t-325 -140t-297 147v-477z" />
    <glyph glyph-name="zero.case" horiz-adv-x="1267" 
d="M297 684q0 -266 89 -404t248 -137q159 -1 249 137t90 404t-89 399t-250 133t-249 -132q-88 -134 -88 -400zM633 -25q-269 -1 -405 189t-136 520t136 515t406 185t405 -185q137 -185 137 -515t-138 -520t-405 -189z" />
    <glyph glyph-name="one.case" horiz-adv-x="714" 
d="M530 0h-194v1047h-313v137q163 4 241 38t129 140h137v-1362z" />
    <glyph glyph-name="two.case" horiz-adv-x="1126" 
d="M561 1384q213 0 335 -93t122 -271q0 -244 -292 -514q-103 -96 -183 -161t-219 -173h731v-172h-998v172q410 309 584 486t174 341q0 102 -65 160q-66 57 -183 57t-197 -70q-80 -71 -83 -224l-197 2q-4 208 127 334t344 126z" />
    <glyph glyph-name="three.case" horiz-adv-x="1132" 
d="M543 143q135 1 218 63t83 175q0 246 -387 246h-35v172h29q356 0 356 217q0 96 -73 148q-74 52 -194 52t-199 -69q-79 -70 -91 -184l-197 18q17 182 153 293q136 110 340 110t334 -87t130 -265q0 -102 -58 -184t-159 -125q254 -84 254 -338q-1 -197 -147 -303t-366 -106
t-348 120q-127 121 -143 299l195 21q16 -125 93 -199t212 -74z" />
    <glyph glyph-name="four.case" horiz-adv-x="1204" 
d="M1163 514v-172h-250v-342h-194v342h-686v168l686 850h194v-846h250zM719 514v580l-471 -580h471z" />
    <glyph glyph-name="five.case" horiz-adv-x="1165" 
d="M582 143q127 0 210 80q82 81 82 227t-88 223t-195 77t-177 -42t-97 -98l-188 8l90 742h805v-172h-647l-47 -365q111 95 298 95t319 -125t132 -345t-145 -346t-362 -127q-217 0 -343 122q-125 122 -145 296l192 19q46 -269 306 -269z" />
    <glyph glyph-name="six.case" horiz-adv-x="1183" 
d="M616 1217q-152 1 -236 -129t-91 -355q113 170 354 170q193 0 321 -128t128 -331q0 -204 -136 -336t-374 -132q-236 0 -363 172q-127 173 -127 482t121 524q61 108 170 169t252 61q195 0 303 -102t131 -248l-205 -2q-14 88 -81 136t-167 49zM311 436q0 -133 79 -213
t208 -80t210 80t81 212t-81 215t-209 83t-208 -82t-80 -215z" />
    <glyph glyph-name="seven.case" horiz-adv-x="989" 
d="M20 1188v172h969v-172q-271 -225 -413 -515t-166 -673h-228q41 713 598 1188h-760z" />
    <glyph glyph-name="eight.case" horiz-adv-x="1198" 
d="M870 1011q0 95 -74 150q-75 55 -198 55t-197 -54q-73 -56 -73 -151t74 -157q75 -61 196 -61t197 61q75 62 75 157zM903 390q0 112 -83 180t-221 67q-138 0 -221 -68q-83 -69 -83 -181t82 -178t221 -67q139 0 222 67q83 68 83 180zM598 1384q211 0 338 -98t127 -250
q0 -94 -45 -177t-139 -134q227 -102 227 -340q0 -190 -143 -300t-365 -110t-364 110t-142 300q0 238 227 340q-92 49 -138 133t-46 176q0 154 126 252t337 98z" />
    <glyph glyph-name="nine.case" horiz-adv-x="1173" 
d="M559 143q150 0 235 129t91 355q-113 -170 -350 -170q-197 0 -325 127t-128 330q0 202 135 336t354 134q258 0 384 -172t126 -485t-117 -521q-60 -108 -168 -169t-253 -62q-193 -1 -305 103t-132 248l203 2q14 -88 81 -136t169 -49zM864 925q0 132 -79 212t-209 80
t-210 -80t-81 -212q0 -132 81 -215q80 -83 208 -83t209 83t81 215z" />
    <glyph glyph-name="emdash.case" horiz-adv-x="1396" 
d="M1325 614h-1253v172h1253v-172z" />
    <glyph glyph-name="endash.case" horiz-adv-x="974" 
d="M903 614h-831v172h831v-172z" />
    <glyph glyph-name="guillemotleft.case" horiz-adv-x="956" 
d="M731 262l-303 436l303 435h184l-286 -435l286 -436h-184zM303 262l-303 436l303 435h186l-286 -435l286 -436h-186z" />
    <glyph glyph-name="guillemotright.case" horiz-adv-x="956" 
d="M528 698l-303 -436h-184l287 436l-287 435h184zM956 698l-303 -436h-186l287 436l-287 435h186z" />
    <glyph glyph-name="guilsinglleft.case" horiz-adv-x="530" 
d="M303 262l-303 436l303 435h186l-286 -435l286 -436h-186z" />
    <glyph glyph-name="guilsinglright.case" horiz-adv-x="530" 
d="M530 698l-303 -436h-186l287 436l-287 435h186z" />
    <glyph glyph-name="hyphen.case" horiz-adv-x="770" 
d="M688 614h-606v172h606v-172z" />
    <glyph glyph-name="braceleft.case" horiz-adv-x="512" 
d="M442 0q-168 0 -222 59t-54 224v131q0 100 -29 148t-117 48v140q88 0 117 48t29 148v131q0 164 54 223t222 60h90v-148h-65q-66 0 -86 -26t-21 -107v-137q0 -125 -38 -181t-121 -79v-4q82 -23 121 -79t38 -181v-137q0 -82 20 -108t87 -26h65v-147h-90z" />
    <glyph glyph-name="braceright.case" horiz-adv-x="512" 
d="M-20 0v147h65q68 0 87 26t20 108v137q0 125 38 181q39 56 121 79v4q-82 23 -121 79t-38 181v137q0 82 -20 108t-87 25h-65v148h90q168 0 222 -60t54 -223v-131q0 -100 29 -148t117 -48v-140q-88 0 -117 -48t-29 -148v-131q0 -163 -54 -223t-222 -60h-90z" />
    <glyph glyph-name="bracketleft.case" horiz-adv-x="581" 
d="M154 1360h428v-148h-240v-1065h240v-147h-428v1360z" />
    <glyph glyph-name="bracketright.case" horiz-adv-x="581" 
d="M0 1360h428v-1360h-428v147h240v1065h-240v148z" />
    <glyph glyph-name="parenleft.case" horiz-adv-x="466" 
d="M61 680q0 344 207 680h185q-193 -315 -193 -680t193 -680h-185q-207 336 -207 680z" />
    <glyph glyph-name="parenright.case" horiz-adv-x="466" 
d="M406 680q0 -344 -207 -680h-185q193 316 193 680t-193 680h185q207 -336 207 -680z" />
    <glyph glyph-name="periodcentered.case" horiz-adv-x="430" 
d="M102 592v219h220v-219h-220z" />
    <glyph glyph-name="bullet.case" horiz-adv-x="849" 
d="M82 694q0 142 98 242t242 100t244 -98q102 -98 102 -242t-100 -245t-244 -101t-244 100q-98 100 -98 244z" />
    <glyph glyph-name="less.case" horiz-adv-x="1130" 
d="M72 768l977 432v-186l-760 -320l760 -313v-184l-977 424v147z" />
    <glyph glyph-name="greater.case" horiz-adv-x="1130" 
d="M1059 768v-147l-977 -424v184l760 313l-760 320v186z" />
    <glyph glyph-name="plus.case" horiz-adv-x="1177" 
d="M676 184h-174v430h-430v164h430v418h174v-418h430v-164h-430v-430z" />
    <glyph glyph-name="equal.case" horiz-adv-x="1118" 
d="M1036 432h-954v164h954v-164zM1036 817h-954v164h954v-164z" />
    <glyph glyph-name="notequal.case" horiz-adv-x="1159" 
d="M102 432v164h324l119 221h-443v164h531l155 287l142 -70l-119 -217h246v-164h-334l-119 -221h453v-164h-541l-170 -317l-141 69l133 248h-236z" />
    <glyph glyph-name="lessequal.case" horiz-adv-x="1157" 
d="M82 184v164h993v-164h-993zM326 805l739 -232v-184l-977 342v148l977 350v-187z" />
    <glyph glyph-name="greaterequal.case" horiz-adv-x="1157" 
d="M1075 184h-993v164h993v-164zM831 805l-739 237v187l977 -350v-148l-977 -342v184z" />
    <glyph glyph-name="divide.case" horiz-adv-x="1136" 
d="M72 594v164h993v-164h-993zM463 907v219h219v-219h-219zM463 246v219h219v-219h-219z" />
    </font>
</defs>
</svg>
