<svg id="Ebene_4" data-name="Ebene 4" xmlns="http://www.w3.org/2000/svg" viewBox="0 0 336.68 392.49"><defs><style>.cls-1{fill:none;}</style></defs><title>icon_messe_specifiaction_4</title><path class="cls-1" d="M501.25,134.66V326.44h14A10.71,10.71,0,0,0,526,315.72V83.32a10.71,10.71,0,0,0-10.71-10.71H279.11A10.71,10.71,0,0,0,268.4,83.32v22.62H472.53A28.74,28.74,0,0,1,501.25,134.66Z" transform="translate(-238.66 -72.61)"/><path class="cls-1" d="M318.33,377.77h154.2a10.71,10.71,0,0,0,10.71-10.71V344.44H318.33Z" transform="translate(-238.66 -72.61)"/><path d="M546.63,123.94H310.45a28.74,28.74,0,0,0-28.71,28.71v22.62h-14A28.74,28.74,0,0,0,239,204V362.74c-.14,5.88-1.36,11.89,2.16,15.4L325.33,462a9.55,9.55,0,0,0,6.35,3.11h172.2a28.74,28.74,0,0,0,28.71-28.71V413.77h14a28.74,28.74,0,0,0,28.71-28.71V152.66A28.74,28.74,0,0,0,546.63,123.94ZM261.11,372.77H321a10.71,10.71,0,0,1,10.71,10.71v59.44Zm253.48,23v40.62a10.71,10.71,0,0,1-10.71,10.71H349.67V383.48A28.74,28.74,0,0,0,321,354.77H257V204a10.71,10.71,0,0,1,10.71-10.71H503.87A10.71,10.71,0,0,1,514.58,204Zm42.75-10.71a10.71,10.71,0,0,1-10.71,10.71h-14V204a28.74,28.74,0,0,0-28.71-28.71H299.74V152.66a10.71,10.71,0,0,1,10.71-10.71H546.63a10.71,10.71,0,0,1,10.71,10.71Z" transform="translate(-238.66 -72.61)"/></svg>