<svg id="Ebene_3" data-name="Ebene 3" xmlns="http://www.w3.org/2000/svg" viewBox="0 0 338.51 313.84"><title>icon_messe_specifiaction_3</title><path d="M513.58,390.2c0,1.27,0,2.17,0,3.07,0,10,0,20,0,30,0,6.26-3.15,9.42-9.38,9.42q-110.74,0-221.49,0c-6.08,0-9.24-3.19-9.27-9.27,0-10.08,0-20.17,0-30.25,0-.9,0-1.79,0-3h-3.2c-12.08,0-24.17,0-36.25,0-4.88,0-8-1.82-9.12-5.49a16.8,16.8,0,0,1-.58-4.92q0-55.12,0-110.24a27.88,27.88,0,0,1,.19-3.49,7.71,7.71,0,0,1,6.87-6.85,26.07,26.07,0,0,1,3.24-.16h318c7.27,0,10.2,2.87,10.2,10.09q0,55.37,0,110.74c0,7.35-3,10.32-10.32,10.32q-17.87,0-35.75,0Zm32.83-16.28V275.34H240.59v98.58ZM289.62,416.33H497.31v-26H289.62Z" transform="translate(-224.25 -118.86)"/><path d="M479.41,135.17H307.58v3.06q0,44.37,0,88.74a34.46,34.46,0,0,1-.1,3.5,8,8,0,0,1-16-.39c0-.58,0-1.17,0-1.75q0-50,0-100c0-6.35,3.11-9.47,9.52-9.47H485.75c6.74,0,9.75,3,9.75,9.77q0,50.12,0,100.24c0,6.19-4.78,10.08-10.33,8.42a7.61,7.61,0,0,1-5.63-6.63,23.68,23.68,0,0,1-.12-3.49q0-44.37,0-88.74Z" transform="translate(-224.25 -118.86)"/><path d="M393.47,212.2q26.73,0,53.45,0c3.62,0,6.28,1.52,7.74,4.82a7.6,7.6,0,0,1-1.44,8.58c-1.83,2.08-4.29,2.7-7,2.69q-14.61,0-29.22,0H341.08c-5,0-8.14-2.14-9.15-6.09a7.86,7.86,0,0,1,7.33-9.95c3.49-.13,7,0,10.49,0Z" transform="translate(-224.25 -118.86)"/><path d="M393.44,165.7q26.73,0,53.45,0c3.62,0,6.29,1.5,7.76,4.8a7.6,7.6,0,0,1-1.41,8.59c-1.82,2.09-4.28,2.72-7,2.71-9.07,0-18.15,0-27.22,0H341.11c-4.86,0-8-2.06-9.11-5.82a7.89,7.89,0,0,1,7.74-10.24c8.32-.08,16.65,0,25,0Z" transform="translate(-224.25 -118.86)"/><path d="M498.63,315.28c-3.58,0-7.17.05-10.75,0-4.93-.09-8.39-3.43-8.41-8s3.43-8,8.34-8q11-.09,22,0a8,8,0,1,1,.07,16C506.13,315.35,502.38,315.28,498.63,315.28Z" transform="translate(-224.25 -118.86)"/></svg>