<svg id="Ebene_1" data-name="Ebene 1" xmlns="http://www.w3.org/2000/svg" viewBox="0 0 328 328"><title>icon_messe_specifiaction_1</title><path d="M449.47,209.72c0-1.19,0-2.27-.07-3.37a25.73,25.73,0,0,0-22.13-23.81c-2.43-.3-4.8-.37-7.32-.44l-1.45,0c.3-7.74-.65-16.28-7.53-23.24s-15.7-8.07-23.58-7.73v-4c0-15.88-11.12-27-27-27H148.65c-16.25,0-27.18,11-27.18,27.26V359.2c0,.56,0,1.13,0,1.69a25.52,25.52,0,0,0,22.31,24.75,71.45,71.45,0,0,0,7.19.43l1.46,0c0,.55,0,1.12,0,1.69.06.85.09,1.71.12,2.57a36.33,36.33,0,0,0,.71,6.92A25.43,25.43,0,0,0,177.25,417c1.93.09,3.82.06,5.65,0h.45c0,.79.08,1.58.11,2.35a50.31,50.31,0,0,0,.88,8.72c2.67,12.15,12.91,20,26.08,20H421.9c16.75,0,27.57-10.85,27.57-27.64ZM167.84,387q0-.47,0-1H360.25c16,0,27.13-11.15,27.13-27.1V166.24l1.45.05a35.43,35.43,0,0,1,6.87.67c6.52,1.56,7.5,7.8,7.51,11.38q0,21.18,0,42.36v38.06q0,65,0,130.07a23.39,23.39,0,0,1-.39,5,10.26,10.26,0,0,1-9,7.82,33.3,33.3,0,0,1-3.53.16q-104.87,0-209.74,0a21,21,0,0,1-5-.45,10,10,0,0,1-7.62-8.92A50.26,50.26,0,0,1,167.84,387Zm266.37,33.32c0,8.56-4,12.55-12.57,12.55H210.44c-6.12,0-10.56-3.27-11.33-8.32a33.54,33.54,0,0,1-.14-6.14c0-.43,0-.86,0-1.29h45.91q72.89,0,145.78,0h0c9.34,0,16.48-3.13,21.82-9.56a25.58,25.58,0,0,0,5.81-14.86c.1-1.35.1-2.69.1-4v-.15q0-85.26,0-170.52V197.55l1,0a54.25,54.25,0,0,1,5.81.08c4.65.41,8.56,4.73,8.89,9.85,0,.52,0,1.06,0,1.64V420.29ZM372,225q0,14.09,0,28.19v106c0,7.43-4.07,11.53-11.47,11.53H148.37c-7.51,0-11.64-4.14-11.64-11.65q0-106,0-212c0-7.44,4.25-11.71,11.65-11.71h51.91c52.46,0,106.71,0,160.06-.08h0a11.43,11.43,0,0,1,11.79,11.9C372,173.1,372,199.47,372,225Z" transform="translate(-121.47 -120.09)"/><path d="M249.81,262a25.71,25.71,0,0,1,1.37-7.42c2.78-6.73,8.16-10,16.91-10.41a31,31,0,0,0,29.71-30.29c.14-8.47,5.82-17.66,18-17.81,14.29-.18,27.06-11.09,29.71-25.38q1.4-7.56,2.76-15.14a7.53,7.53,0,0,0-5-8.33A7.25,7.25,0,0,0,334,151a34.55,34.55,0,0,0-2.45,7.52,46.43,46.43,0,0,0-.6,5.05c-.12,1.44-.23,2.81-.45,4.15-1.3,7.69-7.91,13-16.45,13.3a31.36,31.36,0,0,0-25.56,13.52c-3.6,5-5.45,10.82-5.82,18.43-.46,9.4-7,15.89-16.36,16.15-18,.49-31,13.49-31.76,31.6-.39,9.73-6.71,16-16.51,16.48-18.32.82-31,13.69-31.59,32a16.24,16.24,0,0,1-5.92,12.3c-3.5,3-7.72,3.82-13,4a27.66,27.66,0,0,0-13.23,4.05,7.45,7.45,0,0,0-3.23,8.85c1,3.23,3.95,5.15,7.77,5.15h.39l.3-.1.43-.15a17.44,17.44,0,0,1,1.67-.53l1.15-.28c2.75-.67,5.59-1.37,8.38-1.95.87-.18,1.77-.28,2.72-.38a32.11,32.11,0,0,0,3.21-.46c11.48-2.44,24.09-13.15,24.63-30.89.29-9.5,6.71-15.91,16.35-16.34C236.09,291.7,248.24,280,249.81,262Z" transform="translate(-121.47 -120.09)"/><path d="M314.88,276.87c11.64-5.32,18.06-15,18.56-28.13.24-6.22,2.65-10.86,7.37-14.18,2.41-1.7,5.37-2.59,9.59-2.91a7.46,7.46,0,0,0,7.13-7.55c0-4.28-3.29-7.44-7.78-7.52-16.37-.3-30.73,13.53-31.37,30.15-.44,11.42-6.41,17.47-17.74,18a31,31,0,0,0-17.37,6c-8.55,6.3-13,15.31-13.24,26.78a14.74,14.74,0,0,1-3.66,9.27c-3.21,3.91-7.52,5.8-14,6.13-14.89.77-26.51,10.59-29.61,25a47.59,47.59,0,0,0-.78,6.33c-.09,1.21-.18,2.36-.33,3.5-.56,4.51,1.93,8.19,6.06,9a8.36,8.36,0,0,0,1.52.14,7.3,7.3,0,0,0,4.2-1.28,8.06,8.06,0,0,0,3.22-5.35,59.71,59.71,0,0,0,.63-6.1l.07-1a16.33,16.33,0,0,1,15.49-15,44.79,44.79,0,0,0,7.78-.89c14.43-3.38,24.15-15.32,24.75-30.42.39-9.69,6.25-15.84,16.08-16.87C306,279.4,310.7,278.78,314.88,276.87Z" transform="translate(-121.47 -120.09)"/><path d="M153.86,289.79a8.07,8.07,0,0,0,2.84.52,7.52,7.52,0,0,0,3.31-.75,7.24,7.24,0,0,0,3.74-4.43A56.38,56.38,0,0,0,166,274.3c.36-3.54.9-7.25,3.11-10.33,3.29-4.6,7.91-6.88,14.56-7.17,16.66-.75,29.22-13,30.54-29.77,0-.52.07-1.05.1-1.58a22.54,22.54,0,0,1,.42-3.82c1.87-8,8-12.57,17.17-13a31.41,31.41,0,0,0,30.46-30.46c.28-8.41,3.87-13.75,11.29-16.78a7.26,7.26,0,0,0,4.84-6.24v-.08c0-4.37-2.26-7.51-5.76-8a11.9,11.9,0,0,0-6.35.93c-12.07,5.55-18.65,15.18-19,27.85-.35,12.05-9.33,17.66-17.51,17.76a31.1,31.1,0,0,0-30.41,27.29c-.15,1.13-.25,2.26-.34,3.36a30.93,30.93,0,0,1-.83,5.74c-2,7.11-8,11.35-16.45,11.64a31.62,31.62,0,0,0-30.42,26.7c-.23,1.39-.43,2.79-.64,4.19-.37,2.55-.76,5.2-1.31,7.72C148.48,284.61,150.27,288.43,153.86,289.79Z" transform="translate(-121.47 -120.09)"/><path d="M158.08,218.46a9.19,9.19,0,0,0,4.6-1.32,30.77,30.77,0,0,0,15.19-20.59,43.73,43.73,0,0,0,.78-6.18c.05-.66.1-1.33.17-2,.83-8.77,7.44-15,16.08-15.19,11.21-.23,20.09-4.91,26.41-13.89a12.44,12.44,0,0,0,1.37-2.75c.06-.17.12-.31.16-.41l.18-.39v-.43c0-4-1.77-6.94-5-8.1a7.32,7.32,0,0,0-8.87,3c-3.52,5.12-8.43,7.63-15.45,7.87A31.45,31.45,0,0,0,163.5,188.8c-.17,6.89-3,11.9-8.62,15.3a8.43,8.43,0,0,0-4,5.17,7.42,7.42,0,0,0,1,5.68A7.18,7.18,0,0,0,158.08,218.46Z" transform="translate(-121.47 -120.09)"/><path d="M357.81,294a7.18,7.18,0,0,0-8.51,1.21,18.59,18.59,0,0,1-12.72,5A31.49,31.49,0,0,0,305.79,331a17.71,17.71,0,0,1-4.64,12.34,8.52,8.52,0,0,0-2.44,6.11,7.39,7.39,0,0,0,2.53,5.13,7.31,7.31,0,0,0,4.92,2,8.6,8.6,0,0,0,6.25-3A31.86,31.86,0,0,0,321,332.29c.31-9.8,6.76-16.38,16.45-16.77,8.76-.36,15.78-3.16,21.47-8.57a14.27,14.27,0,0,0,2.4-3.28c.16-.28.3-.53.43-.72l.37-.54,0-.66C362,299.3,361.42,295.82,357.81,294Z" transform="translate(-121.47 -120.09)"/></svg>