<svg id="Ebene_2" data-name="Ebene 2" xmlns="http://www.w3.org/2000/svg" viewBox="0 0 321.68 307.64"><title>icon_messe_specifiaction_2</title><path d="M498.26,463.85c-5.53.26-10.89-2.92-16.34-5.76Q450.93,442,420,425.76c-2.19-1.15-4-.85-6.09.26-21.71,11.62-43.32,23.44-65.23,34.66-17,8.7-35.12-.3-39.42-16.21-1.52-5.61-.42-11.08.41-16.58q4.62-30.86,9.29-61.71c.41-2.72.68-5.46,1.24-8.14.47-2.24-.28-3.75-1.86-5.29-18.37-17.91-36.78-35.78-55-53.85-10.27-10.19-10.67-25.24-1.31-36.13a25.06,25.06,0,0,1,16.23-8.46q38.47-5.28,76.93-10.57a5,5,0,0,0,4.09-3.19q13.52-27.55,27.09-55.08c2.42-4.93,4.72-9.92,7.27-14.78,4.73-9,12.3-14,22.45-14.24,10.36-.26,18.37,4.4,23.35,13.52,5.05,9.27,9.7,18.77,14.52,28.17q10.8,21.1,21.56,42.23a5.11,5.11,0,0,0,4.26,2.94c24.56,3.48,49.12,6.94,73.66,10.53,10.76,1.58,18.53,7.25,22.05,17.78s.84,19.54-6.82,27.23q-27,27.09-54.12,54.05a6.47,6.47,0,0,0-2,6.44q6.43,37.27,12.64,74.57C527.76,449.38,514.87,464.1,498.26,463.85ZM328,436.7c-.17,6.57,5,9.88,10.33,7.08,22.12-11.74,44.27-23.42,66.3-35.32,8.36-4.52,16.31-4.46,24.69,0,21.69,11.47,43.52,22.69,65.28,34,2.92,1.52,5.83,2.25,8.69.17s3-5.1,2.4-8.34c-4.08-23.87-8-47.76-12.2-71.61-1.68-9.59.93-17.37,7.88-24.2,18-17.71,35.74-35.67,53.62-53.5,2.2-2.2,3.17-4.66,2.21-7.69s-3.21-4.57-6.25-5c-23.4-3.35-46.77-6.94-70.22-9.91-11.27-1.43-19.36-6.35-23.89-16.93-1.5-3.51-3.43-6.84-5.16-10.25-9.42-18.64-18.8-37.29-28.33-55.87a8,8,0,0,0-3.79-3.57c-3.76-1.49-6.61-.12-8.57,3.77-4.55,9.07-9,18.18-13.54,27.27-7.34,14.74-14.61,29.52-22.09,44.2A20.12,20.12,0,0,1,360,262.16c-9.78,1.54-19.62,2.76-29.43,4.12q-24.86,3.46-49.71,6.9a6.43,6.43,0,0,0-5.62,4.64,6.69,6.69,0,0,0,1.58,7.37q3.35,3.36,6.74,6.69c16.49,16.26,33,32.47,49.45,48.8a20.68,20.68,0,0,1,6.29,18c-2.56,18.64-5.38,37.23-8.09,55.85C330.08,422.11,329,429.69,328,436.7Z" transform="translate(-255.3 -156.43)"/></svg>