<?xml version="1.0" standalone="no"?>
<!DOCTYPE svg PUBLIC "-//W3C//DTD SVG 20010904//EN"
 "http://www.w3.org/TR/2001/REC-SVG-20010904/DTD/svg10.dtd">
<svg version="1.0" xmlns="http://www.w3.org/2000/svg"
 width="1000.000000pt" height="1000.000000pt" viewBox="0 0 1000.000000 1000.000000"
 preserveAspectRatio="xMidYMid meet">
<metadata>
Created by potrace 1.11, written by Peter Selinger 2001-2013
</metadata>
<g transform="translate(0.000000,1000.000000) scale(0.100000,-0.100000)"
fill="#000000" stroke="none">
<path d="M1469 9996 c-2 -2 -33 -6 -69 -10 -67 -6 -197 -35 -285 -62 -378
-118 -704 -383 -905 -733 -86 -152 -142 -303 -182 -496 l-23 -110 0 -3570 c0
-1963 3 -3594 7 -3623 17 -119 67 -306 105 -391 107 -244 194 -373 366 -543
127 -125 271 -226 430 -302 158 -75 284 -112 487 -144 61 -10 7118 -9 7200 1
449 52 889 326 1136 708 120 185 209 412 240 609 3 19 9 60 14 90 10 62 8
7163 -1 7195 -4 11 -10 40 -14 65 -27 171 -122 421 -216 565 -214 330 -507
559 -862 676 -113 36 -170 49 -322 68 -65 9 -7097 16 -7106 7z"/>
</g>
</svg>
